%
M48
M72
T01C0.0079
T02C0.0118
T03C0.0157
T04C0.0197
T05C0.0236
T06C0.0315
%
T01
X14108Y15705
X14797Y15213
X8695Y18146
X12139Y15410
X15191Y13244
X14561Y11807
X17848Y8717
X18143Y9012
X15781Y13441
X15073Y17556
X16293Y11847
X14954Y15744
X17082Y13103
T02
X17362Y4467
X17362Y4959
X17362Y5451
X17362Y5943
X17362Y6435
X17356Y7004
X16844Y7004
X16844Y7437
X14206Y7044
X8891Y7044
X12317Y17280
X15427Y13894
X11451Y12949
X11254Y9701
X13143Y18107
X10368Y9209
X10860Y7044
X10368Y7044
X9876Y7044
X9384Y7044
X9384Y7536
X8891Y7536
X9876Y7536
X10368Y7536
X10860Y7536
X13714Y10390
X13714Y10784
X13321Y10784
X13321Y10390
X12927Y10390
X12927Y10784
X12927Y11178
X13321Y11178
X13714Y11178
X14775Y9262
X15250Y7044
X14724Y7026
X15584Y10292
X15486Y9406
X16667Y11178
X17854Y6435
X17854Y5943
X17854Y5451
X17854Y4959
X17874Y4467
X15742Y7437
X15742Y7044
X16260Y7026
X16254Y7437
X17356Y7437
X16175Y9406
X17494Y12595
T03
X14108Y12359
X12730Y14524
X15092Y10498
X18931Y4780
X8793Y12575
X16931Y14268
T04
X10663Y16532
X8852Y13973
X11136Y15823
X10506Y15941
X8852Y16847
X8852Y15902
X8852Y14957
X8852Y14485
X8852Y16374
X8852Y15430
X12238Y13185
X15899Y18107
X15427Y18107
X11057Y16926
X10112Y10115
X15112Y11611
X18852Y7201
X15151Y8067
X15466Y8461
X15151Y7634
X17356Y8422
X18852Y7674
X18852Y8146
X19128Y17241
X17514Y18107
X19088Y17752
X18813Y18067
X18340Y18107
X17907Y18107
X8852Y13500
T05
X18840Y9369
X18840Y9369
X17256Y9359
X17256Y9359
X17256Y11681
X17256Y11681
X18840Y11681
X18840Y11681
T06
X14639Y6335
M30
