%
M48
M72
T01C0.0118
T02C0.0157
T03C0.0197
T04C0.0236
T05C0.0315
T06C0.0320
T07C0.0394
T08C0.0400
%
T01
X4590Y14727
X8133Y11578
X7444Y13940
X8527Y9412
X10987Y10692
X5278Y6755
X2129Y1440
X7739Y6066
X13054Y5771
X19452Y2818
X11479Y10200
X12365Y8527
X12426Y7204
X12428Y7200
X12956Y6755
X12956Y6755
X18369Y1341
X16794Y5672
X16794Y5672
X16877Y7828
X17188Y6460
X16465Y6786
X18861Y12267
X18861Y13152
X18861Y14038
X18861Y15416
X20338Y2424
T02
X8527Y7050
T03
X4048Y4688
X13103Y4836
X7733Y8221
X14038Y8084
X17778Y2572
X14973Y14580
T04
X1097Y1386
X1097Y1386
X3410Y2970
X2849Y2429
X6952Y9609
X8428Y13349
X4885Y7936
X4885Y7936
X15121Y8527
X3410Y1386
X3410Y1386
X3410Y2970
X14629Y1243
X11676Y6952
X16007Y11676
X10101Y13940
X10298Y12956
X1145Y7444
X1668Y2429
X1087Y2970
X1087Y2970
T05
X19944Y15534
T06
X2743Y7357
X2849Y6341
X3621Y8901
X4137Y7160
X9097Y11932
X9353Y7904
X16841Y2259
X10817Y7251
X10294Y14964
X11810Y14964
X16841Y3515
X18566Y3310
X13129Y14964
X20633Y4590
X20338Y3408
T07
X4786Y5869
T08
X1365Y10574
X1365Y12818
X2152Y11710
X1956Y9747
X2349Y13940
X1365Y14865
X4452Y15578
X7714Y15210
X4849Y2251
X6062Y1464
X8487Y1464
X7275Y2054
X12125Y2054
X13247Y1267
X3086Y15440
X1267Y8536
X17046Y11424
X11149Y1342
X10093Y2054
M30
