%
M48
M72
T01C0.0118
T02C0.0138
T03C0.0157
T04C0.0236
T05C0.0315
T06C0.0320
%
T01
X14206Y7044
X10368Y9209
X12828Y13737
X11254Y9701
X13321Y10784
X12927Y11178
X15486Y9406
X11451Y12949
X12927Y10390
X13714Y10390
X13714Y11178
X14724Y7026
X13714Y7044
X15019Y6042
X15019Y6534
X15512Y6534
X15512Y6042
X15512Y5550
X15019Y5550
X15019Y5057
X15019Y4565
X15512Y4565
X15512Y5057
X10860Y7044
X10368Y7044
X9876Y7044
X9384Y7044
X8891Y7044
X8891Y7536
X9384Y7536
X9876Y7536
X10368Y7536
X10860Y7536
T02
X16175Y9406
T03
X8793Y9800
X10073Y15213
X8793Y13441
X8793Y15607
X15092Y10498
X15584Y10390
X16273Y12457
X12730Y14524
X14108Y12359
X16537Y13579
X18537Y12949
X9580Y8422
X18636Y6355
T04
X16908Y9349
X16908Y9349
X16908Y11672
X17450Y9929
X16908Y11672
X17450Y11111
X18493Y9359
X18493Y9359
X18493Y11672
X18493Y11672
T05
X14128Y6256
T06
X11486Y16494
X12533Y16493
X10478Y16510
X15584Y7437
X16569Y7437
X15781Y16689
M30
