G75*
%MOIN*%
%OFA0B0*%
%FSLAX24Y24*%
%IPPOS*%
%LPD*%
%AMOC8*
5,1,8,0,0,1.08239X$1,22.5*
%
%ADD10C,0.0000*%
%ADD11C,0.0060*%
%ADD12C,0.0020*%
%ADD13C,0.0030*%
%ADD14C,0.0059*%
%ADD15C,0.0039*%
%ADD16C,0.0080*%
%ADD17C,0.0020*%
%ADD18C,0.0040*%
D10*
X008399Y003894D02*
X008397Y018437D01*
X019395Y018433D01*
X019407Y003894D01*
X008399Y003894D01*
X009029Y004189D02*
X015014Y004189D01*
X015014Y006591D01*
X009029Y006591D01*
X009029Y004189D01*
X017138Y009359D02*
X017140Y009380D01*
X017146Y009400D01*
X017155Y009420D01*
X017167Y009437D01*
X017182Y009451D01*
X017200Y009463D01*
X017220Y009471D01*
X017240Y009476D01*
X017261Y009477D01*
X017282Y009474D01*
X017302Y009468D01*
X017321Y009457D01*
X017338Y009444D01*
X017351Y009428D01*
X017362Y009410D01*
X017370Y009390D01*
X017374Y009370D01*
X017374Y009348D01*
X017370Y009328D01*
X017362Y009308D01*
X017351Y009290D01*
X017338Y009274D01*
X017321Y009261D01*
X017302Y009250D01*
X017282Y009244D01*
X017261Y009241D01*
X017240Y009242D01*
X017220Y009247D01*
X017200Y009255D01*
X017182Y009267D01*
X017167Y009281D01*
X017155Y009298D01*
X017146Y009318D01*
X017140Y009338D01*
X017138Y009359D01*
X018722Y009369D02*
X018724Y009390D01*
X018730Y009410D01*
X018739Y009430D01*
X018751Y009447D01*
X018766Y009461D01*
X018784Y009473D01*
X018804Y009481D01*
X018824Y009486D01*
X018845Y009487D01*
X018866Y009484D01*
X018886Y009478D01*
X018905Y009467D01*
X018922Y009454D01*
X018935Y009438D01*
X018946Y009420D01*
X018954Y009400D01*
X018958Y009380D01*
X018958Y009358D01*
X018954Y009338D01*
X018946Y009318D01*
X018935Y009300D01*
X018922Y009284D01*
X018905Y009271D01*
X018886Y009260D01*
X018866Y009254D01*
X018845Y009251D01*
X018824Y009252D01*
X018804Y009257D01*
X018784Y009265D01*
X018766Y009277D01*
X018751Y009291D01*
X018739Y009308D01*
X018730Y009328D01*
X018724Y009348D01*
X018722Y009369D01*
X018722Y011681D02*
X018724Y011702D01*
X018730Y011722D01*
X018739Y011742D01*
X018751Y011759D01*
X018766Y011773D01*
X018784Y011785D01*
X018804Y011793D01*
X018824Y011798D01*
X018845Y011799D01*
X018866Y011796D01*
X018886Y011790D01*
X018905Y011779D01*
X018922Y011766D01*
X018935Y011750D01*
X018946Y011732D01*
X018954Y011712D01*
X018958Y011692D01*
X018958Y011670D01*
X018954Y011650D01*
X018946Y011630D01*
X018935Y011612D01*
X018922Y011596D01*
X018905Y011583D01*
X018886Y011572D01*
X018866Y011566D01*
X018845Y011563D01*
X018824Y011564D01*
X018804Y011569D01*
X018784Y011577D01*
X018766Y011589D01*
X018751Y011603D01*
X018739Y011620D01*
X018730Y011640D01*
X018724Y011660D01*
X018722Y011681D01*
X017138Y011681D02*
X017140Y011702D01*
X017146Y011722D01*
X017155Y011742D01*
X017167Y011759D01*
X017182Y011773D01*
X017200Y011785D01*
X017220Y011793D01*
X017240Y011798D01*
X017261Y011799D01*
X017282Y011796D01*
X017302Y011790D01*
X017321Y011779D01*
X017338Y011766D01*
X017351Y011750D01*
X017362Y011732D01*
X017370Y011712D01*
X017374Y011692D01*
X017374Y011670D01*
X017370Y011650D01*
X017362Y011630D01*
X017351Y011612D01*
X017338Y011596D01*
X017321Y011583D01*
X017302Y011572D01*
X017282Y011566D01*
X017261Y011563D01*
X017240Y011564D01*
X017220Y011569D01*
X017200Y011577D01*
X017182Y011589D01*
X017167Y011603D01*
X017155Y011620D01*
X017146Y011640D01*
X017140Y011660D01*
X017138Y011681D01*
D11*
X015245Y014184D02*
X015245Y015124D01*
X015245Y015364D01*
X015245Y016304D01*
X015155Y016304D01*
X014735Y016304D02*
X014655Y016304D01*
X014235Y016304D02*
X014155Y016304D01*
X013735Y016304D02*
X013655Y016304D01*
X013235Y016304D02*
X013145Y016304D01*
X013145Y014184D01*
X013235Y014184D01*
X013655Y014184D02*
X013735Y014184D01*
X014155Y014184D02*
X014235Y014184D01*
X014655Y014184D02*
X014735Y014184D01*
X015155Y014184D02*
X015245Y014184D01*
X015245Y015124D02*
X015224Y015126D01*
X015204Y015131D01*
X015185Y015140D01*
X015168Y015152D01*
X015153Y015167D01*
X015141Y015184D01*
X015132Y015203D01*
X015127Y015223D01*
X015125Y015244D01*
X015127Y015265D01*
X015132Y015285D01*
X015141Y015304D01*
X015153Y015321D01*
X015168Y015336D01*
X015185Y015348D01*
X015204Y015357D01*
X015224Y015362D01*
X015245Y015364D01*
X014901Y017271D02*
X014687Y017271D01*
X014581Y017377D01*
X014581Y017804D01*
X014687Y017911D01*
X014901Y017911D01*
X015008Y017804D01*
X015008Y017591D02*
X014794Y017591D01*
X015008Y017591D02*
X015008Y017377D01*
X014901Y017271D01*
X014363Y017271D02*
X013936Y017271D01*
X013936Y017911D01*
X014363Y017911D01*
X014150Y017591D02*
X013936Y017591D01*
X013719Y017911D02*
X013292Y017911D01*
X013292Y017271D01*
X013719Y017271D01*
X013505Y017591D02*
X013292Y017591D01*
X012146Y014445D02*
X012146Y013965D01*
X011086Y013965D02*
X011086Y014445D01*
D12*
X011059Y008177D02*
X011059Y008140D01*
X011059Y008067D02*
X011059Y007920D01*
X011022Y007920D02*
X011096Y007920D01*
X011170Y007920D02*
X011280Y007920D01*
X011317Y007957D01*
X011280Y007993D01*
X011206Y007993D01*
X011170Y008030D01*
X011206Y008067D01*
X011317Y008067D01*
X011391Y008030D02*
X011391Y007957D01*
X011427Y007920D01*
X011501Y007920D01*
X011538Y007957D01*
X011538Y008030D01*
X011501Y008067D01*
X011427Y008067D01*
X011391Y008030D01*
X011612Y008067D02*
X011722Y008067D01*
X011759Y008030D01*
X011759Y007920D01*
X011612Y007920D02*
X011612Y008067D01*
X011059Y008067D02*
X011022Y008067D01*
X010948Y008067D02*
X010912Y008067D01*
X010838Y007993D01*
X010838Y007920D02*
X010838Y008067D01*
X010764Y008067D02*
X010728Y008067D01*
X010654Y007993D01*
X010654Y007920D02*
X010654Y008067D01*
X010580Y008030D02*
X010543Y008067D01*
X010470Y008067D01*
X010433Y008030D01*
X010433Y007957D01*
X010470Y007920D01*
X010543Y007920D01*
X010580Y007957D01*
X010580Y008030D01*
X010359Y008140D02*
X010359Y007920D01*
X010212Y007920D02*
X010212Y008140D01*
X010286Y008067D01*
X010359Y008140D01*
X009917Y008067D02*
X009807Y008067D01*
X009770Y008030D01*
X009807Y007993D01*
X009880Y007993D01*
X009917Y007957D01*
X009880Y007920D01*
X009770Y007920D01*
X009696Y007920D02*
X009586Y007920D01*
X009549Y007957D01*
X009586Y007993D01*
X009696Y007993D01*
X009696Y008030D02*
X009696Y007920D01*
X009696Y008030D02*
X009659Y008067D01*
X009586Y008067D01*
X009475Y008030D02*
X009438Y008067D01*
X009402Y008030D01*
X009402Y007920D01*
X009475Y007920D02*
X009475Y008030D01*
X009402Y008030D02*
X009365Y008067D01*
X009328Y008067D01*
X009328Y007920D01*
X009254Y007957D02*
X009254Y008030D01*
X009217Y008067D01*
X009144Y008067D01*
X009107Y008030D01*
X009107Y007957D01*
X009144Y007920D01*
X009217Y007920D01*
X009254Y007957D01*
X009033Y007920D02*
X009033Y008030D01*
X008996Y008067D01*
X008923Y008067D01*
X008886Y008030D01*
X008886Y008140D02*
X008886Y007920D01*
X008739Y007920D02*
X008739Y008140D01*
X008812Y008140D02*
X008665Y008140D01*
X010403Y006227D02*
X010550Y006227D01*
X010477Y006227D02*
X010477Y006007D01*
X010477Y005872D02*
X010477Y005762D01*
X010550Y005799D01*
X010587Y005799D01*
X010624Y005762D01*
X010624Y005689D01*
X010587Y005652D01*
X010514Y005652D01*
X010477Y005689D01*
X010403Y005762D02*
X010256Y005762D01*
X010366Y005872D01*
X010366Y005652D01*
X010182Y005652D02*
X010145Y005652D01*
X010145Y005689D01*
X010182Y005689D01*
X010182Y005652D01*
X010071Y005652D02*
X009924Y005652D01*
X010071Y005799D01*
X010071Y005836D01*
X010034Y005872D01*
X009961Y005872D01*
X009924Y005836D01*
X010477Y005872D02*
X010624Y005872D01*
X010698Y005836D02*
X010698Y005689D01*
X010734Y005652D01*
X010808Y005652D01*
X010845Y005689D01*
X010845Y005762D01*
X010771Y005762D01*
X010698Y005836D02*
X010734Y005872D01*
X010808Y005872D01*
X010845Y005836D01*
X010919Y005872D02*
X010919Y005652D01*
X010919Y005762D02*
X011066Y005762D01*
X011140Y005799D02*
X011287Y005799D01*
X011140Y005652D01*
X011287Y005652D01*
X011066Y005652D02*
X011066Y005872D01*
X011066Y006007D02*
X010992Y006080D01*
X010992Y006153D01*
X011066Y006227D01*
X011140Y006190D02*
X011176Y006227D01*
X011250Y006227D01*
X011287Y006190D01*
X011250Y006117D02*
X011287Y006080D01*
X011287Y006043D01*
X011250Y006007D01*
X011176Y006007D01*
X011140Y006043D01*
X011176Y006117D02*
X011250Y006117D01*
X011176Y006117D02*
X011140Y006153D01*
X011140Y006190D01*
X011361Y006227D02*
X011361Y006007D01*
X011434Y006080D01*
X011508Y006007D01*
X011508Y006227D01*
X011582Y006227D02*
X011692Y006227D01*
X011729Y006190D01*
X011729Y006117D01*
X011692Y006080D01*
X011582Y006080D01*
X011655Y006080D02*
X011729Y006007D01*
X011803Y006007D02*
X011803Y006153D01*
X011876Y006227D01*
X011950Y006153D01*
X011950Y006007D01*
X012024Y006007D02*
X012171Y006007D01*
X012245Y006007D02*
X012391Y006007D01*
X012318Y006007D02*
X012318Y006227D01*
X012245Y006153D01*
X012097Y006227D02*
X012097Y006007D01*
X012024Y006153D02*
X012097Y006227D01*
X011950Y006117D02*
X011803Y006117D01*
X011655Y005872D02*
X011729Y005799D01*
X011729Y005652D01*
X011803Y005652D02*
X011803Y005799D01*
X011913Y005799D01*
X011950Y005762D01*
X011950Y005652D01*
X012060Y005689D02*
X012060Y005836D01*
X012024Y005799D02*
X012097Y005799D01*
X012171Y005762D02*
X012208Y005799D01*
X012281Y005799D01*
X012318Y005762D01*
X012318Y005726D01*
X012171Y005726D01*
X012171Y005762D02*
X012171Y005689D01*
X012208Y005652D01*
X012281Y005652D01*
X012392Y005652D02*
X012392Y005799D01*
X012502Y005799D01*
X012539Y005762D01*
X012539Y005652D01*
X012613Y005652D02*
X012613Y005799D01*
X012723Y005799D01*
X012760Y005762D01*
X012760Y005652D01*
X012834Y005689D02*
X012871Y005726D01*
X012981Y005726D01*
X012981Y005762D02*
X012981Y005652D01*
X012871Y005652D01*
X012834Y005689D01*
X012871Y005799D02*
X012944Y005799D01*
X012981Y005762D01*
X012908Y006007D02*
X012981Y006080D01*
X012981Y006153D01*
X012908Y006227D01*
X012833Y006190D02*
X012797Y006227D01*
X012687Y006227D01*
X012687Y006007D01*
X012797Y006007D01*
X012833Y006043D01*
X012833Y006190D01*
X012612Y006190D02*
X012612Y006227D01*
X012466Y006227D01*
X012612Y006190D02*
X012466Y006043D01*
X012466Y006007D01*
X012097Y005652D02*
X012060Y005689D01*
X011729Y005762D02*
X011582Y005762D01*
X011582Y005799D02*
X011655Y005872D01*
X011582Y005799D02*
X011582Y005652D01*
X011582Y006007D02*
X011582Y006227D01*
X010698Y006227D02*
X010624Y006227D01*
X010661Y006227D02*
X010661Y006007D01*
X010624Y006007D02*
X010698Y006007D01*
X013704Y005838D02*
X013704Y005691D01*
X013925Y005691D01*
X013925Y005617D02*
X013851Y005543D01*
X013851Y005580D02*
X013851Y005470D01*
X013925Y005470D02*
X013704Y005470D01*
X013704Y005580D01*
X013741Y005617D01*
X013815Y005617D01*
X013851Y005580D01*
X013815Y005691D02*
X013815Y005764D01*
X014531Y005801D02*
X014531Y005691D01*
X014751Y005691D01*
X014751Y005801D01*
X014715Y005838D01*
X014568Y005838D01*
X014531Y005801D01*
X014531Y005617D02*
X014751Y005617D01*
X014531Y005470D01*
X014751Y005470D01*
X014715Y005396D02*
X014751Y005359D01*
X014751Y005286D01*
X014715Y005249D01*
X014568Y005249D01*
X014531Y005286D01*
X014531Y005359D01*
X014568Y005396D01*
X014641Y005396D02*
X014641Y005322D01*
X014641Y005396D02*
X014715Y005396D01*
D13*
X014460Y005107D02*
X014399Y005169D01*
X014213Y005169D01*
X014213Y004798D01*
X014399Y004798D01*
X014460Y004860D01*
X014460Y005107D01*
X014092Y005169D02*
X014092Y004798D01*
X013845Y005169D01*
X013845Y004798D01*
X013724Y004860D02*
X013724Y004984D01*
X013600Y004984D01*
X013477Y005107D02*
X013477Y004860D01*
X013538Y004798D01*
X013662Y004798D01*
X013724Y004860D01*
X013724Y005107D02*
X013662Y005169D01*
X013538Y005169D01*
X013477Y005107D01*
X018744Y010060D02*
X018792Y010011D01*
X018986Y010011D01*
X019034Y010060D01*
X019034Y010157D01*
X018986Y010205D01*
X018986Y010306D02*
X019034Y010354D01*
X019034Y010451D01*
X018986Y010500D01*
X018792Y010500D01*
X018744Y010451D01*
X018744Y010354D01*
X018792Y010306D01*
X018986Y010306D01*
X018792Y010205D02*
X018744Y010157D01*
X018744Y010060D01*
X018744Y010601D02*
X019034Y010794D01*
X018744Y010794D01*
X018744Y010601D02*
X019034Y010601D01*
X015522Y016706D02*
X015208Y017019D01*
X015208Y016863D02*
X015522Y016863D01*
X015522Y017019D02*
X015208Y016706D01*
X015365Y016706D02*
X015365Y017019D01*
D14*
X015899Y005705D02*
X015860Y005626D01*
X016002Y005473D02*
X015975Y005465D01*
X015947Y005462D01*
X015919Y005461D01*
X015891Y005465D01*
X015864Y005472D01*
X015838Y005483D01*
X015814Y005498D01*
X015792Y005515D01*
X015773Y005535D01*
X015757Y005558D01*
X015743Y005583D01*
X015734Y005609D01*
X015727Y005636D01*
X015725Y005664D01*
X015726Y005692D01*
X015732Y005720D01*
X015740Y005746D01*
X015753Y005771D01*
X015768Y005795D01*
X015787Y005816D01*
X015808Y005834D01*
X015832Y005849D01*
X015857Y005861D01*
X015884Y005869D01*
X015911Y005874D01*
X015939Y005875D01*
X015967Y005872D01*
X015994Y005865D01*
X016020Y005855D01*
X016045Y005842D01*
X016067Y005825D01*
X016087Y005805D01*
X016104Y005783D01*
X016118Y005759D01*
X016129Y005733D01*
X016136Y005706D01*
X016175Y005705D02*
X016207Y005715D01*
X016241Y005721D01*
X016275Y005724D01*
X016310Y005723D01*
X016343Y005717D01*
X016376Y005708D01*
X016408Y005696D01*
X016439Y005679D01*
X016467Y005660D01*
X016493Y005637D01*
X016516Y005612D01*
X016536Y005584D01*
X016553Y005554D01*
X016566Y005523D01*
X016576Y005490D01*
X016582Y005456D01*
X016584Y005422D01*
X016582Y005388D01*
X016577Y005354D01*
X016567Y005321D01*
X016554Y005289D01*
X016538Y005259D01*
X016518Y005231D01*
X016495Y005205D01*
X016470Y005182D01*
X016442Y005163D01*
X016412Y005146D01*
X016380Y005133D01*
X016347Y005123D01*
X016313Y005118D01*
X016279Y005116D01*
X016245Y005118D01*
X016211Y005124D01*
X016178Y005134D01*
X016146Y005147D01*
X016116Y005164D01*
X016089Y005184D01*
X016063Y005207D01*
X016041Y005233D01*
X016021Y005261D01*
X016005Y005291D01*
X015992Y005323D01*
X015983Y005356D01*
X015977Y005390D01*
X015801Y005496D02*
X015506Y005075D01*
X015748Y005544D01*
X016175Y005115D02*
X016175Y004878D01*
X016175Y004839D02*
X016254Y004760D01*
X016332Y004800D02*
X016411Y004839D01*
X016411Y004681D01*
X016529Y004760D02*
X016451Y004839D01*
X016411Y004839D02*
X016411Y005154D01*
X016175Y004839D02*
X016057Y004721D01*
X016017Y004839D02*
X016136Y004839D01*
D15*
X016725Y006098D02*
X016718Y006108D01*
X016712Y006120D01*
X016709Y006132D01*
X016709Y006144D01*
X016712Y006156D01*
X016718Y006168D01*
X016725Y006178D01*
X016726Y006178D02*
X016765Y006178D01*
X016765Y006374D01*
X016687Y006611D01*
X016569Y006611D02*
X016571Y006633D01*
X016575Y006655D01*
X016583Y006676D01*
X016594Y006696D01*
X016607Y006714D01*
X016623Y006730D01*
X016641Y006743D01*
X016661Y006754D01*
X016682Y006762D01*
X016704Y006766D01*
X016726Y006768D01*
X016805Y006768D01*
X016815Y006767D01*
X016825Y006763D01*
X016833Y006757D01*
X016839Y006749D01*
X016843Y006739D01*
X016844Y006729D01*
X017002Y006611D02*
X017003Y006591D01*
X017002Y006571D01*
X017002Y006611D02*
X016923Y006374D01*
X017002Y006374D01*
X016962Y006335D02*
X016962Y006296D01*
X016963Y006374D02*
X016983Y006372D01*
X017002Y006366D01*
X017019Y006357D01*
X017034Y006344D01*
X017047Y006328D01*
X017056Y006311D01*
X017062Y006292D01*
X017064Y006272D01*
X017062Y006252D01*
X017056Y006233D01*
X017047Y006215D01*
X017034Y006200D01*
X017019Y006187D01*
X017001Y006178D01*
X016982Y006172D01*
X016962Y006170D01*
X016943Y006172D01*
X016923Y006178D01*
X016884Y006178D01*
X016884Y006374D01*
X016923Y006374D01*
X016884Y006374D02*
X016765Y006374D01*
X016726Y006374D01*
X016687Y006374D02*
X016569Y006611D01*
X016686Y006611D02*
X016691Y006634D01*
X016699Y006657D01*
X016711Y006678D01*
X016726Y006697D01*
X016743Y006714D01*
X016763Y006728D01*
X016785Y006739D01*
X016808Y006746D01*
X016832Y006750D01*
X016856Y006750D01*
X016880Y006746D01*
X016903Y006739D01*
X016925Y006728D01*
X016945Y006714D01*
X016962Y006697D01*
X016977Y006678D01*
X016989Y006657D01*
X016997Y006634D01*
X017002Y006611D01*
X016726Y006374D02*
X016708Y006372D01*
X016691Y006367D01*
X016674Y006359D01*
X016660Y006348D01*
X016648Y006335D01*
X016638Y006320D01*
X016632Y006303D01*
X016628Y006285D01*
X016628Y006267D01*
X016632Y006249D01*
X016638Y006232D01*
X016648Y006217D01*
X016660Y006204D01*
X016674Y006193D01*
X016691Y006185D01*
X016708Y006180D01*
X016726Y006178D01*
X016765Y006178D02*
X016884Y006178D01*
X016842Y006154D02*
X016844Y006099D01*
X016946Y006100D02*
X016951Y006112D01*
X016953Y006125D01*
X016952Y006138D01*
X016948Y006150D01*
X016942Y006161D01*
X016933Y006170D01*
X016923Y006177D01*
D16*
X015416Y008016D02*
X015046Y008386D01*
X015046Y007892D01*
X014676Y008016D02*
X015416Y008016D01*
X015293Y008648D02*
X015416Y008771D01*
X015416Y009018D01*
X015293Y009141D01*
X014799Y009141D01*
X014676Y009018D01*
X014676Y008771D01*
X014799Y008648D01*
X013747Y008189D02*
X013747Y007696D01*
X013624Y007572D01*
X013377Y007572D01*
X013253Y007696D01*
X012992Y007696D02*
X012869Y007572D01*
X012622Y007572D01*
X012498Y007696D01*
X012498Y007819D01*
X012622Y007942D01*
X012498Y008066D01*
X012498Y008189D01*
X012622Y008313D01*
X012869Y008313D01*
X012992Y008189D01*
X013253Y008189D02*
X013377Y008313D01*
X013624Y008313D01*
X013747Y008189D01*
X013310Y008871D02*
X012940Y009241D01*
X012940Y008748D01*
X012657Y008976D02*
X012657Y009151D01*
X012308Y009500D01*
X012133Y009500D01*
X011959Y009326D01*
X011959Y009151D01*
X011950Y009195D02*
X012073Y009318D01*
X012320Y009318D01*
X012443Y009195D01*
X012443Y009072D01*
X011950Y008578D01*
X012443Y008578D01*
X012482Y008802D02*
X012308Y008802D01*
X012482Y008802D02*
X012657Y008976D01*
X012569Y008871D02*
X013310Y008871D01*
X012569Y009503D02*
X012569Y009996D01*
X012551Y010241D02*
X012674Y010365D01*
X012674Y010859D01*
X012551Y010982D01*
X012304Y010982D01*
X012180Y010859D01*
X011919Y010859D02*
X011796Y010982D01*
X011549Y010982D01*
X011425Y010859D01*
X011425Y010365D01*
X011549Y010241D01*
X011796Y010241D01*
X011919Y010365D01*
X011919Y010488D01*
X011796Y010612D01*
X011425Y010612D01*
X011321Y010729D02*
X011321Y010852D01*
X011198Y010976D01*
X010951Y010976D01*
X010828Y010852D01*
X010543Y011028D02*
X010543Y011202D01*
X010455Y011290D01*
X010281Y011290D01*
X010019Y011028D01*
X010193Y010853D01*
X010368Y010853D01*
X010543Y011028D01*
X010319Y010976D02*
X010319Y010235D01*
X010073Y010235D02*
X010566Y010235D01*
X010828Y010235D02*
X011321Y010729D01*
X011321Y010235D02*
X010828Y010235D01*
X010814Y009728D02*
X010567Y009728D01*
X010443Y009605D01*
X010443Y009111D01*
X010567Y008988D01*
X010814Y008988D01*
X010937Y009111D01*
X010933Y009195D02*
X010810Y009318D01*
X010563Y009318D01*
X010440Y009195D01*
X010440Y008701D01*
X010563Y008578D01*
X010810Y008578D01*
X010933Y008701D01*
X011153Y008520D02*
X010804Y008170D01*
X010978Y008345D02*
X011502Y007821D01*
X011502Y008170D01*
X011688Y008578D02*
X011195Y008578D01*
X011688Y009072D01*
X011688Y009195D01*
X011565Y009318D01*
X011318Y009318D01*
X011195Y009195D01*
X011198Y009111D02*
X011198Y008988D01*
X011198Y009111D02*
X011692Y009605D01*
X011692Y009728D01*
X011198Y009728D01*
X010937Y009605D02*
X010814Y009728D01*
X011512Y008879D02*
X012036Y008355D01*
X012036Y008704D01*
X011687Y009053D02*
X011337Y008704D01*
X010919Y007383D02*
X010795Y007383D01*
X010672Y007259D01*
X010672Y007136D01*
X010672Y007259D02*
X010549Y007383D01*
X010425Y007383D01*
X010302Y007259D01*
X010302Y007012D01*
X010425Y006889D01*
X010919Y006889D02*
X011042Y007012D01*
X011042Y007259D01*
X010919Y007383D01*
X011042Y006628D02*
X011042Y006134D01*
X010302Y006134D01*
X012622Y007942D02*
X012745Y007942D01*
X012569Y009750D02*
X013310Y009750D01*
X013063Y009996D01*
X013186Y010258D02*
X013310Y010381D01*
X013310Y010628D01*
X013186Y010751D01*
X012693Y010751D01*
X012569Y010628D01*
X012569Y010381D01*
X012693Y010258D01*
X012551Y010241D02*
X012304Y010241D01*
X012180Y010365D01*
X012974Y011387D02*
X012886Y011474D01*
X012886Y012172D01*
X012537Y011823D01*
X012974Y011387D02*
X013148Y011387D01*
X013323Y011561D01*
X013323Y011736D01*
X013071Y012357D02*
X013420Y012706D01*
X013944Y012182D01*
X013946Y012358D02*
X013823Y012481D01*
X013699Y012358D01*
X013576Y012358D01*
X013452Y012481D01*
X013452Y012728D01*
X013576Y012851D01*
X013452Y013113D02*
X013452Y013606D01*
X013452Y013360D02*
X014193Y013360D01*
X013946Y013606D01*
X014070Y013868D02*
X014193Y013991D01*
X014193Y014238D01*
X014070Y014361D01*
X013576Y014361D01*
X013452Y014238D01*
X013452Y013991D01*
X013576Y013868D01*
X014070Y012851D02*
X014193Y012728D01*
X014193Y012481D01*
X014070Y012358D01*
X013946Y012358D01*
X013823Y012481D02*
X013823Y012605D01*
X012044Y012573D02*
X012044Y012697D01*
X011920Y012820D01*
X011550Y012820D01*
X011550Y012573D01*
X011673Y012450D01*
X011920Y012450D01*
X012044Y012573D01*
X011897Y012660D02*
X011897Y012413D01*
X011774Y012290D01*
X011897Y012029D02*
X011527Y012029D01*
X011650Y011782D01*
X011650Y011658D01*
X011527Y011535D01*
X011280Y011535D01*
X011156Y011658D01*
X011156Y011905D01*
X011280Y012029D01*
X011280Y012290D02*
X011156Y012413D01*
X011156Y012660D01*
X011280Y012784D01*
X011774Y012784D01*
X011897Y012660D01*
X011550Y012820D02*
X011797Y013067D01*
X012044Y013190D01*
X012040Y013404D02*
X011546Y012910D01*
X011546Y012786D01*
X011285Y012786D02*
X010791Y012786D01*
X010795Y012944D02*
X011042Y013190D01*
X011042Y012450D01*
X010795Y012450D02*
X011289Y012450D01*
X011038Y012786D02*
X011038Y013527D01*
X010791Y013280D01*
X010530Y013404D02*
X010406Y013527D01*
X010159Y013527D01*
X010036Y013404D01*
X010036Y012910D01*
X010159Y012786D01*
X010406Y012786D01*
X010530Y012910D01*
X010534Y013067D02*
X010410Y013190D01*
X010163Y013190D01*
X010040Y013067D01*
X010040Y012573D01*
X010163Y012450D01*
X010410Y012450D01*
X010534Y012573D01*
X010106Y011639D02*
X010019Y011377D01*
X010019Y011028D01*
X010073Y010729D02*
X010319Y010976D01*
X010009Y010668D02*
X010009Y010494D01*
X009834Y010319D01*
X009660Y010319D01*
X009310Y010668D01*
X009310Y010843D01*
X009485Y011018D01*
X009660Y011018D01*
X009688Y010976D02*
X009441Y010976D01*
X009318Y010852D01*
X009318Y010359D01*
X009441Y010235D01*
X009688Y010235D01*
X009811Y010359D01*
X009811Y010852D02*
X009688Y010976D01*
X011897Y011535D02*
X011897Y012029D01*
X012040Y013404D02*
X012040Y013527D01*
X011546Y013527D01*
X011720Y013864D02*
X011226Y013864D01*
X011103Y013987D01*
X011103Y014234D01*
X011226Y014358D01*
X011720Y013864D01*
X011843Y013987D01*
X011843Y014234D01*
X011720Y014358D01*
X011226Y014358D01*
X011103Y014619D02*
X011103Y015113D01*
X011080Y015137D02*
X011080Y015311D01*
X010818Y015573D01*
X010643Y015398D01*
X010643Y015224D01*
X010818Y015049D01*
X010993Y015049D01*
X011080Y015137D01*
X011089Y015159D02*
X010739Y015508D01*
X010478Y015246D01*
X010739Y015159D01*
X010827Y015071D01*
X010827Y014897D01*
X010652Y014722D01*
X010478Y014722D01*
X010303Y014897D01*
X010303Y015071D01*
X010031Y015169D02*
X009682Y015518D01*
X010380Y015518D01*
X010467Y015605D01*
X010467Y015780D01*
X010293Y015955D01*
X010118Y015955D01*
X010022Y015845D02*
X010721Y015845D01*
X010808Y015932D01*
X010808Y016107D01*
X010633Y016281D01*
X010459Y016281D01*
X010274Y016466D02*
X010274Y016641D01*
X010099Y016815D01*
X009925Y016815D01*
X009576Y016466D01*
X009576Y016292D01*
X009750Y016117D01*
X009925Y016117D01*
X009934Y016139D02*
X009934Y016314D01*
X009759Y016488D01*
X009584Y016488D01*
X009235Y016139D01*
X009235Y015965D01*
X009410Y015790D01*
X009584Y015790D01*
X010022Y015845D02*
X010371Y015496D01*
X010818Y015573D02*
X011167Y015573D01*
X011429Y015486D01*
X011396Y015428D02*
X011889Y015428D01*
X012013Y015552D01*
X012013Y015799D01*
X011889Y015922D01*
X011720Y015868D02*
X011226Y015868D01*
X011103Y015744D01*
X011103Y015497D01*
X011226Y015374D01*
X011396Y015428D02*
X011272Y015552D01*
X011272Y015799D01*
X011396Y015922D01*
X011476Y015922D02*
X011599Y015799D01*
X011599Y015552D01*
X011476Y015428D01*
X010982Y015428D01*
X010859Y015552D01*
X010859Y015799D01*
X010982Y015922D01*
X010982Y016183D02*
X010859Y016307D01*
X010859Y016554D01*
X010982Y016677D01*
X011106Y016677D01*
X011599Y016183D01*
X011599Y016677D01*
X011519Y016677D02*
X011396Y016677D01*
X011272Y016554D01*
X011272Y016307D01*
X011396Y016183D01*
X011720Y015868D02*
X011843Y015744D01*
X011843Y015497D01*
X011720Y015374D01*
X011596Y015113D02*
X011843Y014866D01*
X011103Y014866D01*
X012013Y016183D02*
X011519Y016677D01*
X011476Y016939D02*
X011599Y017062D01*
X011599Y017309D01*
X011476Y017432D01*
X011353Y017432D01*
X011229Y017309D01*
X011229Y017185D01*
X011229Y017309D02*
X011106Y017432D01*
X010982Y017432D01*
X010859Y017309D01*
X010859Y017062D01*
X010982Y016939D01*
X011272Y017309D02*
X011643Y016939D01*
X011643Y017432D01*
X012013Y017309D02*
X011272Y017309D01*
X012013Y016677D02*
X012013Y016183D01*
X012376Y016015D02*
X012376Y015521D01*
X012376Y015260D02*
X012376Y014766D01*
X012376Y015013D02*
X013117Y015013D01*
X012870Y015260D01*
X013117Y016015D02*
X012376Y016015D01*
X015585Y015836D02*
X015585Y016329D01*
X016078Y015836D01*
X016202Y015836D01*
X016325Y015959D01*
X016325Y016206D01*
X016202Y016329D01*
X016325Y016591D02*
X015708Y016591D01*
X015585Y016714D01*
X015585Y016961D01*
X015708Y017084D01*
X016325Y017084D01*
X017124Y014643D02*
X017001Y014520D01*
X017001Y014026D01*
X017124Y013903D01*
X017371Y013903D01*
X017494Y014026D01*
X017494Y014126D02*
X017371Y014250D01*
X017124Y014250D01*
X017001Y014126D01*
X017001Y013632D01*
X017124Y013509D01*
X017371Y013509D01*
X017494Y013632D01*
X017485Y013673D02*
X017361Y013797D01*
X017114Y013797D01*
X016991Y013673D01*
X016991Y013180D01*
X017114Y013056D01*
X017361Y013056D01*
X017485Y013180D01*
X017494Y013240D02*
X017371Y013364D01*
X017124Y013364D01*
X017001Y013240D01*
X017001Y012747D01*
X017124Y012623D01*
X017371Y012623D01*
X017494Y012747D01*
X017756Y012623D02*
X018249Y013117D01*
X018249Y013240D01*
X018126Y013364D01*
X017879Y013364D01*
X017756Y013240D01*
X017746Y013180D02*
X017746Y013303D01*
X017869Y013426D01*
X018116Y013426D01*
X018240Y013303D01*
X018240Y013180D01*
X018116Y013056D01*
X017869Y013056D01*
X017746Y013180D01*
X017869Y013426D02*
X017746Y013550D01*
X017746Y013673D01*
X017869Y013797D01*
X018116Y013797D01*
X018240Y013673D01*
X018240Y013550D01*
X018116Y013426D01*
X018249Y013509D02*
X017756Y013509D01*
X018249Y014003D01*
X018249Y014126D01*
X018126Y014250D01*
X017879Y014250D01*
X017756Y014126D01*
X017756Y013903D02*
X018249Y013903D01*
X018003Y013903D02*
X018003Y014643D01*
X017756Y014396D01*
X017494Y014520D02*
X017371Y014643D01*
X017124Y014643D01*
X016816Y013221D02*
X016816Y012727D01*
X016816Y012974D02*
X016075Y012974D01*
X016322Y012727D01*
X016199Y012465D02*
X016075Y012342D01*
X016075Y012095D01*
X016199Y011972D01*
X016693Y011972D01*
X016816Y012095D01*
X016816Y012342D01*
X016693Y012465D01*
X016763Y012167D02*
X016269Y012167D01*
X016146Y012043D01*
X016146Y011797D01*
X016269Y011673D01*
X016146Y011412D02*
X016146Y010918D01*
X016146Y011165D02*
X016887Y011165D01*
X016640Y011412D01*
X016763Y011673D02*
X016887Y011797D01*
X016887Y012043D01*
X016763Y012167D01*
X017756Y012623D02*
X018249Y012623D01*
X018634Y013509D02*
X018511Y013632D01*
X019004Y014126D01*
X019004Y013632D01*
X018881Y013509D01*
X018634Y013509D01*
X018511Y013632D02*
X018511Y014126D01*
X018634Y014250D01*
X018881Y014250D01*
X019004Y014126D01*
X019004Y014026D02*
X018881Y013903D01*
X018634Y013903D01*
X018511Y014026D01*
X018511Y014273D02*
X018758Y014396D01*
X018881Y014396D01*
X019004Y014273D01*
X019004Y014026D01*
X018511Y014273D02*
X018511Y014643D01*
X019004Y014643D01*
X016763Y010657D02*
X016640Y010657D01*
X016516Y010533D01*
X016516Y010163D01*
X016269Y010163D02*
X016763Y010163D01*
X016887Y010286D01*
X016887Y010533D01*
X016763Y010657D01*
X016269Y010657D02*
X016146Y010533D01*
X016146Y010286D01*
X016269Y010163D01*
D17*
X014315Y009770D02*
X014315Y011719D01*
X012504Y011719D01*
X012366Y011581D01*
X012366Y011719D01*
X012504Y011719D01*
X012366Y011581D02*
X012366Y009770D01*
X014315Y009770D01*
X015880Y013737D02*
X015880Y016099D01*
X018439Y016099D01*
X018439Y013874D01*
X018242Y013737D01*
X015880Y013737D01*
X018242Y013737D02*
X018439Y013737D01*
X018439Y013874D01*
X011825Y015823D02*
X009265Y015823D01*
X009265Y018048D01*
X009462Y018185D01*
X011825Y018185D01*
X011825Y015823D01*
X009462Y018185D02*
X009265Y018185D01*
X009265Y018048D01*
D18*
X009554Y014634D02*
X009554Y014327D01*
X009554Y014174D02*
X009554Y013867D01*
X009247Y014174D01*
X009170Y014174D01*
X009094Y014097D01*
X009094Y013944D01*
X009170Y013867D01*
X009170Y013714D02*
X009094Y013637D01*
X009094Y013483D01*
X009170Y013407D01*
X009477Y013407D01*
X009554Y013483D01*
X009554Y013637D01*
X009477Y013714D01*
X009247Y014327D02*
X009094Y014481D01*
X009554Y014481D01*
X011061Y012674D02*
X010984Y012597D01*
X010984Y012443D01*
X011061Y012367D01*
X011138Y012367D01*
X011214Y012443D01*
X011214Y012597D01*
X011291Y012674D01*
X011368Y012674D01*
X011445Y012597D01*
X011445Y012443D01*
X011368Y012367D01*
X011291Y012367D01*
X011214Y012443D01*
X011214Y012597D02*
X011138Y012674D01*
X011061Y012674D01*
X011445Y012213D02*
X011445Y011906D01*
X011445Y012060D02*
X010984Y012060D01*
X011138Y011906D01*
X011061Y011753D02*
X010984Y011676D01*
X010984Y011523D01*
X011061Y011446D01*
X011368Y011446D01*
X011445Y011523D01*
X011445Y011676D01*
X011368Y011753D01*
X012376Y011865D02*
X012453Y011788D01*
X012606Y011788D01*
X012683Y011865D01*
X012683Y012249D01*
X012836Y012172D02*
X012913Y012249D01*
X013067Y012249D01*
X013143Y012172D01*
X013067Y012018D02*
X012913Y012018D01*
X012836Y012095D01*
X012836Y012172D01*
X012990Y012325D02*
X012990Y011711D01*
X012913Y011788D02*
X013067Y011788D01*
X013143Y011865D01*
X013143Y011942D01*
X013067Y012018D01*
X013297Y012095D02*
X013450Y012249D01*
X013450Y011788D01*
X013297Y011788D02*
X013604Y011788D01*
X012913Y011788D02*
X012836Y011865D01*
X012376Y011865D02*
X012376Y012249D01*
X010358Y010117D02*
X010304Y010063D01*
X009870Y010063D01*
X009815Y010009D01*
X009707Y010117D02*
X009707Y010334D01*
X009761Y010280D02*
X009598Y010443D01*
X009490Y010334D02*
X009815Y010660D01*
X009978Y010497D01*
X009978Y010388D01*
X009870Y010280D01*
X009761Y010280D01*
X010141Y010334D02*
X010358Y010117D01*
X016431Y009571D02*
X016891Y009571D01*
X016891Y009418D02*
X016891Y009725D01*
X016584Y009418D02*
X016431Y009571D01*
X016547Y011347D02*
X016470Y011424D01*
X016470Y011577D01*
X016547Y011654D01*
X016624Y011654D01*
X016700Y011577D01*
X016700Y011424D01*
X016624Y011347D01*
X016547Y011347D01*
X016700Y011424D02*
X016777Y011347D01*
X016854Y011347D01*
X016931Y011424D01*
X016931Y011577D01*
X016854Y011654D01*
X016777Y011654D01*
X016700Y011577D01*
M02*
