G75*
%MOIN*%
%OFA0B0*%
%FSLAX24Y24*%
%IPPOS*%
%LPD*%
%AMOC8*
5,1,8,0,0,1.08239X$1,22.5*
%
%ADD10C,0.0000*%
%ADD11C,0.0060*%
%ADD12C,0.0030*%
%ADD13C,0.0080*%
%ADD14C,0.0040*%
%ADD15C,0.0020*%
%ADD16C,0.0020*%
%ADD17C,0.0050*%
D10*
X008301Y002122D02*
X008298Y017472D01*
X029966Y017468D01*
X029856Y002122D01*
X008301Y002122D01*
X008517Y004111D02*
X014502Y004111D01*
X014502Y006512D01*
X008517Y006512D01*
X008517Y004111D01*
X016790Y009349D02*
X016792Y009370D01*
X016798Y009390D01*
X016807Y009410D01*
X016819Y009427D01*
X016834Y009441D01*
X016852Y009453D01*
X016872Y009461D01*
X016892Y009466D01*
X016913Y009467D01*
X016934Y009464D01*
X016954Y009458D01*
X016973Y009447D01*
X016990Y009434D01*
X017003Y009418D01*
X017014Y009400D01*
X017022Y009380D01*
X017026Y009360D01*
X017026Y009338D01*
X017022Y009318D01*
X017014Y009298D01*
X017003Y009280D01*
X016990Y009264D01*
X016973Y009251D01*
X016954Y009240D01*
X016934Y009234D01*
X016913Y009231D01*
X016892Y009232D01*
X016872Y009237D01*
X016852Y009245D01*
X016834Y009257D01*
X016819Y009271D01*
X016807Y009288D01*
X016798Y009308D01*
X016792Y009328D01*
X016790Y009349D01*
X017332Y009929D02*
X017334Y009950D01*
X017340Y009970D01*
X017349Y009990D01*
X017361Y010007D01*
X017376Y010021D01*
X017394Y010033D01*
X017414Y010041D01*
X017434Y010046D01*
X017455Y010047D01*
X017476Y010044D01*
X017496Y010038D01*
X017515Y010027D01*
X017532Y010014D01*
X017545Y009998D01*
X017556Y009980D01*
X017564Y009960D01*
X017568Y009940D01*
X017568Y009918D01*
X017564Y009898D01*
X017556Y009878D01*
X017545Y009860D01*
X017532Y009844D01*
X017515Y009831D01*
X017496Y009820D01*
X017476Y009814D01*
X017455Y009811D01*
X017434Y009812D01*
X017414Y009817D01*
X017394Y009825D01*
X017376Y009837D01*
X017361Y009851D01*
X017349Y009868D01*
X017340Y009888D01*
X017334Y009908D01*
X017332Y009929D01*
X018375Y009359D02*
X018377Y009380D01*
X018383Y009400D01*
X018392Y009420D01*
X018404Y009437D01*
X018419Y009451D01*
X018437Y009463D01*
X018457Y009471D01*
X018477Y009476D01*
X018498Y009477D01*
X018519Y009474D01*
X018539Y009468D01*
X018558Y009457D01*
X018575Y009444D01*
X018588Y009428D01*
X018599Y009410D01*
X018607Y009390D01*
X018611Y009370D01*
X018611Y009348D01*
X018607Y009328D01*
X018599Y009308D01*
X018588Y009290D01*
X018575Y009274D01*
X018558Y009261D01*
X018539Y009250D01*
X018519Y009244D01*
X018498Y009241D01*
X018477Y009242D01*
X018457Y009247D01*
X018437Y009255D01*
X018419Y009267D01*
X018404Y009281D01*
X018392Y009298D01*
X018383Y009318D01*
X018377Y009338D01*
X018375Y009359D01*
X017332Y011111D02*
X017334Y011132D01*
X017340Y011152D01*
X017349Y011172D01*
X017361Y011189D01*
X017376Y011203D01*
X017394Y011215D01*
X017414Y011223D01*
X017434Y011228D01*
X017455Y011229D01*
X017476Y011226D01*
X017496Y011220D01*
X017515Y011209D01*
X017532Y011196D01*
X017545Y011180D01*
X017556Y011162D01*
X017564Y011142D01*
X017568Y011122D01*
X017568Y011100D01*
X017564Y011080D01*
X017556Y011060D01*
X017545Y011042D01*
X017532Y011026D01*
X017515Y011013D01*
X017496Y011002D01*
X017476Y010996D01*
X017455Y010993D01*
X017434Y010994D01*
X017414Y010999D01*
X017394Y011007D01*
X017376Y011019D01*
X017361Y011033D01*
X017349Y011050D01*
X017340Y011070D01*
X017334Y011090D01*
X017332Y011111D01*
X016790Y011672D02*
X016792Y011693D01*
X016798Y011713D01*
X016807Y011733D01*
X016819Y011750D01*
X016834Y011764D01*
X016852Y011776D01*
X016872Y011784D01*
X016892Y011789D01*
X016913Y011790D01*
X016934Y011787D01*
X016954Y011781D01*
X016973Y011770D01*
X016990Y011757D01*
X017003Y011741D01*
X017014Y011723D01*
X017022Y011703D01*
X017026Y011683D01*
X017026Y011661D01*
X017022Y011641D01*
X017014Y011621D01*
X017003Y011603D01*
X016990Y011587D01*
X016973Y011574D01*
X016954Y011563D01*
X016934Y011557D01*
X016913Y011554D01*
X016892Y011555D01*
X016872Y011560D01*
X016852Y011568D01*
X016834Y011580D01*
X016819Y011594D01*
X016807Y011611D01*
X016798Y011631D01*
X016792Y011651D01*
X016790Y011672D01*
X018375Y011672D02*
X018377Y011693D01*
X018383Y011713D01*
X018392Y011733D01*
X018404Y011750D01*
X018419Y011764D01*
X018437Y011776D01*
X018457Y011784D01*
X018477Y011789D01*
X018498Y011790D01*
X018519Y011787D01*
X018539Y011781D01*
X018558Y011770D01*
X018575Y011757D01*
X018588Y011741D01*
X018599Y011723D01*
X018607Y011703D01*
X018611Y011683D01*
X018611Y011661D01*
X018607Y011641D01*
X018599Y011621D01*
X018588Y011603D01*
X018575Y011587D01*
X018558Y011574D01*
X018539Y011563D01*
X018519Y011557D01*
X018498Y011554D01*
X018477Y011555D01*
X018457Y011560D01*
X018437Y011568D01*
X018419Y011580D01*
X018404Y011594D01*
X018392Y011611D01*
X018383Y011631D01*
X018377Y011651D01*
X018375Y011672D01*
D11*
X015245Y014184D02*
X015245Y015124D01*
X015245Y015364D01*
X015245Y016304D01*
X015155Y016304D01*
X015481Y016389D02*
X015481Y016489D01*
X015481Y016389D02*
X015581Y016389D01*
X015981Y016389D02*
X016081Y016389D01*
X016081Y016489D01*
X016081Y016889D02*
X016081Y016989D01*
X015981Y016989D01*
X015581Y016989D02*
X015481Y016989D01*
X015481Y016889D01*
X014735Y016304D02*
X014655Y016304D01*
X014235Y016304D02*
X014155Y016304D01*
X013735Y016304D02*
X013655Y016304D01*
X013235Y016304D02*
X013145Y016304D01*
X013145Y014184D01*
X013235Y014184D01*
X013655Y014184D02*
X013735Y014184D01*
X014155Y014184D02*
X014235Y014184D01*
X014655Y014184D02*
X014735Y014184D01*
X015155Y014184D02*
X015245Y014184D01*
X015245Y015124D02*
X015224Y015126D01*
X015204Y015131D01*
X015185Y015140D01*
X015168Y015152D01*
X015153Y015167D01*
X015141Y015184D01*
X015132Y015203D01*
X015127Y015223D01*
X015125Y015244D01*
X015127Y015265D01*
X015132Y015285D01*
X015141Y015304D01*
X015153Y015321D01*
X015168Y015336D01*
X015185Y015348D01*
X015204Y015357D01*
X015224Y015362D01*
X015245Y015364D01*
X012833Y016193D02*
X012733Y016193D01*
X012833Y016193D02*
X012833Y016293D01*
X012333Y016193D02*
X012233Y016193D01*
X012233Y016293D01*
X011786Y016294D02*
X011786Y016194D01*
X011686Y016194D01*
X011286Y016194D02*
X011186Y016194D01*
X011186Y016294D01*
X011186Y016694D02*
X011186Y016794D01*
X011286Y016794D01*
X011686Y016794D02*
X011786Y016794D01*
X011786Y016694D01*
X012233Y016693D02*
X012233Y016793D01*
X012333Y016793D01*
X012733Y016793D02*
X012833Y016793D01*
X012833Y016693D01*
X010778Y016710D02*
X010778Y016810D01*
X010678Y016810D01*
X010278Y016810D02*
X010178Y016810D01*
X010178Y016710D01*
X010178Y016310D02*
X010178Y016210D01*
X010278Y016210D01*
X010678Y016210D02*
X010778Y016210D01*
X010778Y016310D01*
X011086Y014445D02*
X011086Y013965D01*
X012146Y013965D02*
X012146Y014445D01*
X015284Y007737D02*
X015284Y007637D01*
X015284Y007737D02*
X015384Y007737D01*
X015784Y007737D02*
X015884Y007737D01*
X015884Y007637D01*
X016269Y007637D02*
X016269Y007737D01*
X016369Y007737D01*
X016769Y007737D02*
X016869Y007737D01*
X016869Y007637D01*
X016869Y007237D02*
X016869Y007137D01*
X016769Y007137D01*
X016369Y007137D02*
X016269Y007137D01*
X016269Y007237D01*
X015884Y007237D02*
X015884Y007137D01*
X015784Y007137D01*
X015384Y007137D02*
X015284Y007137D01*
X015284Y007237D01*
D12*
X013887Y005090D02*
X013702Y005090D01*
X013702Y004720D01*
X013887Y004720D01*
X013948Y004781D01*
X013948Y005028D01*
X013887Y005090D01*
X013580Y005090D02*
X013580Y004720D01*
X013333Y005090D01*
X013333Y004720D01*
X013212Y004781D02*
X013212Y004905D01*
X013088Y004905D01*
X012965Y005028D02*
X012965Y004781D01*
X013027Y004720D01*
X013150Y004720D01*
X013212Y004781D01*
X013212Y005028D02*
X013150Y005090D01*
X013027Y005090D01*
X012965Y005028D01*
X015208Y016706D02*
X015522Y017019D01*
X015522Y016863D02*
X015208Y016863D01*
X015208Y017019D02*
X015522Y016706D01*
X015365Y016706D02*
X015365Y017019D01*
D13*
X015386Y016978D02*
X015757Y016978D01*
X015633Y017225D01*
X015633Y017348D01*
X015757Y017472D01*
X016004Y017472D01*
X016127Y017348D01*
X016127Y017101D01*
X016004Y016978D01*
X016100Y016978D02*
X015977Y017101D01*
X015977Y017348D01*
X016100Y017472D01*
X016594Y016978D01*
X016718Y017101D01*
X016718Y017348D01*
X016594Y017472D01*
X016100Y017472D01*
X016325Y017084D02*
X015708Y017084D01*
X015585Y016961D01*
X015585Y016714D01*
X015708Y016591D01*
X016325Y016591D01*
X016224Y016717D02*
X016100Y016717D01*
X015977Y016593D01*
X015977Y016346D01*
X016100Y016223D01*
X016127Y016223D02*
X016127Y016717D01*
X016224Y016717D02*
X016718Y016223D01*
X016718Y016717D01*
X016750Y016707D02*
X016873Y016707D01*
X016997Y016583D01*
X016997Y016336D01*
X016873Y016213D01*
X016750Y016213D01*
X016627Y016336D01*
X016627Y016583D01*
X016750Y016707D01*
X016997Y016583D02*
X017120Y016707D01*
X017244Y016707D01*
X017367Y016583D01*
X017367Y016336D01*
X017244Y016213D01*
X017120Y016213D01*
X016997Y016336D01*
X017257Y016346D02*
X017380Y016223D01*
X017257Y016346D02*
X017257Y016593D01*
X017380Y016717D01*
X017503Y016717D01*
X017997Y016223D01*
X017997Y016717D01*
X017874Y015962D02*
X017997Y015838D01*
X017997Y015591D01*
X017874Y015468D01*
X017380Y015468D01*
X017257Y015591D01*
X017257Y015838D01*
X017380Y015962D01*
X017367Y015828D02*
X017244Y015952D01*
X017367Y015828D02*
X017367Y015581D01*
X017244Y015458D01*
X016750Y015458D01*
X016627Y015581D01*
X016627Y015828D01*
X016750Y015952D01*
X016718Y015838D02*
X016594Y015962D01*
X016718Y015838D02*
X016718Y015591D01*
X016594Y015468D01*
X016100Y015468D01*
X015977Y015591D01*
X015977Y015838D01*
X016100Y015962D01*
X016004Y015962D02*
X016127Y015838D01*
X016127Y015591D01*
X016004Y015468D01*
X015510Y015468D01*
X015386Y015591D01*
X015386Y015838D01*
X015510Y015962D01*
X015585Y015836D02*
X015585Y016329D01*
X016078Y015836D01*
X016202Y015836D01*
X016325Y015959D01*
X016325Y016206D01*
X016202Y016329D01*
X016127Y016470D02*
X015386Y016470D01*
X015633Y016223D01*
X015386Y016978D02*
X015386Y017472D01*
X016100Y016978D02*
X016594Y016978D01*
X013117Y016015D02*
X012376Y016015D01*
X012376Y015521D01*
X012376Y015260D02*
X012376Y014766D01*
X012376Y015013D02*
X013117Y015013D01*
X012870Y015260D01*
X012766Y014614D02*
X012591Y014614D01*
X012242Y014265D01*
X012242Y014091D01*
X012417Y013916D01*
X012591Y013916D01*
X012689Y013644D02*
X013038Y013295D01*
X012863Y013469D02*
X013387Y013993D01*
X013038Y013993D01*
X012940Y014265D02*
X012940Y014440D01*
X012766Y014614D01*
X011843Y014866D02*
X011103Y014866D01*
X011103Y015113D02*
X011103Y014619D01*
X011226Y014358D02*
X011720Y013864D01*
X011226Y013864D01*
X011103Y013987D01*
X011103Y014234D01*
X011226Y014358D01*
X011720Y014358D01*
X011843Y014234D01*
X011843Y013987D01*
X011720Y013864D01*
X011546Y013527D02*
X012040Y013527D01*
X012040Y013404D01*
X011546Y012910D01*
X011546Y012786D01*
X011550Y012820D02*
X011920Y012820D01*
X012044Y012697D01*
X012044Y012573D01*
X011920Y012450D01*
X011673Y012450D01*
X011550Y012573D01*
X011550Y012820D01*
X011797Y013067D01*
X012044Y013190D01*
X011774Y012784D02*
X011280Y012784D01*
X011156Y012660D01*
X011156Y012413D01*
X011280Y012290D01*
X011289Y012450D02*
X010795Y012450D01*
X011042Y012450D02*
X011042Y013190D01*
X010795Y012944D01*
X010791Y012786D02*
X011285Y012786D01*
X011038Y012786D02*
X011038Y013527D01*
X010791Y013280D01*
X010530Y013404D02*
X010406Y013527D01*
X010159Y013527D01*
X010036Y013404D01*
X010036Y012910D01*
X010159Y012786D01*
X010406Y012786D01*
X010530Y012910D01*
X010534Y013067D02*
X010410Y013190D01*
X010163Y013190D01*
X010040Y013067D01*
X010040Y012573D01*
X010163Y012450D01*
X010410Y012450D01*
X010534Y012573D01*
X011156Y011905D02*
X011280Y012029D01*
X011156Y011905D02*
X011156Y011658D01*
X011280Y011535D01*
X011527Y011535D01*
X011650Y011658D01*
X011650Y011782D01*
X011527Y012029D01*
X011897Y012029D01*
X011897Y011535D01*
X012537Y011823D02*
X012886Y012172D01*
X012886Y011474D01*
X012974Y011387D01*
X013148Y011387D01*
X013323Y011561D01*
X013323Y011736D01*
X013071Y012357D02*
X013420Y012706D01*
X013944Y012182D01*
X013659Y012848D02*
X013485Y012848D01*
X013310Y013023D01*
X013310Y013197D01*
X013659Y013197D02*
X013746Y013110D01*
X013746Y012935D01*
X013659Y012848D01*
X013746Y013110D02*
X013921Y013110D01*
X014008Y013197D01*
X014008Y013372D01*
X013834Y013546D01*
X013659Y013546D01*
X011897Y012660D02*
X011897Y012413D01*
X011774Y012290D01*
X011897Y012660D02*
X011774Y012784D01*
X010455Y011290D02*
X010281Y011290D01*
X010019Y011028D01*
X010193Y010853D01*
X010368Y010853D01*
X010543Y011028D01*
X010543Y011202D01*
X010455Y011290D01*
X010019Y011377D02*
X010106Y011639D01*
X010019Y011377D02*
X010019Y011028D01*
X009811Y010852D02*
X009688Y010976D01*
X009441Y010976D01*
X009318Y010852D01*
X009318Y010359D01*
X009441Y010235D01*
X009688Y010235D01*
X009811Y010359D01*
X009834Y010319D02*
X010009Y010494D01*
X010009Y010668D01*
X010073Y010729D02*
X010319Y010976D01*
X010319Y010235D01*
X010073Y010235D02*
X010566Y010235D01*
X010828Y010235D02*
X011321Y010729D01*
X011321Y010852D01*
X011198Y010976D01*
X010951Y010976D01*
X010828Y010852D01*
X011425Y010859D02*
X011425Y010365D01*
X011549Y010241D01*
X011796Y010241D01*
X011919Y010365D01*
X011919Y010488D01*
X011796Y010612D01*
X011425Y010612D01*
X011425Y010859D02*
X011549Y010982D01*
X011796Y010982D01*
X011919Y010859D01*
X012180Y010859D02*
X012304Y010982D01*
X012551Y010982D01*
X012674Y010859D01*
X012674Y010365D01*
X012551Y010241D01*
X012304Y010241D01*
X012180Y010365D01*
X012569Y010381D02*
X012569Y010628D01*
X012693Y010751D01*
X013186Y010751D01*
X013310Y010628D01*
X013310Y010381D01*
X013186Y010258D01*
X013063Y009996D02*
X013310Y009750D01*
X012569Y009750D01*
X012569Y009996D02*
X012569Y009503D01*
X012308Y009500D02*
X012133Y009500D01*
X011959Y009326D01*
X011959Y009151D01*
X011950Y009195D02*
X012073Y009318D01*
X012320Y009318D01*
X012443Y009195D01*
X012443Y009072D01*
X011950Y008578D01*
X012443Y008578D01*
X012482Y008802D02*
X012308Y008802D01*
X012482Y008802D02*
X012657Y008976D01*
X012657Y009151D01*
X012308Y009500D01*
X011692Y009605D02*
X011198Y009111D01*
X011198Y008988D01*
X011195Y009195D02*
X011318Y009318D01*
X011565Y009318D01*
X011688Y009195D01*
X011688Y009072D01*
X011195Y008578D01*
X011688Y008578D01*
X011512Y008879D02*
X012036Y008355D01*
X012036Y008704D01*
X012569Y008871D02*
X013310Y008871D01*
X012940Y009241D01*
X012940Y008748D01*
X012869Y008313D02*
X012622Y008313D01*
X012498Y008189D01*
X012498Y008066D01*
X012622Y007942D01*
X012745Y007942D01*
X012622Y007942D02*
X012498Y007819D01*
X012498Y007696D01*
X012622Y007572D01*
X012869Y007572D01*
X012992Y007696D01*
X013253Y007696D02*
X013377Y007572D01*
X013624Y007572D01*
X013747Y007696D01*
X013747Y008189D01*
X013624Y008313D01*
X013377Y008313D01*
X013253Y008189D01*
X012992Y008189D02*
X012869Y008313D01*
X011502Y008170D02*
X011502Y007821D01*
X010978Y008345D01*
X010804Y008170D02*
X011153Y008520D01*
X011337Y008704D02*
X011687Y009053D01*
X011692Y009605D02*
X011692Y009728D01*
X011198Y009728D01*
X010937Y009605D02*
X010814Y009728D01*
X010567Y009728D01*
X010443Y009605D01*
X010443Y009111D01*
X010567Y008988D01*
X010814Y008988D01*
X010937Y009111D01*
X010933Y009195D02*
X010810Y009318D01*
X010563Y009318D01*
X010440Y009195D01*
X010440Y008701D01*
X010563Y008578D01*
X010810Y008578D01*
X010933Y008701D01*
X010919Y007383D02*
X010795Y007383D01*
X010672Y007259D01*
X010672Y007136D01*
X010672Y007259D02*
X010549Y007383D01*
X010425Y007383D01*
X010302Y007259D01*
X010302Y007012D01*
X010425Y006889D01*
X010919Y006889D02*
X011042Y007012D01*
X011042Y007259D01*
X010919Y007383D01*
X011042Y006628D02*
X011042Y006134D01*
X010302Y006134D01*
X014597Y007937D02*
X015337Y007937D01*
X014967Y008307D01*
X014967Y007814D01*
X014720Y008569D02*
X014597Y008692D01*
X014597Y008939D01*
X014720Y009063D01*
X015214Y009063D01*
X015337Y008939D01*
X015337Y008692D01*
X015214Y008569D01*
X016269Y010163D02*
X016146Y010286D01*
X016146Y010533D01*
X016269Y010657D01*
X016516Y010533D02*
X016516Y010163D01*
X016269Y010163D02*
X016763Y010163D01*
X016887Y010286D01*
X016887Y010533D01*
X016763Y010657D01*
X016640Y010657D01*
X016516Y010533D01*
X016146Y010918D02*
X016146Y011412D01*
X016146Y011165D02*
X016887Y011165D01*
X016640Y011412D01*
X016763Y011673D02*
X016887Y011797D01*
X016887Y012043D01*
X016763Y012167D01*
X016269Y012167D01*
X016146Y012043D01*
X016146Y011797D01*
X016269Y011673D01*
X016199Y011972D02*
X016693Y011972D01*
X016816Y012095D01*
X016816Y012342D01*
X016693Y012465D01*
X016816Y012727D02*
X016816Y013221D01*
X016816Y012974D02*
X016075Y012974D01*
X016322Y012727D01*
X016199Y012465D02*
X016075Y012342D01*
X016075Y012095D01*
X016199Y011972D01*
X012693Y010258D02*
X012569Y010381D01*
X011321Y010235D02*
X010828Y010235D01*
X009834Y010319D02*
X009660Y010319D01*
X009310Y010668D01*
X009310Y010843D01*
X009485Y011018D01*
X009660Y011018D01*
X011843Y014866D02*
X011596Y015113D01*
X011720Y015374D02*
X011843Y015497D01*
X011843Y015744D01*
X011720Y015868D01*
X011226Y015868D01*
X011103Y015744D01*
X011103Y015497D01*
X011226Y015374D01*
D14*
X009554Y014634D02*
X009554Y014327D01*
X009554Y014174D02*
X009554Y013867D01*
X009247Y014174D01*
X009170Y014174D01*
X009094Y014097D01*
X009094Y013944D01*
X009170Y013867D01*
X009170Y013714D02*
X009094Y013637D01*
X009094Y013483D01*
X009170Y013407D01*
X009477Y013407D01*
X009554Y013483D01*
X009554Y013637D01*
X009477Y013714D01*
X009247Y014327D02*
X009094Y014481D01*
X009554Y014481D01*
X011061Y012674D02*
X011138Y012674D01*
X011214Y012597D01*
X011214Y012443D01*
X011138Y012367D01*
X011061Y012367D01*
X010984Y012443D01*
X010984Y012597D01*
X011061Y012674D01*
X011214Y012597D02*
X011291Y012674D01*
X011368Y012674D01*
X011445Y012597D01*
X011445Y012443D01*
X011368Y012367D01*
X011291Y012367D01*
X011214Y012443D01*
X011445Y012213D02*
X011445Y011906D01*
X011445Y012060D02*
X010984Y012060D01*
X011138Y011906D01*
X011061Y011753D02*
X010984Y011676D01*
X010984Y011523D01*
X011061Y011446D01*
X011368Y011446D01*
X011445Y011523D01*
X011445Y011676D01*
X011368Y011753D01*
X012376Y011865D02*
X012453Y011788D01*
X012606Y011788D01*
X012683Y011865D01*
X012683Y012249D01*
X012836Y012172D02*
X012913Y012249D01*
X013067Y012249D01*
X013143Y012172D01*
X013067Y012018D02*
X012913Y012018D01*
X012836Y012095D01*
X012836Y012172D01*
X012990Y012325D02*
X012990Y011711D01*
X012913Y011788D02*
X013067Y011788D01*
X013143Y011865D01*
X013143Y011942D01*
X013067Y012018D01*
X013297Y012095D02*
X013450Y012249D01*
X013450Y011788D01*
X013297Y011788D02*
X013604Y011788D01*
X012913Y011788D02*
X012836Y011865D01*
X012376Y011865D02*
X012376Y012249D01*
X014934Y012274D02*
X015164Y012274D01*
X015241Y012351D01*
X015241Y012504D01*
X015164Y012581D01*
X014934Y012581D01*
X014934Y012121D01*
X015087Y012274D02*
X015241Y012121D01*
X015394Y012121D02*
X015701Y012121D01*
X015547Y012121D02*
X015547Y012581D01*
X015394Y012428D01*
X016200Y011644D02*
X016276Y011644D01*
X016353Y011567D01*
X016353Y011414D01*
X016276Y011337D01*
X016200Y011337D01*
X016123Y011414D01*
X016123Y011567D01*
X016200Y011644D01*
X016353Y011567D02*
X016430Y011644D01*
X016507Y011644D01*
X016583Y011567D01*
X016583Y011414D01*
X016507Y011337D01*
X016430Y011337D01*
X016353Y011414D01*
X017134Y012200D02*
X017134Y012430D01*
X017210Y012507D01*
X017364Y012507D01*
X017440Y012430D01*
X017440Y012200D01*
X017440Y012353D02*
X017594Y012507D01*
X017594Y012660D02*
X017287Y012967D01*
X017210Y012967D01*
X017134Y012891D01*
X017134Y012737D01*
X017210Y012660D01*
X017594Y012660D02*
X017594Y012967D01*
X017594Y012200D02*
X017134Y012200D01*
X015151Y009987D02*
X015314Y009824D01*
X015314Y009715D01*
X015205Y009607D01*
X015097Y009607D01*
X014934Y009770D01*
X015042Y009661D02*
X015042Y009444D01*
X015205Y009390D02*
X015205Y009281D01*
X015314Y009173D01*
X015422Y009173D01*
X015531Y009281D01*
X015531Y009390D01*
X015476Y009444D01*
X015314Y009498D01*
X015476Y009661D01*
X015693Y009444D01*
X016084Y009562D02*
X016544Y009562D01*
X016544Y009715D02*
X016544Y009408D01*
X016569Y009152D02*
X016339Y009152D01*
X016339Y008692D01*
X016339Y008845D02*
X016569Y008845D01*
X016646Y008922D01*
X016646Y009075D01*
X016569Y009152D01*
X016492Y008845D02*
X016646Y008692D01*
X016799Y008922D02*
X017106Y008922D01*
X017029Y008692D02*
X017029Y009152D01*
X016799Y008922D01*
X016237Y009408D02*
X016084Y009562D01*
X015151Y009987D02*
X014825Y009661D01*
X010358Y010117D02*
X010304Y010063D01*
X009870Y010063D01*
X009815Y010009D01*
X009707Y010117D02*
X009707Y010334D01*
X009761Y010280D02*
X009598Y010443D01*
X009490Y010334D02*
X009815Y010660D01*
X009978Y010497D01*
X009978Y010388D01*
X009870Y010280D01*
X009761Y010280D01*
X010141Y010334D02*
X010358Y010117D01*
D15*
X010186Y006148D02*
X010112Y006148D01*
X010149Y006148D02*
X010149Y005928D01*
X010112Y005928D02*
X010186Y005928D01*
X010223Y005794D02*
X010186Y005757D01*
X010186Y005610D01*
X010223Y005574D01*
X010296Y005574D01*
X010333Y005610D01*
X010333Y005684D01*
X010259Y005684D01*
X010333Y005757D02*
X010296Y005794D01*
X010223Y005794D01*
X010112Y005794D02*
X009965Y005794D01*
X009965Y005684D01*
X010038Y005720D01*
X010075Y005720D01*
X010112Y005684D01*
X010112Y005610D01*
X010075Y005574D01*
X010002Y005574D01*
X009965Y005610D01*
X009891Y005684D02*
X009744Y005684D01*
X009854Y005794D01*
X009854Y005574D01*
X009670Y005574D02*
X009634Y005574D01*
X009634Y005610D01*
X009670Y005610D01*
X009670Y005574D01*
X009559Y005574D02*
X009413Y005574D01*
X009559Y005720D01*
X009559Y005757D01*
X009523Y005794D01*
X009449Y005794D01*
X009413Y005757D01*
X009891Y006148D02*
X010038Y006148D01*
X009965Y006148D02*
X009965Y005928D01*
X010407Y005794D02*
X010407Y005574D01*
X010407Y005684D02*
X010554Y005684D01*
X010628Y005720D02*
X010775Y005720D01*
X010628Y005574D01*
X010775Y005574D01*
X010554Y005574D02*
X010554Y005794D01*
X010554Y005928D02*
X010481Y006001D01*
X010481Y006075D01*
X010554Y006148D01*
X010628Y006111D02*
X010628Y006075D01*
X010665Y006038D01*
X010738Y006038D01*
X010775Y006001D01*
X010775Y005965D01*
X010738Y005928D01*
X010665Y005928D01*
X010628Y005965D01*
X010628Y006111D02*
X010665Y006148D01*
X010738Y006148D01*
X010775Y006111D01*
X010849Y006148D02*
X010849Y005928D01*
X010922Y006001D01*
X010996Y005928D01*
X010996Y006148D01*
X011070Y006148D02*
X011180Y006148D01*
X011217Y006111D01*
X011217Y006038D01*
X011180Y006001D01*
X011070Y006001D01*
X011070Y005928D02*
X011070Y006148D01*
X011143Y006001D02*
X011217Y005928D01*
X011291Y005928D02*
X011291Y006075D01*
X011364Y006148D01*
X011438Y006075D01*
X011438Y005928D01*
X011512Y005928D02*
X011659Y005928D01*
X011585Y005928D02*
X011585Y006148D01*
X011512Y006075D01*
X011438Y006038D02*
X011291Y006038D01*
X011143Y005794D02*
X011217Y005720D01*
X011217Y005574D01*
X011291Y005574D02*
X011291Y005720D01*
X011401Y005720D01*
X011438Y005684D01*
X011438Y005574D01*
X011549Y005610D02*
X011585Y005574D01*
X011549Y005610D02*
X011549Y005757D01*
X011585Y005720D02*
X011512Y005720D01*
X011659Y005684D02*
X011696Y005720D01*
X011769Y005720D01*
X011806Y005684D01*
X011806Y005647D01*
X011659Y005647D01*
X011659Y005610D02*
X011659Y005684D01*
X011659Y005610D02*
X011696Y005574D01*
X011769Y005574D01*
X011880Y005574D02*
X011880Y005720D01*
X011990Y005720D01*
X012027Y005684D01*
X012027Y005574D01*
X012101Y005574D02*
X012101Y005720D01*
X012211Y005720D01*
X012248Y005684D01*
X012248Y005574D01*
X012322Y005610D02*
X012359Y005647D01*
X012469Y005647D01*
X012469Y005684D02*
X012469Y005574D01*
X012359Y005574D01*
X012322Y005610D01*
X012359Y005720D02*
X012432Y005720D01*
X012469Y005684D01*
X012396Y005928D02*
X012469Y006001D01*
X012469Y006075D01*
X012396Y006148D01*
X012322Y006111D02*
X012322Y005965D01*
X012285Y005928D01*
X012175Y005928D01*
X012175Y006148D01*
X012285Y006148D01*
X012322Y006111D01*
X012101Y006111D02*
X011954Y005965D01*
X011954Y005928D01*
X011880Y005928D02*
X011733Y005928D01*
X011806Y005928D02*
X011806Y006148D01*
X011733Y006075D01*
X011954Y006148D02*
X012101Y006148D01*
X012101Y006111D01*
X011217Y005684D02*
X011070Y005684D01*
X011070Y005720D02*
X011143Y005794D01*
X011070Y005720D02*
X011070Y005574D01*
X013193Y005612D02*
X013193Y005759D01*
X013303Y005686D02*
X013303Y005612D01*
X013303Y005538D02*
X013339Y005501D01*
X013339Y005391D01*
X013339Y005465D02*
X013413Y005538D01*
X013413Y005612D02*
X013193Y005612D01*
X013229Y005538D02*
X013193Y005501D01*
X013193Y005391D01*
X013413Y005391D01*
X013303Y005538D02*
X013229Y005538D01*
X014019Y005538D02*
X014240Y005538D01*
X014019Y005391D01*
X014240Y005391D01*
X014203Y005317D02*
X014129Y005317D01*
X014129Y005244D01*
X014056Y005317D02*
X014019Y005280D01*
X014019Y005207D01*
X014056Y005170D01*
X014203Y005170D01*
X014240Y005207D01*
X014240Y005280D01*
X014203Y005317D01*
X014240Y005612D02*
X014019Y005612D01*
X014019Y005722D01*
X014056Y005759D01*
X014203Y005759D01*
X014240Y005722D01*
X014240Y005612D01*
D16*
X014315Y009770D02*
X012366Y009770D01*
X012366Y011581D01*
X012504Y011719D01*
X012366Y011719D01*
X012366Y011581D01*
X012504Y011719D02*
X014315Y011719D01*
X014315Y009770D01*
X015880Y013737D02*
X015880Y016099D01*
X018439Y016099D01*
X018439Y013874D01*
X018242Y013737D01*
X015880Y013737D01*
X018242Y013737D02*
X018439Y013737D01*
X018439Y013874D01*
D17*
X017420Y017114D02*
X017420Y017565D01*
X017194Y017340D01*
X017495Y017340D01*
X017034Y017490D02*
X017034Y017189D01*
X016959Y017114D01*
X016809Y017114D01*
X016734Y017189D01*
X016734Y017490D01*
X016809Y017565D01*
X016959Y017565D01*
X017034Y017490D01*
X016574Y017490D02*
X016499Y017565D01*
X016349Y017565D01*
X016274Y017490D01*
X016274Y017415D01*
X016349Y017340D01*
X016499Y017340D01*
X016574Y017264D01*
X016574Y017189D01*
X016499Y017114D01*
X016349Y017114D01*
X016274Y017189D01*
X016117Y017114D02*
X015967Y017114D01*
X016042Y017114D02*
X016042Y017565D01*
X015967Y017565D02*
X016117Y017565D01*
X015806Y017565D02*
X015656Y017415D01*
X015506Y017565D01*
X015506Y017114D01*
X015806Y017114D02*
X015806Y017565D01*
X014247Y017293D02*
X014247Y017218D01*
X014171Y017143D01*
X014247Y017068D01*
X014247Y016993D01*
X014171Y016918D01*
X014021Y016918D01*
X013946Y016993D01*
X013786Y016993D02*
X013786Y017293D01*
X013711Y017368D01*
X013561Y017368D01*
X013486Y017293D01*
X013486Y016993D01*
X013561Y016918D01*
X013711Y016918D01*
X013786Y016993D01*
X014096Y017143D02*
X014171Y017143D01*
X014247Y017293D02*
X014171Y017368D01*
X014021Y017368D01*
X013946Y017293D01*
X013326Y017293D02*
X013251Y017368D01*
X013101Y017368D01*
X013026Y017293D01*
X013026Y017218D01*
X013101Y017143D01*
X013251Y017143D01*
X013326Y017068D01*
X013326Y016993D01*
X013251Y016918D01*
X013101Y016918D01*
X013026Y016993D01*
X012899Y016919D02*
X013199Y016919D01*
X012899Y016919D02*
X013199Y017220D01*
X013199Y017295D01*
X013124Y017370D01*
X012974Y017370D01*
X012899Y017295D01*
X012869Y017368D02*
X012719Y017368D01*
X012664Y017370D02*
X012739Y017295D01*
X012739Y016995D01*
X012664Y016919D01*
X012514Y016919D01*
X012439Y016995D01*
X012439Y017295D01*
X012514Y017370D01*
X012664Y017370D01*
X012558Y017368D02*
X012408Y017218D01*
X012258Y017368D01*
X012258Y016918D01*
X012203Y016919D02*
X012053Y016919D01*
X011978Y016995D01*
X012041Y016935D02*
X012041Y017386D01*
X011891Y017235D01*
X011978Y017220D02*
X012053Y017145D01*
X012203Y017145D01*
X012279Y017070D01*
X012279Y016995D01*
X012203Y016919D01*
X012191Y016935D02*
X011891Y016935D01*
X011821Y016919D02*
X011671Y016919D01*
X011656Y016935D02*
X011731Y017010D01*
X011731Y017311D01*
X011656Y017386D01*
X011506Y017386D01*
X011431Y017311D01*
X011431Y017010D01*
X011506Y016935D01*
X011656Y016935D01*
X011746Y016919D02*
X011746Y017370D01*
X011671Y017370D02*
X011821Y017370D01*
X011978Y017295D02*
X011978Y017220D01*
X011978Y017295D02*
X012053Y017370D01*
X012203Y017370D01*
X012279Y017295D01*
X012558Y017368D02*
X012558Y016918D01*
X012719Y016918D02*
X012869Y016918D01*
X012794Y016918D02*
X012794Y017368D01*
X011511Y017370D02*
X011511Y016919D01*
X011271Y017010D02*
X011271Y017085D01*
X011196Y017160D01*
X011045Y017160D01*
X010970Y017235D01*
X010970Y017311D01*
X011045Y017386D01*
X011196Y017386D01*
X011271Y017311D01*
X011211Y017370D02*
X011361Y017220D01*
X011511Y017370D01*
X011211Y017370D02*
X011211Y016919D01*
X011196Y016935D02*
X011045Y016935D01*
X010970Y017010D01*
X010814Y016935D02*
X010663Y016935D01*
X010739Y016935D02*
X010739Y017386D01*
X010814Y017386D02*
X010663Y017386D01*
X010503Y017386D02*
X010353Y017235D01*
X010203Y017386D01*
X010203Y016935D01*
X010503Y016935D02*
X010503Y017386D01*
X011196Y016935D02*
X011271Y017010D01*
X015460Y008313D02*
X015610Y008163D01*
X015610Y007862D01*
X015770Y007862D02*
X015920Y007862D01*
X015845Y007862D02*
X015845Y008313D01*
X015770Y008313D02*
X015920Y008313D01*
X016077Y008238D02*
X016077Y007937D01*
X016152Y007862D01*
X016302Y007862D01*
X016377Y007937D01*
X016377Y008238D01*
X016302Y008313D01*
X016152Y008313D01*
X016077Y008238D01*
X016294Y008163D02*
X016294Y007862D01*
X016294Y008088D02*
X016594Y008088D01*
X016594Y008163D02*
X016594Y007862D01*
X016537Y007862D02*
X016837Y007862D01*
X016829Y007862D02*
X016829Y008313D01*
X016754Y008313D02*
X016904Y008313D01*
X017061Y008238D02*
X017136Y008313D01*
X017286Y008313D01*
X017361Y008238D01*
X017361Y007937D01*
X017286Y007862D01*
X017136Y007862D01*
X017061Y007937D01*
X017061Y008238D01*
X016687Y008313D02*
X016687Y007862D01*
X016754Y007862D02*
X016904Y007862D01*
X016594Y008163D02*
X016444Y008313D01*
X016294Y008163D01*
X016537Y008163D02*
X016687Y008313D01*
X017521Y008238D02*
X017521Y007937D01*
X017822Y008238D01*
X017822Y007937D01*
X017747Y007862D01*
X017596Y007862D01*
X017521Y007937D01*
X017521Y008238D02*
X017596Y008313D01*
X017747Y008313D01*
X017822Y008238D01*
X015610Y008088D02*
X015309Y008088D01*
X015309Y008163D02*
X015460Y008313D01*
X015309Y008163D02*
X015309Y007862D01*
M02*
