G75*
%MOIN*%
%OFA0B0*%
%FSLAX24Y24*%
%IPPOS*%
%LPD*%
%AMOC8*
5,1,8,0,0,1.08239X$1,22.5*
%
%ADD10R,0.1575X0.1181*%
%ADD11R,0.0406X0.0159*%
%ADD12R,0.0411X0.0152*%
%ADD13R,0.0423X0.0150*%
%ADD14R,0.0409X0.0163*%
%ADD15R,0.0415X0.0152*%
%ADD16R,0.0413X0.0154*%
%ADD17R,0.0407X0.0150*%
%ADD18R,0.0159X0.0406*%
%ADD19R,0.0152X0.0411*%
%ADD20R,0.0150X0.0423*%
%ADD21R,0.0163X0.0409*%
%ADD22R,0.0152X0.0415*%
%ADD23R,0.0154X0.0413*%
%ADD24R,0.0150X0.0407*%
%ADD25R,0.0319X0.1246*%
%ADD26R,0.1181X0.0689*%
%ADD27R,0.0689X0.1280*%
%ADD28R,0.0689X0.0984*%
%ADD29R,0.0295X0.0197*%
%ADD30R,0.0886X0.2461*%
%ADD31R,0.0689X0.2559*%
%ADD32R,0.1870X0.0492*%
%ADD33R,0.0376X0.0102*%
%ADD34R,0.0065X0.0191*%
%ADD35R,0.0142X0.0185*%
%ADD36R,0.0358X0.0077*%
%ADD37R,0.0300X0.0690*%
%ADD38R,0.0260X0.0320*%
%ADD39R,0.0320X0.0260*%
%ADD40R,0.1140X0.0520*%
%ADD41R,0.0552X0.0182*%
%ADD42C,0.0316*%
%ADD43C,0.0789*%
%ADD44R,0.0316X0.0552*%
%ADD45C,0.0867*%
%ADD46R,0.0280X0.0480*%
%ADD47R,0.0153X0.0237*%
%ADD48R,0.0237X0.0153*%
%ADD49R,0.0159X0.0237*%
%ADD50R,0.0237X0.0159*%
%ADD51C,0.0872*%
%ADD52R,0.0356X0.0434*%
%ADD53R,0.0434X0.0356*%
%ADD54R,0.0316X0.0159*%
%ADD55R,0.0474X0.0395*%
%ADD56R,0.0671X0.0592*%
%ADD57C,0.0434*%
%ADD58C,0.0474*%
%ADD59R,0.0474X0.0474*%
%ADD60C,0.0454*%
D10*
X013025Y008057D03*
D11*
X012350Y010056D03*
X014328Y010055D03*
D12*
X014337Y010253D03*
X014337Y010647D03*
X012359Y010649D03*
X012359Y010255D03*
D13*
X012359Y010451D03*
X014337Y010449D03*
D14*
X014332Y010846D03*
X012354Y010848D03*
D15*
X012355Y011041D03*
X014333Y011039D03*
D16*
X014334Y011237D03*
X012356Y011239D03*
D17*
X012359Y011439D03*
X014337Y011437D03*
D18*
X014030Y011735D03*
X014030Y009743D03*
D19*
X013831Y009751D03*
X013438Y009751D03*
X013438Y011744D03*
X013831Y011744D03*
D20*
X013636Y011744D03*
X013636Y009751D03*
D21*
X013239Y009746D03*
X013239Y011739D03*
D22*
X013046Y011740D03*
X013046Y009747D03*
D23*
X012848Y009748D03*
X012848Y011741D03*
D24*
X012647Y011744D03*
X012647Y009751D03*
D25*
X016895Y010432D03*
D26*
X013124Y009554D03*
X013124Y011916D03*
D27*
X012189Y010735D03*
D28*
X014452Y010981D03*
D29*
X014551Y010390D03*
D30*
X016224Y014967D03*
D31*
X018291Y014918D03*
D32*
X014256Y016246D03*
D33*
X017310Y005536D03*
D34*
X017570Y004261D03*
D35*
X018752Y004250D03*
D36*
X017293Y004310D03*
D37*
X014945Y013784D03*
X014445Y013784D03*
X013945Y013784D03*
X013445Y013784D03*
X013445Y016704D03*
X013945Y016704D03*
X014445Y016704D03*
X014945Y016704D03*
D38*
G36*
X012551Y012792D02*
X012367Y012976D01*
X012593Y013202D01*
X012777Y013018D01*
X012551Y012792D01*
G37*
G36*
X012820Y012523D02*
X012636Y012707D01*
X012862Y012933D01*
X013046Y012749D01*
X012820Y012523D01*
G37*
G36*
X012034Y012310D02*
X012218Y012494D01*
X012444Y012268D01*
X012260Y012084D01*
X012034Y012310D01*
G37*
G36*
X011766Y012041D02*
X011950Y012225D01*
X012176Y011999D01*
X011992Y011815D01*
X011766Y012041D01*
G37*
X011550Y011910D03*
X011170Y011910D03*
X011164Y011522D03*
X011544Y011522D03*
G36*
X011401Y010897D02*
X011217Y010713D01*
X010991Y010939D01*
X011175Y011123D01*
X011401Y010897D01*
G37*
G36*
X011133Y010628D02*
X010949Y010444D01*
X010723Y010670D01*
X010907Y010854D01*
X011133Y010628D01*
G37*
X010828Y009695D03*
X010448Y009695D03*
G36*
X010835Y009191D02*
X011019Y009375D01*
X011245Y009149D01*
X011061Y008965D01*
X010835Y009191D01*
G37*
G36*
X010566Y008922D02*
X010750Y009106D01*
X010976Y008880D01*
X010792Y008696D01*
X010566Y008922D01*
G37*
X011573Y008448D03*
X011953Y008448D03*
X011950Y008038D03*
X011570Y008038D03*
X012237Y008853D03*
X012617Y008853D03*
X011546Y012246D03*
X011166Y012246D03*
D39*
X010616Y011654D03*
X010616Y011274D03*
X012029Y009621D03*
X012029Y009241D03*
X014057Y007933D03*
X014057Y007553D03*
X011582Y007644D03*
X011582Y007264D03*
X015606Y010657D03*
X015606Y011037D03*
X017356Y013102D03*
X017356Y013482D03*
X017258Y016598D03*
X017258Y016978D03*
X016667Y016978D03*
X016667Y016598D03*
X017907Y016588D03*
X017907Y016968D03*
X018537Y016978D03*
X018537Y016598D03*
X010563Y014738D03*
X010563Y014358D03*
D40*
X011616Y014795D03*
X011616Y013615D03*
D41*
X016879Y011140D03*
X016879Y010963D03*
X016879Y010786D03*
X016879Y010609D03*
X016879Y010431D03*
X016879Y010254D03*
X016879Y010077D03*
X016879Y009900D03*
D42*
X017450Y009929D03*
X016908Y009349D03*
X018493Y009359D03*
X017450Y011111D03*
X016908Y011672D03*
X018493Y011672D03*
D43*
X018493Y011672D03*
X016908Y011672D03*
X016908Y009349D03*
X018493Y009359D03*
D44*
X009673Y009555D03*
X009318Y009555D03*
X009318Y012036D03*
X009673Y012036D03*
D45*
X014128Y006256D03*
D46*
X013301Y006154D03*
D47*
X013242Y009839D03*
X013439Y009839D03*
X013636Y009839D03*
X013832Y009839D03*
X013045Y009839D03*
X012848Y009839D03*
X012848Y011650D03*
X013045Y011650D03*
X013242Y011650D03*
X013439Y011650D03*
X013636Y011650D03*
X013832Y011650D03*
D48*
X014246Y011237D03*
X014246Y011040D03*
X014246Y010843D03*
X014246Y010646D03*
X014246Y010449D03*
X014246Y010252D03*
X012435Y010252D03*
X012435Y010449D03*
X012435Y010646D03*
X012435Y010843D03*
X012435Y011040D03*
X012435Y011237D03*
D49*
X012651Y011650D03*
X014029Y011650D03*
X014029Y009839D03*
X012651Y009839D03*
D50*
X012435Y010056D03*
X012435Y011433D03*
X014246Y011433D03*
X014246Y010056D03*
D51*
X015584Y007437D03*
X016569Y007437D03*
X012533Y016493D03*
X011486Y016494D03*
X010478Y016510D03*
X015781Y016689D03*
D52*
X015840Y012851D03*
X015328Y012851D03*
G36*
X014589Y009209D02*
X014337Y009461D01*
X014643Y009767D01*
X014895Y009515D01*
X014589Y009209D01*
G37*
G36*
X014951Y008848D02*
X014699Y009100D01*
X015005Y009406D01*
X015257Y009154D01*
X014951Y008848D01*
G37*
X016313Y008422D03*
X016825Y008422D03*
G36*
X010674Y010488D02*
X010926Y010236D01*
X010620Y009930D01*
X010368Y010182D01*
X010674Y010488D01*
G37*
G36*
X010312Y010850D02*
X010564Y010598D01*
X010258Y010292D01*
X010006Y010544D01*
X010312Y010850D01*
G37*
D53*
X016864Y012595D03*
X016864Y013107D03*
D54*
X015998Y013766D03*
X015998Y014022D03*
X015998Y014278D03*
X015998Y014534D03*
X015998Y014790D03*
X015998Y015046D03*
X015998Y015302D03*
X015998Y015557D03*
X015998Y015813D03*
X015998Y016069D03*
X018321Y014278D03*
X018340Y014534D03*
X018340Y014790D03*
X018340Y015046D03*
X018340Y015302D03*
X018340Y015557D03*
X018340Y015813D03*
X018340Y016069D03*
X018321Y014022D03*
X018321Y013766D03*
D55*
X013431Y008319D03*
X012643Y008319D03*
X012643Y007729D03*
X013431Y007729D03*
D56*
X010565Y012122D03*
X010565Y012792D03*
X009974Y013402D03*
X009974Y014071D03*
D57*
X008891Y007044D03*
X008891Y007536D03*
X009384Y007536D03*
X009876Y007536D03*
X010368Y007536D03*
X010860Y007536D03*
X010860Y007044D03*
X010368Y007044D03*
X009876Y007044D03*
X009384Y007044D03*
X010368Y009209D03*
X011254Y009701D03*
X012927Y010390D03*
X013321Y010784D03*
X013714Y010390D03*
X013714Y011178D03*
X012927Y011178D03*
X011451Y012949D03*
X012828Y013737D03*
X015486Y009406D03*
X014724Y007026D03*
X014206Y007044D03*
X013714Y007044D03*
X015019Y006534D03*
X015019Y006042D03*
X015019Y005550D03*
X015512Y005550D03*
X015512Y006042D03*
X015512Y006534D03*
X015512Y005057D03*
X015512Y004565D03*
X015019Y004565D03*
X015019Y005057D03*
D58*
X015584Y010390D03*
X015092Y010498D03*
X014108Y012359D03*
X016273Y012457D03*
X010073Y015213D03*
D59*
X008793Y015607D03*
X008793Y013441D03*
X012730Y014524D03*
X016537Y013579D03*
X018537Y012949D03*
X018636Y006355D03*
X009580Y008422D03*
X008793Y009800D03*
D60*
X016175Y009406D03*
M02*
