G75*
%MOIN*%
%OFA0B0*%
%FSLAX24Y24*%
%IPPOS*%
%LPD*%
%AMOC8*
5,1,8,0,0,1.08239X$1,22.5*
%
%ADD10C,0.0952*%
%ADD11C,0.0872*%
%ADD12C,0.0316*%
%ADD13C,0.0789*%
%ADD14R,0.0790X0.0710*%
%ADD15R,0.0710X0.0790*%
%ADD16C,0.0867*%
%ADD17R,0.1332X0.1332*%
%ADD18R,0.1639X0.1639*%
%ADD19R,0.0434X0.0356*%
%ADD20R,0.0356X0.0434*%
%ADD21R,0.0260X0.0320*%
%ADD22R,0.0320X0.0260*%
%ADD23C,0.0671*%
%ADD24C,0.0710*%
%ADD25C,0.0749*%
%ADD26C,0.0946*%
D10*
X004849Y002251D03*
X006062Y001464D03*
X007275Y002054D03*
X008487Y001464D03*
X010093Y002054D03*
X011149Y001342D03*
X012125Y002054D03*
X013247Y001267D03*
X001956Y009747D03*
X001365Y010574D03*
X002152Y011710D03*
X001365Y012818D03*
X002349Y013940D03*
X001365Y014865D03*
X003086Y015440D03*
X004452Y015578D03*
X007714Y015210D03*
X001267Y008536D03*
X017046Y011424D03*
D11*
X013129Y014964D03*
X011810Y014964D03*
X010294Y014964D03*
X009097Y011932D03*
X009353Y007904D03*
X010817Y007251D03*
X016841Y003515D03*
X016841Y002259D03*
X018566Y003310D03*
X020338Y003408D03*
X020633Y004590D03*
X004137Y007160D03*
X002849Y006341D03*
X002743Y007357D03*
X003621Y008901D03*
D12*
X003410Y002970D03*
X002849Y002429D03*
X001668Y002429D03*
X001087Y002970D03*
X001097Y001386D03*
X003410Y001386D03*
D13*
X001097Y001386D03*
X001087Y002970D03*
X003410Y002970D03*
X003410Y001386D03*
X001145Y007444D03*
X004885Y007936D03*
X004885Y007936D03*
X006952Y009609D03*
X010298Y012956D03*
X010101Y013940D03*
X008428Y013349D03*
X015121Y008527D03*
X011676Y006952D03*
X016007Y011676D03*
X014629Y001243D03*
D14*
X007739Y006097D03*
X007739Y007216D03*
D15*
X005937Y005869D03*
X004817Y005869D03*
X004817Y004688D03*
X005937Y004688D03*
X002855Y004847D03*
X001735Y004847D03*
D16*
X019944Y015534D03*
D17*
X017370Y013251D03*
X011494Y013251D03*
X018763Y007527D03*
X018763Y001652D03*
D18*
X018763Y004590D03*
X014432Y013251D03*
D19*
X007050Y006617D03*
X007050Y006105D03*
D20*
X015062Y003999D03*
X015574Y003999D03*
D21*
X015620Y005377D03*
X016000Y005377D03*
D22*
X017385Y005468D03*
X017385Y005088D03*
D23*
X016794Y005672D03*
X016794Y005672D03*
X017188Y006460D03*
X016465Y006786D03*
X016877Y007828D03*
X012956Y006755D03*
X012956Y006755D03*
X012428Y007200D03*
X012426Y007204D03*
X012365Y008527D03*
X011479Y010200D03*
X010987Y010692D03*
X008527Y009412D03*
X008133Y011578D03*
X007444Y013940D03*
X004590Y014727D03*
X005278Y006755D03*
X007739Y006066D03*
X013054Y005771D03*
X018369Y001341D03*
X020338Y002424D03*
X019452Y002818D03*
X018861Y012267D03*
X018861Y013152D03*
X018861Y014038D03*
X018861Y015416D03*
X002129Y001440D03*
D24*
X008527Y007050D03*
D25*
X007733Y008221D03*
X004048Y004688D03*
X013103Y004836D03*
X014038Y008084D03*
X017778Y002572D03*
X014973Y014580D03*
D26*
X004786Y005869D03*
M02*
