G75*
%MOIN*%
%OFA0B0*%
%FSLAX24Y24*%
%IPPOS*%
%LPD*%
%AMOC8*
5,1,8,0,0,1.08239X$1,22.5*
%
%ADD10C,0.0316*%
%ADD11C,0.0789*%
%ADD12C,0.0867*%
%ADD13C,0.0872*%
%ADD14R,0.0356X0.0434*%
%ADD15R,0.0434X0.0356*%
%ADD16C,0.0434*%
%ADD17C,0.0474*%
%ADD18R,0.0474X0.0474*%
%ADD19C,0.0454*%
D10*
X016908Y009349D03*
X017450Y009929D03*
X018493Y009359D03*
X017450Y011111D03*
X016908Y011672D03*
X018493Y011672D03*
D11*
X018493Y011672D03*
X016908Y011672D03*
X016908Y009349D03*
X018493Y009359D03*
D12*
X014128Y006256D03*
D13*
X015584Y007437D03*
X016569Y007437D03*
X012533Y016493D03*
X011486Y016494D03*
X010478Y016510D03*
X015781Y016689D03*
D14*
X014848Y012843D03*
X014336Y012843D03*
D15*
X016175Y010843D03*
X016175Y010331D03*
D16*
X008891Y007044D03*
X008891Y007536D03*
X009384Y007536D03*
X009876Y007536D03*
X010368Y007536D03*
X010860Y007536D03*
X010860Y007044D03*
X010368Y007044D03*
X009876Y007044D03*
X009384Y007044D03*
X010368Y009209D03*
X011254Y009701D03*
X012927Y010390D03*
X013321Y010784D03*
X013714Y010390D03*
X013714Y011178D03*
X012927Y011178D03*
X011451Y012949D03*
X012828Y013737D03*
X015486Y009406D03*
X014724Y007026D03*
X014206Y007044D03*
X013714Y007044D03*
X015019Y006534D03*
X015019Y006042D03*
X015019Y005550D03*
X015512Y005550D03*
X015512Y006042D03*
X015512Y006534D03*
X015512Y005057D03*
X015512Y004565D03*
X015019Y004565D03*
X015019Y005057D03*
D17*
X015584Y010390D03*
X015092Y010498D03*
X014108Y012359D03*
X016273Y012457D03*
X010073Y015213D03*
D18*
X008793Y015607D03*
X008793Y013441D03*
X012730Y014524D03*
X016537Y013579D03*
X018537Y012949D03*
X018636Y006355D03*
X009580Y008422D03*
X008793Y009800D03*
D19*
X016175Y009406D03*
M02*
