G75*
%MOIN*%
%OFA0B0*%
%FSLAX24Y24*%
%IPPOS*%
%LPD*%
%AMOC8*
5,1,8,0,0,1.08239X$1,22.5*
%
%ADD10C,0.0060*%
%ADD11C,0.0872*%
%ADD12C,0.0792*%
%ADD13C,0.0709*%
%ADD14R,0.0710X0.0630*%
%ADD15R,0.0630X0.0710*%
%ADD16C,0.0787*%
%ADD17R,0.1252X0.1252*%
%ADD18R,0.1559X0.1559*%
%ADD19R,0.0354X0.0276*%
%ADD20R,0.0276X0.0354*%
%ADD21R,0.0180X0.0240*%
%ADD22R,0.0240X0.0180*%
%ADD23C,0.0591*%
%ADD24C,0.0098*%
%ADD25C,0.0630*%
%ADD26C,0.0669*%
%ADD27C,0.0866*%
D10*
X021144Y000097D02*
X021784Y000097D01*
X021784Y000310D02*
X021784Y-000117D01*
X021784Y001172D02*
X021144Y001172D01*
X021571Y001386D02*
X021784Y001599D01*
X021144Y001599D01*
X021251Y001817D02*
X021144Y001924D01*
X021144Y002137D01*
X021251Y002244D01*
X021464Y002244D01*
X021571Y002137D01*
X021571Y001924D01*
X021464Y001817D01*
X021251Y001817D01*
X021571Y001386D02*
X021784Y001172D01*
X021571Y002461D02*
X021144Y002461D01*
X021357Y002461D02*
X021571Y002675D01*
X021571Y002782D01*
X021571Y002999D02*
X021144Y002999D01*
X021357Y002999D02*
X021571Y003212D01*
X021571Y003319D01*
X021571Y003536D02*
X021571Y003642D01*
X021144Y003642D01*
X021144Y003536D02*
X021144Y003749D01*
X021144Y003965D02*
X021144Y004286D01*
X021251Y004392D01*
X021357Y004286D01*
X021357Y004072D01*
X021464Y003965D01*
X021571Y004072D01*
X021571Y004392D01*
X021464Y004610D02*
X021251Y004610D01*
X021144Y004717D01*
X021144Y004930D01*
X021251Y005037D01*
X021464Y005037D01*
X021571Y004930D01*
X021571Y004717D01*
X021464Y004610D01*
X021571Y005254D02*
X021144Y005254D01*
X021571Y005254D02*
X021571Y005575D01*
X021464Y005681D01*
X021144Y005681D01*
X021784Y003642D02*
X021891Y003642D01*
D11*
X013247Y001267D03*
X012125Y002054D03*
X011149Y001342D03*
X010093Y002054D03*
X008487Y001464D03*
X007275Y002054D03*
X006062Y001464D03*
X004849Y002251D03*
X001267Y008536D03*
X001956Y009747D03*
X001365Y010574D03*
X002152Y011710D03*
X001365Y012818D03*
X002349Y013940D03*
X001365Y014865D03*
X003086Y015440D03*
X004452Y015578D03*
X007714Y015210D03*
X017046Y011424D03*
D12*
X013129Y014964D03*
X011810Y014964D03*
X010294Y014964D03*
X009097Y011932D03*
X009353Y007904D03*
X010817Y007251D03*
X016841Y003515D03*
X016841Y002259D03*
X018566Y003310D03*
X020338Y003408D03*
X020633Y004590D03*
X004137Y007160D03*
X002849Y006341D03*
X002743Y007357D03*
X003621Y008901D03*
D13*
X004885Y007936D03*
X004885Y007936D03*
X006952Y009609D03*
X010298Y012956D03*
X010101Y013940D03*
X008428Y013349D03*
X015121Y008527D03*
X011676Y006952D03*
X016007Y011676D03*
X003410Y002970D03*
X003410Y001386D03*
X001097Y001386D03*
X001087Y002970D03*
X001145Y007444D03*
X014629Y001243D03*
D14*
X007739Y006097D03*
X007739Y007216D03*
D15*
X005937Y005869D03*
X004817Y005869D03*
X004817Y004688D03*
X005937Y004688D03*
X002855Y004847D03*
X001735Y004847D03*
D16*
X019944Y015534D03*
D17*
X017370Y013251D03*
X011494Y013251D03*
X018763Y007527D03*
X018763Y001652D03*
D18*
X018763Y004590D03*
X014432Y013251D03*
D19*
X007050Y006617D03*
X007050Y006105D03*
D20*
X015062Y003999D03*
X015574Y003999D03*
D21*
X015620Y005377D03*
X016000Y005377D03*
D22*
X017385Y005468D03*
X017385Y005088D03*
D23*
X016794Y005672D03*
X016794Y005672D03*
X017188Y006460D03*
X016465Y006786D03*
X016877Y007828D03*
X012956Y006755D03*
X012956Y006755D03*
X012428Y007200D03*
X012426Y007204D03*
X012365Y008527D03*
X011479Y010200D03*
X010987Y010692D03*
X008527Y009412D03*
X008133Y011578D03*
X007444Y013940D03*
X004590Y014727D03*
X005278Y006755D03*
X007739Y006066D03*
X013054Y005771D03*
X018369Y001341D03*
X020338Y002424D03*
X019452Y002818D03*
X018861Y012267D03*
X018861Y013152D03*
X018861Y014038D03*
X018861Y015416D03*
X002129Y001440D03*
D24*
X001425Y001001D02*
X001419Y000997D01*
X003088Y000997D01*
X003082Y001001D01*
X003026Y001058D01*
X002980Y001122D01*
X002944Y001192D01*
X002919Y001268D01*
X002907Y001346D01*
X002907Y001376D01*
X003046Y001376D01*
X003046Y001395D01*
X002907Y001395D01*
X002907Y001425D01*
X002919Y001503D01*
X002944Y001579D01*
X002980Y001649D01*
X003026Y001714D01*
X003082Y001770D01*
X003146Y001816D01*
X003217Y001852D01*
X003292Y001877D01*
X003371Y001889D01*
X003400Y001889D01*
X003400Y001750D01*
X003420Y001750D01*
X003420Y001889D01*
X003450Y001889D01*
X003528Y001877D01*
X003604Y001852D01*
X003674Y001816D01*
X003738Y001770D01*
X003794Y001714D01*
X003841Y001649D01*
X003877Y001579D01*
X003901Y001503D01*
X003914Y001425D01*
X003914Y001395D01*
X003774Y001395D01*
X003774Y001376D01*
X003914Y001376D01*
X003914Y001346D01*
X003901Y001268D01*
X003877Y001192D01*
X003841Y001122D01*
X003794Y001058D01*
X003738Y001001D01*
X003732Y000997D01*
X005703Y000997D01*
X005567Y001133D01*
X005478Y001347D01*
X005478Y001580D01*
X005567Y001794D01*
X005731Y001958D01*
X005946Y002047D01*
X006178Y002047D01*
X006393Y001958D01*
X006557Y001794D01*
X006646Y001580D01*
X006646Y001347D01*
X006557Y001133D01*
X006421Y000997D01*
X008128Y000997D01*
X007992Y001133D01*
X007903Y001347D01*
X007903Y001580D01*
X007992Y001794D01*
X008156Y001958D01*
X008371Y002047D01*
X008603Y002047D01*
X008818Y001958D01*
X008982Y001794D01*
X009071Y001580D01*
X009071Y001347D01*
X008982Y001133D01*
X008846Y000997D01*
X010668Y000997D01*
X010654Y001011D01*
X010565Y001225D01*
X010565Y001458D01*
X010654Y001672D01*
X010818Y001837D01*
X011033Y001925D01*
X011265Y001925D01*
X011480Y001837D01*
X011644Y001672D01*
X011733Y001458D01*
X011733Y001225D01*
X011644Y001011D01*
X011630Y000997D01*
X012727Y000997D01*
X012663Y001151D01*
X012663Y001383D01*
X012752Y001597D01*
X012916Y001762D01*
X013131Y001851D01*
X013363Y001851D01*
X013578Y001762D01*
X013742Y001597D01*
X013831Y001383D01*
X013831Y001151D01*
X013767Y000997D01*
X017989Y000997D01*
X017989Y001101D01*
X017926Y001253D01*
X017926Y001430D01*
X017989Y001582D01*
X017989Y002083D01*
X017951Y002121D01*
X017874Y002090D01*
X017683Y002090D01*
X017505Y002163D01*
X017385Y002283D01*
X017385Y002151D01*
X017303Y001951D01*
X017150Y001798D01*
X016950Y001715D01*
X016733Y001715D01*
X016533Y001798D01*
X016380Y001951D01*
X016298Y002151D01*
X016298Y002367D01*
X016380Y002567D01*
X016533Y002720D01*
X016733Y002803D01*
X016950Y002803D01*
X017150Y002720D01*
X017296Y002573D01*
X017296Y002668D01*
X017370Y002845D01*
X017505Y002981D01*
X017683Y003054D01*
X017756Y003054D01*
X017697Y003113D01*
X017599Y003113D01*
X017362Y003350D01*
X017303Y003207D01*
X017150Y003054D01*
X016950Y002971D01*
X016733Y002971D01*
X016533Y003054D01*
X016380Y003207D01*
X016298Y003407D01*
X016298Y003623D01*
X016344Y003734D01*
X016276Y003802D01*
X015859Y003802D01*
X015859Y003761D01*
X015773Y003674D01*
X015375Y003674D01*
X015318Y003731D01*
X015261Y003674D01*
X014863Y003674D01*
X014777Y003761D01*
X014777Y003802D01*
X013858Y003802D01*
X013276Y004385D01*
X013199Y004353D01*
X013007Y004353D01*
X012830Y004427D01*
X012815Y004442D01*
X007461Y004442D01*
X007215Y004688D01*
X007099Y004803D01*
X007099Y004803D01*
X006804Y004508D01*
X006804Y004114D01*
X006689Y003999D01*
X006689Y003999D01*
X005869Y003179D01*
X005869Y003179D01*
X005754Y003064D01*
X004410Y003064D01*
X003129Y004345D01*
X002479Y004345D01*
X002392Y004431D01*
X002392Y005263D01*
X002479Y005350D01*
X002658Y005350D01*
X002658Y005357D01*
X002146Y005869D01*
X002030Y005984D01*
X002030Y006575D01*
X001752Y006853D01*
X001637Y006969D01*
X001637Y007320D01*
X001570Y007159D01*
X001429Y007018D01*
X001244Y006942D01*
X001243Y006942D01*
X001243Y005163D01*
X001272Y005134D01*
X001272Y005263D01*
X001359Y005350D01*
X002111Y005350D01*
X002198Y005263D01*
X002198Y004431D01*
X002111Y004345D01*
X001359Y004345D01*
X001272Y004431D01*
X001272Y004639D01*
X001211Y004639D01*
X001084Y004766D01*
X000965Y004885D01*
X000898Y004952D01*
X000898Y003438D01*
X000970Y003461D01*
X001048Y003474D01*
X001078Y003474D01*
X001078Y003334D01*
X001097Y003334D01*
X001097Y003474D01*
X001127Y003474D01*
X001205Y003461D01*
X001281Y003437D01*
X001351Y003401D01*
X001415Y003354D01*
X001472Y003298D01*
X001518Y003234D01*
X001554Y003164D01*
X001579Y003088D01*
X001591Y003010D01*
X001591Y002980D01*
X001452Y002980D01*
X001452Y002960D01*
X001591Y002960D01*
X001591Y002931D01*
X001579Y002852D01*
X001554Y002777D01*
X001553Y002776D01*
X001596Y002793D01*
X001741Y002793D01*
X001874Y002738D01*
X001977Y002635D01*
X002032Y002501D01*
X002032Y002356D01*
X001977Y002223D01*
X001874Y002120D01*
X001741Y002065D01*
X001596Y002065D01*
X001462Y002120D01*
X001359Y002223D01*
X001304Y002356D01*
X001304Y002501D01*
X001311Y002519D01*
X001281Y002504D01*
X001205Y002479D01*
X001127Y002467D01*
X001097Y002467D01*
X001097Y002606D01*
X001078Y002606D01*
X001078Y002467D01*
X001048Y002467D01*
X000970Y002479D01*
X000898Y002502D01*
X000898Y001849D01*
X000904Y001852D01*
X000979Y001877D01*
X001058Y001889D01*
X001087Y001889D01*
X001087Y001750D01*
X001107Y001750D01*
X001107Y001889D01*
X001137Y001889D01*
X001215Y001877D01*
X001291Y001852D01*
X001361Y001816D01*
X001425Y001770D01*
X001481Y001714D01*
X001528Y001649D01*
X001564Y001579D01*
X001588Y001503D01*
X001601Y001425D01*
X001601Y001395D01*
X001461Y001395D01*
X001461Y001376D01*
X001601Y001376D01*
X001601Y001346D01*
X001588Y001268D01*
X001564Y001192D01*
X001528Y001122D01*
X001481Y001058D01*
X001425Y001001D01*
X001466Y001042D02*
X003042Y001042D01*
X002971Y001139D02*
X001537Y001139D01*
X001578Y001236D02*
X002930Y001236D01*
X002909Y001332D02*
X001599Y001332D01*
X001600Y001429D02*
X002907Y001429D01*
X002927Y001526D02*
X001581Y001526D01*
X001541Y001623D02*
X002966Y001623D01*
X003033Y001720D02*
X001475Y001720D01*
X001359Y001817D02*
X003148Y001817D01*
X003400Y001817D02*
X003420Y001817D01*
X003672Y001817D02*
X004457Y001817D01*
X004519Y001756D02*
X004733Y001667D01*
X004965Y001667D01*
X005180Y001756D01*
X005344Y001920D01*
X005433Y002135D01*
X005433Y002367D01*
X005344Y002582D01*
X005180Y002746D01*
X004965Y002835D01*
X004733Y002835D01*
X004519Y002746D01*
X004354Y002582D01*
X004265Y002367D01*
X004265Y002135D01*
X004354Y001920D01*
X004519Y001756D01*
X004605Y001720D02*
X003788Y001720D01*
X003854Y001623D02*
X005496Y001623D01*
X005478Y001526D02*
X003894Y001526D01*
X003913Y001429D02*
X005478Y001429D01*
X005484Y001332D02*
X003912Y001332D01*
X003891Y001236D02*
X005524Y001236D01*
X005565Y001139D02*
X003850Y001139D01*
X003779Y001042D02*
X005658Y001042D01*
X005536Y001720D02*
X005094Y001720D01*
X005241Y001817D02*
X005590Y001817D01*
X005687Y001914D02*
X005338Y001914D01*
X005382Y002011D02*
X005858Y002011D01*
X006266Y002011D02*
X006691Y002011D01*
X006691Y001938D02*
X006780Y001723D01*
X006944Y001559D01*
X007158Y001470D01*
X007391Y001470D01*
X007605Y001559D01*
X007770Y001723D01*
X007858Y001938D01*
X007858Y002170D01*
X007770Y002385D01*
X007605Y002549D01*
X007391Y002638D01*
X007158Y002638D01*
X006944Y002549D01*
X006780Y002385D01*
X006691Y002170D01*
X006691Y001938D01*
X006701Y001914D02*
X006437Y001914D01*
X006534Y001817D02*
X006741Y001817D01*
X006783Y001720D02*
X006588Y001720D01*
X006628Y001623D02*
X006880Y001623D01*
X007023Y001526D02*
X006646Y001526D01*
X006646Y001429D02*
X007903Y001429D01*
X007909Y001332D02*
X006640Y001332D01*
X006599Y001236D02*
X007950Y001236D01*
X007990Y001139D02*
X006559Y001139D01*
X006466Y001042D02*
X008083Y001042D01*
X007903Y001526D02*
X007526Y001526D01*
X007669Y001623D02*
X007921Y001623D01*
X007961Y001720D02*
X007766Y001720D01*
X007808Y001817D02*
X008015Y001817D01*
X008112Y001914D02*
X007848Y001914D01*
X007858Y002011D02*
X008283Y002011D01*
X008691Y002011D02*
X009510Y002011D01*
X009510Y001938D02*
X009598Y001723D01*
X009763Y001559D01*
X009977Y001470D01*
X010210Y001470D01*
X010424Y001559D01*
X010588Y001723D01*
X010677Y001938D01*
X010677Y002170D01*
X010588Y002385D01*
X010424Y002549D01*
X010210Y002638D01*
X009977Y002638D01*
X009763Y002549D01*
X009598Y002385D01*
X009510Y002170D01*
X009510Y001938D01*
X009519Y001914D02*
X008862Y001914D01*
X008959Y001817D02*
X009560Y001817D01*
X009602Y001720D02*
X009013Y001720D01*
X009053Y001623D02*
X009699Y001623D01*
X009842Y001526D02*
X009071Y001526D01*
X009071Y001429D02*
X010565Y001429D01*
X010565Y001332D02*
X009065Y001332D01*
X009025Y001236D02*
X010565Y001236D01*
X010601Y001139D02*
X008985Y001139D01*
X008891Y001042D02*
X010641Y001042D01*
X010594Y001526D02*
X010345Y001526D01*
X010488Y001623D02*
X010634Y001623D01*
X010585Y001720D02*
X010702Y001720D01*
X010627Y001817D02*
X010799Y001817D01*
X010667Y001914D02*
X011005Y001914D01*
X010677Y002011D02*
X011541Y002011D01*
X011541Y001938D02*
X011630Y001723D01*
X011794Y001559D01*
X012009Y001470D01*
X012241Y001470D01*
X012456Y001559D01*
X012620Y001723D01*
X012709Y001938D01*
X012709Y002170D01*
X012620Y002385D01*
X012456Y002549D01*
X012241Y002638D01*
X012009Y002638D01*
X011794Y002549D01*
X011630Y002385D01*
X011541Y002170D01*
X011541Y001938D01*
X011551Y001914D02*
X011293Y001914D01*
X011499Y001817D02*
X011591Y001817D01*
X011596Y001720D02*
X011633Y001720D01*
X011664Y001623D02*
X011730Y001623D01*
X011705Y001526D02*
X011873Y001526D01*
X011733Y001429D02*
X012682Y001429D01*
X012663Y001332D02*
X011733Y001332D01*
X011733Y001236D02*
X012663Y001236D01*
X012668Y001139D02*
X011697Y001139D01*
X011657Y001042D02*
X012708Y001042D01*
X012723Y001526D02*
X012377Y001526D01*
X012520Y001623D02*
X012778Y001623D01*
X012875Y001720D02*
X012617Y001720D01*
X012659Y001817D02*
X013050Y001817D01*
X012699Y001914D02*
X016417Y001914D01*
X016355Y002011D02*
X012709Y002011D01*
X012709Y002108D02*
X016315Y002108D01*
X016298Y002205D02*
X012694Y002205D01*
X012654Y002302D02*
X016298Y002302D01*
X016311Y002399D02*
X012606Y002399D01*
X012509Y002496D02*
X016351Y002496D01*
X016406Y002593D02*
X012351Y002593D01*
X011899Y002593D02*
X010319Y002593D01*
X010478Y002496D02*
X011741Y002496D01*
X011644Y002399D02*
X010575Y002399D01*
X010623Y002302D02*
X011596Y002302D01*
X011555Y002205D02*
X010663Y002205D01*
X010677Y002108D02*
X011541Y002108D01*
X009868Y002593D02*
X007500Y002593D01*
X007659Y002496D02*
X009709Y002496D01*
X009612Y002399D02*
X007756Y002399D01*
X007804Y002302D02*
X009564Y002302D01*
X009524Y002205D02*
X007844Y002205D01*
X007858Y002108D02*
X009510Y002108D01*
X007049Y002593D02*
X005333Y002593D01*
X005380Y002496D02*
X006890Y002496D01*
X006793Y002399D02*
X005420Y002399D01*
X005433Y002302D02*
X006745Y002302D01*
X006705Y002205D02*
X005433Y002205D01*
X005422Y002108D02*
X006691Y002108D01*
X005767Y003077D02*
X016510Y003077D01*
X016413Y003174D02*
X005864Y003174D01*
X005961Y003271D02*
X016354Y003271D01*
X016314Y003368D02*
X006058Y003368D01*
X006155Y003465D02*
X016298Y003465D01*
X016298Y003562D02*
X006252Y003562D01*
X006348Y003659D02*
X016312Y003659D01*
X016322Y003756D02*
X015854Y003756D01*
X015574Y003999D02*
X016357Y003999D01*
X016841Y003515D01*
X016843Y003556D01*
X017139Y003851D01*
X017680Y003310D01*
X017778Y003310D01*
X018467Y002621D01*
X019156Y002621D01*
X019452Y002818D01*
X019040Y002980D02*
X019005Y002980D01*
X019027Y003002D02*
X019110Y003202D01*
X019110Y003418D01*
X019027Y003618D01*
X018983Y003662D01*
X019603Y003662D01*
X019690Y003749D01*
X019690Y005430D01*
X019603Y005517D01*
X018114Y005517D01*
X018074Y005557D01*
X018074Y006756D01*
X018076Y006754D01*
X019450Y006754D01*
X019536Y006840D01*
X019536Y008215D01*
X019450Y008301D01*
X018076Y008301D01*
X018074Y008299D01*
X018074Y012494D01*
X018144Y012564D01*
X018144Y013938D01*
X018057Y014025D01*
X016683Y014025D01*
X016596Y013938D01*
X016596Y013235D01*
X015424Y014407D01*
X015456Y014484D01*
X015456Y014676D01*
X015382Y014853D01*
X015247Y014989D01*
X015069Y015062D01*
X014877Y015062D01*
X014700Y014989D01*
X014564Y014853D01*
X014491Y014676D01*
X014491Y014484D01*
X014564Y014306D01*
X014691Y014180D01*
X014481Y014180D01*
X014481Y013300D01*
X014383Y013300D01*
X014383Y014180D01*
X013633Y014180D01*
X013595Y014169D01*
X013561Y014150D01*
X013533Y014122D01*
X013513Y014088D01*
X013503Y014050D01*
X013503Y013300D01*
X014383Y013300D01*
X014383Y013202D01*
X013503Y013202D01*
X013503Y012452D01*
X013513Y012414D01*
X013533Y012380D01*
X013561Y012352D01*
X013595Y012332D01*
X013633Y012322D01*
X014383Y012322D01*
X014383Y013202D01*
X014481Y013202D01*
X014481Y013300D01*
X015361Y013300D01*
X015361Y013914D01*
X016351Y012923D01*
X016351Y012628D01*
X016971Y012008D01*
X016930Y012008D01*
X016715Y011919D01*
X016551Y011755D01*
X016509Y011652D01*
X016509Y011776D01*
X016432Y011960D01*
X016291Y012102D01*
X016107Y012178D01*
X015907Y012178D01*
X015722Y012102D01*
X015581Y011960D01*
X015505Y011776D01*
X015505Y011576D01*
X015581Y011392D01*
X015722Y011251D01*
X015810Y011214D01*
X015810Y008133D01*
X015437Y008133D01*
X015547Y008242D01*
X015623Y008427D01*
X015623Y008626D01*
X015547Y008811D01*
X015405Y008952D01*
X015221Y009028D01*
X015021Y009028D01*
X014934Y008992D01*
X014235Y009691D01*
X014235Y011167D01*
X014120Y011282D01*
X013136Y012267D01*
X010478Y012267D01*
X010291Y012454D01*
X010398Y012454D01*
X010583Y012530D01*
X010720Y012668D01*
X010720Y012564D01*
X010807Y012477D01*
X012181Y012477D01*
X012268Y012564D01*
X012268Y013938D01*
X012181Y014025D01*
X010807Y014025D01*
X010720Y013938D01*
X010720Y013243D01*
X010583Y013381D01*
X010398Y013458D01*
X010249Y013458D01*
X010386Y013514D01*
X010527Y013656D01*
X010603Y013840D01*
X010603Y014040D01*
X010527Y014224D01*
X010386Y014365D01*
X010255Y014420D01*
X010402Y014420D01*
X010602Y014502D01*
X010755Y014655D01*
X010838Y014855D01*
X010838Y015072D01*
X010755Y015272D01*
X010602Y015425D01*
X010402Y015507D01*
X010186Y015507D01*
X009986Y015425D01*
X009833Y015272D01*
X009750Y015072D01*
X009750Y014855D01*
X009833Y014655D01*
X009986Y014502D01*
X010132Y014442D01*
X010001Y014442D01*
X009925Y014410D01*
X008551Y015853D01*
X019442Y015851D01*
X019442Y015737D01*
X019402Y015642D01*
X019402Y015427D01*
X019442Y015332D01*
X019442Y009875D01*
X019479Y009785D01*
X019549Y009716D01*
X019639Y009678D01*
X022026Y009678D01*
X022001Y006250D01*
X020871Y006250D01*
X020852Y006247D01*
X020833Y006242D01*
X020815Y006235D01*
X020798Y006225D01*
X020783Y006214D01*
X020769Y006200D01*
X020758Y006185D01*
X020748Y006168D01*
X020740Y006150D01*
X020735Y006131D01*
X020733Y006112D01*
X020733Y005133D01*
X020525Y005133D01*
X020325Y005051D01*
X020172Y004898D01*
X020089Y004698D01*
X020089Y004481D01*
X020172Y004281D01*
X020325Y004128D01*
X020525Y004046D01*
X020733Y004046D01*
X020733Y003782D01*
X020646Y003869D01*
X020446Y003952D01*
X020229Y003952D01*
X020029Y003869D01*
X019876Y003716D01*
X019794Y003517D01*
X019794Y003300D01*
X019876Y003100D01*
X020029Y002947D01*
X020229Y002865D01*
X020446Y002865D01*
X020646Y002947D01*
X020733Y003035D01*
X020733Y000997D01*
X019536Y000997D01*
X019536Y002339D01*
X019500Y002375D01*
X019540Y002375D01*
X019703Y002442D01*
X019827Y002567D01*
X019895Y002730D01*
X019895Y002906D01*
X019827Y003069D01*
X019703Y003193D01*
X019540Y003261D01*
X019364Y003261D01*
X019201Y003193D01*
X019076Y003069D01*
X019009Y002906D01*
X019009Y002818D01*
X018799Y002818D01*
X018874Y002849D01*
X019027Y003002D01*
X019058Y003077D02*
X019085Y003077D01*
X019098Y003174D02*
X019182Y003174D01*
X019110Y003271D02*
X019806Y003271D01*
X019794Y003368D02*
X019110Y003368D01*
X019090Y003465D02*
X019794Y003465D01*
X019812Y003562D02*
X019050Y003562D01*
X018986Y003659D02*
X019853Y003659D01*
X019916Y003756D02*
X019690Y003756D01*
X019690Y003853D02*
X020013Y003853D01*
X020223Y003949D02*
X019690Y003949D01*
X019690Y004046D02*
X020523Y004046D01*
X020452Y003949D02*
X020733Y003949D01*
X020733Y003853D02*
X020663Y003853D01*
X020310Y004143D02*
X019690Y004143D01*
X019690Y004240D02*
X020213Y004240D01*
X020149Y004337D02*
X019690Y004337D01*
X019690Y004434D02*
X020109Y004434D01*
X020089Y004531D02*
X019690Y004531D01*
X019690Y004628D02*
X020089Y004628D01*
X020100Y004725D02*
X019690Y004725D01*
X019690Y004822D02*
X020140Y004822D01*
X020193Y004919D02*
X019690Y004919D01*
X019690Y005016D02*
X020290Y005016D01*
X020474Y005113D02*
X019690Y005113D01*
X019690Y005209D02*
X020733Y005209D01*
X020733Y005306D02*
X019690Y005306D01*
X019690Y005403D02*
X020733Y005403D01*
X020733Y005500D02*
X019620Y005500D01*
X020733Y005597D02*
X018074Y005597D01*
X018074Y005694D02*
X020733Y005694D01*
X020733Y005791D02*
X018074Y005791D01*
X018074Y005888D02*
X020733Y005888D01*
X020733Y005985D02*
X018074Y005985D01*
X018074Y006082D02*
X020733Y006082D01*
X020754Y006179D02*
X018074Y006179D01*
X018074Y006276D02*
X022001Y006276D01*
X022002Y006373D02*
X018074Y006373D01*
X018074Y006470D02*
X022003Y006470D01*
X022003Y006566D02*
X018074Y006566D01*
X018074Y006663D02*
X022004Y006663D01*
X022005Y006760D02*
X019456Y006760D01*
X019536Y006857D02*
X022005Y006857D01*
X022006Y006954D02*
X019536Y006954D01*
X019536Y007051D02*
X022007Y007051D01*
X022007Y007148D02*
X019536Y007148D01*
X019536Y007245D02*
X022008Y007245D01*
X022009Y007342D02*
X019536Y007342D01*
X019536Y007439D02*
X022009Y007439D01*
X022010Y007536D02*
X019536Y007536D01*
X019536Y007633D02*
X022011Y007633D01*
X022012Y007730D02*
X019536Y007730D01*
X019536Y007826D02*
X022012Y007826D01*
X022013Y007923D02*
X019536Y007923D01*
X019536Y008020D02*
X022014Y008020D01*
X022014Y008117D02*
X019536Y008117D01*
X019536Y008214D02*
X022015Y008214D01*
X022016Y008311D02*
X018074Y008311D01*
X018074Y008408D02*
X022016Y008408D01*
X022017Y008505D02*
X018074Y008505D01*
X018074Y008602D02*
X022018Y008602D01*
X022019Y008699D02*
X018074Y008699D01*
X018074Y008796D02*
X022019Y008796D01*
X022020Y008893D02*
X018074Y008893D01*
X018074Y008990D02*
X022021Y008990D01*
X022021Y009087D02*
X018074Y009087D01*
X018074Y009183D02*
X022022Y009183D01*
X022023Y009280D02*
X018074Y009280D01*
X018074Y009377D02*
X022023Y009377D01*
X022024Y009474D02*
X018074Y009474D01*
X018074Y009571D02*
X022025Y009571D01*
X022025Y009668D02*
X018074Y009668D01*
X018074Y009765D02*
X019499Y009765D01*
X019447Y009862D02*
X018074Y009862D01*
X018074Y009959D02*
X019442Y009959D01*
X019442Y010056D02*
X018074Y010056D01*
X018074Y010153D02*
X019442Y010153D01*
X019442Y010250D02*
X018074Y010250D01*
X018074Y010347D02*
X019442Y010347D01*
X019442Y010443D02*
X018074Y010443D01*
X018074Y010540D02*
X019442Y010540D01*
X019442Y010637D02*
X018074Y010637D01*
X018074Y010734D02*
X019442Y010734D01*
X019442Y010831D02*
X018074Y010831D01*
X018074Y010928D02*
X019442Y010928D01*
X019442Y011025D02*
X018074Y011025D01*
X018074Y011122D02*
X019442Y011122D01*
X019442Y011219D02*
X018074Y011219D01*
X018074Y011316D02*
X019442Y011316D01*
X019442Y011413D02*
X018074Y011413D01*
X018074Y011510D02*
X019442Y011510D01*
X019442Y011607D02*
X018074Y011607D01*
X018074Y011703D02*
X019442Y011703D01*
X019442Y011800D02*
X018074Y011800D01*
X018074Y011897D02*
X019442Y011897D01*
X019442Y011994D02*
X018074Y011994D01*
X018074Y012091D02*
X019442Y012091D01*
X019442Y012188D02*
X018074Y012188D01*
X018074Y012285D02*
X019442Y012285D01*
X019442Y012382D02*
X018074Y012382D01*
X018074Y012479D02*
X019442Y012479D01*
X019442Y012576D02*
X018144Y012576D01*
X018144Y012673D02*
X019442Y012673D01*
X019442Y012770D02*
X018144Y012770D01*
X018144Y012867D02*
X019442Y012867D01*
X019442Y012964D02*
X018144Y012964D01*
X018144Y013060D02*
X019442Y013060D01*
X019442Y013157D02*
X018144Y013157D01*
X018144Y013254D02*
X019442Y013254D01*
X019442Y013351D02*
X018144Y013351D01*
X018144Y013448D02*
X019442Y013448D01*
X019442Y013545D02*
X018144Y013545D01*
X018144Y013642D02*
X019442Y013642D01*
X019442Y013739D02*
X018144Y013739D01*
X018144Y013836D02*
X019442Y013836D01*
X019442Y013933D02*
X018144Y013933D01*
X017877Y013448D02*
X017877Y005475D01*
X018763Y004590D01*
X017631Y004343D02*
X017139Y003851D01*
X017631Y004343D02*
X017631Y011676D01*
X017286Y012021D01*
X017237Y012021D01*
X016548Y012710D01*
X016548Y013005D01*
X014973Y014580D01*
X015333Y014902D02*
X019442Y014902D01*
X019442Y014805D02*
X015402Y014805D01*
X015442Y014708D02*
X019442Y014708D01*
X019442Y014611D02*
X015456Y014611D01*
X015456Y014514D02*
X019442Y014514D01*
X019442Y014417D02*
X015428Y014417D01*
X015511Y014320D02*
X019442Y014320D01*
X019442Y014224D02*
X015608Y014224D01*
X015705Y014127D02*
X019442Y014127D01*
X019442Y014030D02*
X015802Y014030D01*
X015899Y013933D02*
X016596Y013933D01*
X016596Y013836D02*
X015996Y013836D01*
X016092Y013739D02*
X016596Y013739D01*
X016596Y013642D02*
X016189Y013642D01*
X016286Y013545D02*
X016596Y013545D01*
X016596Y013448D02*
X016383Y013448D01*
X016480Y013351D02*
X016596Y013351D01*
X016596Y013254D02*
X016577Y013254D01*
X016311Y012964D02*
X015361Y012964D01*
X015361Y013060D02*
X016214Y013060D01*
X016117Y013157D02*
X015361Y013157D01*
X015361Y013202D02*
X014481Y013202D01*
X014481Y012322D01*
X015231Y012322D01*
X015269Y012332D01*
X015303Y012352D01*
X015331Y012380D01*
X015351Y012414D01*
X015361Y012452D01*
X015361Y013202D01*
X015361Y013351D02*
X015923Y013351D01*
X015826Y013448D02*
X015361Y013448D01*
X015361Y013545D02*
X015730Y013545D01*
X015633Y013642D02*
X015361Y013642D01*
X015361Y013739D02*
X015536Y013739D01*
X015439Y013836D02*
X015361Y013836D01*
X014647Y014224D02*
X010527Y014224D01*
X010567Y014127D02*
X013538Y014127D01*
X013503Y014030D02*
X010603Y014030D01*
X010603Y013933D02*
X010720Y013933D01*
X010720Y013836D02*
X010602Y013836D01*
X010561Y013739D02*
X010720Y013739D01*
X010720Y013642D02*
X010513Y013642D01*
X010416Y013545D02*
X010720Y013545D01*
X010720Y013448D02*
X010421Y013448D01*
X010612Y013351D02*
X010720Y013351D01*
X010709Y013254D02*
X010720Y013254D01*
X010298Y012956D02*
X009117Y014137D01*
X009117Y014629D01*
X007936Y015810D01*
X007247Y015810D01*
X006361Y014924D01*
X006361Y009117D01*
X006755Y008723D01*
X006755Y005377D01*
X006066Y004688D01*
X005937Y004688D01*
X006399Y004725D02*
X006464Y004725D01*
X006399Y004743D02*
X006836Y005180D01*
X006902Y005246D01*
X006902Y005163D01*
X006526Y004786D01*
X006410Y004671D01*
X006410Y004277D01*
X005591Y003458D01*
X004573Y003458D01*
X003317Y004713D01*
X003317Y005263D01*
X003231Y005350D01*
X003052Y005350D01*
X003052Y005520D01*
X002774Y005798D01*
X002958Y005798D01*
X003157Y005880D01*
X003310Y006033D01*
X003393Y006233D01*
X003393Y006450D01*
X003310Y006650D01*
X003157Y006803D01*
X002991Y006871D01*
X003051Y006896D01*
X003204Y007049D01*
X003287Y007249D01*
X003287Y007465D01*
X003204Y007665D01*
X003051Y007818D01*
X002851Y007901D01*
X002635Y007901D01*
X002435Y007818D01*
X002282Y007665D01*
X002199Y007465D01*
X002199Y007249D01*
X002282Y007049D01*
X002435Y006896D01*
X002601Y006827D01*
X002541Y006803D01*
X002424Y006685D01*
X002424Y006738D01*
X002030Y007132D01*
X002030Y008150D01*
X003884Y010003D01*
X004277Y010003D01*
X004671Y010397D01*
X004786Y010512D01*
X004786Y014329D01*
X004840Y014352D01*
X004965Y014476D01*
X005032Y014639D01*
X005032Y014815D01*
X004965Y014978D01*
X004840Y015103D01*
X004811Y015115D01*
X004833Y015131D01*
X004898Y015196D01*
X004952Y015271D01*
X004994Y015353D01*
X005023Y015441D01*
X005037Y015528D01*
X004501Y015528D01*
X004501Y015627D01*
X005037Y015627D01*
X005023Y015715D01*
X004994Y015802D01*
X004968Y015854D01*
X006546Y015854D01*
X005794Y015029D01*
X005740Y014975D01*
X005740Y014970D01*
X005736Y014966D01*
X005740Y014889D01*
X005740Y006372D01*
X005561Y006372D01*
X005474Y006285D01*
X005474Y005453D01*
X005561Y005366D01*
X006313Y005366D01*
X006399Y005453D01*
X006399Y006285D01*
X006313Y006372D01*
X006134Y006372D01*
X006134Y014817D01*
X006164Y014851D01*
X006164Y009036D01*
X006280Y008920D01*
X006558Y008642D01*
X006558Y005458D01*
X006290Y005190D01*
X005561Y005190D01*
X005474Y005104D01*
X005474Y004272D01*
X005561Y004185D01*
X006313Y004185D01*
X006399Y004272D01*
X006399Y004743D01*
X006478Y004822D02*
X006561Y004822D01*
X006575Y004919D02*
X006658Y004919D01*
X006672Y005016D02*
X006755Y005016D01*
X006769Y005113D02*
X006852Y005113D01*
X006866Y005209D02*
X006902Y005209D01*
X007099Y005082D02*
X007296Y005082D01*
X007296Y004885D01*
X007542Y004639D01*
X012906Y004639D01*
X013103Y004836D01*
X013349Y005082D01*
X016007Y005082D01*
X016401Y005082D01*
X017385Y005088D01*
X016584Y005280D02*
X016400Y005278D01*
X016238Y005278D01*
X016238Y005558D01*
X016151Y005645D01*
X015849Y005645D01*
X015811Y005607D01*
X015802Y005616D01*
X015768Y005636D01*
X015730Y005646D01*
X015620Y005646D01*
X015620Y005377D01*
X015620Y005377D01*
X015620Y005646D01*
X015510Y005646D01*
X015472Y005636D01*
X015438Y005616D01*
X015411Y005589D01*
X015391Y005554D01*
X015381Y005517D01*
X015381Y005377D01*
X015620Y005377D01*
X013448Y005377D01*
X013054Y005771D01*
X013366Y006066D02*
X012382Y006066D01*
X012267Y006181D01*
X012267Y006181D01*
X012185Y006263D01*
X011955Y006263D01*
X011873Y006181D01*
X011873Y005672D01*
X012447Y005672D01*
X012562Y005557D01*
X012861Y005257D01*
X013007Y005318D01*
X013199Y005318D01*
X013294Y005278D01*
X015381Y005278D01*
X015381Y005377D01*
X015620Y005377D01*
X015620Y005377D01*
X015620Y005403D02*
X015620Y005403D01*
X015620Y005500D02*
X015620Y005500D01*
X015620Y005597D02*
X015620Y005597D01*
X015419Y005597D02*
X012522Y005597D01*
X012619Y005500D02*
X015381Y005500D01*
X015381Y005403D02*
X012715Y005403D01*
X012812Y005306D02*
X012980Y005306D01*
X013227Y005306D02*
X015381Y005306D01*
X016000Y005377D02*
X016007Y005082D01*
X016238Y005306D02*
X016534Y005306D01*
X016543Y005297D02*
X016584Y005280D01*
X016543Y005297D02*
X016419Y005421D01*
X016351Y005584D01*
X016351Y005760D01*
X016374Y005814D01*
X016319Y005869D01*
X013563Y005869D01*
X013448Y005984D01*
X013366Y006066D01*
X013447Y005985D02*
X011873Y005985D01*
X011873Y006082D02*
X012366Y006082D01*
X012269Y006179D02*
X011873Y006179D01*
X011676Y006263D02*
X011873Y006460D01*
X012267Y006460D01*
X012464Y006263D01*
X013448Y006263D01*
X013645Y006066D01*
X016401Y006066D01*
X016794Y005672D01*
X016386Y005500D02*
X016238Y005500D01*
X016238Y005403D02*
X016437Y005403D01*
X016351Y005597D02*
X016198Y005597D01*
X016351Y005694D02*
X011873Y005694D01*
X011873Y005791D02*
X016364Y005791D01*
X016991Y006263D02*
X013743Y006263D01*
X013546Y006460D01*
X013251Y006460D01*
X012956Y006755D01*
X013399Y006760D02*
X016862Y006760D01*
X016812Y006710D02*
X016745Y006548D01*
X016745Y006460D01*
X013825Y006460D01*
X013743Y006541D01*
X013628Y006656D01*
X013394Y006656D01*
X013399Y006667D01*
X013399Y006843D01*
X013331Y007006D01*
X013207Y007130D01*
X013044Y007198D01*
X012869Y007198D01*
X012869Y007292D01*
X012802Y007455D01*
X012677Y007579D01*
X012514Y007647D01*
X012338Y007647D01*
X012175Y007579D01*
X012051Y007455D01*
X012002Y007336D01*
X011960Y007377D01*
X011776Y007454D01*
X011576Y007454D01*
X011392Y007377D01*
X011361Y007346D01*
X011361Y007359D01*
X011278Y007559D01*
X011125Y007712D01*
X011014Y007758D01*
X011014Y007991D01*
X010898Y008106D01*
X010003Y009002D01*
X010003Y012185D01*
X010200Y011988D01*
X010315Y011873D01*
X012973Y011873D01*
X013841Y011004D01*
X013841Y009528D01*
X013957Y009412D01*
X014655Y008714D01*
X014619Y008626D01*
X014619Y008427D01*
X014695Y008242D01*
X014805Y008133D01*
X014521Y008133D01*
X014521Y008180D01*
X014447Y008357D01*
X014312Y008492D01*
X014134Y008566D01*
X013942Y008566D01*
X013765Y008492D01*
X013629Y008357D01*
X013556Y008180D01*
X013556Y007988D01*
X013629Y007810D01*
X013765Y007675D01*
X013942Y007601D01*
X014134Y007601D01*
X014312Y007675D01*
X014376Y007739D01*
X015990Y007739D01*
X016105Y007854D01*
X016204Y007953D01*
X016204Y011214D01*
X016291Y011251D01*
X016432Y011392D01*
X016462Y011464D01*
X016462Y011308D01*
X016551Y011093D01*
X016715Y010929D01*
X016930Y010840D01*
X017162Y010840D01*
X017377Y010929D01*
X017434Y010986D01*
X017434Y006837D01*
X017276Y006902D01*
X017100Y006902D01*
X016937Y006835D01*
X016812Y006710D01*
X016793Y006663D02*
X013397Y006663D01*
X013393Y006857D02*
X016991Y006857D01*
X017385Y006857D02*
X017434Y006857D01*
X017434Y006954D02*
X013352Y006954D01*
X013286Y007051D02*
X017434Y007051D01*
X017434Y007148D02*
X013164Y007148D01*
X012869Y007245D02*
X017434Y007245D01*
X017434Y007342D02*
X012848Y007342D01*
X012808Y007439D02*
X017434Y007439D01*
X017434Y007536D02*
X012720Y007536D01*
X012548Y007633D02*
X013867Y007633D01*
X013710Y007730D02*
X011083Y007730D01*
X011014Y007826D02*
X013623Y007826D01*
X013583Y007923D02*
X011014Y007923D01*
X010984Y008020D02*
X013556Y008020D01*
X013556Y008117D02*
X010887Y008117D01*
X010790Y008214D02*
X013570Y008214D01*
X013611Y008311D02*
X010694Y008311D01*
X010597Y008408D02*
X013681Y008408D01*
X013795Y008505D02*
X010500Y008505D01*
X010403Y008602D02*
X014619Y008602D01*
X014619Y008505D02*
X014281Y008505D01*
X014396Y008408D02*
X014627Y008408D01*
X014667Y008311D02*
X014466Y008311D01*
X014506Y008214D02*
X014723Y008214D01*
X014334Y007936D02*
X014186Y008084D01*
X014038Y008084D01*
X014334Y007936D02*
X015908Y007936D01*
X016007Y008034D01*
X016007Y011676D01*
X016356Y011316D02*
X016462Y011316D01*
X016462Y011413D02*
X016441Y011413D01*
X016499Y011219D02*
X016215Y011219D01*
X016204Y011122D02*
X016539Y011122D01*
X016620Y011025D02*
X016204Y011025D01*
X016204Y010928D02*
X016718Y010928D01*
X016204Y010831D02*
X017434Y010831D01*
X017434Y010734D02*
X016204Y010734D01*
X016204Y010637D02*
X017434Y010637D01*
X017434Y010540D02*
X016204Y010540D01*
X016204Y010443D02*
X017434Y010443D01*
X017434Y010347D02*
X016204Y010347D01*
X016204Y010250D02*
X017434Y010250D01*
X017434Y010153D02*
X016204Y010153D01*
X016204Y010056D02*
X017434Y010056D01*
X017434Y009959D02*
X016204Y009959D01*
X016204Y009862D02*
X017434Y009862D01*
X017434Y009765D02*
X016204Y009765D01*
X016204Y009668D02*
X017434Y009668D01*
X017434Y009571D02*
X016204Y009571D01*
X016204Y009474D02*
X017434Y009474D01*
X017434Y009377D02*
X016204Y009377D01*
X016204Y009280D02*
X017434Y009280D01*
X017434Y009183D02*
X016204Y009183D01*
X016204Y009087D02*
X017434Y009087D01*
X017434Y008990D02*
X016204Y008990D01*
X016204Y008893D02*
X017434Y008893D01*
X017434Y008796D02*
X016204Y008796D01*
X016204Y008699D02*
X017434Y008699D01*
X017434Y008602D02*
X016204Y008602D01*
X016204Y008505D02*
X017434Y008505D01*
X017434Y008408D02*
X016204Y008408D01*
X016204Y008311D02*
X017434Y008311D01*
X017434Y008214D02*
X016204Y008214D01*
X016204Y008117D02*
X017434Y008117D01*
X017434Y008020D02*
X016204Y008020D01*
X016174Y007923D02*
X017434Y007923D01*
X017434Y007826D02*
X016077Y007826D01*
X015810Y008214D02*
X015519Y008214D01*
X015575Y008311D02*
X015810Y008311D01*
X015810Y008408D02*
X015615Y008408D01*
X015623Y008505D02*
X015810Y008505D01*
X015810Y008602D02*
X015623Y008602D01*
X015593Y008699D02*
X015810Y008699D01*
X015810Y008796D02*
X015553Y008796D01*
X015465Y008893D02*
X015810Y008893D01*
X015810Y008990D02*
X015315Y008990D01*
X014839Y009087D02*
X015810Y009087D01*
X015810Y009183D02*
X014742Y009183D01*
X014646Y009280D02*
X015810Y009280D01*
X015810Y009377D02*
X014549Y009377D01*
X014452Y009474D02*
X015810Y009474D01*
X015810Y009571D02*
X014355Y009571D01*
X014258Y009668D02*
X015810Y009668D01*
X015810Y009765D02*
X014235Y009765D01*
X014235Y009862D02*
X015810Y009862D01*
X015810Y009959D02*
X014235Y009959D01*
X014235Y010056D02*
X015810Y010056D01*
X015810Y010153D02*
X014235Y010153D01*
X014235Y010250D02*
X015810Y010250D01*
X015810Y010347D02*
X014235Y010347D01*
X014235Y010443D02*
X015810Y010443D01*
X015810Y010540D02*
X014235Y010540D01*
X014235Y010637D02*
X015810Y010637D01*
X015810Y010734D02*
X014235Y010734D01*
X014235Y010831D02*
X015810Y010831D01*
X015810Y010928D02*
X014235Y010928D01*
X014235Y011025D02*
X015810Y011025D01*
X015810Y011122D02*
X014235Y011122D01*
X014183Y011219D02*
X015799Y011219D01*
X015657Y011316D02*
X014086Y011316D01*
X013990Y011413D02*
X015573Y011413D01*
X015532Y011510D02*
X013893Y011510D01*
X013796Y011607D02*
X015505Y011607D01*
X015505Y011703D02*
X013699Y011703D01*
X013602Y011800D02*
X015515Y011800D01*
X015555Y011897D02*
X013505Y011897D01*
X013408Y011994D02*
X015615Y011994D01*
X015712Y012091D02*
X013311Y012091D01*
X013214Y012188D02*
X016791Y012188D01*
X016694Y012285D02*
X010460Y012285D01*
X010363Y012382D02*
X013532Y012382D01*
X013503Y012479D02*
X012183Y012479D01*
X012268Y012576D02*
X013503Y012576D01*
X013503Y012673D02*
X012268Y012673D01*
X012268Y012770D02*
X013503Y012770D01*
X013503Y012867D02*
X012268Y012867D01*
X012268Y012964D02*
X013503Y012964D01*
X013503Y013060D02*
X012268Y013060D01*
X012268Y013157D02*
X013503Y013157D01*
X013503Y013351D02*
X012268Y013351D01*
X012268Y013254D02*
X014383Y013254D01*
X014383Y013157D02*
X014481Y013157D01*
X014481Y013060D02*
X014383Y013060D01*
X014383Y012964D02*
X014481Y012964D01*
X014481Y012867D02*
X014383Y012867D01*
X014383Y012770D02*
X014481Y012770D01*
X014481Y012673D02*
X014383Y012673D01*
X014383Y012576D02*
X014481Y012576D01*
X014481Y012479D02*
X014383Y012479D01*
X014383Y012382D02*
X014481Y012382D01*
X015332Y012382D02*
X016597Y012382D01*
X016500Y012479D02*
X015361Y012479D01*
X015361Y012576D02*
X016404Y012576D01*
X016351Y012673D02*
X015361Y012673D01*
X015361Y012770D02*
X016351Y012770D01*
X016351Y012867D02*
X015361Y012867D01*
X016020Y013254D02*
X014481Y013254D01*
X014481Y013351D02*
X014383Y013351D01*
X014383Y013448D02*
X014481Y013448D01*
X014481Y013545D02*
X014383Y013545D01*
X014383Y013642D02*
X014481Y013642D01*
X014481Y013739D02*
X014383Y013739D01*
X014383Y013836D02*
X014481Y013836D01*
X014481Y013933D02*
X014383Y013933D01*
X014383Y014030D02*
X014481Y014030D01*
X014481Y014127D02*
X014383Y014127D01*
X014559Y014320D02*
X010431Y014320D01*
X010260Y014417D02*
X014519Y014417D01*
X014491Y014514D02*
X013449Y014514D01*
X013437Y014502D02*
X013590Y014655D01*
X013673Y014855D01*
X013673Y015072D01*
X013590Y015272D01*
X013437Y015425D01*
X013237Y015507D01*
X013021Y015507D01*
X012821Y015425D01*
X012668Y015272D01*
X012585Y015072D01*
X012585Y014855D01*
X012668Y014655D01*
X012821Y014502D01*
X013021Y014420D01*
X013237Y014420D01*
X013437Y014502D01*
X013546Y014611D02*
X014491Y014611D01*
X014505Y014708D02*
X013612Y014708D01*
X013652Y014805D02*
X014545Y014805D01*
X014614Y014902D02*
X013673Y014902D01*
X013673Y014999D02*
X014725Y014999D01*
X015221Y014999D02*
X019442Y014999D01*
X019442Y015096D02*
X013663Y015096D01*
X013623Y015193D02*
X019442Y015193D01*
X019442Y015290D02*
X013572Y015290D01*
X013475Y015387D02*
X019419Y015387D01*
X019402Y015484D02*
X013294Y015484D01*
X012963Y015484D02*
X011976Y015484D01*
X011918Y015507D02*
X012118Y015425D01*
X012271Y015272D01*
X012354Y015072D01*
X012354Y014855D01*
X012271Y014655D01*
X012118Y014502D01*
X011918Y014420D01*
X011702Y014420D01*
X011502Y014502D01*
X011349Y014655D01*
X011266Y014855D01*
X011266Y015072D01*
X011349Y015272D01*
X011502Y015425D01*
X011702Y015507D01*
X011918Y015507D01*
X011644Y015484D02*
X010460Y015484D01*
X010640Y015387D02*
X011464Y015387D01*
X011367Y015290D02*
X010737Y015290D01*
X010788Y015193D02*
X011316Y015193D01*
X011276Y015096D02*
X010828Y015096D01*
X010838Y014999D02*
X011266Y014999D01*
X011266Y014902D02*
X010838Y014902D01*
X010817Y014805D02*
X011287Y014805D01*
X011327Y014708D02*
X010777Y014708D01*
X010711Y014611D02*
X011393Y014611D01*
X011490Y014514D02*
X010614Y014514D01*
X009974Y014514D02*
X009826Y014514D01*
X009877Y014611D02*
X009734Y014611D01*
X009811Y014708D02*
X009641Y014708D01*
X009549Y014805D02*
X009771Y014805D01*
X009750Y014902D02*
X009457Y014902D01*
X009365Y014999D02*
X009750Y014999D01*
X009760Y015096D02*
X009272Y015096D01*
X009180Y015193D02*
X009801Y015193D01*
X009851Y015290D02*
X009088Y015290D01*
X008995Y015387D02*
X009948Y015387D01*
X010129Y015484D02*
X008903Y015484D01*
X008811Y015581D02*
X019402Y015581D01*
X019417Y015677D02*
X008718Y015677D01*
X008626Y015774D02*
X019442Y015774D01*
X017877Y013448D02*
X017370Y013251D01*
X016888Y012091D02*
X016302Y012091D01*
X016399Y011994D02*
X016897Y011994D01*
X016694Y011897D02*
X016459Y011897D01*
X016499Y011800D02*
X016597Y011800D01*
X016530Y011703D02*
X016509Y011703D01*
X017374Y010928D02*
X017434Y010928D01*
X015121Y008527D02*
X014038Y009609D01*
X014038Y011086D01*
X013054Y012070D01*
X010397Y012070D01*
X007739Y014727D01*
X007739Y015219D01*
X006952Y014432D01*
X006952Y009609D01*
X007444Y009609D02*
X008723Y008330D01*
X008723Y007247D01*
X008527Y007050D01*
X008093Y006617D01*
X007050Y006617D01*
X006558Y006663D02*
X006134Y006663D01*
X006134Y006566D02*
X006558Y006566D01*
X006558Y006470D02*
X006134Y006470D01*
X006134Y006373D02*
X006558Y006373D01*
X006558Y006276D02*
X006399Y006276D01*
X006399Y006179D02*
X006558Y006179D01*
X006558Y006082D02*
X006399Y006082D01*
X006399Y005985D02*
X006558Y005985D01*
X006558Y005888D02*
X006399Y005888D01*
X006399Y005791D02*
X006558Y005791D01*
X006558Y005694D02*
X006399Y005694D01*
X006399Y005597D02*
X006558Y005597D01*
X006558Y005500D02*
X006399Y005500D01*
X006350Y005403D02*
X006503Y005403D01*
X006406Y005306D02*
X004946Y005306D01*
X004902Y005288D02*
X005091Y005366D01*
X005193Y005366D01*
X005280Y005453D01*
X005280Y005543D01*
X005367Y005754D01*
X005367Y005985D01*
X005474Y005985D01*
X005474Y006082D02*
X005327Y006082D01*
X005287Y006179D02*
X005474Y006179D01*
X005474Y006276D02*
X005280Y006276D01*
X005280Y006285D02*
X005193Y006372D01*
X005091Y006372D01*
X004902Y006450D01*
X004671Y006450D01*
X004482Y006372D01*
X004441Y006372D01*
X004354Y006285D01*
X004354Y006258D01*
X004294Y006198D01*
X004206Y005985D01*
X003262Y005985D01*
X003330Y006082D02*
X004246Y006082D01*
X004286Y006179D02*
X003371Y006179D01*
X003393Y006276D02*
X004354Y006276D01*
X004485Y006373D02*
X003393Y006373D01*
X003385Y006470D02*
X005740Y006470D01*
X005740Y006566D02*
X003345Y006566D01*
X003297Y006663D02*
X003915Y006663D01*
X003829Y006699D02*
X004029Y006617D01*
X004245Y006617D01*
X004445Y006699D01*
X004598Y006852D01*
X004681Y007052D01*
X004681Y007269D01*
X004598Y007468D01*
X004445Y007621D01*
X004245Y007704D01*
X004029Y007704D01*
X003829Y007621D01*
X003676Y007468D01*
X003593Y007269D01*
X003593Y007052D01*
X003676Y006852D01*
X003829Y006699D01*
X003768Y006760D02*
X003200Y006760D01*
X003025Y006857D02*
X003674Y006857D01*
X003633Y006954D02*
X003109Y006954D01*
X003205Y007051D02*
X003593Y007051D01*
X003593Y007148D02*
X003245Y007148D01*
X003285Y007245D02*
X003593Y007245D01*
X003623Y007342D02*
X003287Y007342D01*
X003287Y007439D02*
X003663Y007439D01*
X003743Y007536D02*
X003258Y007536D01*
X003218Y007633D02*
X003856Y007633D01*
X004223Y008020D02*
X002030Y008020D01*
X002030Y007923D02*
X004320Y007923D01*
X004290Y007953D02*
X004383Y007860D01*
X004383Y007836D01*
X004459Y007652D01*
X004600Y007510D01*
X004785Y007434D01*
X004985Y007434D01*
X005169Y007510D01*
X005310Y007652D01*
X005387Y007836D01*
X005387Y008036D01*
X005310Y008220D01*
X005169Y008362D01*
X004985Y008438D01*
X004785Y008438D01*
X004600Y008362D01*
X004519Y008280D01*
X004119Y008681D01*
X004165Y008792D01*
X004165Y009009D01*
X004082Y009209D01*
X003929Y009362D01*
X003729Y009444D01*
X003513Y009444D01*
X003313Y009362D01*
X003160Y009209D01*
X003077Y009009D01*
X003077Y008792D01*
X003160Y008592D01*
X003313Y008439D01*
X003513Y008357D01*
X003729Y008357D01*
X003840Y008403D01*
X004290Y007953D01*
X004387Y007826D02*
X003031Y007826D01*
X003140Y007730D02*
X004427Y007730D01*
X004418Y007633D02*
X004478Y007633D01*
X004531Y007536D02*
X004575Y007536D01*
X004610Y007439D02*
X004773Y007439D01*
X004650Y007342D02*
X005740Y007342D01*
X005740Y007439D02*
X004996Y007439D01*
X005194Y007536D02*
X005740Y007536D01*
X005740Y007633D02*
X005291Y007633D01*
X005343Y007730D02*
X005740Y007730D01*
X005740Y007826D02*
X005383Y007826D01*
X005387Y007923D02*
X005740Y007923D01*
X005740Y008020D02*
X005387Y008020D01*
X005353Y008117D02*
X005740Y008117D01*
X005740Y008214D02*
X005313Y008214D01*
X005220Y008311D02*
X005740Y008311D01*
X005740Y008408D02*
X005057Y008408D01*
X004713Y008408D02*
X004392Y008408D01*
X004489Y008311D02*
X004550Y008311D01*
X004590Y008034D02*
X004487Y008034D01*
X003621Y008901D01*
X004010Y009280D02*
X005740Y009280D01*
X005740Y009183D02*
X004092Y009183D01*
X004133Y009087D02*
X005740Y009087D01*
X005740Y008990D02*
X004165Y008990D01*
X004165Y008893D02*
X005740Y008893D01*
X005740Y008796D02*
X004165Y008796D01*
X004126Y008699D02*
X005740Y008699D01*
X005740Y008602D02*
X004198Y008602D01*
X004295Y008505D02*
X005740Y008505D01*
X006134Y008505D02*
X006558Y008505D01*
X006558Y008602D02*
X006134Y008602D01*
X006134Y008699D02*
X006501Y008699D01*
X006404Y008796D02*
X006134Y008796D01*
X006134Y008893D02*
X006307Y008893D01*
X006280Y008920D02*
X006280Y008920D01*
X006210Y008990D02*
X006134Y008990D01*
X006134Y009087D02*
X006164Y009087D01*
X006164Y009183D02*
X006134Y009183D01*
X006134Y009280D02*
X006164Y009280D01*
X006164Y009377D02*
X006134Y009377D01*
X006134Y009474D02*
X006164Y009474D01*
X006164Y009571D02*
X006134Y009571D01*
X006134Y009668D02*
X006164Y009668D01*
X006164Y009765D02*
X006134Y009765D01*
X006134Y009862D02*
X006164Y009862D01*
X006164Y009959D02*
X006134Y009959D01*
X006134Y010056D02*
X006164Y010056D01*
X006164Y010153D02*
X006134Y010153D01*
X006134Y010250D02*
X006164Y010250D01*
X006164Y010347D02*
X006134Y010347D01*
X006134Y010443D02*
X006164Y010443D01*
X006164Y010540D02*
X006134Y010540D01*
X006134Y010637D02*
X006164Y010637D01*
X006164Y010734D02*
X006134Y010734D01*
X006134Y010831D02*
X006164Y010831D01*
X006164Y010928D02*
X006134Y010928D01*
X006134Y011025D02*
X006164Y011025D01*
X006164Y011122D02*
X006134Y011122D01*
X006134Y011219D02*
X006164Y011219D01*
X006164Y011316D02*
X006134Y011316D01*
X006134Y011413D02*
X006164Y011413D01*
X006164Y011510D02*
X006134Y011510D01*
X006134Y011607D02*
X006164Y011607D01*
X006164Y011703D02*
X006134Y011703D01*
X006134Y011800D02*
X006164Y011800D01*
X006164Y011897D02*
X006134Y011897D01*
X006134Y011994D02*
X006164Y011994D01*
X006164Y012091D02*
X006134Y012091D01*
X006134Y012188D02*
X006164Y012188D01*
X006164Y012285D02*
X006134Y012285D01*
X006134Y012382D02*
X006164Y012382D01*
X006164Y012479D02*
X006134Y012479D01*
X006134Y012576D02*
X006164Y012576D01*
X006164Y012673D02*
X006134Y012673D01*
X006134Y012770D02*
X006164Y012770D01*
X006164Y012867D02*
X006134Y012867D01*
X006134Y012964D02*
X006164Y012964D01*
X006164Y013060D02*
X006134Y013060D01*
X006134Y013157D02*
X006164Y013157D01*
X006164Y013254D02*
X006134Y013254D01*
X006134Y013351D02*
X006164Y013351D01*
X006164Y013448D02*
X006134Y013448D01*
X006134Y013545D02*
X006164Y013545D01*
X006164Y013642D02*
X006134Y013642D01*
X006134Y013739D02*
X006164Y013739D01*
X006164Y013836D02*
X006134Y013836D01*
X006134Y013933D02*
X006164Y013933D01*
X006164Y014030D02*
X006134Y014030D01*
X006134Y014127D02*
X006164Y014127D01*
X006164Y014224D02*
X006134Y014224D01*
X006134Y014320D02*
X006164Y014320D01*
X006164Y014417D02*
X006134Y014417D01*
X006134Y014514D02*
X006164Y014514D01*
X006164Y014611D02*
X006134Y014611D01*
X006134Y014708D02*
X006164Y014708D01*
X006164Y014805D02*
X006134Y014805D01*
X005937Y014893D02*
X006952Y016007D01*
X008133Y016007D01*
X010101Y013940D01*
X009942Y014417D02*
X009918Y014417D01*
X008723Y013054D02*
X008428Y013349D01*
X008723Y013054D02*
X009019Y013054D01*
X009806Y012267D01*
X009806Y008920D01*
X010817Y007909D01*
X010817Y007251D01*
X011328Y007439D02*
X011540Y007439D01*
X011288Y007536D02*
X012132Y007536D01*
X012044Y007439D02*
X011812Y007439D01*
X011996Y007342D02*
X012004Y007342D01*
X012365Y007263D02*
X012428Y007200D01*
X012365Y007263D02*
X012365Y008527D01*
X012304Y007633D02*
X011204Y007633D01*
X011479Y006952D02*
X011676Y006952D01*
X011479Y006952D02*
X011282Y006755D01*
X011282Y006164D01*
X010593Y006164D01*
X010003Y006755D01*
X010003Y008231D01*
X009511Y008723D01*
X009511Y009314D01*
X009097Y009727D01*
X009097Y011932D01*
X010003Y011897D02*
X010291Y011897D01*
X010194Y011994D02*
X010003Y011994D01*
X010003Y012091D02*
X010097Y012091D01*
X010003Y011800D02*
X013045Y011800D01*
X013142Y011703D02*
X010003Y011703D01*
X010003Y011607D02*
X013239Y011607D01*
X013336Y011510D02*
X010003Y011510D01*
X010003Y011413D02*
X013433Y011413D01*
X013530Y011316D02*
X010003Y011316D01*
X010003Y011219D02*
X013627Y011219D01*
X013724Y011122D02*
X010003Y011122D01*
X010003Y011025D02*
X013820Y011025D01*
X013841Y010928D02*
X010003Y010928D01*
X010003Y010831D02*
X013841Y010831D01*
X013841Y010734D02*
X010003Y010734D01*
X010003Y010637D02*
X013841Y010637D01*
X013841Y010540D02*
X010003Y010540D01*
X010003Y010443D02*
X013841Y010443D01*
X013841Y010347D02*
X010003Y010347D01*
X010003Y010250D02*
X013841Y010250D01*
X013841Y010153D02*
X010003Y010153D01*
X010003Y010056D02*
X013841Y010056D01*
X013841Y009959D02*
X010003Y009959D01*
X010003Y009862D02*
X013841Y009862D01*
X013841Y009765D02*
X010003Y009765D01*
X010003Y009668D02*
X013841Y009668D01*
X013841Y009571D02*
X010003Y009571D01*
X010003Y009474D02*
X013895Y009474D01*
X013957Y009412D02*
X013957Y009412D01*
X013992Y009377D02*
X010003Y009377D01*
X010003Y009280D02*
X014089Y009280D01*
X014186Y009183D02*
X010003Y009183D01*
X010003Y009087D02*
X014283Y009087D01*
X014380Y008990D02*
X010015Y008990D01*
X010112Y008893D02*
X014476Y008893D01*
X014573Y008796D02*
X010209Y008796D01*
X010306Y008699D02*
X014649Y008699D01*
X014366Y007730D02*
X017434Y007730D01*
X017434Y007633D02*
X014210Y007633D01*
X013718Y006566D02*
X016753Y006566D01*
X016745Y006470D02*
X013815Y006470D01*
X013544Y005888D02*
X011873Y005888D01*
X011676Y005574D02*
X011676Y006263D01*
X011676Y005574D02*
X011775Y005475D01*
X012365Y005475D01*
X013005Y004836D01*
X013103Y004836D01*
X013940Y003999D01*
X015062Y003999D01*
X014782Y003756D02*
X006445Y003756D01*
X006542Y003853D02*
X013808Y003853D01*
X013711Y003949D02*
X006639Y003949D01*
X006736Y004046D02*
X013614Y004046D01*
X013517Y004143D02*
X006804Y004143D01*
X006804Y004240D02*
X013420Y004240D01*
X013323Y004337D02*
X006804Y004337D01*
X006804Y004434D02*
X012823Y004434D01*
X009462Y006656D02*
X009462Y007788D01*
X009363Y007887D01*
X009353Y007904D01*
X009462Y006656D02*
X008231Y005426D01*
X008084Y005426D01*
X007985Y005525D01*
X007542Y005525D01*
X007296Y005278D01*
X007296Y005082D01*
X007099Y005082D02*
X006607Y004590D01*
X006607Y004196D01*
X005672Y003261D01*
X004491Y003261D01*
X002867Y004885D01*
X002855Y004847D01*
X002855Y005438D01*
X002227Y006066D01*
X002227Y006656D01*
X001834Y007050D01*
X001834Y008231D01*
X003802Y010200D01*
X004196Y010200D01*
X004590Y010593D01*
X004590Y014727D01*
X004906Y014417D02*
X005740Y014417D01*
X005740Y014320D02*
X004786Y014320D01*
X004786Y014224D02*
X005740Y014224D01*
X005740Y014127D02*
X004786Y014127D01*
X004786Y014030D02*
X005740Y014030D01*
X005740Y013933D02*
X004786Y013933D01*
X004786Y013836D02*
X005740Y013836D01*
X005740Y013739D02*
X004786Y013739D01*
X004786Y013642D02*
X005740Y013642D01*
X005740Y013545D02*
X004786Y013545D01*
X004786Y013448D02*
X005740Y013448D01*
X005740Y013351D02*
X004786Y013351D01*
X004786Y013254D02*
X005740Y013254D01*
X005740Y013157D02*
X004786Y013157D01*
X004786Y013060D02*
X005740Y013060D01*
X005740Y012964D02*
X004786Y012964D01*
X004786Y012867D02*
X005740Y012867D01*
X005740Y012770D02*
X004786Y012770D01*
X004786Y012673D02*
X005740Y012673D01*
X005740Y012576D02*
X004786Y012576D01*
X004786Y012479D02*
X005740Y012479D01*
X005740Y012382D02*
X004786Y012382D01*
X004786Y012285D02*
X005740Y012285D01*
X005740Y012188D02*
X004786Y012188D01*
X004786Y012091D02*
X005740Y012091D01*
X005740Y011994D02*
X004786Y011994D01*
X004786Y011897D02*
X005740Y011897D01*
X005740Y011800D02*
X004786Y011800D01*
X004786Y011703D02*
X005740Y011703D01*
X005740Y011607D02*
X004786Y011607D01*
X004786Y011510D02*
X005740Y011510D01*
X005740Y011413D02*
X004786Y011413D01*
X004786Y011316D02*
X005740Y011316D01*
X005740Y011219D02*
X004786Y011219D01*
X004786Y011122D02*
X005740Y011122D01*
X005740Y011025D02*
X004786Y011025D01*
X004786Y010928D02*
X005740Y010928D01*
X005740Y010831D02*
X004786Y010831D01*
X004786Y010734D02*
X005740Y010734D01*
X005740Y010637D02*
X004786Y010637D01*
X004786Y010540D02*
X005740Y010540D01*
X005740Y010443D02*
X004718Y010443D01*
X004621Y010347D02*
X005740Y010347D01*
X005740Y010250D02*
X004524Y010250D01*
X004427Y010153D02*
X005740Y010153D01*
X005740Y010056D02*
X004330Y010056D01*
X004114Y010397D02*
X003721Y010397D01*
X003605Y010281D01*
X001851Y008527D01*
X001851Y008652D01*
X001762Y008867D01*
X001597Y009031D01*
X001383Y009120D01*
X001151Y009120D01*
X000936Y009031D01*
X000897Y008992D01*
X000897Y010216D01*
X001034Y010079D01*
X001249Y009990D01*
X001424Y009990D01*
X001372Y009863D01*
X001372Y009631D01*
X001461Y009416D01*
X001625Y009252D01*
X001840Y009163D01*
X002072Y009163D01*
X002286Y009252D01*
X002451Y009416D01*
X002539Y009631D01*
X002539Y009863D01*
X002451Y010078D01*
X002286Y010242D01*
X002072Y010331D01*
X001896Y010331D01*
X001949Y010458D01*
X001949Y010690D01*
X001860Y010904D01*
X001696Y011069D01*
X001481Y011158D01*
X001249Y011158D01*
X001034Y011069D01*
X000897Y010931D01*
X000897Y012461D01*
X001034Y012323D01*
X001249Y012234D01*
X001481Y012234D01*
X001696Y012323D01*
X001860Y012487D01*
X001949Y012702D01*
X001949Y012934D01*
X001860Y013149D01*
X001696Y013313D01*
X001481Y013402D01*
X001249Y013402D01*
X001034Y013313D01*
X000897Y013175D01*
X000896Y014508D01*
X001034Y014370D01*
X001249Y014281D01*
X001481Y014281D01*
X001696Y014370D01*
X001860Y014534D01*
X001949Y014749D01*
X001949Y014981D01*
X001860Y015196D01*
X001696Y015360D01*
X001481Y015449D01*
X001249Y015449D01*
X001034Y015360D01*
X000896Y015222D01*
X000896Y015855D01*
X002675Y015854D01*
X002591Y015771D01*
X002502Y015556D01*
X002502Y015324D01*
X002591Y015109D01*
X002755Y014945D01*
X002970Y014856D01*
X003202Y014856D01*
X003417Y014945D01*
X003581Y015109D01*
X003670Y015324D01*
X003670Y015556D01*
X003581Y015771D01*
X003497Y015854D01*
X003936Y015854D01*
X003909Y015802D01*
X003881Y015715D01*
X003867Y015627D01*
X004402Y015627D01*
X004402Y015528D01*
X003867Y015528D01*
X003881Y015441D01*
X003909Y015353D01*
X003951Y015271D01*
X004005Y015196D01*
X004070Y015131D01*
X004145Y015077D01*
X004227Y015035D01*
X004260Y015024D01*
X004214Y014978D01*
X004147Y014815D01*
X004147Y014639D01*
X004214Y014476D01*
X004339Y014352D01*
X004393Y014329D01*
X004393Y010675D01*
X004114Y010397D01*
X004161Y010443D02*
X001943Y010443D01*
X001949Y010540D02*
X004258Y010540D01*
X004355Y010637D02*
X001949Y010637D01*
X001931Y010734D02*
X004393Y010734D01*
X004393Y010831D02*
X001890Y010831D01*
X001836Y010928D02*
X004393Y010928D01*
X004393Y011025D02*
X001740Y011025D01*
X001567Y011122D02*
X004393Y011122D01*
X004393Y011219D02*
X002487Y011219D01*
X002483Y011215D02*
X002647Y011379D01*
X002736Y011594D01*
X002736Y011826D01*
X002647Y012041D01*
X002483Y012205D01*
X002269Y012294D01*
X002036Y012294D01*
X001822Y012205D01*
X001658Y012041D01*
X001569Y011826D01*
X001569Y011594D01*
X001658Y011379D01*
X001822Y011215D01*
X002036Y011126D01*
X002269Y011126D01*
X002483Y011215D01*
X002584Y011316D02*
X004393Y011316D01*
X004393Y011413D02*
X002661Y011413D01*
X002701Y011510D02*
X004393Y011510D01*
X004393Y011607D02*
X002736Y011607D01*
X002736Y011703D02*
X004393Y011703D01*
X004393Y011800D02*
X002736Y011800D01*
X002707Y011897D02*
X004393Y011897D01*
X004393Y011994D02*
X002667Y011994D01*
X002597Y012091D02*
X004393Y012091D01*
X004393Y012188D02*
X002500Y012188D01*
X002290Y012285D02*
X004393Y012285D01*
X004393Y012382D02*
X001755Y012382D01*
X001852Y012479D02*
X004393Y012479D01*
X004393Y012576D02*
X001897Y012576D01*
X001937Y012673D02*
X004393Y012673D01*
X004393Y012770D02*
X001949Y012770D01*
X001949Y012867D02*
X004393Y012867D01*
X004393Y012964D02*
X001937Y012964D01*
X001897Y013060D02*
X004393Y013060D01*
X004393Y013157D02*
X001851Y013157D01*
X001754Y013254D02*
X004393Y013254D01*
X004393Y013351D02*
X001603Y013351D01*
X001854Y013609D02*
X002019Y013445D01*
X002233Y013356D01*
X002465Y013356D01*
X002680Y013445D01*
X002844Y013609D01*
X002933Y013824D01*
X002933Y014056D01*
X002844Y014271D01*
X002680Y014435D01*
X002465Y014524D01*
X002233Y014524D01*
X002019Y014435D01*
X001854Y014271D01*
X001765Y014056D01*
X001765Y013824D01*
X001854Y013609D01*
X001841Y013642D02*
X000896Y013642D01*
X000896Y013545D02*
X001918Y013545D01*
X002015Y013448D02*
X000896Y013448D01*
X000897Y013351D02*
X001127Y013351D01*
X000976Y013254D02*
X000897Y013254D01*
X000896Y013739D02*
X001801Y013739D01*
X001765Y013836D02*
X000896Y013836D01*
X000896Y013933D02*
X001765Y013933D01*
X001765Y014030D02*
X000896Y014030D01*
X000896Y014127D02*
X001795Y014127D01*
X001835Y014224D02*
X000896Y014224D01*
X000896Y014320D02*
X001154Y014320D01*
X000987Y014417D02*
X000896Y014417D01*
X001576Y014320D02*
X001904Y014320D01*
X002001Y014417D02*
X001743Y014417D01*
X001840Y014514D02*
X002210Y014514D01*
X002488Y014514D02*
X004198Y014514D01*
X004158Y014611D02*
X001892Y014611D01*
X001932Y014708D02*
X004147Y014708D01*
X004147Y014805D02*
X001949Y014805D01*
X001949Y014902D02*
X002859Y014902D01*
X002701Y014999D02*
X001942Y014999D01*
X001901Y015096D02*
X002604Y015096D01*
X002556Y015193D02*
X001861Y015193D01*
X001766Y015290D02*
X002516Y015290D01*
X002502Y015387D02*
X001632Y015387D01*
X001099Y015387D02*
X000896Y015387D01*
X000896Y015484D02*
X002502Y015484D01*
X002512Y015581D02*
X000896Y015581D01*
X000896Y015677D02*
X002552Y015677D01*
X002595Y015774D02*
X000896Y015774D01*
X000896Y015290D02*
X000964Y015290D01*
X002698Y014417D02*
X004273Y014417D01*
X004393Y014320D02*
X002794Y014320D01*
X002864Y014224D02*
X004393Y014224D01*
X004393Y014127D02*
X002904Y014127D01*
X002933Y014030D02*
X004393Y014030D01*
X004393Y013933D02*
X002933Y013933D01*
X002933Y013836D02*
X004393Y013836D01*
X004393Y013739D02*
X002898Y013739D01*
X002858Y013642D02*
X004393Y013642D01*
X004393Y013545D02*
X002780Y013545D01*
X002683Y013448D02*
X004393Y013448D01*
X004981Y014514D02*
X005740Y014514D01*
X005740Y014611D02*
X005021Y014611D01*
X005032Y014708D02*
X005740Y014708D01*
X005740Y014805D02*
X005032Y014805D01*
X004997Y014902D02*
X005739Y014902D01*
X005764Y014999D02*
X004944Y014999D01*
X004847Y015096D02*
X005855Y015096D01*
X005943Y015193D02*
X004895Y015193D01*
X004962Y015290D02*
X006032Y015290D01*
X006120Y015387D02*
X005005Y015387D01*
X005030Y015484D02*
X006208Y015484D01*
X006297Y015581D02*
X004501Y015581D01*
X004402Y015581D02*
X003660Y015581D01*
X003670Y015484D02*
X003874Y015484D01*
X003898Y015387D02*
X003670Y015387D01*
X003656Y015290D02*
X003941Y015290D01*
X004009Y015193D02*
X003616Y015193D01*
X003568Y015096D02*
X004119Y015096D01*
X004235Y014999D02*
X003471Y014999D01*
X003313Y014902D02*
X004182Y014902D01*
X003875Y015677D02*
X003620Y015677D01*
X003577Y015774D02*
X003900Y015774D01*
X005003Y015774D02*
X006473Y015774D01*
X006385Y015677D02*
X005029Y015677D01*
X005937Y014893D02*
X005937Y005869D01*
X005474Y005888D02*
X005367Y005888D01*
X005367Y005985D02*
X005280Y006196D01*
X005280Y006285D01*
X005088Y006373D02*
X005740Y006373D01*
X005740Y006663D02*
X004358Y006663D01*
X004506Y006760D02*
X005740Y006760D01*
X005740Y006857D02*
X004600Y006857D01*
X004640Y006954D02*
X005740Y006954D01*
X005740Y007051D02*
X004680Y007051D01*
X004681Y007148D02*
X005740Y007148D01*
X005740Y007245D02*
X004681Y007245D01*
X004688Y007936D02*
X004885Y007936D01*
X004688Y007936D02*
X004590Y008034D01*
X004126Y008117D02*
X002030Y008117D01*
X002095Y008214D02*
X004029Y008214D01*
X003932Y008311D02*
X002192Y008311D01*
X002289Y008408D02*
X003389Y008408D01*
X003247Y008505D02*
X002386Y008505D01*
X002483Y008602D02*
X003156Y008602D01*
X003116Y008699D02*
X002580Y008699D01*
X002676Y008796D02*
X003077Y008796D01*
X003077Y008893D02*
X002773Y008893D01*
X002870Y008990D02*
X003077Y008990D01*
X003109Y009087D02*
X002967Y009087D01*
X003064Y009183D02*
X003150Y009183D01*
X003161Y009280D02*
X003232Y009280D01*
X003258Y009377D02*
X003351Y009377D01*
X003355Y009474D02*
X005740Y009474D01*
X005740Y009377D02*
X003891Y009377D01*
X003549Y009668D02*
X005740Y009668D01*
X005740Y009571D02*
X003452Y009571D01*
X003646Y009765D02*
X005740Y009765D01*
X005740Y009862D02*
X003743Y009862D01*
X003840Y009959D02*
X005740Y009959D01*
X007444Y009609D02*
X007444Y013940D01*
X006952Y014432D02*
X006952Y014448D01*
X007714Y015210D01*
X010628Y012576D02*
X010720Y012576D01*
X010805Y012479D02*
X010459Y012479D01*
X012268Y013448D02*
X013503Y013448D01*
X013503Y013545D02*
X012268Y013545D01*
X012268Y013642D02*
X013503Y013642D01*
X013503Y013739D02*
X012268Y013739D01*
X012268Y013836D02*
X013503Y013836D01*
X013503Y013933D02*
X012268Y013933D01*
X012130Y014514D02*
X012809Y014514D01*
X012712Y014611D02*
X012227Y014611D01*
X012293Y014708D02*
X012646Y014708D01*
X012606Y014805D02*
X012333Y014805D01*
X012354Y014902D02*
X012585Y014902D01*
X012585Y014999D02*
X012354Y014999D01*
X012344Y015096D02*
X012595Y015096D01*
X012635Y015193D02*
X012304Y015193D01*
X012253Y015290D02*
X012686Y015290D01*
X012783Y015387D02*
X012156Y015387D01*
X008133Y011578D02*
X008133Y009708D01*
X008231Y009708D01*
X008527Y009412D01*
X007733Y008221D02*
X007739Y007247D01*
X007739Y007216D01*
X006558Y007245D02*
X006134Y007245D01*
X006134Y007342D02*
X006558Y007342D01*
X006558Y007439D02*
X006134Y007439D01*
X006134Y007536D02*
X006558Y007536D01*
X006558Y007633D02*
X006134Y007633D01*
X006134Y007730D02*
X006558Y007730D01*
X006558Y007826D02*
X006134Y007826D01*
X006134Y007923D02*
X006558Y007923D01*
X006558Y008020D02*
X006134Y008020D01*
X006134Y008117D02*
X006558Y008117D01*
X006558Y008214D02*
X006134Y008214D01*
X006134Y008311D02*
X006558Y008311D01*
X006558Y008408D02*
X006134Y008408D01*
X006134Y007148D02*
X006558Y007148D01*
X006558Y007051D02*
X006134Y007051D01*
X006134Y006954D02*
X006558Y006954D01*
X006558Y006857D02*
X006134Y006857D01*
X006134Y006760D02*
X006558Y006760D01*
X007050Y006105D02*
X007700Y006105D01*
X007739Y006066D01*
X007739Y006097D01*
X007739Y006066D02*
X007099Y005426D01*
X007099Y005082D01*
X007021Y004725D02*
X007178Y004725D01*
X007275Y004628D02*
X006924Y004628D01*
X006827Y004531D02*
X007372Y004531D01*
X006410Y004531D02*
X006399Y004531D01*
X006399Y004434D02*
X006410Y004434D01*
X006399Y004337D02*
X006410Y004337D01*
X006373Y004240D02*
X006368Y004240D01*
X006276Y004143D02*
X003887Y004143D01*
X003952Y004206D02*
X003775Y004279D01*
X003639Y004415D01*
X003566Y004592D01*
X003566Y004784D01*
X003639Y004961D01*
X003775Y005097D01*
X003952Y005170D01*
X004144Y005170D01*
X004321Y005097D01*
X004354Y005064D01*
X004354Y005104D01*
X004441Y005190D01*
X005193Y005190D01*
X005280Y005104D01*
X005280Y004272D01*
X005193Y004185D01*
X004441Y004185D01*
X004354Y004272D01*
X004354Y004312D01*
X004321Y004279D01*
X004144Y004206D01*
X003952Y004206D01*
X003869Y004240D02*
X003790Y004240D01*
X003717Y004337D02*
X003693Y004337D01*
X003631Y004434D02*
X003596Y004434D01*
X003591Y004531D02*
X003499Y004531D01*
X003566Y004628D02*
X003402Y004628D01*
X003317Y004725D02*
X003566Y004725D01*
X003582Y004822D02*
X003317Y004822D01*
X003317Y004919D02*
X003622Y004919D01*
X003694Y005016D02*
X003317Y005016D01*
X003317Y005113D02*
X003813Y005113D01*
X004283Y005113D02*
X004363Y005113D01*
X004441Y005366D02*
X004482Y005366D01*
X004671Y005288D01*
X004902Y005288D01*
X004627Y005306D02*
X003274Y005306D01*
X003317Y005209D02*
X006309Y005209D01*
X005524Y005403D02*
X005230Y005403D01*
X005280Y005500D02*
X005474Y005500D01*
X005474Y005597D02*
X005302Y005597D01*
X005342Y005694D02*
X005474Y005694D01*
X005474Y005791D02*
X005367Y005791D01*
X004817Y005869D02*
X004786Y005869D01*
X004206Y005888D02*
X003165Y005888D01*
X002877Y005694D02*
X004230Y005694D01*
X004206Y005754D02*
X004294Y005540D01*
X004354Y005480D01*
X004354Y005453D01*
X004441Y005366D01*
X004404Y005403D02*
X003052Y005403D01*
X003052Y005500D02*
X004334Y005500D01*
X004270Y005597D02*
X002974Y005597D01*
X002781Y005791D02*
X004206Y005791D01*
X004206Y005754D02*
X004206Y005985D01*
X005271Y005113D02*
X005483Y005113D01*
X005474Y005016D02*
X005280Y005016D01*
X005280Y004919D02*
X005474Y004919D01*
X005474Y004822D02*
X005280Y004822D01*
X005280Y004725D02*
X005474Y004725D01*
X005474Y004628D02*
X005280Y004628D01*
X005280Y004531D02*
X005474Y004531D01*
X005474Y004434D02*
X005280Y004434D01*
X005280Y004337D02*
X005474Y004337D01*
X005506Y004240D02*
X005248Y004240D01*
X004817Y004688D02*
X004048Y004688D01*
X004228Y004240D02*
X004386Y004240D01*
X004081Y003949D02*
X006082Y003949D01*
X005986Y003853D02*
X004178Y003853D01*
X004275Y003756D02*
X005889Y003756D01*
X005792Y003659D02*
X004372Y003659D01*
X004468Y003562D02*
X005695Y003562D01*
X005598Y003465D02*
X004565Y003465D01*
X004299Y003174D02*
X003872Y003174D01*
X003877Y003164D02*
X003841Y003234D01*
X003794Y003298D01*
X003738Y003354D01*
X003674Y003401D01*
X003604Y003437D01*
X003528Y003461D01*
X003450Y003474D01*
X003420Y003474D01*
X003420Y003334D01*
X003400Y003334D01*
X003400Y003474D01*
X003371Y003474D01*
X003292Y003461D01*
X003217Y003437D01*
X003146Y003401D01*
X003082Y003354D01*
X003026Y003298D01*
X002980Y003234D01*
X002944Y003164D01*
X002919Y003088D01*
X002907Y003010D01*
X002907Y002980D01*
X003046Y002980D01*
X003046Y002960D01*
X002907Y002960D01*
X002907Y002931D01*
X002919Y002852D01*
X002941Y002785D01*
X002922Y002793D01*
X002777Y002793D01*
X002643Y002738D01*
X002541Y002635D01*
X002485Y002501D01*
X002485Y002356D01*
X002541Y002223D01*
X002643Y002120D01*
X002777Y002065D01*
X002922Y002065D01*
X003056Y002120D01*
X003158Y002223D01*
X003213Y002356D01*
X003213Y002501D01*
X003211Y002506D01*
X003217Y002504D01*
X003292Y002479D01*
X003371Y002467D01*
X003400Y002467D01*
X003400Y002606D01*
X003420Y002606D01*
X003420Y002467D01*
X003450Y002467D01*
X003528Y002479D01*
X003604Y002504D01*
X003674Y002540D01*
X003738Y002586D01*
X003794Y002642D01*
X003841Y002706D01*
X003877Y002777D01*
X003901Y002852D01*
X003914Y002931D01*
X003914Y002960D01*
X003774Y002960D01*
X003774Y002980D01*
X003914Y002980D01*
X003914Y003010D01*
X003901Y003088D01*
X003877Y003164D01*
X003903Y003077D02*
X004396Y003077D01*
X004202Y003271D02*
X003814Y003271D01*
X003720Y003368D02*
X004106Y003368D01*
X004009Y003465D02*
X003506Y003465D01*
X003420Y003465D02*
X003400Y003465D01*
X003314Y003465D02*
X001183Y003465D01*
X001097Y003465D02*
X001078Y003465D01*
X000991Y003465D02*
X000898Y003465D01*
X000898Y003562D02*
X003912Y003562D01*
X003815Y003659D02*
X000898Y003659D01*
X000898Y003756D02*
X003718Y003756D01*
X003621Y003853D02*
X000898Y003853D01*
X000898Y003949D02*
X003524Y003949D01*
X003427Y004046D02*
X000898Y004046D01*
X000898Y004143D02*
X003330Y004143D01*
X003233Y004240D02*
X000898Y004240D01*
X000898Y004337D02*
X003136Y004337D01*
X002392Y004434D02*
X002198Y004434D01*
X002198Y004531D02*
X002392Y004531D01*
X002392Y004628D02*
X002198Y004628D01*
X002198Y004725D02*
X002392Y004725D01*
X002392Y004822D02*
X002198Y004822D01*
X002198Y004919D02*
X002392Y004919D01*
X002392Y005016D02*
X002198Y005016D01*
X002198Y005113D02*
X002392Y005113D01*
X002392Y005209D02*
X002198Y005209D01*
X002155Y005306D02*
X002435Y005306D01*
X002611Y005403D02*
X001243Y005403D01*
X001243Y005306D02*
X001316Y005306D01*
X001272Y005209D02*
X001243Y005209D01*
X001046Y005082D02*
X001046Y007050D01*
X001145Y007149D01*
X001145Y007444D01*
X001462Y007051D02*
X001637Y007051D01*
X001637Y007148D02*
X001559Y007148D01*
X001606Y007245D02*
X001637Y007245D01*
X001651Y006954D02*
X001274Y006954D01*
X001243Y006857D02*
X001748Y006857D01*
X001845Y006760D02*
X001243Y006760D01*
X001243Y006663D02*
X001942Y006663D01*
X002030Y006566D02*
X001243Y006566D01*
X001243Y006470D02*
X002030Y006470D01*
X002030Y006373D02*
X001243Y006373D01*
X001243Y006276D02*
X002030Y006276D01*
X002030Y006179D02*
X001243Y006179D01*
X001243Y006082D02*
X002030Y006082D01*
X002030Y005985D02*
X001243Y005985D01*
X001243Y005888D02*
X002127Y005888D01*
X002224Y005791D02*
X001243Y005791D01*
X001243Y005694D02*
X002321Y005694D01*
X002418Y005597D02*
X001243Y005597D01*
X001243Y005500D02*
X002515Y005500D01*
X001735Y004847D02*
X001723Y004836D01*
X001292Y004836D01*
X001281Y004847D01*
X001046Y005082D01*
X000931Y004919D02*
X000898Y004919D01*
X000898Y004822D02*
X001028Y004822D01*
X001125Y004725D02*
X000898Y004725D01*
X000898Y004628D02*
X001272Y004628D01*
X001272Y004531D02*
X000898Y004531D01*
X000898Y004434D02*
X001272Y004434D01*
X001281Y004847D02*
X001735Y004847D01*
X001397Y003368D02*
X003101Y003368D01*
X003006Y003271D02*
X001491Y003271D01*
X001549Y003174D02*
X002949Y003174D01*
X002917Y003077D02*
X001580Y003077D01*
X001591Y002980D02*
X002907Y002980D01*
X002914Y002883D02*
X001583Y002883D01*
X001580Y002786D02*
X001557Y002786D01*
X001757Y002786D02*
X002761Y002786D01*
X002938Y002786D02*
X002941Y002786D01*
X002595Y002689D02*
X001923Y002689D01*
X001995Y002593D02*
X002523Y002593D01*
X002485Y002496D02*
X002032Y002496D01*
X002032Y002399D02*
X002485Y002399D01*
X002508Y002302D02*
X002010Y002302D01*
X001959Y002205D02*
X002558Y002205D01*
X002673Y002108D02*
X001845Y002108D01*
X001491Y002108D02*
X000898Y002108D01*
X000898Y002205D02*
X001377Y002205D01*
X001327Y002302D02*
X000898Y002302D01*
X000898Y002399D02*
X001304Y002399D01*
X001304Y002496D02*
X001256Y002496D01*
X001097Y002496D02*
X001078Y002496D01*
X001078Y002593D02*
X001097Y002593D01*
X000919Y002496D02*
X000898Y002496D01*
X000898Y002011D02*
X004317Y002011D01*
X004277Y002108D02*
X003026Y002108D01*
X003140Y002205D02*
X004265Y002205D01*
X004265Y002302D02*
X003191Y002302D01*
X003213Y002399D02*
X004279Y002399D01*
X004319Y002496D02*
X003579Y002496D01*
X003420Y002496D02*
X003400Y002496D01*
X003400Y002593D02*
X003420Y002593D01*
X003242Y002496D02*
X003213Y002496D01*
X003745Y002593D02*
X004365Y002593D01*
X004462Y002689D02*
X003829Y002689D01*
X003880Y002786D02*
X004616Y002786D01*
X005082Y002786D02*
X016694Y002786D01*
X016711Y002980D02*
X003914Y002980D01*
X003906Y002883D02*
X017408Y002883D01*
X017345Y002786D02*
X016989Y002786D01*
X016972Y002980D02*
X017505Y002980D01*
X017538Y003174D02*
X017270Y003174D01*
X017329Y003271D02*
X017441Y003271D01*
X017173Y003077D02*
X017733Y003077D01*
X017305Y002689D02*
X017180Y002689D01*
X017277Y002593D02*
X017296Y002593D01*
X017385Y002205D02*
X017463Y002205D01*
X017368Y002108D02*
X017638Y002108D01*
X017327Y002011D02*
X017989Y002011D01*
X017989Y001914D02*
X017266Y001914D01*
X017169Y001817D02*
X017989Y001817D01*
X017989Y001720D02*
X016962Y001720D01*
X016721Y001720D02*
X013619Y001720D01*
X013716Y001623D02*
X017989Y001623D01*
X017966Y001526D02*
X013771Y001526D01*
X013812Y001429D02*
X017926Y001429D01*
X017926Y001332D02*
X013831Y001332D01*
X013831Y001236D02*
X017933Y001236D01*
X017974Y001139D02*
X013826Y001139D01*
X013786Y001042D02*
X017989Y001042D01*
X018369Y001356D02*
X018664Y001652D01*
X018763Y001652D01*
X018664Y001686D01*
X017778Y002572D01*
X017919Y002108D02*
X017964Y002108D01*
X018908Y002883D02*
X019009Y002883D01*
X019597Y002399D02*
X020733Y002399D01*
X020733Y002496D02*
X019756Y002496D01*
X019838Y002593D02*
X020733Y002593D01*
X020733Y002689D02*
X019878Y002689D01*
X019895Y002786D02*
X020733Y002786D01*
X020733Y002883D02*
X020491Y002883D01*
X020678Y002980D02*
X020733Y002980D01*
X020184Y002883D02*
X019895Y002883D01*
X019864Y002980D02*
X019997Y002980D01*
X019900Y003077D02*
X019819Y003077D01*
X019846Y003174D02*
X019722Y003174D01*
X019536Y002302D02*
X020733Y002302D01*
X020733Y002205D02*
X019536Y002205D01*
X019536Y002108D02*
X020733Y002108D01*
X020733Y002011D02*
X019536Y002011D01*
X019536Y001914D02*
X020733Y001914D01*
X020733Y001817D02*
X019536Y001817D01*
X019536Y001720D02*
X020733Y001720D01*
X020733Y001623D02*
X019536Y001623D01*
X019536Y001526D02*
X020733Y001526D01*
X020733Y001429D02*
X019536Y001429D01*
X019536Y001332D02*
X020733Y001332D01*
X020733Y001236D02*
X019536Y001236D01*
X019536Y001139D02*
X020733Y001139D01*
X020733Y001042D02*
X019536Y001042D01*
X016514Y001817D02*
X013444Y001817D01*
X016503Y002689D02*
X005237Y002689D01*
X004361Y001914D02*
X000898Y001914D01*
X001087Y001817D02*
X001107Y001817D01*
X001087Y001395D02*
X001087Y002970D01*
X001078Y003368D02*
X001097Y003368D01*
X003400Y003368D02*
X003420Y003368D01*
X003984Y004046D02*
X006179Y004046D01*
X006399Y004628D02*
X006410Y004628D01*
X002529Y006857D02*
X002305Y006857D01*
X002377Y006954D02*
X002208Y006954D01*
X002281Y007051D02*
X002111Y007051D01*
X002030Y007148D02*
X002241Y007148D01*
X002201Y007245D02*
X002030Y007245D01*
X002030Y007342D02*
X002199Y007342D01*
X002199Y007439D02*
X002030Y007439D01*
X002030Y007536D02*
X002228Y007536D01*
X002268Y007633D02*
X002030Y007633D01*
X002030Y007730D02*
X002346Y007730D01*
X002455Y007826D02*
X002030Y007826D01*
X001926Y008602D02*
X001851Y008602D01*
X001831Y008699D02*
X002023Y008699D01*
X002120Y008796D02*
X001791Y008796D01*
X001736Y008893D02*
X002217Y008893D01*
X002314Y008990D02*
X001639Y008990D01*
X001463Y009087D02*
X002410Y009087D01*
X002507Y009183D02*
X002121Y009183D01*
X002315Y009280D02*
X002604Y009280D01*
X002701Y009377D02*
X002412Y009377D01*
X002475Y009474D02*
X002798Y009474D01*
X002895Y009571D02*
X002515Y009571D01*
X002539Y009668D02*
X002992Y009668D01*
X003089Y009765D02*
X002539Y009765D01*
X002539Y009862D02*
X003186Y009862D01*
X003283Y009959D02*
X002500Y009959D01*
X002460Y010056D02*
X003380Y010056D01*
X003477Y010153D02*
X002376Y010153D01*
X002268Y010250D02*
X003574Y010250D01*
X003671Y010347D02*
X001903Y010347D01*
X001411Y009959D02*
X000897Y009959D01*
X000897Y010056D02*
X001090Y010056D01*
X000960Y010153D02*
X000897Y010153D01*
X000897Y009862D02*
X001372Y009862D01*
X001372Y009765D02*
X000897Y009765D01*
X000897Y009668D02*
X001372Y009668D01*
X001397Y009571D02*
X000897Y009571D01*
X000897Y009474D02*
X001437Y009474D01*
X001500Y009377D02*
X000897Y009377D01*
X000897Y009280D02*
X001597Y009280D01*
X001790Y009183D02*
X000897Y009183D01*
X000897Y009087D02*
X001070Y009087D01*
X000991Y011025D02*
X000897Y011025D01*
X000897Y011122D02*
X001163Y011122D01*
X000897Y011219D02*
X001818Y011219D01*
X001721Y011316D02*
X000897Y011316D01*
X000897Y011413D02*
X001644Y011413D01*
X001604Y011510D02*
X000897Y011510D01*
X000897Y011607D02*
X001569Y011607D01*
X001569Y011703D02*
X000897Y011703D01*
X000897Y011800D02*
X001569Y011800D01*
X001598Y011897D02*
X000897Y011897D01*
X000897Y011994D02*
X001638Y011994D01*
X001708Y012091D02*
X000897Y012091D01*
X000897Y012188D02*
X001805Y012188D01*
X001604Y012285D02*
X002015Y012285D01*
X001126Y012285D02*
X000897Y012285D01*
X000897Y012382D02*
X000975Y012382D01*
X002402Y006760D02*
X002499Y006760D01*
X001087Y001395D02*
X001097Y001386D01*
X016991Y006263D02*
X017188Y006460D01*
D25*
X008527Y007050D03*
D26*
X007733Y008221D03*
X004048Y004688D03*
X013103Y004836D03*
X014038Y008084D03*
X017778Y002572D03*
X014973Y014580D03*
D27*
X004786Y005869D03*
M02*
