%FSAX44Y44*%
%MOMM*%
G71*
G01*
G75*
G04 Layer_Physical_Order=1*
G04 Layer_Color=255*
%ADD10R,0.6000X1.9000*%
%ADD11R,0.3500X0.5000*%
%ADD12R,0.5000X0.3500*%
%ADD13R,3.2000X3.2000*%
%ADD14R,1.4000X1.1000*%
%ADD15R,0.6000X1.2000*%
%ADD16R,1.3000X2.1000*%
%ADD17R,1.0000X1.2000*%
%ADD18R,0.5000X0.5000*%
%ADD19C,1.0000*%
%ADD20R,0.5000X0.5000*%
%ADD21C,0.2600*%
%ADD22C,0.2000*%
%ADD23C,0.1500*%
%ADD24C,0.4500*%
%ADD25C,0.3500*%
%ADD26C,0.1250*%
%ADD27C,0.4000*%
%ADD28C,0.2540*%
%ADD29C,0.3000*%
%ADD30C,0.5000*%
%ADD31C,0.0000*%
%ADD32C,0.1000*%
%ADD33R,1.0000X1.0000*%
%ADD34C,0.3000*%
%ADD35R,1.0000X1.0000*%
%ADD36C,3.0000*%
%ADD37C,0.6000*%
G36*
X00514209Y00857661D02*
X00514210Y00857662D01*
Y00857662D01*
X00514209Y00857661D01*
D02*
G37*
G36*
X00573640Y00860100D02*
Y00856600D01*
X00568640Y00856100D01*
X00533640D01*
Y00861100D01*
X00568640D01*
X00573640Y00860100D01*
D02*
G37*
G36*
X00443700Y00876078D02*
X00443700Y00876080D01*
X00443699Y00876083D01*
X00443700Y00876078D01*
D02*
G37*
G36*
X00682640Y00864100D02*
X00685140D01*
Y00857100D01*
X00682640D01*
Y00853276D01*
X00652240D01*
Y00853300D01*
X00652240D01*
Y00858424D01*
X00657640D01*
X00657640Y00858423D01*
X00658494Y00858594D01*
X00658664Y00858627D01*
X00659533Y00859208D01*
X00659533Y00859207D01*
X00659533Y00859208D01*
X00668249Y00867924D01*
X00682640D01*
Y00864100D01*
D02*
G37*
G36*
X00446452Y00847987D02*
X00446453Y00847985D01*
X00446452Y00847988D01*
X00446452Y00847987D01*
D02*
G37*
G36*
X00508778Y00837331D02*
X00508778Y00837335D01*
X00508778Y00837335D01*
X00508778Y00837334D01*
X00508777Y00837328D01*
X00508778Y00837331D01*
X00508777Y00837328D01*
X00508776Y00837329D01*
X00508778Y00837334D01*
X00508778Y00837335D01*
X00508778Y00837335D01*
X00508779Y00837336D01*
X00508778Y00837331D01*
D02*
G37*
G36*
X00528640Y00856100D02*
X00515640D01*
Y00856237D01*
X00514340Y00856400D01*
Y00860300D01*
X00515640Y00860733D01*
Y00861100D01*
X00528640D01*
Y00856100D01*
D02*
G37*
G36*
X00533640Y00854061D02*
X00568640D01*
X00568741Y00854081D01*
X00568843Y00854071D01*
X00569134Y00854100D01*
X00570140D01*
Y00852600D01*
Y00847265D01*
X00569640Y00846765D01*
Y00852100D01*
X00562640D01*
Y00851100D01*
X00563640D01*
Y00849600D01*
X00566140D01*
Y00846600D01*
X00563640D01*
Y00846200D01*
X00556340Y00846500D01*
Y00848100D01*
X00547640D01*
Y00848800D01*
X00546140D01*
Y00848600D01*
Y00845100D01*
X00546640D01*
Y00843600D01*
X00545140D01*
Y00827350D01*
Y00812600D01*
X00545140Y00812600D01*
X00545140D01*
X00545206Y00812382D01*
X00544997Y00812243D01*
X00542497Y00809743D01*
X00541917Y00808874D01*
X00541884Y00808704D01*
X00541714Y00807850D01*
X00537963Y00807100D01*
X00537640D01*
Y00803100D01*
X00530140D01*
Y00806600D01*
X00526140D01*
Y00800600D01*
X00522140D01*
Y00806600D01*
X00518140D01*
Y00803100D01*
X00514890D01*
Y00818273D01*
X00515237Y00818343D01*
X00516576Y00819238D01*
X00517472Y00820577D01*
X00517786Y00822158D01*
Y00825657D01*
X00517786Y00825657D01*
X00517786Y00825658D01*
Y00825658D01*
X00517472Y00827238D01*
X00516576Y00828577D01*
X00515237Y00829473D01*
X00514890Y00829541D01*
Y00845100D01*
X00516140D01*
Y00848600D01*
Y00852235D01*
X00515445Y00853082D01*
X00515640Y00854061D01*
X00528640D01*
X00528837Y00854100D01*
X00530640D01*
Y00854100D01*
X00530640D01*
X00530640Y00854100D01*
X00531640D01*
Y00854100D01*
X00533443D01*
X00533640Y00854061D01*
D02*
G37*
G36*
X00481821Y00888288D02*
X00481801Y00888302D01*
X00481801Y00888301D01*
X00481822Y00888288D01*
X00481821Y00888288D01*
X00481822Y00888287D01*
X00481820Y00888286D01*
X00481810Y00888294D01*
X00481801Y00888301D01*
X00481801Y00888301D01*
X00481800Y00888302D01*
X00481821Y00888288D01*
D02*
G37*
G36*
X00475914Y00887798D02*
X00475907Y00887793D01*
X00475899Y00887783D01*
X00475897Y00887782D01*
X00475897Y00887783D01*
X00475896Y00887783D01*
X00475897Y00887783D01*
X00475897Y00887783D01*
X00475907Y00887793D01*
X00475914Y00887799D01*
X00475902Y00887791D01*
X00475897Y00887783D01*
D01*
X00475902Y00887791D01*
X00475914Y00887799D01*
X00475914Y00887798D01*
D02*
G37*
G36*
X00476980Y00888651D02*
X00476979Y00888653D01*
X00476980Y00888653D01*
X00476980Y00888651D01*
D02*
G37*
G36*
X00481799Y00888303D02*
X00481801Y00888301D01*
X00481810Y00888294D01*
X00481821Y00888286D01*
X00482722Y00887420D01*
X00482734Y00887406D01*
X00482735Y00887405D01*
X00483408Y00886521D01*
X00483409Y00886519D01*
X00483409Y00886519D01*
X00483409Y00886520D01*
X00483408Y00886521D01*
X00483401Y00886532D01*
X00483409Y00886519D01*
X00483408Y00886520D01*
X00483409Y00886520D01*
X00483409Y00886519D01*
X00483410Y00886517D01*
X00483409Y00886519D01*
X00483410Y00886517D01*
X00484414Y00884819D01*
X00484412Y00884823D01*
X00484414Y00884819D01*
X00484414Y00884819D01*
X00484413Y00884821D01*
X00484422Y00884808D01*
X00484414Y00884819D01*
X00484420Y00884807D01*
X00485916Y00881407D01*
X00485914Y00881415D01*
X00485915Y00881413D01*
X00485918Y00881403D01*
X00485916Y00881407D01*
X00485917Y00881403D01*
X00488128Y00874628D01*
X00488127Y00874634D01*
X00488129Y00874627D01*
X00488128Y00874628D01*
X00488128Y00874627D01*
X00490798Y00864460D01*
X00490799Y00864458D01*
X00494092Y00850958D01*
X00495842Y00844288D01*
X00497849Y00837784D01*
X00499056Y00834697D01*
X00500500Y00832047D01*
X00500876Y00831586D01*
X00501145Y00831349D01*
X00501281Y00831464D01*
X00501455Y00831642D01*
X00501839Y00832128D01*
X00502221Y00832719D01*
X00502943Y00834077D01*
X00503588Y00835553D01*
X00504742Y00838690D01*
X00505764Y00841933D01*
X00506699Y00845235D01*
X00508430Y00851921D01*
X00510070Y00858660D01*
X00510071Y00858661D01*
X00510075Y00858681D01*
X00510103Y00858724D01*
X00510146Y00858752D01*
X00510196Y00858762D01*
X00510225Y00858756D01*
X00510225Y00858757D01*
X00510228Y00858756D01*
X00510226Y00858756D01*
X00510226Y00858756D01*
X00510226Y00858756D01*
X00510225Y00858756D01*
X00510226Y00858756D01*
Y00858756D01*
X00510226Y00858756D01*
X00510228Y00858756D01*
X00511079Y00858550D01*
X00511154Y00858731D01*
X00511335Y00858967D01*
X00511571Y00859147D01*
X00511845Y00859261D01*
X00512140Y00859300D01*
X00512435Y00859261D01*
X00512709Y00859147D01*
X00512945Y00858967D01*
X00513126Y00858731D01*
X00513240Y00858456D01*
X00513279Y00858161D01*
X00513260Y00858023D01*
X00513260D01*
X00514116Y00857817D01*
X00514134Y00857813D01*
X00514114Y00857817D01*
X00514114Y00857817D01*
X00514209Y00857660D01*
X00514209Y00857661D01*
X00514209D01*
X00514210Y00857662D01*
X00514216Y00857692D01*
X00514210Y00857662D01*
Y00857662D01*
D01*
X00514209Y00857661D01*
X00514209Y00857661D01*
X00514209Y00857661D01*
X00514209Y00857661D01*
D01*
X00514209Y00857659D01*
X00514209Y00857660D01*
X00514209Y00857659D01*
X00510807Y00844117D01*
X00510807Y00844112D01*
X00510807Y00844116D01*
X00510806Y00844112D01*
X00510806Y00844112D01*
X00508778Y00837337D01*
X00508778Y00837335D01*
X00508778Y00837335D01*
X00508775Y00837327D01*
X00507534Y00833954D01*
X00507532Y00833946D01*
X00507529Y00833941D01*
X00505870Y00830525D01*
X00505869Y00830525D01*
X00504619Y00828794D01*
X00504627Y00828803D01*
X00504615Y00828785D01*
X00504610Y00828782D01*
X00504619Y00828794D01*
X00504609Y00828783D01*
X00503647Y00827905D01*
X00503645Y00827903D01*
X00502652Y00827341D01*
X00502639Y00827332D01*
X00502616Y00827328D01*
Y00827328D01*
X00502616Y00827328D01*
X00501303Y00827038D01*
X00501303Y00827038D01*
X00501302Y00827038D01*
D01*
X00501255Y00827037D01*
X00499902Y00827241D01*
X00499901Y00827241D01*
X00499870Y00827247D01*
X00499862Y00827253D01*
X00499862Y00827253D01*
X00498798Y00827788D01*
X00498772Y00827805D01*
X00498772Y00827806D01*
X00497779Y00828661D01*
X00497776Y00828664D01*
X00497775Y00828665D01*
X00497775Y00828665D01*
X00497062Y00829535D01*
X00497061Y00829537D01*
X00497053Y00829548D01*
X00497052Y00829549D01*
X00495979Y00831270D01*
X00495987Y00831258D01*
X00495980Y00831270D01*
X00495980Y00831271D01*
X00495158Y00832980D01*
X00495155Y00832984D01*
X00495154Y00832987D01*
X00495158Y00832980D01*
X00495158Y00832980D01*
X00495159Y00832977D01*
X00495158Y00832980D01*
X00495156Y00832988D01*
X00495156Y00832989D01*
X00493833Y00836363D01*
X00493832Y00836371D01*
X00493832Y00836373D01*
X00491740Y00843144D01*
Y00843143D01*
X00491740Y00843146D01*
X00491740Y00843146D01*
X00491740Y00843145D01*
X00491740Y00843146D01*
X00491740Y00843146D01*
X00491739Y00843150D01*
X00491740Y00843149D01*
X00491739Y00843150D01*
X00489962Y00849921D01*
X00489962Y00849924D01*
X00486665Y00863440D01*
X00484036Y00873452D01*
X00481937Y00879889D01*
X00480638Y00882851D01*
X00479888Y00884124D01*
X00479176Y00884949D01*
X00479154Y00884964D01*
X00478554Y00884348D01*
X00477439Y00882450D01*
X00476174Y00879440D01*
X00474107Y00872979D01*
X00470676Y00859593D01*
X00470676Y00859593D01*
X00467324Y00846045D01*
X00467325Y00846049D01*
X00467324Y00846045D01*
X00465404Y00839271D01*
X00465405Y00839277D01*
X00465403Y00839271D01*
X00464276Y00835884D01*
X00464275Y00835882D01*
X00464275Y00835881D01*
X00464276Y00835884D01*
X00464277Y00835891D01*
X00464272Y00835882D01*
X00464272Y00835881D01*
X00462492Y00831651D01*
X00462493Y00831652D01*
X00462493Y00831651D01*
X00462492Y00831649D01*
X00462492Y00831651D01*
X00462481Y00831634D01*
X00462492Y00831649D01*
X00462481Y00831632D01*
X00462481Y00831634D01*
X00462481Y00831632D01*
X00462480Y00831631D01*
X00460847Y00829057D01*
X00460847Y00829057D01*
X00460832Y00829035D01*
X00460847Y00829056D01*
X00460847Y00829057D01*
X00460831Y00829037D01*
X00459955Y00828140D01*
X00459981Y00828158D01*
X00459980Y00828157D01*
X00459955Y00828140D01*
X00459955Y00828140D01*
X00459955Y00828140D01*
X00459954Y00828140D01*
X00458690Y00827357D01*
X00458689Y00827356D01*
X00458671Y00827345D01*
X00458644Y00827339D01*
X00458641Y00827339D01*
X00456897Y00827044D01*
X00456877Y00827040D01*
X00456898Y00827045D01*
Y00827045D01*
X00456839Y00827049D01*
X00455199Y00827547D01*
X00455199Y00827546D01*
X00455186Y00827549D01*
X00455160Y00827566D01*
X00455160Y00827567D01*
X00454030Y00828402D01*
X00454043Y00828391D01*
X00454026Y00828401D01*
X00454021Y00828409D01*
X00454030Y00828402D01*
X00454022Y00828409D01*
X00453232Y00829310D01*
X00453232Y00829310D01*
X00453231Y00829312D01*
X00452127Y00831016D01*
X00452128Y00831015D01*
X00452128Y00831015D01*
X00452127Y00831016D01*
X00452127Y00831016D01*
X00452118Y00831030D01*
X00452127Y00831016D01*
X00452128Y00831015D01*
X00452119Y00831031D01*
X00450551Y00834434D01*
X00450554Y00834426D01*
X00450551Y00834430D01*
X00450549Y00834439D01*
X00450551Y00834434D01*
X00450550Y00834439D01*
X00448291Y00841213D01*
X00448292Y00841208D01*
X00448291Y00841215D01*
X00448291Y00841213D01*
X00448291Y00841215D01*
X00446452Y00847987D01*
X00446452Y00847988D01*
X00446452Y00847989D01*
X00443137Y00861516D01*
X00443136Y00861518D01*
X00441457Y00868231D01*
X00439621Y00874858D01*
X00439465Y00875300D01*
Y00886424D01*
X00439569Y00886280D01*
X00439565Y00886286D01*
X00439572Y00886275D01*
X00439569Y00886280D01*
X00439572Y00886275D01*
X00439572Y00886274D01*
X00440546Y00884572D01*
X00440547Y00884570D01*
X00440546Y00884571D01*
X00440553Y00884561D01*
X00440547Y00884570D01*
X00440551Y00884561D01*
X00441332Y00882860D01*
X00441333Y00882852D01*
X00441334Y00882852D01*
X00442617Y00879476D01*
X00442619Y00879472D01*
X00442619Y00879477D01*
X00442620Y00879470D01*
X00442619Y00879472D01*
X00442620Y00879469D01*
X00443700Y00876080D01*
X00443700Y00876078D01*
X00445577Y00869302D01*
X00445577Y00869304D01*
X00445578Y00869301D01*
Y00869301D01*
X00445578Y00869300D01*
X00445578Y00869300D01*
X00445578Y00869302D01*
X00445578Y00869301D01*
X00445577Y00869303D01*
X00445578Y00869302D01*
X00445577Y00869302D01*
X00445578Y00869301D01*
X00445578Y00869300D01*
X00445578Y00869300D01*
X00447273Y00862527D01*
X00447273Y00862524D01*
X00450577Y00849044D01*
X00452379Y00842403D01*
X00453380Y00839151D01*
X00454513Y00835995D01*
X00455845Y00833092D01*
X00456616Y00831894D01*
X00456977Y00831479D01*
X00457146Y00831348D01*
X00457209Y00831393D01*
X00457556Y00831758D01*
X00458691Y00833573D01*
X00460269Y00837331D01*
X00461338Y00840539D01*
X00463207Y00847132D01*
X00466537Y00860592D01*
X00466537Y00860593D01*
X00470012Y00874148D01*
X00470012Y00874147D01*
D01*
X00470012Y00874148D01*
Y00874148D01*
X00470013Y00874150D01*
X00470013Y00874149D01*
X00470012Y00874147D01*
X00470011Y00874141D01*
X00470013Y00874148D01*
X00470013Y00874149D01*
X00470014Y00874150D01*
X00472180Y00880920D01*
X00472182Y00880928D01*
X00472182Y00880928D01*
X00472180Y00880920D01*
X00472180Y00880920D01*
X00472180Y00880916D01*
X00472180Y00880920D01*
X00472185Y00880928D01*
X00472184Y00880929D01*
X00472182Y00880928D01*
X00472183Y00880929D01*
X00472182Y00880929D01*
X00472183Y00880929D01*
D01*
X00472184Y00880931D01*
X00472184Y00880929D01*
X00472185Y00880930D01*
X00473607Y00884310D01*
X00473606Y00884310D01*
X00473607Y00884311D01*
X00473607Y00884312D01*
X00473607Y00884312D01*
X00473607Y00884312D01*
X00473607Y00884312D01*
X00473608Y00884313D01*
X00473608Y00884313D01*
X00473617Y00884326D01*
X00473616Y00884325D01*
X00473617Y00884326D01*
X00475147Y00886902D01*
X00475140Y00886892D01*
X00475152Y00886910D01*
X00475147Y00886902D01*
X00475153Y00886910D01*
X00475153Y00886910D01*
X00475897Y00887782D01*
X00475899Y00887783D01*
X00475914Y00887799D01*
X00476951Y00888634D01*
X00476951Y00888634D01*
X00476979Y00888653D01*
Y00888653D01*
X00476952Y00888634D01*
X00476952Y00888634D01*
X00476981Y00888652D01*
X00477432Y00888849D01*
X00480928D01*
X00481799Y00888303D01*
D02*
G37*
G36*
X00441334Y00882857D02*
X00441335Y00882853D01*
X00441332Y00882860D01*
X00441332Y00882861D01*
X00441334Y00882857D01*
D02*
G37*
G36*
X00472182Y00880928D02*
X00472182Y00880928D01*
X00472182Y00880929D01*
X00472182Y00880928D01*
D02*
G37*
G36*
X00482726Y00887420D02*
X00482736Y00887405D01*
X00482734Y00887406D01*
X00482724Y00887421D01*
X00482726Y00887420D01*
D02*
G37*
G36*
X00473608Y00884313D02*
X00473607Y00884312D01*
X00473608Y00884313D01*
X00473608Y00884313D01*
D02*
G37*
G36*
X00456840Y00827048D02*
X00456877Y00827040D01*
X00456839Y00827048D01*
X00456839Y00827048D01*
X00456840Y00827048D01*
D02*
G37*
G36*
X00501257Y00827036D02*
X00501257Y00827036D01*
X00501256Y00827036D01*
X00501257Y00827036D01*
D02*
G37*
G36*
X00497779Y00828661D02*
X00497791Y00828648D01*
X00497782Y00828653D01*
X00497776Y00828663D01*
X00497776Y00828664D01*
X00497779Y00828661D01*
D02*
G37*
G36*
X00503645Y00827903D02*
X00503647Y00827905D01*
X00503670Y00827919D01*
X00503645Y00827903D01*
D02*
G37*
G36*
X00661464Y00814241D02*
Y00807100D01*
X00657640D01*
Y00803100D01*
X00650640D01*
Y00807100D01*
X00646816D01*
Y00818350D01*
X00646816Y00818350D01*
X00646647Y00819204D01*
X00646613Y00819374D01*
X00646033Y00820242D01*
X00646032Y00820242D01*
X00620390Y00845885D01*
Y00849600D01*
X00626105D01*
X00661464Y00814241D01*
D02*
G37*
G36*
X00641464Y00817241D02*
Y00807100D01*
X00637640D01*
Y00803100D01*
X00630640D01*
Y00807100D01*
X00626792D01*
Y00829299D01*
X00628640Y00830065D01*
X00641464Y00817241D01*
D02*
G37*
G36*
X00501302Y00827038D02*
X00501275Y00827033D01*
X00501302Y00827038D01*
Y00827038D01*
D02*
G37*
G36*
X00501275Y00827033D02*
X00501257Y00827036D01*
Y00827036D01*
X00501275Y00827033D01*
D02*
G37*
G36*
X00682640Y00844100D02*
X00685140D01*
Y00837100D01*
X00682640D01*
Y00833276D01*
X00656499D01*
X00653094Y00836681D01*
X00653640Y00838000D01*
X00653640D01*
X00653640Y00838000D01*
Y00847924D01*
X00682640D01*
Y00844100D01*
D02*
G37*
G36*
X00505869Y00830525D02*
X00505870Y00830525D01*
X00505882Y00830543D01*
X00505869Y00830525D01*
D02*
G37*
G36*
X00493833Y00836363D02*
X00493834Y00836360D01*
X00493832Y00836371D01*
X00493833Y00836363D01*
D02*
G37*
G36*
X00507535Y00833947D02*
X00507530Y00833941D01*
X00507532Y00833946D01*
X00507536Y00833953D01*
X00507535Y00833947D01*
D02*
G37*
G36*
X00453232Y00829310D02*
X00453243Y00829294D01*
X00453232Y00829310D01*
X00453232Y00829310D01*
D02*
G37*
G36*
X00497775Y00828665D02*
X00497776Y00828664D01*
X00497775Y00828664D01*
X00497776Y00828663D01*
X00497776Y00828663D01*
D01*
X00497776Y00828663D01*
X00497775Y00828664D01*
D01*
X00497774Y00828665D01*
X00497775Y00828665D01*
D02*
G37*
G36*
X00497053Y00829548D02*
X00497061Y00829535D01*
X00497052Y00829549D01*
X00497053Y00829548D01*
D02*
G37*
G36*
X00497062Y00829535D02*
X00497062Y00829534D01*
X00497060Y00829537D01*
X00497062Y00829535D01*
D02*
G37*
G36*
X00525640Y00977100D02*
X00525640D01*
Y00961100D01*
X00544640D01*
Y00974100D01*
X00560640D01*
Y00972600D01*
X00566140D01*
Y00972600D01*
X00566140Y00972600D01*
X00566140Y00972600D01*
Y00956600D01*
Y00954600D01*
X00564515D01*
Y00948573D01*
X00556944D01*
X00556704Y00948734D01*
X00554948Y00949083D01*
X00553192Y00948734D01*
X00551704Y00947739D01*
X00550709Y00946251D01*
X00550360Y00944495D01*
X00550709Y00942739D01*
X00551704Y00941251D01*
X00553192Y00940256D01*
X00554948Y00939907D01*
X00555094Y00939936D01*
X00556640Y00938667D01*
Y00936350D01*
X00557890D01*
Y00934350D01*
X00557640D01*
Y00927350D01*
X00560390D01*
X00565640Y00922100D01*
X00573890D01*
Y00922100D01*
X00574640Y00921350D01*
Y00919600D01*
X00583640D01*
Y00918600D01*
X00583807D01*
Y00909600D01*
X00583740D01*
Y00909600D01*
X00580640D01*
X00580640Y00909600D01*
X00580640Y00909600D01*
X00580640Y00909600D01*
Y00910600D01*
X00577140D01*
Y00912600D01*
X00575140D01*
Y00916100D01*
X00573640D01*
Y00916100D01*
X00573640D01*
X00572390Y00917350D01*
Y00917350D01*
X00563390D01*
Y00916100D01*
X00562640D01*
Y00916100D01*
X00561140D01*
Y00912600D01*
X00559140D01*
Y00910600D01*
X00555640D01*
Y00909100D01*
X00555798D01*
Y00907100D01*
X00554640D01*
Y00900684D01*
X00550514D01*
X00550473Y00900997D01*
X00549818Y00902578D01*
X00548776Y00903936D01*
X00547418Y00904978D01*
X00545837Y00905633D01*
X00545534Y00905673D01*
X00544892Y00907566D01*
X00548425Y00911100D01*
X00553640D01*
Y00920100D01*
X00544640D01*
Y00914885D01*
X00543855Y00914100D01*
X00527425D01*
X00526640Y00914885D01*
Y00920100D01*
X00517640D01*
Y00911100D01*
X00518085D01*
Y00909443D01*
X00518085D01*
Y00907258D01*
X00520890D01*
Y00909443D01*
X00520890D01*
Y00909686D01*
X00522304Y00911100D01*
X00522855D01*
X00525640Y00908315D01*
Y00905790D01*
X00524443Y00905633D01*
X00522862Y00904978D01*
X00521504Y00903936D01*
X00520462Y00902578D01*
X00519807Y00900997D01*
X00519584Y00899300D01*
X00519807Y00897603D01*
X00520462Y00896022D01*
X00521504Y00894664D01*
X00522862Y00893622D01*
X00524443Y00892967D01*
X00526140Y00892744D01*
X00527837Y00892967D01*
X00528523Y00893252D01*
X00529425Y00892350D01*
X00532057Y00889717D01*
X00532967Y00889109D01*
X00534040Y00888896D01*
X00541640D01*
Y00883100D01*
Y00881600D01*
X00545140D01*
Y00879600D01*
X00547140D01*
Y00876100D01*
X00550640D01*
Y00875100D01*
X00550640D01*
Y00866100D01*
X00559640D01*
Y00866100D01*
X00559651Y00866109D01*
X00560140Y00866012D01*
X00561896Y00866361D01*
X00563250Y00867266D01*
X00564159D01*
X00566438Y00864987D01*
X00565673Y00863139D01*
X00533640D01*
X00533443Y00863100D01*
X00531640D01*
D01*
D01*
X00531640Y00863100D01*
X00530640D01*
Y00863100D01*
X00528837D01*
X00528640Y00863139D01*
X00515640D01*
X00515390Y00864396D01*
Y00864396D01*
X00514890Y00866909D01*
Y00886774D01*
X00515237Y00886842D01*
X00516576Y00887738D01*
X00517472Y00889077D01*
X00517786Y00890658D01*
Y00892350D01*
Y00892907D01*
Y00892907D01*
X00517472Y00894488D01*
X00516576Y00895827D01*
X00515237Y00896722D01*
X00514890Y00896792D01*
Y00977850D01*
X00525640D01*
Y00977100D01*
D02*
G37*
G36*
X00626140Y00974600D02*
X00630090D01*
Y00974100D01*
X00630090D01*
Y00965600D01*
X00638090D01*
Y00974100D01*
X00638090D01*
D01*
D01*
D01*
X00638090Y00974100D01*
D01*
X00638090Y00974100D01*
X00642790D01*
Y00974100D01*
X00642790Y00974100D01*
X00642790Y00974100D01*
Y00965600D01*
X00650790D01*
Y00966200D01*
X00655490D01*
Y00965600D01*
X00668190D01*
Y00965600D01*
X00676190D01*
Y00970300D01*
X00685140D01*
Y00957350D01*
X00682640D01*
Y00950635D01*
X00674997Y00942992D01*
X00674417Y00942124D01*
X00674384Y00941954D01*
X00674214Y00941100D01*
X00674214Y00941100D01*
Y00935600D01*
X00657140D01*
Y00935276D01*
X00626640D01*
Y00937100D01*
X00617640D01*
Y00928100D01*
X00626640D01*
Y00929924D01*
X00665281D01*
X00669464Y00925741D01*
Y00919600D01*
X00663140D01*
Y00918100D01*
X00661490D01*
Y00907600D01*
X00657490D01*
Y00918100D01*
X00656140D01*
Y00919600D01*
X00629140D01*
Y00919100D01*
X00629090D01*
Y00910276D01*
X00613340D01*
Y00910300D01*
X00613340D01*
Y00918100D01*
X00603140D01*
Y00918101D01*
Y00923600D01*
Y00927100D01*
Y00929600D01*
X00610140D01*
Y00957600D01*
X00616140D01*
Y00971600D01*
X00610640D01*
Y00972600D01*
X00610640D01*
Y00974100D01*
Y00977850D01*
X00618140D01*
Y00974600D01*
X00622140D01*
Y00980600D01*
X00626140D01*
Y00974600D01*
D02*
G37*
%LPC*%
G36*
X00670190Y00961600D02*
X00668190D01*
Y00953100D01*
X00670190D01*
Y00961600D01*
D02*
G37*
G36*
X00650790D02*
X00648790D01*
Y00953100D01*
X00650790D01*
Y00961600D01*
D02*
G37*
G36*
X00452128Y00831015D02*
X00452128Y00831015D01*
X00452129Y00831013D01*
X00452128Y00831015D01*
D02*
G37*
G36*
X00657490Y00961600D02*
X00655490D01*
Y00953100D01*
X00657490D01*
Y00961600D01*
D02*
G37*
G36*
X00676190Y00961600D02*
X00674190D01*
Y00953100D01*
X00676190D01*
Y00961600D01*
D02*
G37*
G36*
X00510808Y00844119D02*
X00510807Y00844116D01*
X00510807Y00844117D01*
X00510808Y00844119D01*
D02*
G37*
G36*
X00521640Y00846600D02*
X00520140D01*
Y00845100D01*
X00521640D01*
Y00846600D01*
D02*
G37*
G36*
X00491740Y00843149D02*
X00491740Y00843146D01*
X00491740Y00843144D01*
X00491740Y00843146D01*
X00491740Y00843149D01*
D02*
G37*
G36*
X00644790Y00961600D02*
X00642790D01*
Y00953100D01*
X00644790D01*
Y00961600D01*
D02*
G37*
G36*
X00638090Y00961600D02*
X00636090D01*
Y00953100D01*
X00638090D01*
Y00961600D01*
D02*
G37*
G36*
X00663490Y00961600D02*
X00661490D01*
Y00953100D01*
X00663490D01*
Y00961600D01*
D02*
G37*
G36*
X00625640Y00966100D02*
X00624140D01*
Y00964600D01*
X00625640D01*
Y00966100D01*
D02*
G37*
G36*
X00620140D02*
X00618640D01*
Y00964600D01*
X00620140D01*
Y00966100D01*
D02*
G37*
G36*
X00551140Y00971600D02*
X00547140D01*
Y00966600D01*
X00551140D01*
Y00971600D01*
D02*
G37*
G36*
X00557140Y00916100D02*
X00555640D01*
Y00914600D01*
X00557140D01*
Y00916100D01*
D02*
G37*
G36*
X00559140Y00971600D02*
X00555140D01*
Y00966600D01*
X00559140D01*
Y00971600D01*
D02*
G37*
G36*
X00551140Y00962600D02*
X00547140D01*
Y00957600D01*
X00551140D01*
Y00962600D01*
D02*
G37*
G36*
X00632090Y00961600D02*
X00630090D01*
Y00954048D01*
X00629294Y00953719D01*
X00629295D01*
X00628242Y00953283D01*
X00627033Y00954492D01*
X00626640Y00954755D01*
Y00957100D01*
X00617640D01*
Y00948100D01*
X00624270D01*
X00625382Y00946437D01*
X00625242Y00946100D01*
X00624140D01*
Y00944600D01*
X00625640D01*
Y00945702D01*
X00627374Y00946420D01*
D01*
X00627488Y00946467D01*
X00632747Y00941208D01*
X00632747Y00941207D01*
X00633616Y00940627D01*
X00633616Y00940627D01*
X00633616Y00940627D01*
D01*
X00633616Y00940627D01*
X00633616Y00940627D01*
X00634640Y00940424D01*
X00659266D01*
X00659646Y00939856D01*
X00661134Y00938861D01*
X00662890Y00938512D01*
X00664646Y00938861D01*
X00666134Y00939856D01*
X00667129Y00941344D01*
X00667478Y00943100D01*
X00667129Y00944856D01*
X00666134Y00946344D01*
X00664646Y00947339D01*
X00662890Y00947688D01*
X00661134Y00947339D01*
X00659646Y00946344D01*
X00659266Y00945776D01*
X00635749D01*
X00630273Y00951252D01*
X00630709Y00952304D01*
X00630709Y00952304D01*
X00631038Y00953100D01*
X00632090D01*
Y00961600D01*
D02*
G37*
G36*
X00559140Y00962600D02*
X00555140D01*
Y00957600D01*
X00559140D01*
Y00962600D01*
D02*
G37*
G36*
X00625640Y00960600D02*
X00624140D01*
Y00959100D01*
X00625640D01*
Y00960600D01*
D02*
G37*
G36*
X00620140D02*
X00618640D01*
Y00959100D01*
X00620140D01*
Y00960600D01*
D02*
G37*
G36*
X00608640Y00927100D02*
X00607140D01*
Y00925600D01*
X00608640D01*
Y00927100D01*
D02*
G37*
G36*
X00473616Y00884325D02*
X00473608Y00884313D01*
X00473607Y00884310D01*
X00473610Y00884312D01*
X00473616Y00884325D01*
D02*
G37*
G36*
X00520140Y00929100D02*
X00518640D01*
Y00927600D01*
X00520140D01*
Y00929100D01*
D02*
G37*
G36*
X00525640D02*
X00524140D01*
Y00927600D01*
X00525640D01*
Y00929100D01*
D02*
G37*
G36*
X00543140Y00877600D02*
X00541640D01*
Y00876100D01*
X00543140D01*
Y00877600D01*
D02*
G37*
G36*
X00520140Y00923600D02*
X00518640D01*
Y00922100D01*
X00520140D01*
Y00923600D01*
D02*
G37*
G36*
X00608640Y00921600D02*
X00607140D01*
Y00920100D01*
X00608640D01*
Y00921600D01*
D02*
G37*
G36*
X00525640Y00923600D02*
X00524140D01*
Y00922100D01*
X00525640D01*
Y00923600D01*
D02*
G37*
G36*
X00552640D02*
X00551140D01*
Y00922100D01*
X00552640D01*
Y00923600D01*
D02*
G37*
G36*
X00547140D02*
X00545640D01*
Y00922100D01*
X00547140D01*
Y00923600D01*
D02*
G37*
G36*
X00548640Y00874100D02*
X00541640D01*
Y00870879D01*
X00541274D01*
Y00868694D01*
X00541640D01*
Y00867100D01*
X00548640D01*
Y00868600D01*
X00545140D01*
Y00872600D01*
X00548640D01*
Y00874100D01*
D02*
G37*
G36*
X00542140Y00852100D02*
X00540640D01*
Y00851100D01*
X00542140D01*
Y00852100D01*
D02*
G37*
G36*
X00547640D02*
X00546140D01*
Y00851100D01*
X00547640D01*
Y00852100D01*
D02*
G37*
G36*
X00521640Y00852100D02*
X00520140D01*
Y00850600D01*
X00521640D01*
Y00852100D01*
D02*
G37*
G36*
X00542140Y00846600D02*
X00540640D01*
Y00845100D01*
X00542140D01*
Y00846600D01*
D02*
G37*
G36*
X00580640Y00916100D02*
X00579140D01*
Y00914600D01*
X00580640D01*
Y00916100D01*
D02*
G37*
G36*
X00552640Y00929100D02*
X00551140D01*
Y00927600D01*
X00552640D01*
Y00929100D01*
D02*
G37*
G36*
X00547140D02*
X00545640D01*
Y00927600D01*
X00547140D01*
Y00929100D01*
D02*
G37*
G36*
X00620140Y00940600D02*
X00618640D01*
Y00939100D01*
X00620140D01*
Y00940600D01*
D02*
G37*
G36*
Y00946100D02*
X00618640D01*
Y00944600D01*
X00620140D01*
Y00946100D01*
D02*
G37*
G36*
X00625640Y00940600D02*
X00624140D01*
Y00939100D01*
X00625640D01*
Y00940600D01*
D02*
G37*
%LPD*%
D10*
X00634090Y00907600D02*
D03*
X00646790Y00907600D02*
D03*
X00659490Y00907600D02*
D03*
X00672190Y00907600D02*
D03*
X00634090Y00963600D02*
D03*
X00646790Y00963600D02*
D03*
X00659490Y00963600D02*
D03*
X00672190Y00963600D02*
D03*
D11*
X00581640Y00893350D02*
D03*
X00586640D02*
D03*
X00591640D02*
D03*
X00596640D02*
D03*
X00606640Y00847850D02*
D03*
X00601640D02*
D03*
X00596640D02*
D03*
X00591640D02*
D03*
X00586640D02*
D03*
X00581640D02*
D03*
X00616640Y00893350D02*
D03*
X00611640D02*
D03*
X00606640D02*
D03*
X00601640D02*
D03*
X00616640Y00847850D02*
D03*
X00611640D02*
D03*
D12*
X00576140Y00888350D02*
D03*
Y00883350D02*
D03*
Y00878350D02*
D03*
Y00873350D02*
D03*
Y00868350D02*
D03*
Y00863350D02*
D03*
Y00858350D02*
D03*
X00621890Y00878350D02*
D03*
Y00883600D02*
D03*
Y00888350D02*
D03*
Y00873350D02*
D03*
Y00868350D02*
D03*
Y00863350D02*
D03*
Y00858350D02*
D03*
Y00853350D02*
D03*
X00576140Y00853350D02*
D03*
D13*
X00599140Y00870600D02*
D03*
D14*
X00586140Y00819600D02*
D03*
X00564140D02*
D03*
Y00835600D02*
D03*
X00586140Y00835600D02*
D03*
D15*
X00530640Y00906100D02*
D03*
Y00969100D02*
D03*
X00539640D02*
D03*
Y00906100D02*
D03*
D16*
X00573015Y00942100D02*
D03*
X00601265D02*
D03*
D17*
X00610140Y00964600D02*
D03*
X00590140D02*
D03*
X00553140D02*
D03*
X00573140D02*
D03*
D18*
X00518140Y00848600D02*
D03*
Y00858600D02*
D03*
X00622140Y00962600D02*
D03*
Y00952600D02*
D03*
X00577140Y00912600D02*
D03*
Y00902600D02*
D03*
X00635140Y00877600D02*
D03*
Y00867600D02*
D03*
X00622140Y00942600D02*
D03*
Y00932600D02*
D03*
X00552140Y00833600D02*
D03*
Y00843600D02*
D03*
X00561140Y00930850D02*
D03*
Y00940850D02*
D03*
X00598140Y00822600D02*
D03*
Y00832600D02*
D03*
X00549140Y00925600D02*
D03*
Y00915600D02*
D03*
X00522140Y00925600D02*
D03*
Y00915600D02*
D03*
X00552140Y00825600D02*
D03*
Y00815600D02*
D03*
X00559140Y00912600D02*
D03*
Y00902600D02*
D03*
X00544140Y00848600D02*
D03*
Y00858600D02*
D03*
X00605140Y00923600D02*
D03*
Y00913600D02*
D03*
X00567890Y00902850D02*
D03*
Y00912850D02*
D03*
X00566140Y00848600D02*
D03*
Y00858600D02*
D03*
D19*
X01399140Y00750600D02*
D03*
Y01590600D02*
D03*
X00434140D02*
D03*
X00526140Y00899300D02*
D03*
X00544140D02*
D03*
D20*
X00578140Y00923100D02*
D03*
X00588140D02*
D03*
X00545140Y00870600D02*
D03*
X00555140D02*
D03*
X00526140Y00858600D02*
D03*
X00536140D02*
D03*
X00545140Y00879600D02*
D03*
X00555140D02*
D03*
D21*
X00659490Y00922450D02*
X00662140Y00925100D01*
X00553140Y00964600D02*
X00554140D01*
X00659490Y00907600D02*
Y00922450D01*
D22*
X00622140Y00962600D02*
X00635740D01*
X00575640Y00902600D02*
X00581490D01*
X00541140Y00820600D02*
Y00825600D01*
X00552140D01*
X00610140Y00966600D02*
X00624140Y00980600D01*
X00602840Y00957100D02*
X00607540D01*
X00610140Y00959700D01*
Y00964600D01*
X00552140Y00833600D02*
X00562140D01*
X00564140Y00835600D01*
X00541140Y00830600D02*
X00544140Y00833600D01*
X00552140D01*
X00611140Y00952600D02*
X00613140Y00950600D01*
Y00930600D02*
Y00940600D01*
Y00922600D02*
Y00930600D01*
Y00940600D02*
Y00950600D01*
X00610140Y00964600D02*
Y00966600D01*
X00613140Y00922600D02*
X00615140Y00920600D01*
X00567890Y00912350D02*
Y00912850D01*
X00575640Y00902600D02*
Y00904600D01*
X00567890Y00912350D02*
X00575640Y00904600D01*
X00635140Y00877600D02*
X00640640D01*
X00635740Y00962600D02*
X00636740Y00963600D01*
X00589140Y00822600D02*
X00598140D01*
X00586140Y00819600D02*
X00589140Y00822600D01*
X00552140Y00815600D02*
X00560140D01*
X00564140Y00819600D01*
X00574390Y00843600D02*
X00578640Y00847850D01*
X00574390Y00829850D02*
Y00843600D01*
X00564140Y00819600D02*
X00574390Y00829850D01*
X00578640Y00847850D02*
X00581640D01*
X00581490Y00902600D02*
X00581690Y00902400D01*
X00582315Y00901775D01*
X00566140Y00848600D02*
X00570340D01*
X00967940Y00282760D02*
Y00432640D01*
X00287837Y00282569D02*
X00967836D01*
X00807837Y00465498D02*
Y00522569D01*
X00487940Y00493569D02*
X00761837D01*
X00487940Y00405173D02*
Y00432640D01*
X00287940Y00416569D02*
Y00432640D01*
X00757836Y00493569D02*
X00967940D01*
X00287837Y00372569D02*
X00487836D01*
X00287940Y00282760D02*
Y00416569D01*
Y00613760D02*
X00967940Y00613640D01*
X00287940Y00552640D02*
X00477940Y00552640D01*
X00287940Y00522640D02*
X00477940D01*
X00287940Y00432640D02*
X00477940D01*
X00287940Y00402640D02*
X00477940D01*
X00487940Y00432640D02*
Y00613760D01*
X00287940Y00432640D02*
Y00613760D01*
X00477940Y00552640D02*
X00967940D01*
X00477940Y00522640D02*
X00967940D01*
X00477940Y00432640D02*
X00967940D01*
X00477940Y00402640D02*
X00967940D01*
Y00432640D02*
Y00613640D01*
X00487940Y00372569D02*
Y00405173D01*
X00287940Y00465569D02*
X00967940D01*
X00287940Y00583569D02*
X00967940D01*
X00287940Y00313569D02*
X00967940D01*
X00456937Y00303256D02*
X00454437Y00305755D01*
X00449439D01*
X00446940Y00303256D01*
Y00293259D01*
X00449439Y00290760D01*
X00454437D01*
X00456937Y00293259D01*
X00469433Y00305755D02*
X00464434D01*
X00461935Y00303256D01*
Y00293259D01*
X00464434Y00290760D01*
X00469433D01*
X00471932Y00293259D01*
Y00303256D01*
X00469433Y00305755D01*
X00476930Y00290760D02*
Y00305755D01*
X00481929Y00300757D01*
X00486927Y00305755D01*
Y00290760D01*
X00491925D02*
Y00305755D01*
X00496924Y00300757D01*
X00501922Y00305755D01*
Y00290760D01*
X00516917Y00305755D02*
X00506921D01*
Y00290760D01*
X00516917D01*
X00506921Y00298258D02*
X00511919D01*
X00521916Y00290760D02*
Y00305755D01*
X00529413D01*
X00531912Y00303256D01*
Y00298258D01*
X00529413Y00295758D01*
X00521916D01*
X00526914D02*
X00531912Y00290760D01*
X00546908Y00303256D02*
X00544408Y00305755D01*
X00539410D01*
X00536911Y00303256D01*
Y00293259D01*
X00539410Y00290760D01*
X00544408D01*
X00546908Y00293259D01*
X00551906Y00305755D02*
X00556904D01*
X00554405D01*
Y00290760D01*
X00551906D01*
X00556904D01*
X00564402D02*
Y00300757D01*
X00569400Y00305755D01*
X00574399Y00300757D01*
Y00290760D01*
Y00298258D01*
X00564402D01*
X00579397Y00305755D02*
Y00290760D01*
X00589394D01*
X00609387Y00305755D02*
X00614386D01*
X00611887D01*
Y00290760D01*
X00609387D01*
X00614386D01*
X00621883D02*
Y00305755D01*
X00631880Y00290760D01*
Y00305755D01*
X00661870Y00303256D02*
X00659371Y00305755D01*
X00654373D01*
X00651874Y00303256D01*
Y00293259D01*
X00654373Y00290760D01*
X00659371D01*
X00661870Y00293259D01*
X00674366Y00305755D02*
X00669368D01*
X00666869Y00303256D01*
Y00293259D01*
X00669368Y00290760D01*
X00674366D01*
X00676865Y00293259D01*
Y00303256D01*
X00674366Y00305755D01*
X00681864Y00290760D02*
Y00305755D01*
X00691861Y00290760D01*
Y00305755D01*
X00706856D02*
X00696859D01*
Y00298258D01*
X00701857D01*
X00696859D01*
Y00290760D01*
X00711854Y00305755D02*
X00716853D01*
X00714353D01*
Y00290760D01*
X00711854D01*
X00716853D01*
X00724350Y00305755D02*
Y00290760D01*
X00731848D01*
X00734347Y00293259D01*
Y00303256D01*
X00731848Y00305755D01*
X00724350D01*
X00749342D02*
X00739345D01*
Y00290760D01*
X00749342D01*
X00739345Y00298258D02*
X00744344D01*
X00754341Y00290760D02*
Y00305755D01*
X00764337Y00290760D01*
Y00305755D01*
X00779332Y00303256D02*
X00776833Y00305755D01*
X00771835D01*
X00769336Y00303256D01*
Y00293259D01*
X00771835Y00290760D01*
X00776833D01*
X00779332Y00293259D01*
X00794327Y00305755D02*
X00784331D01*
Y00290760D01*
X00794327D01*
X00784331Y00298258D02*
X00789329D01*
X00298336Y00380569D02*
Y00395564D01*
X00308333Y00380569D01*
Y00395564D01*
X00315831Y00380569D02*
X00320829D01*
X00323328Y00383068D01*
Y00388067D01*
X00320829Y00390566D01*
X00315831D01*
X00313332Y00388067D01*
Y00383068D01*
X00315831Y00380569D01*
X00330826Y00393065D02*
Y00390566D01*
X00328327D01*
X00333325D01*
X00330826D01*
Y00383068D01*
X00333325Y00380569D01*
X00348320D02*
X00343322D01*
X00340823Y00383068D01*
Y00388067D01*
X00343322Y00390566D01*
X00348320D01*
X00350819Y00388067D01*
Y00385568D01*
X00340823D01*
X00355818Y00380569D02*
X00363315D01*
X00365815Y00383068D01*
X00363315Y00385568D01*
X00358317D01*
X00355818Y00388067D01*
X00358317Y00390566D01*
X00365815D01*
X00370813D02*
X00373312D01*
Y00388067D01*
X00370813D01*
Y00390566D01*
Y00383068D02*
X00373312D01*
Y00380569D01*
X00370813D01*
Y00383068D01*
X00298336Y00530569D02*
Y00545564D01*
X00305834D01*
X00308333Y00543065D01*
Y00538067D01*
X00305834Y00535568D01*
X00298336D01*
X00303335D02*
X00308333Y00530569D01*
X00320829D02*
X00315831D01*
X00313332Y00533068D01*
Y00538067D01*
X00315831Y00540566D01*
X00320829D01*
X00323328Y00538067D01*
Y00535568D01*
X00313332D01*
X00328327Y00540566D02*
X00333325Y00530569D01*
X00338324Y00540566D01*
X00343322Y00530569D02*
X00348320D01*
X00345821D01*
Y00540566D01*
X00343322D01*
X00355818Y00530569D02*
X00363315D01*
X00365815Y00533068D01*
X00363315Y00535568D01*
X00358317D01*
X00355818Y00538067D01*
X00358317Y00540566D01*
X00365815D01*
X00370813Y00530569D02*
X00375811D01*
X00373312D01*
Y00540566D01*
X00370813D01*
X00385808Y00530569D02*
X00390807D01*
X00393306Y00533068D01*
Y00538067D01*
X00390807Y00540566D01*
X00385808D01*
X00383309Y00538067D01*
Y00533068D01*
X00385808Y00530569D01*
X00398304D02*
Y00540566D01*
X00405802D01*
X00408301Y00538067D01*
Y00530569D01*
X00413299Y00540566D02*
X00415798D01*
Y00538067D01*
X00413299D01*
Y00540566D01*
Y00533068D02*
X00415798D01*
Y00530569D01*
X00413299D01*
Y00533068D01*
X00298336Y00516564D02*
Y00501569D01*
X00308333D01*
X00315831Y00511566D02*
X00320829D01*
X00323328Y00509067D01*
Y00501569D01*
X00315831D01*
X00313332Y00504068D01*
X00315831Y00506567D01*
X00323328D01*
X00328327Y00511566D02*
Y00504068D01*
X00330826Y00501569D01*
X00338324D01*
Y00499070D01*
X00335824Y00496571D01*
X00333325D01*
X00338324Y00501569D02*
Y00511566D01*
X00350819Y00501569D02*
X00345821D01*
X00343322Y00504068D01*
Y00509067D01*
X00345821Y00511566D01*
X00350819D01*
X00353319Y00509067D01*
Y00506567D01*
X00343322D01*
X00358317Y00511566D02*
Y00501569D01*
Y00506567D01*
X00360816Y00509067D01*
X00363315Y00511566D01*
X00365815D01*
X00373312D02*
X00375811D01*
Y00509067D01*
X00373312D01*
Y00511566D01*
Y00504068D02*
X00375811D01*
Y00501569D01*
X00373312D01*
Y00504068D01*
X00298836Y00458564D02*
Y00443569D01*
X00306334D01*
X00308833Y00446068D01*
Y00456065D01*
X00306334Y00458564D01*
X00298836D01*
X00321329Y00443569D02*
X00316331D01*
X00313832Y00446068D01*
Y00451067D01*
X00316331Y00453566D01*
X00321329D01*
X00323828Y00451067D01*
Y00448568D01*
X00313832D01*
X00328827Y00443569D02*
X00336324D01*
X00338824Y00446068D01*
X00336324Y00448568D01*
X00331326D01*
X00328827Y00451067D01*
X00331326Y00453566D01*
X00338824D01*
X00343822Y00443569D02*
X00348820D01*
X00346321D01*
Y00453566D01*
X00343822D01*
X00361316Y00438571D02*
X00363815D01*
X00366315Y00441070D01*
Y00453566D01*
X00358817D01*
X00356318Y00451067D01*
Y00446068D01*
X00358817Y00443569D01*
X00366315D01*
X00371313D02*
Y00453566D01*
X00378811D01*
X00381310Y00451067D01*
Y00443569D01*
X00393806D02*
X00388807D01*
X00386308Y00446068D01*
Y00451067D01*
X00388807Y00453566D01*
X00393806D01*
X00396305Y00451067D01*
Y00448568D01*
X00386308D01*
X00411300Y00458564D02*
Y00443569D01*
X00403802D01*
X00401303Y00446068D01*
Y00451067D01*
X00403802Y00453566D01*
X00411300D01*
X00431293Y00458564D02*
Y00443569D01*
X00438791D01*
X00441290Y00446068D01*
Y00448568D01*
X00438791Y00451067D01*
X00431293D01*
X00438791D01*
X00441290Y00453566D01*
Y00456065D01*
X00438791Y00458564D01*
X00431293D01*
X00446289Y00453566D02*
Y00446068D01*
X00448788Y00443569D01*
X00456285D01*
Y00441070D01*
X00453786Y00438571D01*
X00451287D01*
X00456285Y00443569D02*
Y00453566D01*
X00461284D02*
X00463783D01*
Y00451067D01*
X00461284D01*
Y00453566D01*
Y00446068D02*
X00463783D01*
Y00443569D01*
X00461284D01*
Y00446068D01*
X00298336Y00425564D02*
Y00410569D01*
X00305834D01*
X00308333Y00413068D01*
Y00423065D01*
X00305834Y00425564D01*
X00298336D01*
X00315831Y00420566D02*
X00320829D01*
X00323328Y00418067D01*
Y00410569D01*
X00315831D01*
X00313332Y00413068D01*
X00315831Y00415568D01*
X00323328D01*
X00330826Y00423065D02*
Y00420566D01*
X00328327D01*
X00333325D01*
X00330826D01*
Y00413068D01*
X00333325Y00410569D01*
X00348320D02*
X00343322D01*
X00340823Y00413068D01*
Y00418067D01*
X00343322Y00420566D01*
X00348320D01*
X00350819Y00418067D01*
Y00415568D01*
X00340823D01*
X00355818Y00420566D02*
X00358317D01*
Y00418067D01*
X00355818D01*
Y00420566D01*
Y00413068D02*
X00358317D01*
Y00410569D01*
X00355818D01*
Y00413068D01*
X00507937Y00455136D02*
X00505438Y00457635D01*
X00500439D01*
X00497940Y00455136D01*
Y00445139D01*
X00500439Y00442640D01*
X00505438D01*
X00507937Y00445139D01*
X00522932Y00455136D02*
X00520433Y00457635D01*
X00515434D01*
X00512935Y00455136D01*
Y00452637D01*
X00515434Y00450137D01*
X00520433D01*
X00522932Y00447638D01*
Y00445139D01*
X00520433Y00442640D01*
X00515434D01*
X00512935Y00445139D01*
X00527930Y00442640D02*
Y00457635D01*
X00535428D01*
X00537927Y00455136D01*
Y00450137D01*
X00535428Y00447638D01*
X00527930D01*
X00532929D02*
X00537927Y00442640D01*
X00582912Y00455136D02*
X00580413Y00457635D01*
X00575415D01*
X00572916Y00455136D01*
Y00445139D01*
X00575415Y00442640D01*
X00580413D01*
X00582912Y00445139D01*
X00590410Y00452637D02*
X00595409D01*
X00597908Y00450137D01*
Y00442640D01*
X00590410D01*
X00587911Y00445139D01*
X00590410Y00447638D01*
X00597908D01*
X00602906Y00442640D02*
Y00452637D01*
X00605405D01*
X00607904Y00450137D01*
Y00442640D01*
Y00450137D01*
X00610404Y00452637D01*
X00612903Y00450137D01*
Y00442640D01*
X00617901Y00457635D02*
Y00442640D01*
X00625399D01*
X00627898Y00445139D01*
Y00447638D01*
Y00450137D01*
X00625399Y00452637D01*
X00617901D01*
X00632896D02*
Y00442640D01*
Y00447638D01*
X00635396Y00450137D01*
X00637895Y00452637D01*
X00640394D01*
X00647891Y00442640D02*
X00652890D01*
X00650391D01*
Y00452637D01*
X00647891D01*
X00670384Y00457635D02*
Y00442640D01*
X00662887D01*
X00660387Y00445139D01*
Y00450137D01*
X00662887Y00452637D01*
X00670384D01*
X00680381Y00437641D02*
X00682880D01*
X00685379Y00440141D01*
Y00452637D01*
X00677882D01*
X00675383Y00450137D01*
Y00445139D01*
X00677882Y00442640D01*
X00685379D01*
X00697875D02*
X00692877D01*
X00690378Y00445139D01*
Y00450137D01*
X00692877Y00452637D01*
X00697875D01*
X00700375Y00450137D01*
Y00447638D01*
X00690378D01*
X00707872Y00440141D02*
X00710371Y00442640D01*
Y00445139D01*
X00707872D01*
Y00442640D01*
X00710371D01*
X00707872Y00440141D01*
X00705373Y00437641D01*
X00735363Y00457635D02*
Y00445139D01*
X00737862Y00442640D01*
X00742861D01*
X00745360Y00445139D01*
Y00457635D01*
X00750358D02*
Y00442640D01*
Y00447638D01*
X00760355Y00457635D01*
X00752858Y00450137D01*
X00760355Y00442640D01*
X00824837Y00500569D02*
Y00515564D01*
X00829835Y00510566D01*
X00834834Y00515564D01*
Y00500569D01*
X00849829Y00515564D02*
X00839832D01*
Y00500569D01*
X00849829D01*
X00839832Y00508067D02*
X00844830D01*
X00864824Y00513065D02*
X00862325Y00515564D01*
X00857327D01*
X00854827Y00513065D01*
Y00503068D01*
X00857327Y00500569D01*
X00862325D01*
X00864824Y00503068D01*
X00869822Y00515564D02*
Y00500569D01*
Y00508067D01*
X00879819D01*
Y00515564D01*
Y00500569D01*
X00902312D02*
Y00515564D01*
X00907310D02*
Y00500569D01*
X00899813Y00510566D02*
X00907310D01*
X00909809D01*
X00899813Y00505567D02*
X00909809D01*
X00924805Y00515564D02*
X00919806Y00513065D01*
X00914808Y00508067D01*
Y00503068D01*
X00917307Y00500569D01*
X00922305D01*
X00924805Y00503068D01*
Y00505567D01*
X00922305Y00508067D01*
X00914808D01*
X00298336Y00575564D02*
Y00560569D01*
X00305834D01*
X00308333Y00563068D01*
Y00565568D01*
X00305834Y00568067D01*
X00298336D01*
X00305834D01*
X00308333Y00570566D01*
Y00573065D01*
X00305834Y00575564D01*
X00298336D01*
X00315831Y00560569D02*
X00320829D01*
X00323328Y00563068D01*
Y00568067D01*
X00320829Y00570566D01*
X00315831D01*
X00313332Y00568067D01*
Y00563068D01*
X00315831Y00560569D01*
X00330826Y00570566D02*
X00335824D01*
X00338324Y00568067D01*
Y00560569D01*
X00330826D01*
X00328327Y00563068D01*
X00330826Y00565568D01*
X00338324D01*
X00343322Y00570566D02*
Y00560569D01*
Y00565568D01*
X00345821Y00568067D01*
X00348320Y00570566D01*
X00350819D01*
X00368314Y00575564D02*
Y00560569D01*
X00360816D01*
X00358317Y00563068D01*
Y00568067D01*
X00360816Y00570566D01*
X00368314D01*
X00388307Y00560569D02*
Y00575564D01*
X00398304Y00560569D01*
Y00575564D01*
X00405802Y00560569D02*
X00410800D01*
X00413299Y00563068D01*
Y00568067D01*
X00410800Y00570566D01*
X00405802D01*
X00403302Y00568067D01*
Y00563068D01*
X00405802Y00560569D01*
X00418298Y00570566D02*
X00420797D01*
Y00568067D01*
X00418298D01*
Y00570566D01*
Y00563068D02*
X00420797D01*
Y00560569D01*
X00418298D01*
Y00563068D01*
X00307937Y00364256D02*
X00305438Y00366755D01*
X00300439D01*
X00297940Y00364256D01*
Y00354259D01*
X00300439Y00351760D01*
X00305438D01*
X00307937Y00354259D01*
X00322932Y00364256D02*
X00320433Y00366755D01*
X00315434D01*
X00312935Y00364256D01*
Y00361757D01*
X00315434Y00359258D01*
X00320433D01*
X00322932Y00356758D01*
Y00354259D01*
X00320433Y00351760D01*
X00315434D01*
X00312935Y00354259D01*
X00327930Y00351760D02*
Y00366755D01*
X00335428D01*
X00337927Y00364256D01*
Y00359258D01*
X00335428Y00356758D01*
X00327930D01*
X00332929D02*
X00337927Y00351760D01*
X00367917Y00364256D02*
X00365418Y00366755D01*
X00360420D01*
X00357921Y00364256D01*
Y00354259D01*
X00360420Y00351760D01*
X00365418D01*
X00367917Y00354259D01*
X00375415Y00351760D02*
X00380413D01*
X00382912Y00354259D01*
Y00359258D01*
X00380413Y00361757D01*
X00375415D01*
X00372916Y00359258D01*
Y00354259D01*
X00375415Y00351760D01*
X00387911D02*
Y00361757D01*
X00395408D01*
X00397908Y00359258D01*
Y00351760D01*
X00405405Y00364256D02*
Y00361757D01*
X00402906D01*
X00407904D01*
X00405405D01*
Y00354259D01*
X00407904Y00351760D01*
X00417901Y00361757D02*
X00422900D01*
X00425399Y00359258D01*
Y00351760D01*
X00417901D01*
X00415402Y00354259D01*
X00417901Y00356758D01*
X00425399D01*
X00440394Y00361757D02*
X00432896D01*
X00430397Y00359258D01*
Y00354259D01*
X00432896Y00351760D01*
X00440394D01*
X00447891Y00364256D02*
Y00361757D01*
X00445392D01*
X00450391D01*
X00447891D01*
Y00354259D01*
X00450391Y00351760D01*
X00472883Y00356758D02*
X00482880D01*
X00472883Y00361757D02*
X00482880D01*
X00787781Y00364256D02*
X00790281Y00366755D01*
X00795279D01*
X00797778Y00364256D01*
Y00354259D01*
X00795279Y00351760D01*
X00790281D01*
X00787781Y00354259D01*
Y00364256D01*
X00802776Y00351760D02*
X00807775D01*
X00805276D01*
Y00366755D01*
X00802776Y00364256D01*
X00825269Y00351760D02*
X00815273D01*
X00825269Y00361757D01*
Y00364256D01*
X00822770Y00366755D01*
X00817772D01*
X00815273Y00364256D01*
X00840264Y00351760D02*
X00830268D01*
X00840264Y00361757D01*
Y00364256D01*
X00837765Y00366755D01*
X00832767D01*
X00830268Y00364256D01*
X00845263D02*
X00847762Y00366755D01*
X00852760D01*
X00855259Y00364256D01*
Y00361757D01*
X00852760Y00359258D01*
X00850261D01*
X00852760D01*
X00855259Y00356758D01*
Y00354259D01*
X00852760Y00351760D01*
X00847762D01*
X00845263Y00354259D01*
X00885250Y00366755D02*
X00880251Y00364256D01*
X00875253Y00359258D01*
Y00354259D01*
X00877752Y00351760D01*
X00882751D01*
X00885250Y00354259D01*
Y00356758D01*
X00882751Y00359258D01*
X00875253D01*
X00890248Y00354259D02*
X00892747Y00351760D01*
X00897746D01*
X00900245Y00354259D01*
Y00364256D01*
X00897746Y00366755D01*
X00892747D01*
X00890248Y00364256D01*
Y00361757D01*
X00892747Y00359258D01*
X00900245D01*
X00915240Y00351760D02*
X00905243D01*
X00915240Y00361757D01*
Y00364256D01*
X00912741Y00366755D01*
X00907742D01*
X00905243Y00364256D01*
X00920238D02*
X00922738Y00366755D01*
X00927736D01*
X00930235Y00364256D01*
Y00354259D01*
X00927736Y00351760D01*
X00922738D01*
X00920238Y00354259D01*
Y00364256D01*
X00935234D02*
X00937733Y00366755D01*
X00942731D01*
X00945230Y00364256D01*
Y00354259D01*
X00942731Y00351760D01*
X00937733D01*
X00935234Y00354259D01*
Y00364256D01*
X00950229D02*
X00952728Y00366755D01*
X00957726D01*
X00960226Y00364256D01*
Y00354259D01*
X00957726Y00351760D01*
X00952728D01*
X00950229Y00354259D01*
Y00364256D01*
X00297940Y00591760D02*
Y00606755D01*
X00305438D01*
X00307937Y00604256D01*
Y00599258D01*
X00305438Y00596758D01*
X00297940D01*
X00312935Y00601757D02*
Y00591760D01*
Y00596758D01*
X00315434Y00599258D01*
X00317934Y00601757D01*
X00320433D01*
X00330429Y00591760D02*
X00335428D01*
X00337927Y00594259D01*
Y00599258D01*
X00335428Y00601757D01*
X00330429D01*
X00327930Y00599258D01*
Y00594259D01*
X00330429Y00591760D01*
X00342925Y00586762D02*
X00345425D01*
X00347924Y00589261D01*
Y00601757D01*
X00365418Y00591760D02*
X00360420D01*
X00357921Y00594259D01*
Y00599258D01*
X00360420Y00601757D01*
X00365418D01*
X00367917Y00599258D01*
Y00596758D01*
X00357921D01*
X00382912Y00601757D02*
X00375415D01*
X00372916Y00599258D01*
Y00594259D01*
X00375415Y00591760D01*
X00382912D01*
X00390410Y00604256D02*
Y00601757D01*
X00387911D01*
X00392909D01*
X00390410D01*
Y00594259D01*
X00392909Y00591760D01*
X00415402D02*
Y00606755D01*
X00425399Y00591760D01*
Y00606755D01*
X00432896Y00601757D02*
X00437895D01*
X00440394Y00599258D01*
Y00591760D01*
X00432896D01*
X00430397Y00594259D01*
X00432896Y00596758D01*
X00440394D01*
X00445392Y00591760D02*
Y00601757D01*
X00447891D01*
X00450391Y00599258D01*
Y00591760D01*
Y00599258D01*
X00452890Y00601757D01*
X00455389Y00599258D01*
Y00591760D01*
X00467885D02*
X00462887D01*
X00460387Y00594259D01*
Y00599258D01*
X00462887Y00601757D01*
X00467885D01*
X00470384Y00599258D01*
Y00596758D01*
X00460387D01*
X00475382Y00601757D02*
X00477882D01*
Y00599258D01*
X00475382D01*
Y00601757D01*
Y00594259D02*
X00477882D01*
Y00591760D01*
X00475382D01*
Y00594259D01*
D23*
X00561890Y00922100D02*
X00564890Y00919100D01*
X00560640Y00920850D02*
X00561890Y00922100D01*
X00560640Y00912850D02*
Y00920850D01*
X00575772Y00873618D02*
X00576187Y00873203D01*
X00573787D02*
X00576187D01*
X00605540Y00910588D02*
Y00915020D01*
X00591840Y00889895D02*
Y00896888D01*
X00573440Y00868050D02*
X00576340D01*
X00552140Y00843600D02*
X00570440D01*
X00576140Y00849300D01*
Y00853350D01*
X00562890Y00878600D02*
X00573440Y00868050D01*
X00556140Y00878600D02*
X00562890D01*
X00560640Y00902850D02*
X00567890D01*
X00576187Y00873203D02*
X00576340Y00873050D01*
X00576229Y00883161D02*
X00576340Y00883050D01*
X00564890Y00919100D02*
X00572140D01*
X00575640Y00915600D01*
Y00912600D02*
Y00915600D01*
X00615640Y00913700D02*
X00615870Y00913930D01*
X00615640D02*
X00615870D01*
X00615400D02*
X00615640D01*
X00578140Y00923100D02*
X00579140D01*
X00591840Y00896888D02*
X00605540Y00910588D01*
X00615640Y00913700D02*
Y00913930D01*
X00615140Y00920600D02*
X00615864Y00913981D01*
X00615870Y00913930D01*
X00555140Y00879600D02*
X00556140Y00878600D01*
X00540314Y00899846D02*
X00542280Y00897880D01*
X00549140Y00886800D02*
X00551440Y00884500D01*
X00529140Y00896600D02*
X00534040Y00891700D01*
X00551440Y00884500D02*
X00562490D01*
X00573787Y00873203D01*
X00534040Y00891700D02*
X00559060D01*
X00572710Y00878050D01*
X00529140Y00905500D02*
X00530740Y00907100D01*
X00572710Y00878050D02*
X00576340D01*
X00529140Y00896600D02*
Y00905500D01*
X00557250Y00897880D02*
X00571969Y00883161D01*
X00540314Y00899846D02*
Y00906525D01*
X00571969Y00883161D02*
X00576229D01*
X00542280Y00897880D02*
X00557250D01*
X00572090Y00888350D02*
X00576140D01*
X00559140Y00901300D02*
X00572090Y00888350D01*
X00559140Y00901300D02*
Y00902600D01*
X00434140Y00800600D02*
Y00980600D01*
X00689140D01*
Y00800600D02*
Y00980600D01*
X00434140Y00800600D02*
X00689140D01*
D24*
X00588140Y00923100D02*
Y00957600D01*
X00582140Y00963600D02*
X00588140Y00957600D01*
Y00907600D02*
Y00923100D01*
D25*
X00581690Y00893100D02*
Y00902400D01*
X00582315Y00901775D02*
X00588140Y00907600D01*
D26*
X00624116Y00799624D02*
Y00833826D01*
X00672540Y00907250D02*
X00673640Y00908350D01*
X00576340Y00868050D02*
X00580108D01*
X00580967Y00868909D01*
X00581092Y00868971D02*
Y00886951D01*
X00580967Y00886889D02*
X00582590Y00888512D01*
X00590457D01*
X00591840Y00889895D01*
X00591640Y00846302D02*
X00594217Y00843725D01*
X00596640Y00846302D02*
X00613640Y00829302D01*
X00610765Y00817475D02*
X00611390Y00818100D01*
X00599265Y00817475D02*
X00610765D01*
X00592140Y00810350D02*
X00599265Y00817475D01*
X00593515Y00808100D02*
X00600640Y00815225D01*
X00611697D01*
X00613640Y00817168D01*
X00602515Y00812975D02*
X00612629D01*
X00616140Y00816486D01*
Y00831802D01*
X00601640Y00846302D02*
X00616140Y00831802D01*
X00613265Y00844677D02*
Y00844725D01*
X00611640Y00846350D02*
X00613265Y00844725D01*
X00596640Y00897850D02*
X00606390Y00907600D01*
X00611640Y00895350D02*
X00613890Y00897600D01*
X00606640Y00897600D02*
X00608890Y00899850D01*
X00627092Y00878350D02*
X00631967Y00873475D01*
X00636015D01*
X00637140Y00872350D01*
X00623688Y00888350D02*
X00627188Y00884850D01*
X00601640Y00896850D02*
X00608140Y00903350D01*
X00622140Y00932600D02*
X00666390D01*
X00623640Y00893350D02*
X00629390Y00887600D01*
X00613890Y00897600D02*
X00622572D01*
X00629572Y00890600D01*
X00608890Y00899850D02*
X00623504D01*
X00608140Y00903350D02*
X00623390D01*
X00631140Y00895600D01*
X00637640D01*
X00664140Y00980600D02*
X00666640Y00978100D01*
X00637640Y00895600D02*
X00640640Y00898600D01*
Y00902100D01*
X00672140Y00910300D02*
Y00926850D01*
X00666390Y00932600D02*
X00672140Y00926850D01*
X00667140Y00907600D02*
X00672190D01*
X00664890Y00905350D02*
X00667140Y00907600D01*
X00623504Y00899850D02*
X00630004Y00893350D01*
X00639140D02*
X00641265Y00895475D01*
X00630004Y00893350D02*
X00639140D01*
X00629572Y00890600D02*
X00664640D01*
X00627188Y00884850D02*
X00657640D01*
X00641265Y00895475D02*
X00663765D01*
X00664890Y00896600D01*
Y00905350D01*
X00629390Y00887600D02*
X00658140D01*
X00660015Y00885725D01*
X00657640Y00884850D02*
X00659140Y00883350D01*
X00667890D01*
X00660015Y00885725D02*
X00667083D01*
X00676890Y00895532D01*
X00686640Y00950850D02*
X00689140D01*
X00676890Y00941100D02*
X00686640Y00950850D01*
X00676890Y00895532D02*
Y00941100D01*
X00683890Y00930600D02*
X00689140D01*
X00684140Y00910600D02*
X00689140D01*
X00658208Y00881100D02*
X00668822D01*
X00656958Y00882350D02*
X00658208Y00881100D01*
X00623140Y00882350D02*
X00656958D01*
X00637140Y00872350D02*
X00663390D01*
X00681640Y00890600D01*
X00689140D01*
X00626890Y00863350D02*
X00639640Y00850600D01*
X00689140D01*
X00627640Y00858350D02*
X00655390Y00830600D01*
X00689140D01*
X00667890Y00883350D02*
X00679140Y00894600D01*
Y00925850D01*
X00683890Y00930600D01*
X00668822Y00881100D02*
X00681390Y00893668D01*
Y00907850D01*
X00684140Y00910600D01*
X00589140Y00832600D02*
X00598140D01*
X00586140Y00835600D02*
X00589140Y00832600D01*
X00586140Y00835600D02*
X00586640Y00836100D01*
X00546890Y00810350D02*
X00592140D01*
X00544390Y00807850D02*
X00546890Y00810350D01*
X00544390Y00800850D02*
Y00807850D01*
X00544140Y00800600D02*
X00544390Y00800850D01*
X00565390Y00808100D02*
X00593515D01*
X00564140Y00806850D02*
X00565390Y00808100D01*
X00564140Y00800600D02*
Y00806850D01*
X00584140Y00800600D02*
Y00802100D01*
X00587890Y00805850D01*
X00595390D01*
X00602515Y00812975D01*
X00604140Y00800600D02*
Y00806850D01*
X00608015Y00810725D01*
X00613561D01*
X00618453Y00815617D01*
Y00833412D01*
X00606640Y00845225D02*
X00618453Y00833412D01*
X00624116Y00799624D02*
X00624140Y00799600D01*
X00613265Y00844677D02*
X00624116Y00833826D01*
X00616640Y00845850D02*
X00644140Y00818350D01*
Y00800600D02*
Y00818350D01*
X00626140Y00853350D02*
X00664140Y00815350D01*
Y00801600D02*
Y00815350D01*
X00611390Y00818100D02*
Y00826648D01*
X00594217Y00843725D02*
X00594313D01*
X00611390Y00826648D01*
X00613640Y00817168D02*
Y00829302D01*
X00540640Y00907100D02*
X00549140Y00915600D01*
X00539740Y00907100D02*
X00540640D01*
X00522140Y00915600D02*
X00530640Y00907100D01*
X00625140Y00952600D02*
X00634640Y00943100D01*
X00659890D01*
X00626140Y00868350D02*
X00633390Y00861100D01*
X00657640D01*
X00667140Y00870600D01*
X00689140D01*
X00621140Y00952600D02*
X00622140D01*
X00625140D01*
X00611640Y00893350D02*
Y00895350D01*
X00596640Y00893350D02*
Y00897850D01*
X00601640Y00893350D02*
Y00896850D01*
X00606640Y00893350D02*
Y00897600D01*
X00621890Y00858350D02*
X00627640D01*
X00596640Y00846302D02*
Y00847850D01*
X00601640Y00846302D02*
Y00847850D01*
X00616640Y00893350D02*
X00623640D01*
X00621890Y00883600D02*
X00623140Y00882350D01*
X00621890Y00878350D02*
X00627092D01*
X00621940Y00878100D02*
X00622540Y00877500D01*
X00621890Y00853350D02*
X00626140D01*
X00621890Y00868350D02*
X00626140D01*
X00621890Y00888350D02*
X00623688D01*
X00606640Y00845225D02*
Y00847850D01*
X00616640Y00845850D02*
Y00847850D01*
X00621890Y00863350D02*
X00626890D01*
X00586640Y00836100D02*
Y00847850D01*
X00591640Y00846302D02*
Y00847850D01*
X00606390Y00907600D02*
X00634140D01*
X00640640Y00902100D02*
X00646640Y00908100D01*
X00530640Y00907100D02*
X00530740D01*
D27*
X00560640Y00944495D02*
X00569680D01*
X00554948D02*
X00560640D01*
Y00941350D02*
X00561140Y00940850D01*
X00560640Y00941350D02*
Y00944495D01*
X00512140Y00858300D02*
Y00858350D01*
X00640640Y00877600D02*
X00654140D01*
D28*
X00573090Y00863050D02*
X00576340D01*
X00560640Y00871600D02*
X00561640Y00870600D01*
X00565540D01*
X00573090Y00863050D01*
X00539740Y00907100D02*
X00540314Y00906525D01*
X00494000Y00487865D02*
X00504157D01*
X00499078D01*
Y00472630D01*
X00511774D02*
X00516853D01*
X00519392Y00475169D01*
Y00480247D01*
X00516853Y00482787D01*
X00511774D01*
X00509235Y00480247D01*
Y00475169D01*
X00511774Y00472630D01*
X00524470Y00467552D02*
Y00482787D01*
X00532088D01*
X00534627Y00480247D01*
Y00475169D01*
X00532088Y00472630D01*
X00524470D01*
X00554940Y00487865D02*
Y00472630D01*
X00565097D01*
X00572715Y00482787D02*
X00577793D01*
X00580332Y00480247D01*
Y00472630D01*
X00572715D01*
X00570175Y00475169D01*
X00572715Y00477708D01*
X00580332D01*
X00585410Y00482787D02*
Y00475169D01*
X00587950Y00472630D01*
X00595567D01*
Y00470091D01*
X00593028Y00467552D01*
X00590489D01*
X00595567Y00472630D02*
Y00482787D01*
X00608263Y00472630D02*
X00603185D01*
X00600645Y00475169D01*
Y00480247D01*
X00603185Y00482787D01*
X00608263D01*
X00610802Y00480247D01*
Y00477708D01*
X00600645D01*
X00615881Y00482787D02*
Y00472630D01*
Y00477708D01*
X00618420Y00480247D01*
X00620959Y00482787D01*
X00623498D01*
X00505070Y00516085D02*
Y00500850D01*
X00512687D01*
X00515227Y00503389D01*
Y00505928D01*
X00512687Y00508467D01*
X00505070D01*
X00512687D01*
X00515227Y00511007D01*
Y00513546D01*
X00512687Y00516085D01*
X00505070D01*
X00522844Y00500850D02*
X00527923D01*
X00530462Y00503389D01*
Y00508467D01*
X00527923Y00511007D01*
X00522844D01*
X00520305Y00508467D01*
Y00503389D01*
X00522844Y00500850D01*
X00538079Y00511007D02*
X00543158D01*
X00545697Y00508467D01*
Y00500850D01*
X00538079D01*
X00535540Y00503389D01*
X00538079Y00505928D01*
X00545697D01*
X00550775Y00511007D02*
Y00500850D01*
Y00505928D01*
X00553314Y00508467D01*
X00555854Y00511007D01*
X00558393D01*
X00576167Y00516085D02*
Y00500850D01*
X00568549D01*
X00566010Y00503389D01*
Y00508467D01*
X00568549Y00511007D01*
X00576167D01*
X00596480Y00500850D02*
Y00516085D01*
X00604098D01*
X00606637Y00513546D01*
Y00508467D01*
X00604098Y00505928D01*
X00596480D01*
X00611716Y00511007D02*
Y00500850D01*
Y00505928D01*
X00614255Y00508467D01*
X00616794Y00511007D01*
X00619333D01*
X00629490Y00500850D02*
X00634568D01*
X00637107Y00503389D01*
Y00508467D01*
X00634568Y00511007D01*
X00629490D01*
X00626951Y00508467D01*
Y00503389D01*
X00629490Y00500850D01*
X00644725D02*
Y00513546D01*
Y00508467D01*
X00642186D01*
X00647264D01*
X00644725D01*
Y00513546D01*
X00647264Y00516085D01*
X00654882Y00500850D02*
X00659960D01*
X00657421D01*
Y00511007D01*
X00654882D01*
X00667577Y00500850D02*
X00672656D01*
X00670117D01*
Y00516085D01*
X00667577D01*
X00687891Y00500850D02*
X00682812D01*
X00680273Y00503389D01*
Y00508467D01*
X00682812Y00511007D01*
X00687891D01*
X00690430Y00508467D01*
Y00505928D01*
X00680273D01*
X00506097Y00605456D02*
X00503558Y00607995D01*
X00498479D01*
X00495940Y00605456D01*
Y00595299D01*
X00498479Y00592760D01*
X00503558D01*
X00506097Y00595299D01*
X00521332Y00605456D02*
X00518793Y00607995D01*
X00513714D01*
X00511175Y00605456D01*
Y00602917D01*
X00513714Y00600378D01*
X00518793D01*
X00521332Y00597838D01*
Y00595299D01*
X00518793Y00592760D01*
X00513714D01*
X00511175Y00595299D01*
X00526410Y00592760D02*
Y00607995D01*
X00534028D01*
X00536567Y00605456D01*
Y00600378D01*
X00534028Y00597838D01*
X00526410D01*
X00531488D02*
X00536567Y00592760D01*
X00541645D02*
X00546724D01*
X00544184D01*
Y00607995D01*
X00541645Y00605456D01*
X00554341D02*
X00556880Y00607995D01*
X00561959D01*
X00564498Y00605456D01*
Y00595299D01*
X00561959Y00592760D01*
X00556880D01*
X00554341Y00595299D01*
Y00605456D01*
X00569576D02*
X00572115Y00607995D01*
X00577194D01*
X00579733Y00605456D01*
Y00595299D01*
X00577194Y00592760D01*
X00572115D01*
X00569576Y00595299D01*
Y00605456D01*
X00584811D02*
X00587350Y00607995D01*
X00592429D01*
X00594968Y00605456D01*
Y00595299D01*
X00592429Y00592760D01*
X00587350D01*
X00584811Y00595299D01*
Y00605456D01*
X00615281Y00592760D02*
Y00607995D01*
X00620360Y00602917D01*
X00625438Y00607995D01*
Y00592760D01*
X00633056Y00602917D02*
X00638134D01*
X00640673Y00600378D01*
Y00592760D01*
X00633056D01*
X00630517Y00595299D01*
X00633056Y00597838D01*
X00640673D01*
X00645751Y00592760D02*
X00653369D01*
X00655908Y00595299D01*
X00653369Y00597838D01*
X00648291D01*
X00645751Y00600378D01*
X00648291Y00602917D01*
X00655908D01*
X00660987Y00592760D02*
X00668604D01*
X00671143Y00595299D01*
X00668604Y00597838D01*
X00663526D01*
X00660987Y00600378D01*
X00663526Y00602917D01*
X00671143D01*
X00691457Y00592760D02*
Y00607995D01*
X00699074D01*
X00701613Y00605456D01*
Y00600378D01*
X00699074Y00597838D01*
X00691457D01*
X00706692Y00602917D02*
Y00592760D01*
Y00597838D01*
X00709231Y00600378D01*
X00711770Y00602917D01*
X00714309D01*
X00724466Y00592760D02*
X00729544D01*
X00732084Y00595299D01*
Y00600378D01*
X00729544Y00602917D01*
X00724466D01*
X00721927Y00600378D01*
Y00595299D01*
X00724466Y00592760D01*
X00747319Y00607995D02*
Y00592760D01*
X00739701D01*
X00737162Y00595299D01*
Y00600378D01*
X00739701Y00602917D01*
X00747319D01*
X00752397D02*
Y00595299D01*
X00754936Y00592760D01*
X00762554D01*
Y00602917D01*
X00777789D02*
X00770171D01*
X00767632Y00600378D01*
Y00595299D01*
X00770171Y00592760D01*
X00777789D01*
X00785406Y00605456D02*
Y00602917D01*
X00782867D01*
X00787945D01*
X00785406D01*
Y00595299D01*
X00787945Y00592760D01*
X00795563D02*
X00800641D01*
X00798102D01*
Y00602917D01*
X00795563D01*
X00810798Y00592760D02*
X00815876D01*
X00818416Y00595299D01*
Y00600378D01*
X00815876Y00602917D01*
X00810798D01*
X00808259Y00600378D01*
Y00595299D01*
X00810798Y00592760D01*
X00823494D02*
Y00602917D01*
X00831112D01*
X00833651Y00600378D01*
Y00592760D01*
X00853964D02*
Y00607995D01*
X00859043Y00602917D01*
X00864121Y00607995D01*
Y00592760D01*
X00871738D02*
X00876817D01*
X00879356Y00595299D01*
Y00600378D01*
X00876817Y00602917D01*
X00871738D01*
X00869199Y00600378D01*
Y00595299D01*
X00871738Y00592760D01*
X00894591Y00607995D02*
Y00592760D01*
X00886973D01*
X00884434Y00595299D01*
Y00600378D01*
X00886973Y00602917D01*
X00894591D01*
X00899669D02*
Y00595299D01*
X00902209Y00592760D01*
X00909826D01*
Y00602917D01*
X00914904Y00592760D02*
X00919983D01*
X00917444D01*
Y00607995D01*
X00914904D01*
X00935218Y00592760D02*
X00930139D01*
X00927600Y00595299D01*
Y00600378D01*
X00930139Y00602917D01*
X00935218D01*
X00937757Y00600378D01*
Y00597838D01*
X00927600D01*
X00505097Y00573706D02*
X00502557Y00576245D01*
X00497479D01*
X00494940Y00573706D01*
Y00563549D01*
X00497479Y00561010D01*
X00502557D01*
X00505097Y00563549D01*
X00510175Y00561010D02*
Y00576245D01*
X00520332Y00561010D01*
Y00576245D01*
X00535567Y00573706D02*
X00533028Y00576245D01*
X00527949D01*
X00525410Y00573706D01*
Y00571167D01*
X00527949Y00568628D01*
X00533028D01*
X00535567Y00566088D01*
Y00563549D01*
X00533028Y00561010D01*
X00527949D01*
X00525410Y00563549D01*
X00540645Y00561010D02*
X00545724D01*
X00543184D01*
Y00576245D01*
X00540645Y00573706D01*
X00563498Y00561010D02*
X00553341D01*
X00563498Y00571167D01*
Y00573706D01*
X00560959Y00576245D01*
X00555880D01*
X00553341Y00573706D01*
X00568576D02*
X00571115Y00576245D01*
X00576194D01*
X00578733Y00573706D01*
Y00563549D01*
X00576194Y00561010D01*
X00571115D01*
X00568576Y00563549D01*
Y00573706D01*
X00583811Y00561010D02*
X00588890D01*
X00586350D01*
Y00576245D01*
X00583811Y00573706D01*
X00596507Y00561010D02*
X00601586D01*
X00599046D01*
Y00576245D01*
X00596507Y00573706D01*
X00495690Y00545495D02*
Y00535338D01*
X00500768Y00530260D01*
X00505847Y00535338D01*
Y00545495D01*
X00521082Y00530260D02*
X00510925D01*
X00521082Y00540417D01*
Y00542956D01*
X00518543Y00545495D01*
X00513464D01*
X00510925Y00542956D01*
X00513847Y00368956D02*
X00511307Y00371495D01*
X00506229D01*
X00503690Y00368956D01*
Y00358799D01*
X00506229Y00356260D01*
X00511307D01*
X00513847Y00358799D01*
X00529082Y00368956D02*
X00526543Y00371495D01*
X00521464D01*
X00518925Y00368956D01*
Y00366417D01*
X00521464Y00363877D01*
X00526543D01*
X00529082Y00361338D01*
Y00358799D01*
X00526543Y00356260D01*
X00521464D01*
X00518925Y00358799D01*
X00534160Y00356260D02*
Y00371495D01*
X00541778D01*
X00544317Y00368956D01*
Y00363877D01*
X00541778Y00361338D01*
X00534160D01*
X00539239D02*
X00544317Y00356260D01*
X00506307Y00426245D02*
X00501229D01*
X00498690Y00423706D01*
Y00413549D01*
X00501229Y00411010D01*
X00506307D01*
X00508847Y00413549D01*
Y00423706D01*
X00506307Y00426245D01*
X00524082Y00421167D02*
X00516464D01*
X00513925Y00418628D01*
Y00413549D01*
X00516464Y00411010D01*
X00524082D01*
X00531699Y00423706D02*
Y00421167D01*
X00529160D01*
X00534239D01*
X00531699D01*
Y00413549D01*
X00534239Y00411010D01*
X00567248D02*
X00557091D01*
X00567248Y00421167D01*
Y00423706D01*
X00564709Y00426245D01*
X00559630D01*
X00557091Y00423706D01*
X00572326D02*
X00574865Y00426245D01*
X00579944D01*
X00582483Y00423706D01*
Y00413549D01*
X00579944Y00411010D01*
X00574865D01*
X00572326Y00413549D01*
Y00423706D01*
X00587561Y00411010D02*
X00592640D01*
X00590100D01*
Y00426245D01*
X00587561Y00423706D01*
X00600257Y00411010D02*
X00605336D01*
X00602796D01*
Y00426245D01*
X00600257Y00423706D01*
D29*
X00590140Y00964600D02*
Y00966600D01*
X00604140Y00980600D01*
X00632640Y00867600D02*
X00635140D01*
X00627140Y00873100D02*
X00632640Y00867600D01*
X00622140Y00873100D02*
X00627140D01*
X00621890Y00873350D02*
X00622140Y00873100D01*
X00586840Y00897300D02*
X00597150Y00907610D01*
Y00936815D01*
X00586840Y00893050D02*
Y00897300D01*
X00573140Y00964600D02*
X00590140D01*
D30*
X00569640Y00925600D02*
X00575640D01*
X00566390D02*
X00569640D01*
X00575640D02*
X00578140Y00923100D01*
X00561140Y00930850D02*
X00566390Y00925600D01*
D31*
X00653980Y00980600D02*
X00674300D01*
X00613980D02*
X00634300D01*
X00513980Y00800600D02*
X00534300D01*
X00573980D02*
X00594300D01*
X00553980D02*
X00574300D01*
X00533980D02*
X00554300D01*
X00593980D02*
X00614300D01*
X00613980D02*
X00634300D01*
X00633980D02*
X00654300D01*
X00653980D02*
X00674300D01*
X00689140Y00820440D02*
Y00840760D01*
Y00840440D02*
Y00860760D01*
Y00860440D02*
Y00880760D01*
Y00880440D02*
Y00900760D01*
Y00900440D02*
Y00920760D01*
Y00920440D02*
Y00940760D01*
Y00940690D02*
Y00961010D01*
X00593980Y00980600D02*
X00614300D01*
X00573980D02*
X00594300D01*
D32*
X00441640Y00995600D02*
X00681640D01*
X00703890Y00973350D02*
X00704140Y00807600D01*
X00441140Y00785600D02*
X00682140D01*
X00419140Y00807600D02*
Y00973600D01*
D33*
X00664140Y00980600D02*
D03*
X00644140D02*
D03*
X00554140D02*
D03*
X00624140D02*
D03*
X00524140Y00800600D02*
D03*
X00584140D02*
D03*
X00564140D02*
D03*
X00544140D02*
D03*
X00604140D02*
D03*
X00624140D02*
D03*
X00644140D02*
D03*
X00664140D02*
D03*
X00604140Y00980600D02*
D03*
X00584140D02*
D03*
D34*
X00689890Y00981350D02*
D03*
Y00799850D02*
D03*
X00433390D02*
D03*
Y00981350D02*
D03*
D35*
X00689140Y00830600D02*
D03*
Y00850600D02*
D03*
Y00870600D02*
D03*
Y00890600D02*
D03*
Y00910600D02*
D03*
Y00930600D02*
D03*
Y00950850D02*
D03*
D36*
X00459140Y00955600D02*
D03*
D37*
X00659440Y00923600D02*
D03*
X00535440Y00850200D02*
D03*
X00602840Y00957100D02*
D03*
X00562540Y00968600D02*
D03*
X00525840Y00850000D02*
D03*
X00559440Y00850900D02*
D03*
X00603890Y00923600D02*
D03*
X00629890Y00969600D02*
D03*
X00652890Y00963600D02*
D03*
X00635040Y00836000D02*
D03*
X00637940Y00818000D02*
D03*
X00629890Y00824600D02*
D03*
X00576840Y00818500D02*
D03*
X00548140Y00866600D02*
D03*
X00553040Y00908900D02*
D03*
X00518890Y00907600D02*
D03*
X00512140Y00858300D02*
D03*
X00557140Y00952600D02*
D03*
X00613140Y00930600D02*
D03*
Y00940600D02*
D03*
Y00950600D02*
D03*
X00640640Y00877600D02*
D03*
X00640390Y00867350D02*
D03*
X00581140Y00912600D02*
D03*
X00550340Y00931700D02*
D03*
X00522140Y00930600D02*
D03*
X00560140Y00870600D02*
D03*
X00599320Y00870340D02*
D03*
X00538140Y00866600D02*
D03*
X00529140Y00957600D02*
D03*
X00546340Y00952500D02*
D03*
X00539336Y00957672D02*
D03*
X00538140Y00876600D02*
D03*
Y00885600D02*
D03*
X00569640Y00925600D02*
D03*
X00615140Y00920600D02*
D03*
X00554948Y00944495D02*
D03*
X00536303Y00921279D02*
D03*
X00610490Y00881350D02*
D03*
X00587890D02*
D03*
X00599390D02*
D03*
Y00859350D02*
D03*
X00587890Y00859550D02*
D03*
X00610490Y00859350D02*
D03*
X00587890Y00870350D02*
D03*
X00610490D02*
D03*
X00662890Y00943100D02*
D03*
X00654140Y00866600D02*
D03*
X00633390Y00924350D02*
D03*
X00664640Y00890600D02*
D03*
X00655640Y00937600D02*
D03*
X00659390Y00950350D02*
D03*
X00633890Y00953100D02*
D03*
X00628640Y00941350D02*
D03*
X00602890Y00822600D02*
D03*
X00521140Y00810600D02*
D03*
Y00820600D02*
D03*
Y00830600D02*
D03*
Y00839600D02*
D03*
X00531140D02*
D03*
X00552740Y00851100D02*
D03*
X00531140Y00830600D02*
D03*
Y00820600D02*
D03*
Y00810600D02*
D03*
X00541140Y00820600D02*
D03*
Y00830600D02*
D03*
Y00839600D02*
D03*
X00630840Y00817800D02*
D03*
X00651140Y00816600D02*
D03*
X00629140Y00841600D02*
D03*
X00656140D02*
D03*
X00674140Y00837600D02*
D03*
X00654140Y00855600D02*
D03*
Y00877600D02*
D03*
X00530140Y00866600D02*
D03*
Y00876600D02*
D03*
Y00885600D02*
D03*
X00520140D02*
D03*
Y00876600D02*
D03*
Y00866600D02*
D03*
X00539140Y00929600D02*
D03*
Y00939600D02*
D03*
Y00948600D02*
D03*
X00529140D02*
D03*
Y00939600D02*
D03*
Y00929600D02*
D03*
X00519140Y00967600D02*
D03*
Y00957600D02*
D03*
Y00948600D02*
D03*
Y00939600D02*
D03*
X00587840Y00956100D02*
D03*
X00549140Y00886800D02*
D03*
X00562640Y00919850D02*
D03*
X00549140Y00939500D02*
D03*
X00640540Y00962000D02*
D03*
Y00948700D02*
D03*
X00562640Y00959800D02*
D03*
X00624240Y00913700D02*
D03*
X00663440Y00837800D02*
D03*
X00623840Y00924200D02*
D03*
X00675140Y00864600D02*
D03*
M02*
