%FSAX44Y44*%
%MOMM*%
G71*
G01*
G75*
G04 Layer_Color=9306309*
%ADD10R,0.6000X1.9000*%
%ADD11R,0.3500X0.5000*%
%ADD12R,0.5000X0.3500*%
%ADD13R,3.2000X3.2000*%
%ADD14R,1.4000X1.1000*%
%ADD15R,0.6000X1.2000*%
%ADD16R,1.3000X2.1000*%
%ADD17R,1.0000X1.2000*%
%ADD18R,0.5000X0.5000*%
%ADD19C,1.0000*%
%ADD20R,0.5000X0.5000*%
%ADD21C,0.2600*%
%ADD22C,0.2000*%
%ADD23C,0.1500*%
%ADD24C,0.4500*%
%ADD25C,0.3500*%
%ADD26C,0.1250*%
%ADD27C,0.4000*%
%ADD28C,0.2540*%
%ADD29C,0.3000*%
%ADD30C,0.5000*%
%ADD31C,0.0000*%
%ADD32C,0.1000*%
%ADD33R,1.0000X1.0000*%
%ADD34C,0.3000*%
%ADD35R,1.0000X1.0000*%
%ADD36C,3.0000*%
%ADD37C,0.6000*%
%ADD38C,0.0142*%
%ADD39C,0.0203*%
%ADD40C,0.0081*%
%ADD41R,8.0500X2.8750*%
%ADD42R,7.5500X1.0250*%
%ADD43R,0.7500X2.0500*%
%ADD44R,0.5100X0.6600*%
%ADD45R,0.6600X0.5100*%
%ADD46R,3.3600X3.3600*%
%ADD47R,1.5500X1.2500*%
%ADD48R,0.7600X1.3600*%
%ADD49R,1.4500X2.2500*%
%ADD50R,1.1500X1.3500*%
%ADD51R,0.6500X0.6500*%
%ADD52C,2.0000*%
%ADD53R,0.6500X0.6500*%
%ADD54R,1.1600X1.1600*%
%ADD55C,0.4500*%
%ADD56R,1.1600X1.1600*%
%ADD57C,3.1600*%
%ADD58C,0.7600*%
%ADD59C,1.1600*%
%ADD60R,8.0750X6.6000*%
%ADD61C,1.1500*%
%ADD62C,0.2500*%
%ADD63C,0.1524*%
D22*
X00444140Y01590600D02*
G03*
X00444140Y01590600I-00010000J00000000D01*
G01*
X00439140D02*
G03*
X00439140Y01590600I-00005000J00000000D01*
G01*
X00404140D02*
G03*
X00404140Y01590600I-00020000J00000000D01*
G01*
X01404140D02*
G03*
X01404140Y01590600I-00005000J00000000D01*
G01*
X01409140D02*
G03*
X01409140Y01590600I-00010000J00000000D01*
G01*
X01469140D02*
G03*
X01469140Y01590600I-00020000J00000000D01*
G01*
X01409140Y00750600D02*
G03*
X01409140Y00750600I-00010000J00000000D01*
G01*
X01404140D02*
G03*
X01404140Y00750600I-00005000J00000000D01*
G01*
X01469140D02*
G03*
X01469140Y00750600I-00020000J00000000D01*
G01*
X00404140D02*
G03*
X00404140Y00750600I-00020000J00000000D01*
G01*
X00967940Y00282760D02*
Y00432640D01*
X00287837Y00282569D02*
X00967836D01*
X00807837Y00465498D02*
Y00522569D01*
X00487940Y00493569D02*
X00761837D01*
X00487940Y00405173D02*
Y00432640D01*
X00287940Y00416569D02*
Y00432640D01*
X00757836Y00493569D02*
X00967940D01*
X00287837Y00372569D02*
X00487836D01*
X00287940Y00282760D02*
Y00416569D01*
Y00613760D02*
X00967940Y00613640D01*
X00287940Y00552640D02*
X00477940Y00552640D01*
X00287940Y00522640D02*
X00477940D01*
X00287940Y00432640D02*
X00477940D01*
X00287940Y00402640D02*
X00477940D01*
X00487940Y00432640D02*
Y00613760D01*
X00287940Y00432640D02*
Y00613760D01*
X00477940Y00552640D02*
X00967940D01*
X00477940Y00522640D02*
X00967940D01*
X00477940Y00432640D02*
X00967940D01*
X00477940Y00402640D02*
X00967940D01*
Y00432640D02*
Y00613640D01*
X00487940Y00372569D02*
Y00405173D01*
X00287940Y00465569D02*
X00967940D01*
X00287940Y00583569D02*
X00967940D01*
X00287940Y00313569D02*
X00967940D01*
X00456937Y00303256D02*
X00454437Y00305755D01*
X00449439D01*
X00446940Y00303256D01*
Y00293259D01*
X00449439Y00290760D01*
X00454437D01*
X00456937Y00293259D01*
X00469433Y00305755D02*
X00464434D01*
X00461935Y00303256D01*
Y00293259D01*
X00464434Y00290760D01*
X00469433D01*
X00471932Y00293259D01*
Y00303256D01*
X00469433Y00305755D01*
X00476930Y00290760D02*
Y00305755D01*
X00481929Y00300757D01*
X00486927Y00305755D01*
Y00290760D01*
X00491925D02*
Y00305755D01*
X00496924Y00300757D01*
X00501922Y00305755D01*
Y00290760D01*
X00516917Y00305755D02*
X00506921D01*
Y00290760D01*
X00516917D01*
X00506921Y00298258D02*
X00511919D01*
X00521916Y00290760D02*
Y00305755D01*
X00529413D01*
X00531912Y00303256D01*
Y00298258D01*
X00529413Y00295758D01*
X00521916D01*
X00526914D02*
X00531912Y00290760D01*
X00546908Y00303256D02*
X00544408Y00305755D01*
X00539410D01*
X00536911Y00303256D01*
Y00293259D01*
X00539410Y00290760D01*
X00544408D01*
X00546908Y00293259D01*
X00551906Y00305755D02*
X00556904D01*
X00554405D01*
Y00290760D01*
X00551906D01*
X00556904D01*
X00564402D02*
Y00300757D01*
X00569400Y00305755D01*
X00574399Y00300757D01*
Y00290760D01*
Y00298258D01*
X00564402D01*
X00579397Y00305755D02*
Y00290760D01*
X00589394D01*
X00609387Y00305755D02*
X00614386D01*
X00611887D01*
Y00290760D01*
X00609387D01*
X00614386D01*
X00621883D02*
Y00305755D01*
X00631880Y00290760D01*
Y00305755D01*
X00661870Y00303256D02*
X00659371Y00305755D01*
X00654373D01*
X00651874Y00303256D01*
Y00293259D01*
X00654373Y00290760D01*
X00659371D01*
X00661870Y00293259D01*
X00674366Y00305755D02*
X00669368D01*
X00666869Y00303256D01*
Y00293259D01*
X00669368Y00290760D01*
X00674366D01*
X00676865Y00293259D01*
Y00303256D01*
X00674366Y00305755D01*
X00681864Y00290760D02*
Y00305755D01*
X00691861Y00290760D01*
Y00305755D01*
X00706856D02*
X00696859D01*
Y00298258D01*
X00701857D01*
X00696859D01*
Y00290760D01*
X00711854Y00305755D02*
X00716853D01*
X00714353D01*
Y00290760D01*
X00711854D01*
X00716853D01*
X00724350Y00305755D02*
Y00290760D01*
X00731848D01*
X00734347Y00293259D01*
Y00303256D01*
X00731848Y00305755D01*
X00724350D01*
X00749342D02*
X00739345D01*
Y00290760D01*
X00749342D01*
X00739345Y00298258D02*
X00744344D01*
X00754341Y00290760D02*
Y00305755D01*
X00764337Y00290760D01*
Y00305755D01*
X00779332Y00303256D02*
X00776833Y00305755D01*
X00771835D01*
X00769336Y00303256D01*
Y00293259D01*
X00771835Y00290760D01*
X00776833D01*
X00779332Y00293259D01*
X00794327Y00305755D02*
X00784331D01*
Y00290760D01*
X00794327D01*
X00784331Y00298258D02*
X00789329D01*
X00298336Y00380569D02*
Y00395564D01*
X00308333Y00380569D01*
Y00395564D01*
X00315831Y00380569D02*
X00320829D01*
X00323328Y00383068D01*
Y00388067D01*
X00320829Y00390566D01*
X00315831D01*
X00313332Y00388067D01*
Y00383068D01*
X00315831Y00380569D01*
X00330826Y00393065D02*
Y00390566D01*
X00328327D01*
X00333325D01*
X00330826D01*
Y00383068D01*
X00333325Y00380569D01*
X00348320D02*
X00343322D01*
X00340823Y00383068D01*
Y00388067D01*
X00343322Y00390566D01*
X00348320D01*
X00350819Y00388067D01*
Y00385568D01*
X00340823D01*
X00355818Y00380569D02*
X00363315D01*
X00365815Y00383068D01*
X00363315Y00385568D01*
X00358317D01*
X00355818Y00388067D01*
X00358317Y00390566D01*
X00365815D01*
X00370813D02*
X00373312D01*
Y00388067D01*
X00370813D01*
Y00390566D01*
Y00383068D02*
X00373312D01*
Y00380569D01*
X00370813D01*
Y00383068D01*
X00298336Y00530569D02*
Y00545564D01*
X00305834D01*
X00308333Y00543065D01*
Y00538067D01*
X00305834Y00535568D01*
X00298336D01*
X00303335D02*
X00308333Y00530569D01*
X00320829D02*
X00315831D01*
X00313332Y00533068D01*
Y00538067D01*
X00315831Y00540566D01*
X00320829D01*
X00323328Y00538067D01*
Y00535568D01*
X00313332D01*
X00328327Y00540566D02*
X00333325Y00530569D01*
X00338324Y00540566D01*
X00343322Y00530569D02*
X00348320D01*
X00345821D01*
Y00540566D01*
X00343322D01*
X00355818Y00530569D02*
X00363315D01*
X00365815Y00533068D01*
X00363315Y00535568D01*
X00358317D01*
X00355818Y00538067D01*
X00358317Y00540566D01*
X00365815D01*
X00370813Y00530569D02*
X00375811D01*
X00373312D01*
Y00540566D01*
X00370813D01*
X00385808Y00530569D02*
X00390807D01*
X00393306Y00533068D01*
Y00538067D01*
X00390807Y00540566D01*
X00385808D01*
X00383309Y00538067D01*
Y00533068D01*
X00385808Y00530569D01*
X00398304D02*
Y00540566D01*
X00405802D01*
X00408301Y00538067D01*
Y00530569D01*
X00413299Y00540566D02*
X00415798D01*
Y00538067D01*
X00413299D01*
Y00540566D01*
Y00533068D02*
X00415798D01*
Y00530569D01*
X00413299D01*
Y00533068D01*
X00298336Y00516564D02*
Y00501569D01*
X00308333D01*
X00315831Y00511566D02*
X00320829D01*
X00323328Y00509067D01*
Y00501569D01*
X00315831D01*
X00313332Y00504068D01*
X00315831Y00506567D01*
X00323328D01*
X00328327Y00511566D02*
Y00504068D01*
X00330826Y00501569D01*
X00338324D01*
Y00499070D01*
X00335824Y00496571D01*
X00333325D01*
X00338324Y00501569D02*
Y00511566D01*
X00350819Y00501569D02*
X00345821D01*
X00343322Y00504068D01*
Y00509067D01*
X00345821Y00511566D01*
X00350819D01*
X00353319Y00509067D01*
Y00506567D01*
X00343322D01*
X00358317Y00511566D02*
Y00501569D01*
Y00506567D01*
X00360816Y00509067D01*
X00363315Y00511566D01*
X00365815D01*
X00373312D02*
X00375811D01*
Y00509067D01*
X00373312D01*
Y00511566D01*
Y00504068D02*
X00375811D01*
Y00501569D01*
X00373312D01*
Y00504068D01*
X00298836Y00458564D02*
Y00443569D01*
X00306334D01*
X00308833Y00446068D01*
Y00456065D01*
X00306334Y00458564D01*
X00298836D01*
X00321329Y00443569D02*
X00316331D01*
X00313832Y00446068D01*
Y00451067D01*
X00316331Y00453566D01*
X00321329D01*
X00323828Y00451067D01*
Y00448568D01*
X00313832D01*
X00328827Y00443569D02*
X00336324D01*
X00338824Y00446068D01*
X00336324Y00448568D01*
X00331326D01*
X00328827Y00451067D01*
X00331326Y00453566D01*
X00338824D01*
X00343822Y00443569D02*
X00348820D01*
X00346321D01*
Y00453566D01*
X00343822D01*
X00361316Y00438571D02*
X00363815D01*
X00366315Y00441070D01*
Y00453566D01*
X00358817D01*
X00356318Y00451067D01*
Y00446068D01*
X00358817Y00443569D01*
X00366315D01*
X00371313D02*
Y00453566D01*
X00378811D01*
X00381310Y00451067D01*
Y00443569D01*
X00393806D02*
X00388807D01*
X00386308Y00446068D01*
Y00451067D01*
X00388807Y00453566D01*
X00393806D01*
X00396305Y00451067D01*
Y00448568D01*
X00386308D01*
X00411300Y00458564D02*
Y00443569D01*
X00403802D01*
X00401303Y00446068D01*
Y00451067D01*
X00403802Y00453566D01*
X00411300D01*
X00431293Y00458564D02*
Y00443569D01*
X00438791D01*
X00441290Y00446068D01*
Y00448568D01*
X00438791Y00451067D01*
X00431293D01*
X00438791D01*
X00441290Y00453566D01*
Y00456065D01*
X00438791Y00458564D01*
X00431293D01*
X00446289Y00453566D02*
Y00446068D01*
X00448788Y00443569D01*
X00456285D01*
Y00441070D01*
X00453786Y00438571D01*
X00451287D01*
X00456285Y00443569D02*
Y00453566D01*
X00461284D02*
X00463783D01*
Y00451067D01*
X00461284D01*
Y00453566D01*
Y00446068D02*
X00463783D01*
Y00443569D01*
X00461284D01*
Y00446068D01*
X00298336Y00425564D02*
Y00410569D01*
X00305834D01*
X00308333Y00413068D01*
Y00423065D01*
X00305834Y00425564D01*
X00298336D01*
X00315831Y00420566D02*
X00320829D01*
X00323328Y00418067D01*
Y00410569D01*
X00315831D01*
X00313332Y00413068D01*
X00315831Y00415568D01*
X00323328D01*
X00330826Y00423065D02*
Y00420566D01*
X00328327D01*
X00333325D01*
X00330826D01*
Y00413068D01*
X00333325Y00410569D01*
X00348320D02*
X00343322D01*
X00340823Y00413068D01*
Y00418067D01*
X00343322Y00420566D01*
X00348320D01*
X00350819Y00418067D01*
Y00415568D01*
X00340823D01*
X00355818Y00420566D02*
X00358317D01*
Y00418067D01*
X00355818D01*
Y00420566D01*
Y00413068D02*
X00358317D01*
Y00410569D01*
X00355818D01*
Y00413068D01*
X00507937Y00455136D02*
X00505438Y00457635D01*
X00500439D01*
X00497940Y00455136D01*
Y00445139D01*
X00500439Y00442640D01*
X00505438D01*
X00507937Y00445139D01*
X00522932Y00455136D02*
X00520433Y00457635D01*
X00515434D01*
X00512935Y00455136D01*
Y00452637D01*
X00515434Y00450137D01*
X00520433D01*
X00522932Y00447638D01*
Y00445139D01*
X00520433Y00442640D01*
X00515434D01*
X00512935Y00445139D01*
X00527930Y00442640D02*
Y00457635D01*
X00535428D01*
X00537927Y00455136D01*
Y00450137D01*
X00535428Y00447638D01*
X00527930D01*
X00532929D02*
X00537927Y00442640D01*
X00582912Y00455136D02*
X00580413Y00457635D01*
X00575415D01*
X00572916Y00455136D01*
Y00445139D01*
X00575415Y00442640D01*
X00580413D01*
X00582912Y00445139D01*
X00590410Y00452637D02*
X00595409D01*
X00597908Y00450137D01*
Y00442640D01*
X00590410D01*
X00587911Y00445139D01*
X00590410Y00447638D01*
X00597908D01*
X00602906Y00442640D02*
Y00452637D01*
X00605405D01*
X00607904Y00450137D01*
Y00442640D01*
Y00450137D01*
X00610404Y00452637D01*
X00612903Y00450137D01*
Y00442640D01*
X00617901Y00457635D02*
Y00442640D01*
X00625399D01*
X00627898Y00445139D01*
Y00447638D01*
Y00450137D01*
X00625399Y00452637D01*
X00617901D01*
X00632896D02*
Y00442640D01*
Y00447638D01*
X00635396Y00450137D01*
X00637895Y00452637D01*
X00640394D01*
X00647891Y00442640D02*
X00652890D01*
X00650391D01*
Y00452637D01*
X00647891D01*
X00670384Y00457635D02*
Y00442640D01*
X00662887D01*
X00660387Y00445139D01*
Y00450137D01*
X00662887Y00452637D01*
X00670384D01*
X00680381Y00437641D02*
X00682880D01*
X00685379Y00440141D01*
Y00452637D01*
X00677882D01*
X00675383Y00450137D01*
Y00445139D01*
X00677882Y00442640D01*
X00685379D01*
X00697875D02*
X00692877D01*
X00690378Y00445139D01*
Y00450137D01*
X00692877Y00452637D01*
X00697875D01*
X00700375Y00450137D01*
Y00447638D01*
X00690378D01*
X00707872Y00440141D02*
X00710371Y00442640D01*
Y00445139D01*
X00707872D01*
Y00442640D01*
X00710371D01*
X00707872Y00440141D01*
X00705373Y00437641D01*
X00735363Y00457635D02*
Y00445139D01*
X00737862Y00442640D01*
X00742861D01*
X00745360Y00445139D01*
Y00457635D01*
X00750358D02*
Y00442640D01*
Y00447638D01*
X00760355Y00457635D01*
X00752858Y00450137D01*
X00760355Y00442640D01*
X00824837Y00500569D02*
Y00515564D01*
X00829835Y00510566D01*
X00834834Y00515564D01*
Y00500569D01*
X00849829Y00515564D02*
X00839832D01*
Y00500569D01*
X00849829D01*
X00839832Y00508067D02*
X00844830D01*
X00864824Y00513065D02*
X00862325Y00515564D01*
X00857327D01*
X00854827Y00513065D01*
Y00503068D01*
X00857327Y00500569D01*
X00862325D01*
X00864824Y00503068D01*
X00869822Y00515564D02*
Y00500569D01*
Y00508067D01*
X00879819D01*
Y00515564D01*
Y00500569D01*
X00902312D02*
Y00515564D01*
X00907310D02*
Y00500569D01*
X00899813Y00510566D02*
X00907310D01*
X00909809D01*
X00899813Y00505567D02*
X00909809D01*
X00924805Y00515564D02*
X00919806Y00513065D01*
X00914808Y00508067D01*
Y00503068D01*
X00917307Y00500569D01*
X00922305D01*
X00924805Y00503068D01*
Y00505567D01*
X00922305Y00508067D01*
X00914808D01*
X00298336Y00575564D02*
Y00560569D01*
X00305834D01*
X00308333Y00563068D01*
Y00565568D01*
X00305834Y00568067D01*
X00298336D01*
X00305834D01*
X00308333Y00570566D01*
Y00573065D01*
X00305834Y00575564D01*
X00298336D01*
X00315831Y00560569D02*
X00320829D01*
X00323328Y00563068D01*
Y00568067D01*
X00320829Y00570566D01*
X00315831D01*
X00313332Y00568067D01*
Y00563068D01*
X00315831Y00560569D01*
X00330826Y00570566D02*
X00335824D01*
X00338324Y00568067D01*
Y00560569D01*
X00330826D01*
X00328327Y00563068D01*
X00330826Y00565568D01*
X00338324D01*
X00343322Y00570566D02*
Y00560569D01*
Y00565568D01*
X00345821Y00568067D01*
X00348320Y00570566D01*
X00350819D01*
X00368314Y00575564D02*
Y00560569D01*
X00360816D01*
X00358317Y00563068D01*
Y00568067D01*
X00360816Y00570566D01*
X00368314D01*
X00388307Y00560569D02*
Y00575564D01*
X00398304Y00560569D01*
Y00575564D01*
X00405802Y00560569D02*
X00410800D01*
X00413299Y00563068D01*
Y00568067D01*
X00410800Y00570566D01*
X00405802D01*
X00403302Y00568067D01*
Y00563068D01*
X00405802Y00560569D01*
X00418298Y00570566D02*
X00420797D01*
Y00568067D01*
X00418298D01*
Y00570566D01*
Y00563068D02*
X00420797D01*
Y00560569D01*
X00418298D01*
Y00563068D01*
X00307937Y00364256D02*
X00305438Y00366755D01*
X00300439D01*
X00297940Y00364256D01*
Y00354259D01*
X00300439Y00351760D01*
X00305438D01*
X00307937Y00354259D01*
X00322932Y00364256D02*
X00320433Y00366755D01*
X00315434D01*
X00312935Y00364256D01*
Y00361757D01*
X00315434Y00359258D01*
X00320433D01*
X00322932Y00356758D01*
Y00354259D01*
X00320433Y00351760D01*
X00315434D01*
X00312935Y00354259D01*
X00327930Y00351760D02*
Y00366755D01*
X00335428D01*
X00337927Y00364256D01*
Y00359258D01*
X00335428Y00356758D01*
X00327930D01*
X00332929D02*
X00337927Y00351760D01*
X00367917Y00364256D02*
X00365418Y00366755D01*
X00360420D01*
X00357921Y00364256D01*
Y00354259D01*
X00360420Y00351760D01*
X00365418D01*
X00367917Y00354259D01*
X00375415Y00351760D02*
X00380413D01*
X00382912Y00354259D01*
Y00359258D01*
X00380413Y00361757D01*
X00375415D01*
X00372916Y00359258D01*
Y00354259D01*
X00375415Y00351760D01*
X00387911D02*
Y00361757D01*
X00395408D01*
X00397908Y00359258D01*
Y00351760D01*
X00405405Y00364256D02*
Y00361757D01*
X00402906D01*
X00407904D01*
X00405405D01*
Y00354259D01*
X00407904Y00351760D01*
X00417901Y00361757D02*
X00422900D01*
X00425399Y00359258D01*
Y00351760D01*
X00417901D01*
X00415402Y00354259D01*
X00417901Y00356758D01*
X00425399D01*
X00440394Y00361757D02*
X00432896D01*
X00430397Y00359258D01*
Y00354259D01*
X00432896Y00351760D01*
X00440394D01*
X00447891Y00364256D02*
Y00361757D01*
X00445392D01*
X00450391D01*
X00447891D01*
Y00354259D01*
X00450391Y00351760D01*
X00472883Y00356758D02*
X00482880D01*
X00472883Y00361757D02*
X00482880D01*
X00787781Y00364256D02*
X00790281Y00366755D01*
X00795279D01*
X00797778Y00364256D01*
Y00354259D01*
X00795279Y00351760D01*
X00790281D01*
X00787781Y00354259D01*
Y00364256D01*
X00802776Y00351760D02*
X00807775D01*
X00805276D01*
Y00366755D01*
X00802776Y00364256D01*
X00825269Y00351760D02*
X00815273D01*
X00825269Y00361757D01*
Y00364256D01*
X00822770Y00366755D01*
X00817772D01*
X00815273Y00364256D01*
X00840264Y00351760D02*
X00830268D01*
X00840264Y00361757D01*
Y00364256D01*
X00837765Y00366755D01*
X00832767D01*
X00830268Y00364256D01*
X00845263D02*
X00847762Y00366755D01*
X00852760D01*
X00855259Y00364256D01*
Y00361757D01*
X00852760Y00359258D01*
X00850261D01*
X00852760D01*
X00855259Y00356758D01*
Y00354259D01*
X00852760Y00351760D01*
X00847762D01*
X00845263Y00354259D01*
X00885250Y00366755D02*
X00880251Y00364256D01*
X00875253Y00359258D01*
Y00354259D01*
X00877752Y00351760D01*
X00882751D01*
X00885250Y00354259D01*
Y00356758D01*
X00882751Y00359258D01*
X00875253D01*
X00890248Y00354259D02*
X00892747Y00351760D01*
X00897746D01*
X00900245Y00354259D01*
Y00364256D01*
X00897746Y00366755D01*
X00892747D01*
X00890248Y00364256D01*
Y00361757D01*
X00892747Y00359258D01*
X00900245D01*
X00915240Y00351760D02*
X00905243D01*
X00915240Y00361757D01*
Y00364256D01*
X00912741Y00366755D01*
X00907742D01*
X00905243Y00364256D01*
X00920238D02*
X00922738Y00366755D01*
X00927736D01*
X00930235Y00364256D01*
Y00354259D01*
X00927736Y00351760D01*
X00922738D01*
X00920238Y00354259D01*
Y00364256D01*
X00935234D02*
X00937733Y00366755D01*
X00942731D01*
X00945230Y00364256D01*
Y00354259D01*
X00942731Y00351760D01*
X00937733D01*
X00935234Y00354259D01*
Y00364256D01*
X00950229D02*
X00952728Y00366755D01*
X00957726D01*
X00960226Y00364256D01*
Y00354259D01*
X00957726Y00351760D01*
X00952728D01*
X00950229Y00354259D01*
Y00364256D01*
X00297940Y00591760D02*
Y00606755D01*
X00305438D01*
X00307937Y00604256D01*
Y00599258D01*
X00305438Y00596758D01*
X00297940D01*
X00312935Y00601757D02*
Y00591760D01*
Y00596758D01*
X00315434Y00599258D01*
X00317934Y00601757D01*
X00320433D01*
X00330429Y00591760D02*
X00335428D01*
X00337927Y00594259D01*
Y00599258D01*
X00335428Y00601757D01*
X00330429D01*
X00327930Y00599258D01*
Y00594259D01*
X00330429Y00591760D01*
X00342925Y00586762D02*
X00345425D01*
X00347924Y00589261D01*
Y00601757D01*
X00365418Y00591760D02*
X00360420D01*
X00357921Y00594259D01*
Y00599258D01*
X00360420Y00601757D01*
X00365418D01*
X00367917Y00599258D01*
Y00596758D01*
X00357921D01*
X00382912Y00601757D02*
X00375415D01*
X00372916Y00599258D01*
Y00594259D01*
X00375415Y00591760D01*
X00382912D01*
X00390410Y00604256D02*
Y00601757D01*
X00387911D01*
X00392909D01*
X00390410D01*
Y00594259D01*
X00392909Y00591760D01*
X00415402D02*
Y00606755D01*
X00425399Y00591760D01*
Y00606755D01*
X00432896Y00601757D02*
X00437895D01*
X00440394Y00599258D01*
Y00591760D01*
X00432896D01*
X00430397Y00594259D01*
X00432896Y00596758D01*
X00440394D01*
X00445392Y00591760D02*
Y00601757D01*
X00447891D01*
X00450391Y00599258D01*
Y00591760D01*
Y00599258D01*
X00452890Y00601757D01*
X00455389Y00599258D01*
Y00591760D01*
X00467885D02*
X00462887D01*
X00460387Y00594259D01*
Y00599258D01*
X00462887Y00601757D01*
X00467885D01*
X00470384Y00599258D01*
Y00596758D01*
X00460387D01*
X00475382Y00601757D02*
X00477882D01*
Y00599258D01*
X00475382D01*
Y00601757D01*
Y00594259D02*
X00477882D01*
Y00591760D01*
X00475382D01*
Y00594259D01*
D23*
X00434140Y01080600D02*
Y01260600D01*
X00689140D01*
Y01080600D02*
Y01260600D01*
X00434140Y01080600D02*
X00689140D01*
X00434140Y01360600D02*
Y01540600D01*
X00689140D01*
Y01360600D02*
Y01540600D01*
X00434140Y01360600D02*
X00689140D01*
X00789140Y00800600D02*
X01044140D01*
Y00980600D01*
X00789140D02*
X01044140D01*
X00789140Y00800600D02*
Y00980600D01*
Y01360600D02*
X01044140D01*
Y01540600D01*
X00789140D02*
X01044140D01*
X00789140Y01360600D02*
Y01540600D01*
Y01080600D02*
X01044140D01*
Y01260600D01*
X00789140D02*
X01044140D01*
X00789140Y01080600D02*
Y01260600D01*
X01144140Y01080600D02*
Y01260600D01*
X01399140D01*
Y01080600D02*
Y01260600D01*
X01144140Y01080600D02*
X01399140D01*
X01144140Y01360600D02*
Y01540600D01*
X01399140D01*
Y01360600D02*
Y01540600D01*
X01144140Y01360600D02*
X01399140D01*
X01144140Y00800600D02*
Y00980600D01*
X01399140D01*
Y00800600D02*
Y00980600D01*
X01144140Y00800600D02*
X01399140D01*
X00434140D02*
X00689140D01*
Y00980600D01*
X00434140D02*
X00689140D01*
X00434140Y00800600D02*
Y00980600D01*
Y00800600D02*
Y00980600D01*
X00689140D01*
Y00800600D02*
Y00980600D01*
X00434140Y00800600D02*
X00689140D01*
D28*
X00286600Y01640600D02*
X00330350D01*
X00286600Y00700600D02*
X00330350D01*
X00289140Y01204879D02*
Y01640600D01*
Y00700600D02*
Y01128193D01*
X00284060Y01625360D02*
X00289140Y01640600D01*
X00294220Y01625360D01*
X00289140Y00700600D02*
X00294220Y00715840D01*
X00284060D02*
X00289140Y00700600D01*
X01499140Y01644390D02*
Y01700640D01*
X00334140Y01644390D02*
Y01700640D01*
X00955997Y01698100D02*
X01499140D01*
X00334140D02*
X00869155D01*
X01483900Y01703180D02*
X01499140Y01698100D01*
X01483900Y01693020D02*
X01499140Y01698100D01*
X00334140D02*
X00349380Y01693020D01*
X00334140Y01698100D02*
X00349380Y01703180D01*
X00609140Y00470600D02*
Y00485835D01*
X00616758D01*
X00619297Y00483296D01*
Y00478218D01*
X00616758Y00475678D01*
X00609140D01*
X00626914Y00480757D02*
X00631993D01*
X00634532Y00478218D01*
Y00470600D01*
X00626914D01*
X00624375Y00473139D01*
X00626914Y00475678D01*
X00634532D01*
X00639610Y00470600D02*
Y00480757D01*
X00647228D01*
X00649767Y00478218D01*
Y00470600D01*
X00662463D02*
X00657384D01*
X00654845Y00473139D01*
Y00478218D01*
X00657384Y00480757D01*
X00662463D01*
X00665002Y00478218D01*
Y00475678D01*
X00654845D01*
X00670080Y00470600D02*
X00675159D01*
X00672619D01*
Y00485835D01*
X00670080D01*
X00698011Y00470600D02*
Y00485835D01*
X00705629D01*
X00708168Y00483296D01*
Y00478218D01*
X00705629Y00475678D01*
X00698011D01*
X00713246Y00480757D02*
Y00470600D01*
Y00475678D01*
X00715786Y00478218D01*
X00718325Y00480757D01*
X00720864D01*
X00731021Y00470600D02*
X00736099D01*
X00738638Y00473139D01*
Y00478218D01*
X00736099Y00480757D01*
X00731021D01*
X00728481Y00478218D01*
Y00473139D01*
X00731021Y00470600D01*
X00746256D02*
Y00483296D01*
Y00478218D01*
X00743717D01*
X00748795D01*
X00746256D01*
Y00483296D01*
X00748795Y00485835D01*
X00756412Y00470600D02*
X00761491D01*
X00758951D01*
Y00480757D01*
X00756412D01*
X00769108Y00470600D02*
X00774187D01*
X00771647D01*
Y00485835D01*
X00769108D01*
X00789422Y00470600D02*
X00784343D01*
X00781804Y00473139D01*
Y00478218D01*
X00784343Y00480757D01*
X00789422D01*
X00791961Y00478218D01*
Y00475678D01*
X00781804D01*
X00505070Y00516085D02*
Y00500850D01*
X00512687D01*
X00515227Y00503389D01*
Y00505928D01*
X00512687Y00508467D01*
X00505070D01*
X00512687D01*
X00515227Y00511007D01*
Y00513546D01*
X00512687Y00516085D01*
X00505070D01*
X00522844Y00500850D02*
X00527923D01*
X00530462Y00503389D01*
Y00508467D01*
X00527923Y00511007D01*
X00522844D01*
X00520305Y00508467D01*
Y00503389D01*
X00522844Y00500850D01*
X00538079Y00511007D02*
X00543158D01*
X00545697Y00508467D01*
Y00500850D01*
X00538079D01*
X00535540Y00503389D01*
X00538079Y00505928D01*
X00545697D01*
X00550775Y00511007D02*
Y00500850D01*
Y00505928D01*
X00553314Y00508467D01*
X00555854Y00511007D01*
X00558393D01*
X00576167Y00516085D02*
Y00500850D01*
X00568549D01*
X00566010Y00503389D01*
Y00508467D01*
X00568549Y00511007D01*
X00576167D01*
X00596480Y00500850D02*
Y00516085D01*
X00604098D01*
X00606637Y00513546D01*
Y00508467D01*
X00604098Y00505928D01*
X00596480D01*
X00611716Y00511007D02*
Y00500850D01*
Y00505928D01*
X00614255Y00508467D01*
X00616794Y00511007D01*
X00619333D01*
X00629490Y00500850D02*
X00634568D01*
X00637107Y00503389D01*
Y00508467D01*
X00634568Y00511007D01*
X00629490D01*
X00626951Y00508467D01*
Y00503389D01*
X00629490Y00500850D01*
X00644725D02*
Y00513546D01*
Y00508467D01*
X00642186D01*
X00647264D01*
X00644725D01*
Y00513546D01*
X00647264Y00516085D01*
X00654882Y00500850D02*
X00659960D01*
X00657421D01*
Y00511007D01*
X00654882D01*
X00667577Y00500850D02*
X00672656D01*
X00670117D01*
Y00516085D01*
X00667577D01*
X00687891Y00500850D02*
X00682812D01*
X00680273Y00503389D01*
Y00508467D01*
X00682812Y00511007D01*
X00687891D01*
X00690430Y00508467D01*
Y00505928D01*
X00680273D01*
X00506097Y00605456D02*
X00503558Y00607995D01*
X00498479D01*
X00495940Y00605456D01*
Y00595299D01*
X00498479Y00592760D01*
X00503558D01*
X00506097Y00595299D01*
X00521332Y00605456D02*
X00518793Y00607995D01*
X00513714D01*
X00511175Y00605456D01*
Y00602917D01*
X00513714Y00600378D01*
X00518793D01*
X00521332Y00597838D01*
Y00595299D01*
X00518793Y00592760D01*
X00513714D01*
X00511175Y00595299D01*
X00526410Y00592760D02*
Y00607995D01*
X00534028D01*
X00536567Y00605456D01*
Y00600378D01*
X00534028Y00597838D01*
X00526410D01*
X00531488D02*
X00536567Y00592760D01*
X00541645D02*
X00546724D01*
X00544184D01*
Y00607995D01*
X00541645Y00605456D01*
X00554341D02*
X00556880Y00607995D01*
X00561959D01*
X00564498Y00605456D01*
Y00595299D01*
X00561959Y00592760D01*
X00556880D01*
X00554341Y00595299D01*
Y00605456D01*
X00569576D02*
X00572115Y00607995D01*
X00577194D01*
X00579733Y00605456D01*
Y00595299D01*
X00577194Y00592760D01*
X00572115D01*
X00569576Y00595299D01*
Y00605456D01*
X00584811D02*
X00587350Y00607995D01*
X00592429D01*
X00594968Y00605456D01*
Y00595299D01*
X00592429Y00592760D01*
X00587350D01*
X00584811Y00595299D01*
Y00605456D01*
X00615281Y00592760D02*
Y00607995D01*
X00620360Y00602917D01*
X00625438Y00607995D01*
Y00592760D01*
X00633056Y00602917D02*
X00638134D01*
X00640673Y00600378D01*
Y00592760D01*
X00633056D01*
X00630517Y00595299D01*
X00633056Y00597838D01*
X00640673D01*
X00645751Y00592760D02*
X00653369D01*
X00655908Y00595299D01*
X00653369Y00597838D01*
X00648291D01*
X00645751Y00600378D01*
X00648291Y00602917D01*
X00655908D01*
X00660987Y00592760D02*
X00668604D01*
X00671143Y00595299D01*
X00668604Y00597838D01*
X00663526D01*
X00660987Y00600378D01*
X00663526Y00602917D01*
X00671143D01*
X00691457Y00592760D02*
Y00607995D01*
X00699074D01*
X00701613Y00605456D01*
Y00600378D01*
X00699074Y00597838D01*
X00691457D01*
X00706692Y00602917D02*
Y00592760D01*
Y00597838D01*
X00709231Y00600378D01*
X00711770Y00602917D01*
X00714309D01*
X00724466Y00592760D02*
X00729544D01*
X00732084Y00595299D01*
Y00600378D01*
X00729544Y00602917D01*
X00724466D01*
X00721927Y00600378D01*
Y00595299D01*
X00724466Y00592760D01*
X00747319Y00607995D02*
Y00592760D01*
X00739701D01*
X00737162Y00595299D01*
Y00600378D01*
X00739701Y00602917D01*
X00747319D01*
X00752397D02*
Y00595299D01*
X00754936Y00592760D01*
X00762554D01*
Y00602917D01*
X00777789D02*
X00770171D01*
X00767632Y00600378D01*
Y00595299D01*
X00770171Y00592760D01*
X00777789D01*
X00785406Y00605456D02*
Y00602917D01*
X00782867D01*
X00787945D01*
X00785406D01*
Y00595299D01*
X00787945Y00592760D01*
X00795563D02*
X00800641D01*
X00798102D01*
Y00602917D01*
X00795563D01*
X00810798Y00592760D02*
X00815876D01*
X00818416Y00595299D01*
Y00600378D01*
X00815876Y00602917D01*
X00810798D01*
X00808259Y00600378D01*
Y00595299D01*
X00810798Y00592760D01*
X00823494D02*
Y00602917D01*
X00831112D01*
X00833651Y00600378D01*
Y00592760D01*
X00853964D02*
Y00607995D01*
X00859043Y00602917D01*
X00864121Y00607995D01*
Y00592760D01*
X00871738D02*
X00876817D01*
X00879356Y00595299D01*
Y00600378D01*
X00876817Y00602917D01*
X00871738D01*
X00869199Y00600378D01*
Y00595299D01*
X00871738Y00592760D01*
X00894591Y00607995D02*
Y00592760D01*
X00886973D01*
X00884434Y00595299D01*
Y00600378D01*
X00886973Y00602917D01*
X00894591D01*
X00899669D02*
Y00595299D01*
X00902209Y00592760D01*
X00909826D01*
Y00602917D01*
X00914904Y00592760D02*
X00919983D01*
X00917444D01*
Y00607995D01*
X00914904D01*
X00935218Y00592760D02*
X00930139D01*
X00927600Y00595299D01*
Y00600378D01*
X00930139Y00602917D01*
X00935218D01*
X00937757Y00600378D01*
Y00597838D01*
X00927600D01*
X00505097Y00573706D02*
X00502557Y00576245D01*
X00497479D01*
X00494940Y00573706D01*
Y00563549D01*
X00497479Y00561010D01*
X00502557D01*
X00505097Y00563549D01*
X00510175Y00561010D02*
Y00576245D01*
X00520332Y00561010D01*
Y00576245D01*
X00535567Y00573706D02*
X00533028Y00576245D01*
X00527949D01*
X00525410Y00573706D01*
Y00571167D01*
X00527949Y00568628D01*
X00533028D01*
X00535567Y00566088D01*
Y00563549D01*
X00533028Y00561010D01*
X00527949D01*
X00525410Y00563549D01*
X00540645Y00561010D02*
X00545724D01*
X00543184D01*
Y00576245D01*
X00540645Y00573706D01*
X00563498Y00561010D02*
X00553341D01*
X00563498Y00571167D01*
Y00573706D01*
X00560959Y00576245D01*
X00555880D01*
X00553341Y00573706D01*
X00568576D02*
X00571115Y00576245D01*
X00576194D01*
X00578733Y00573706D01*
Y00563549D01*
X00576194Y00561010D01*
X00571115D01*
X00568576Y00563549D01*
Y00573706D01*
X00583811Y00561010D02*
X00588890D01*
X00586350D01*
Y00576245D01*
X00583811Y00573706D01*
X00596507Y00561010D02*
X00601586D01*
X00599046D01*
Y00576245D01*
X00596507Y00573706D01*
X00495690Y00545495D02*
Y00535338D01*
X00500768Y00530260D01*
X00505847Y00535338D01*
Y00545495D01*
X00521082Y00530260D02*
X00510925D01*
X00521082Y00540417D01*
Y00542956D01*
X00518543Y00545495D01*
X00513464D01*
X00510925Y00542956D01*
X00513847Y00368956D02*
X00511307Y00371495D01*
X00506229D01*
X00503690Y00368956D01*
Y00358799D01*
X00506229Y00356260D01*
X00511307D01*
X00513847Y00358799D01*
X00529082Y00368956D02*
X00526543Y00371495D01*
X00521464D01*
X00518925Y00368956D01*
Y00366417D01*
X00521464Y00363877D01*
X00526543D01*
X00529082Y00361338D01*
Y00358799D01*
X00526543Y00356260D01*
X00521464D01*
X00518925Y00358799D01*
X00534160Y00356260D02*
Y00371495D01*
X00541778D01*
X00544317Y00368956D01*
Y00363877D01*
X00541778Y00361338D01*
X00534160D01*
X00539239D02*
X00544317Y00356260D01*
X00506307Y00426245D02*
X00501229D01*
X00498690Y00423706D01*
Y00413549D01*
X00501229Y00411010D01*
X00506307D01*
X00508847Y00413549D01*
Y00423706D01*
X00506307Y00426245D01*
X00524082Y00421167D02*
X00516464D01*
X00513925Y00418628D01*
Y00413549D01*
X00516464Y00411010D01*
X00524082D01*
X00531699Y00423706D02*
Y00421167D01*
X00529160D01*
X00534239D01*
X00531699D01*
Y00413549D01*
X00534239Y00411010D01*
X00567248D02*
X00557091D01*
X00567248Y00421167D01*
Y00423706D01*
X00564709Y00426245D01*
X00559630D01*
X00557091Y00423706D01*
X00572326D02*
X00574865Y00426245D01*
X00579944D01*
X00582483Y00423706D01*
Y00413549D01*
X00579944Y00411010D01*
X00574865D01*
X00572326Y00413549D01*
Y00423706D01*
X00587561Y00411010D02*
X00592640D01*
X00590100D01*
Y00426245D01*
X00587561Y00423706D01*
X00600257Y00411010D02*
X00605336D01*
X00602796D01*
Y00426245D01*
X00600257Y00423706D01*
D29*
X00261640Y01845600D02*
Y01856263D01*
X00266972Y01861595D01*
X00272303Y01856263D01*
Y01845600D01*
Y01853597D01*
X00261640D01*
X00288298Y01861595D02*
Y01845600D01*
X00280301D01*
X00277635Y01848266D01*
Y01853597D01*
X00280301Y01856263D01*
X00288298D01*
X00304293Y01861595D02*
Y01845600D01*
X00296296D01*
X00293630Y01848266D01*
Y01853597D01*
X00296296Y01856263D01*
X00304293D01*
X00325619Y01845600D02*
X00330951D01*
X00328285D01*
Y01861595D01*
X00325619Y01858929D01*
X00338948Y01845600D02*
Y01856263D01*
X00341614D01*
X00344280Y01853597D01*
Y01845600D01*
Y01853597D01*
X00346946Y01856263D01*
X00349612Y01853597D01*
Y01845600D01*
X00354943D02*
Y01856263D01*
X00357609D01*
X00360275Y01853597D01*
Y01845600D01*
Y01853597D01*
X00362940Y01856263D01*
X00365606Y01853597D01*
Y01845600D01*
X00397596Y01861595D02*
Y01845600D01*
X00389599D01*
X00386933Y01848266D01*
Y01853597D01*
X00389599Y01856263D01*
X00397596D01*
X00402928Y01845600D02*
X00408259D01*
X00405593D01*
Y01856263D01*
X00402928D01*
X00418922D02*
X00424254D01*
X00426920Y01853597D01*
Y01845600D01*
X00418922D01*
X00416257Y01848266D01*
X00418922Y01850932D01*
X00426920D01*
X00432251Y01845600D02*
Y01856263D01*
X00434917D01*
X00437583Y01853597D01*
Y01845600D01*
Y01853597D01*
X00440249Y01856263D01*
X00442915Y01853597D01*
Y01845600D01*
X00456244D02*
X00450912D01*
X00448246Y01848266D01*
Y01853597D01*
X00450912Y01856263D01*
X00456244D01*
X00458909Y01853597D01*
Y01850932D01*
X00448246D01*
X00466907Y01858929D02*
Y01856263D01*
X00464241D01*
X00469573D01*
X00466907D01*
Y01848266D01*
X00469573Y01845600D01*
X00485567D02*
X00480236D01*
X00477570Y01848266D01*
Y01853597D01*
X00480236Y01856263D01*
X00485567D01*
X00488233Y01853597D01*
Y01850932D01*
X00477570D01*
X00493565Y01856263D02*
Y01845600D01*
Y01850932D01*
X00496231Y01853597D01*
X00498896Y01856263D01*
X00501562D01*
X00528220Y01845600D02*
Y01858929D01*
Y01853597D01*
X00525554D01*
X00530886D01*
X00528220D01*
Y01858929D01*
X00530886Y01861595D01*
X00538884Y01845600D02*
X00544215D01*
X00541549D01*
Y01856263D01*
X00538884D01*
X00562876Y01861595D02*
Y01845600D01*
X00554878D01*
X00552212Y01848266D01*
Y01853597D01*
X00554878Y01856263D01*
X00562876D01*
X00568207D02*
Y01848266D01*
X00570873Y01845600D01*
X00578871D01*
Y01856263D01*
X00594865D02*
X00586868D01*
X00584202Y01853597D01*
Y01848266D01*
X00586868Y01845600D01*
X00594865D01*
X00600197D02*
X00605528D01*
X00602863D01*
Y01856263D01*
X00600197D01*
X00616192D02*
X00621523D01*
X00624189Y01853597D01*
Y01845600D01*
X00616192D01*
X00613526Y01848266D01*
X00616192Y01850932D01*
X00624189D01*
X00629521Y01845600D02*
X00634852D01*
X00632187D01*
Y01861595D01*
X00629521D01*
X00642850Y01845600D02*
X00650847D01*
X00653513Y01848266D01*
X00650847Y01850932D01*
X00645516D01*
X00642850Y01853597D01*
X00645516Y01856263D01*
X00653513D01*
X00674839D02*
Y01848266D01*
X00677505Y01845600D01*
X00680171Y01848266D01*
X00682837Y01845600D01*
X00685503Y01848266D01*
Y01856263D01*
X00690834Y01845600D02*
X00696166D01*
X00693500D01*
Y01856263D01*
X00690834D01*
X00706829Y01858929D02*
Y01856263D01*
X00704163D01*
X00709495D01*
X00706829D01*
Y01848266D01*
X00709495Y01845600D01*
X00717492Y01861595D02*
Y01845600D01*
Y01853597D01*
X00720158Y01856263D01*
X00725490D01*
X00728155Y01853597D01*
Y01845600D01*
X00760145D02*
X00749482D01*
X00760145Y01856263D01*
Y01858929D01*
X00757479Y01861595D01*
X00752148D01*
X00749482Y01858929D01*
X00765477Y01845600D02*
Y01856263D01*
X00768142D01*
X00770808Y01853597D01*
Y01845600D01*
Y01853597D01*
X00773474Y01856263D01*
X00776140Y01853597D01*
Y01845600D01*
X00781471D02*
Y01856263D01*
X00784137D01*
X00786803Y01853597D01*
Y01845600D01*
Y01853597D01*
X00789469Y01856263D01*
X00792135Y01853597D01*
Y01845600D01*
X00824124Y01861595D02*
Y01845600D01*
X00816127D01*
X00813461Y01848266D01*
Y01853597D01*
X00816127Y01856263D01*
X00824124D01*
X00829456Y01845600D02*
X00834788D01*
X00832122D01*
Y01856263D01*
X00829456D01*
X00845451D02*
X00850782D01*
X00853448Y01853597D01*
Y01845600D01*
X00845451D01*
X00842785Y01848266D01*
X00845451Y01850932D01*
X00853448D01*
X00858780Y01845600D02*
Y01856263D01*
X00861445D01*
X00864111Y01853597D01*
Y01845600D01*
Y01853597D01*
X00866777Y01856263D01*
X00869443Y01853597D01*
Y01845600D01*
X00882772D02*
X00877440D01*
X00874774Y01848266D01*
Y01853597D01*
X00877440Y01856263D01*
X00882772D01*
X00885438Y01853597D01*
Y01850932D01*
X00874774D01*
X00893435Y01858929D02*
Y01856263D01*
X00890769D01*
X00896101D01*
X00893435D01*
Y01848266D01*
X00896101Y01845600D01*
X00912096D02*
X00906764D01*
X00904098Y01848266D01*
Y01853597D01*
X00906764Y01856263D01*
X00912096D01*
X00914762Y01853597D01*
Y01850932D01*
X00904098D01*
X00920093Y01856263D02*
Y01845600D01*
Y01850932D01*
X00922759Y01853597D01*
X00925425Y01856263D01*
X00928091D01*
X00259140Y01791595D02*
Y01778266D01*
X00261806Y01775600D01*
X00267138D01*
X00269803Y01778266D01*
Y01791595D01*
X00275135Y01775600D02*
X00283132D01*
X00285798Y01778266D01*
X00283132Y01780932D01*
X00277801D01*
X00275135Y01783597D01*
X00277801Y01786263D01*
X00285798D01*
X00299127Y01775600D02*
X00293796D01*
X00291130Y01778266D01*
Y01783597D01*
X00293796Y01786263D01*
X00299127D01*
X00301793Y01783597D01*
Y01780932D01*
X00291130D01*
X00323119Y01775600D02*
X00328451D01*
X00325785D01*
Y01791595D01*
X00323119Y01788929D01*
X00336448Y01775600D02*
Y01778266D01*
X00339114D01*
Y01775600D01*
X00336448D01*
X00360441Y01791595D02*
X00355109Y01788929D01*
X00349777Y01783597D01*
Y01778266D01*
X00352443Y01775600D01*
X00357775D01*
X00360441Y01778266D01*
Y01780932D01*
X00357775Y01783597D01*
X00349777D01*
X00365772Y01775600D02*
Y01786263D01*
X00368438D01*
X00371104Y01783597D01*
Y01775600D01*
Y01783597D01*
X00373770Y01786263D01*
X00376435Y01783597D01*
Y01775600D01*
X00381767D02*
Y01786263D01*
X00384433D01*
X00387099Y01783597D01*
Y01775600D01*
Y01783597D01*
X00389764Y01786263D01*
X00392430Y01783597D01*
Y01775600D01*
X00413757Y01786263D02*
Y01775600D01*
Y01780932D01*
X00416422Y01783597D01*
X00419088Y01786263D01*
X00421754D01*
X00432417Y01775600D02*
X00437749D01*
X00440415Y01778266D01*
Y01783597D01*
X00437749Y01786263D01*
X00432417D01*
X00429751Y01783597D01*
Y01778266D01*
X00432417Y01775600D01*
X00445746Y01786263D02*
Y01778266D01*
X00448412Y01775600D01*
X00456409D01*
Y01786263D01*
X00464407Y01788929D02*
Y01786263D01*
X00461741D01*
X00467073D01*
X00464407D01*
Y01778266D01*
X00467073Y01775600D01*
X00475070D02*
X00480402D01*
X00477736D01*
Y01786263D01*
X00475070D01*
X00488399Y01775600D02*
Y01786263D01*
X00496396D01*
X00499062Y01783597D01*
Y01775600D01*
X00509725Y01770268D02*
X00512391D01*
X00515057Y01772934D01*
Y01786263D01*
X00507060D01*
X00504394Y01783597D01*
Y01778266D01*
X00507060Y01775600D01*
X00515057D01*
X00536384Y01791595D02*
Y01775600D01*
X00544381D01*
X00547047Y01778266D01*
Y01780932D01*
Y01783597D01*
X00544381Y01786263D01*
X00536384D01*
X00552378Y01775600D02*
X00557710D01*
X00555044D01*
Y01786263D01*
X00552378D01*
X00568373Y01788929D02*
Y01786263D01*
X00565707D01*
X00571039D01*
X00568373D01*
Y01778266D01*
X00571039Y01775600D01*
X00579036D02*
Y01778266D01*
X00581702D01*
Y01775600D01*
X00579036D01*
X00256640Y01739095D02*
X00267303D01*
X00261972D01*
Y01723100D01*
X00275301D02*
X00280632D01*
X00283298Y01725766D01*
Y01731097D01*
X00280632Y01733763D01*
X00275301D01*
X00272635Y01731097D01*
Y01725766D01*
X00275301Y01723100D01*
X00291296D02*
X00296627D01*
X00299293Y01725766D01*
Y01731097D01*
X00296627Y01733763D01*
X00291296D01*
X00288630Y01731097D01*
Y01725766D01*
X00291296Y01723100D01*
X00304625D02*
X00309956D01*
X00307290D01*
Y01739095D01*
X00304625D01*
X00317953Y01723100D02*
X00323285D01*
X00320619D01*
Y01733763D01*
X00317953D01*
X00331283Y01723100D02*
Y01733763D01*
X00339280D01*
X00341946Y01731097D01*
Y01723100D01*
X00352609Y01717768D02*
X00355275D01*
X00357940Y01720434D01*
Y01733763D01*
X00349943D01*
X00347277Y01731097D01*
Y01725766D01*
X00349943Y01723100D01*
X00357940D01*
X00379267Y01739095D02*
Y01723100D01*
Y01731097D01*
X00381933Y01733763D01*
X00387264D01*
X00389930Y01731097D01*
Y01723100D01*
X00397928D02*
X00403259D01*
X00405925Y01725766D01*
Y01731097D01*
X00403259Y01733763D01*
X00397928D01*
X00395262Y01731097D01*
Y01725766D01*
X00397928Y01723100D01*
X00411257D02*
X00416588D01*
X00413922D01*
Y01739095D01*
X00411257D01*
X00432583Y01723100D02*
X00427251D01*
X00424586Y01725766D01*
Y01731097D01*
X00427251Y01733763D01*
X00432583D01*
X00435249Y01731097D01*
Y01728432D01*
X00424586D01*
X00440580Y01723100D02*
X00448578D01*
X00451244Y01725766D01*
X00448578Y01728432D01*
X00443246D01*
X00440580Y01731097D01*
X00443246Y01733763D01*
X00451244D01*
X00477902Y01723100D02*
X00472570Y01728432D01*
Y01733763D01*
X00477902Y01739095D01*
X00485899Y01723100D02*
X00493896D01*
X00496562Y01725766D01*
X00493896Y01728432D01*
X00488565D01*
X00485899Y01731097D01*
X00488565Y01733763D01*
X00496562D01*
X00501894Y01739095D02*
Y01723100D01*
Y01731097D01*
X00504560Y01733763D01*
X00509891D01*
X00512557Y01731097D01*
Y01723100D01*
X00520554D02*
X00525886D01*
X00528552Y01725766D01*
Y01731097D01*
X00525886Y01733763D01*
X00520554D01*
X00517889Y01731097D01*
Y01725766D01*
X00520554Y01723100D01*
X00533883Y01733763D02*
Y01725766D01*
X00536549Y01723100D01*
X00539215Y01725766D01*
X00541881Y01723100D01*
X00544547Y01725766D01*
Y01733763D01*
X00549878Y01723100D02*
Y01733763D01*
X00557876D01*
X00560541Y01731097D01*
Y01723100D01*
X00565873D02*
X00571205Y01728432D01*
Y01733763D01*
X00565873Y01739095D01*
X00579202Y01733763D02*
X00581868D01*
Y01731097D01*
X00579202D01*
Y01733763D01*
Y01725766D02*
X00581868D01*
Y01723100D01*
X00579202D01*
Y01725766D01*
X00616523Y01723100D02*
Y01739095D01*
X00608526Y01731097D01*
X00619189D01*
X00624521Y01723100D02*
Y01733763D01*
X00627187D01*
X00629852Y01731097D01*
Y01723100D01*
Y01731097D01*
X00632518Y01733763D01*
X00635184Y01731097D01*
Y01723100D01*
X00640516D02*
Y01733763D01*
X00643181D01*
X00645847Y01731097D01*
Y01723100D01*
Y01731097D01*
X00648513Y01733763D01*
X00651179Y01731097D01*
Y01723100D01*
X00683168Y01739095D02*
Y01723100D01*
X00675171D01*
X00672505Y01725766D01*
Y01731097D01*
X00675171Y01733763D01*
X00683168D01*
X00688500Y01723100D02*
X00693832D01*
X00691166D01*
Y01733763D01*
X00688500D01*
X00704495D02*
X00709826D01*
X00712492Y01731097D01*
Y01723100D01*
X00704495D01*
X00701829Y01725766D01*
X00704495Y01728432D01*
X00712492D01*
X00717824Y01723100D02*
Y01733763D01*
X00720490D01*
X00723155Y01731097D01*
Y01723100D01*
Y01731097D01*
X00725821Y01733763D01*
X00728487Y01731097D01*
Y01723100D01*
X00741816D02*
X00736484D01*
X00733819Y01725766D01*
Y01731097D01*
X00736484Y01733763D01*
X00741816D01*
X00744482Y01731097D01*
Y01728432D01*
X00733819D01*
X00752479Y01736429D02*
Y01733763D01*
X00749813D01*
X00755145D01*
X00752479D01*
Y01725766D01*
X00755145Y01723100D01*
X00771140D02*
X00765808D01*
X00763142Y01725766D01*
Y01731097D01*
X00765808Y01733763D01*
X00771140D01*
X00773806Y01731097D01*
Y01728432D01*
X00763142D01*
X00779137Y01733763D02*
Y01723100D01*
Y01728432D01*
X00781803Y01731097D01*
X00784469Y01733763D01*
X00787135D01*
X00816458Y01723100D02*
X00811127Y01728432D01*
Y01733763D01*
X00816458Y01739095D01*
X00824456Y01731097D02*
X00835119D01*
X00829787Y01736429D02*
Y01725766D01*
X00840451Y01736429D02*
X00843116Y01739095D01*
X00848448D01*
X00851114Y01736429D01*
Y01725766D01*
X00848448Y01723100D01*
X00843116D01*
X00840451Y01725766D01*
Y01736429D01*
X00856445Y01723100D02*
Y01725766D01*
X00859111D01*
Y01723100D01*
X00856445D01*
X00869774D02*
X00875106D01*
X00872440D01*
Y01739095D01*
X00869774Y01736429D01*
X00883103Y01723100D02*
X00893767Y01733763D01*
X00899098Y01731097D02*
X00909762D01*
X00915093Y01736429D02*
X00917759Y01739095D01*
X00923091D01*
X00925756Y01736429D01*
Y01725766D01*
X00923091Y01723100D01*
X00917759D01*
X00915093Y01725766D01*
Y01736429D01*
X00931088Y01723100D02*
X00936420Y01728432D01*
Y01733763D01*
X00931088Y01739095D01*
X00971075D02*
X00960412D01*
Y01731097D01*
X00965743Y01733763D01*
X00968409D01*
X00971075Y01731097D01*
Y01725766D01*
X00968409Y01723100D01*
X00963077D01*
X00960412Y01725766D01*
X00976406Y01723100D02*
Y01733763D01*
X00979072D01*
X00981738Y01731097D01*
Y01723100D01*
Y01731097D01*
X00984404Y01733763D01*
X00987070Y01731097D01*
Y01723100D01*
X00992401D02*
Y01733763D01*
X00995067D01*
X00997733Y01731097D01*
Y01723100D01*
Y01731097D01*
X01000399Y01733763D01*
X01003065Y01731097D01*
Y01723100D01*
X01027057D02*
Y01736429D01*
Y01731097D01*
X01024391D01*
X01029723D01*
X01027057D01*
Y01736429D01*
X01029723Y01739095D01*
X01037720Y01733763D02*
Y01723100D01*
Y01728432D01*
X01040386Y01731097D01*
X01043052Y01733763D01*
X01045717D01*
X01056381Y01723100D02*
X01061712D01*
X01064378Y01725766D01*
Y01731097D01*
X01061712Y01733763D01*
X01056381D01*
X01053715Y01731097D01*
Y01725766D01*
X01056381Y01723100D01*
X01069710D02*
Y01733763D01*
X01072375D01*
X01075041Y01731097D01*
Y01723100D01*
Y01731097D01*
X01077707Y01733763D01*
X01080373Y01731097D01*
Y01723100D01*
X01109697D02*
X01104365D01*
X01101699Y01725766D01*
Y01731097D01*
X01104365Y01733763D01*
X01109697D01*
X01112362Y01731097D01*
Y01728432D01*
X01101699D01*
X01120360Y01733763D02*
X01125691D01*
X01128357Y01731097D01*
Y01723100D01*
X01120360D01*
X01117694Y01725766D01*
X01120360Y01728432D01*
X01128357D01*
X01144352Y01733763D02*
X01136355D01*
X01133689Y01731097D01*
Y01725766D01*
X01136355Y01723100D01*
X01144352D01*
X01149684Y01739095D02*
Y01723100D01*
Y01731097D01*
X01152349Y01733763D01*
X01157681D01*
X01160347Y01731097D01*
Y01723100D01*
X01192337Y01733763D02*
X01184339D01*
X01181673Y01731097D01*
Y01725766D01*
X01184339Y01723100D01*
X01192337D01*
X01200334D02*
X01205666D01*
X01208331Y01725766D01*
Y01731097D01*
X01205666Y01733763D01*
X01200334D01*
X01197668Y01731097D01*
Y01725766D01*
X01200334Y01723100D01*
X01213663Y01733763D02*
Y01723100D01*
Y01728432D01*
X01216329Y01731097D01*
X01218995Y01733763D01*
X01221660D01*
X01229658Y01723100D02*
Y01733763D01*
X01237655D01*
X01240321Y01731097D01*
Y01723100D01*
X01253650D02*
X01248318D01*
X01245652Y01725766D01*
Y01731097D01*
X01248318Y01733763D01*
X01253650D01*
X01256316Y01731097D01*
Y01728432D01*
X01245652D01*
X01261647Y01733763D02*
Y01723100D01*
Y01728432D01*
X01264313Y01731097D01*
X01266979Y01733763D01*
X01269645D01*
X01277642Y01723100D02*
Y01725766D01*
X01280308D01*
Y01723100D01*
X01277642D01*
X00941640Y01845600D02*
X00949638D01*
X00952303Y01848266D01*
X00949638Y01850932D01*
X00944306D01*
X00941640Y01853597D01*
X00944306Y01856263D01*
X00952303D01*
X00960301Y01845600D02*
X00965632D01*
X00968298Y01848266D01*
Y01853597D01*
X00965632Y01856263D01*
X00960301D01*
X00957635Y01853597D01*
Y01848266D01*
X00960301Y01845600D01*
X00973630D02*
X00978961D01*
X00976295D01*
Y01861595D01*
X00973630D01*
X00997622D02*
Y01845600D01*
X00989624D01*
X00986959Y01848266D01*
Y01853597D01*
X00989624Y01856263D01*
X00997622D01*
X01010951Y01845600D02*
X01005619D01*
X01002953Y01848266D01*
Y01853597D01*
X01005619Y01856263D01*
X01010951D01*
X01013617Y01853597D01*
Y01850932D01*
X01002953D01*
X01018948Y01856263D02*
Y01845600D01*
Y01850932D01*
X01021614Y01853597D01*
X01024280Y01856263D01*
X01026946D01*
X01050938D02*
Y01845600D01*
Y01850932D01*
X01053604Y01853597D01*
X01056270Y01856263D01*
X01058935D01*
X01074930Y01845600D02*
X01069598D01*
X01066933Y01848266D01*
Y01853597D01*
X01069598Y01856263D01*
X01074930D01*
X01077596Y01853597D01*
Y01850932D01*
X01066933D01*
X01082928Y01845600D02*
X01090925D01*
X01093591Y01848266D01*
X01090925Y01850932D01*
X01085593D01*
X01082928Y01853597D01*
X01085593Y01856263D01*
X01093591D01*
X01098922Y01845600D02*
X01104254D01*
X01101588D01*
Y01856263D01*
X01098922D01*
X01112251Y01845600D02*
X01120249D01*
X01122915Y01848266D01*
X01120249Y01850932D01*
X01114917D01*
X01112251Y01853597D01*
X01114917Y01856263D01*
X01122915D01*
X01130912Y01858929D02*
Y01856263D01*
X01128246D01*
X01133578D01*
X01130912D01*
Y01848266D01*
X01133578Y01845600D01*
X01160236D02*
X01165567D01*
X01168233Y01848266D01*
Y01853597D01*
X01165567Y01856263D01*
X01160236D01*
X01157570Y01853597D01*
Y01848266D01*
X01160236Y01845600D01*
X01173565Y01840268D02*
Y01856263D01*
X01181562D01*
X01184228Y01853597D01*
Y01848266D01*
X01181562Y01845600D01*
X01173565D01*
X01197557D02*
X01192225D01*
X01189560Y01848266D01*
Y01853597D01*
X01192225Y01856263D01*
X01197557D01*
X01200223Y01853597D01*
Y01850932D01*
X01189560D01*
X01205554Y01845600D02*
Y01856263D01*
X01213552D01*
X01216218Y01853597D01*
Y01845600D01*
X01221549D02*
X01226881D01*
X01224215D01*
Y01856263D01*
X01221549D01*
X01234878Y01845600D02*
Y01856263D01*
X01242876D01*
X01245542Y01853597D01*
Y01845600D01*
X01256205Y01840268D02*
X01258870D01*
X01261536Y01842934D01*
Y01856263D01*
X01253539D01*
X01250873Y01853597D01*
Y01848266D01*
X01253539Y01845600D01*
X01261536D01*
X01282863D02*
X01288194D01*
X01285529D01*
Y01856263D01*
X01282863D01*
X01296192Y01845600D02*
Y01856263D01*
X01304189D01*
X01306855Y01853597D01*
Y01845600D01*
X01328181Y01858929D02*
X01330847Y01861595D01*
X01336179D01*
X01338844Y01858929D01*
Y01856263D01*
X01336179Y01853597D01*
X01333513D01*
X01336179D01*
X01338844Y01850932D01*
Y01848266D01*
X01336179Y01845600D01*
X01330847D01*
X01328181Y01848266D01*
X01360171Y01840268D02*
Y01856263D01*
X01368168D01*
X01370834Y01853597D01*
Y01848266D01*
X01368168Y01845600D01*
X01360171D01*
X01376166D02*
X01381497D01*
X01378832D01*
Y01861595D01*
X01376166D01*
X01392161Y01856263D02*
X01397492D01*
X01400158Y01853597D01*
Y01845600D01*
X01392161D01*
X01389495Y01848266D01*
X01392161Y01850932D01*
X01400158D01*
X01416153Y01856263D02*
X01408155D01*
X01405490Y01853597D01*
Y01848266D01*
X01408155Y01845600D01*
X01416153D01*
X01429482D02*
X01424150D01*
X01421484Y01848266D01*
Y01853597D01*
X01424150Y01856263D01*
X01429482D01*
X01432148Y01853597D01*
Y01850932D01*
X01421484D01*
X01437479Y01845600D02*
X01445477D01*
X01448142Y01848266D01*
X01445477Y01850932D01*
X01440145D01*
X01437479Y01853597D01*
X01440145Y01856263D01*
X01448142D01*
X01472135Y01845600D02*
X01477466D01*
X01480132Y01848266D01*
Y01853597D01*
X01477466Y01856263D01*
X01472135D01*
X01469469Y01853597D01*
Y01848266D01*
X01472135Y01845600D01*
X01485464D02*
Y01856263D01*
X01493461D01*
X01496127Y01853597D01*
Y01845600D01*
X01517453Y01861595D02*
Y01845600D01*
X01525451D01*
X01528116Y01848266D01*
Y01850932D01*
Y01853597D01*
X01525451Y01856263D01*
X01517453D01*
X01536114Y01845600D02*
X01541445D01*
X01544111Y01848266D01*
Y01853597D01*
X01541445Y01856263D01*
X01536114D01*
X01533448Y01853597D01*
Y01848266D01*
X01536114Y01845600D01*
X01552109Y01858929D02*
Y01856263D01*
X01549443D01*
X01554774D01*
X01552109D01*
Y01848266D01*
X01554774Y01845600D01*
X01562772Y01861595D02*
Y01845600D01*
Y01853597D01*
X01565438Y01856263D01*
X01570769D01*
X01573435Y01853597D01*
Y01845600D01*
X00259140Y01820600D02*
X00267138D01*
X00269803Y01823266D01*
X00267138Y01825932D01*
X00261806D01*
X00259140Y01828597D01*
X00261806Y01831263D01*
X00269803D01*
X00275135Y01820600D02*
X00280466D01*
X00277801D01*
Y01831263D01*
X00275135D01*
X00299127Y01836595D02*
Y01820600D01*
X00291130D01*
X00288464Y01823266D01*
Y01828597D01*
X00291130Y01831263D01*
X00299127D01*
X00312456Y01820600D02*
X00307125D01*
X00304459Y01823266D01*
Y01828597D01*
X00307125Y01831263D01*
X00312456D01*
X00315122Y01828597D01*
Y01825932D01*
X00304459D01*
X00320453Y01820600D02*
X00328451D01*
X00331117Y01823266D01*
X00328451Y01825932D01*
X00323119D01*
X00320453Y01828597D01*
X00323119Y01831263D01*
X00331117D01*
X00355109Y01820600D02*
X00360441D01*
X00363106Y01823266D01*
Y01828597D01*
X00360441Y01831263D01*
X00355109D01*
X00352443Y01828597D01*
Y01823266D01*
X00355109Y01820600D01*
X00371104D02*
Y01833929D01*
Y01828597D01*
X00368438D01*
X00373770D01*
X00371104D01*
Y01833929D01*
X00373770Y01836595D01*
X00400428Y01833929D02*
Y01831263D01*
X00397762D01*
X00403093D01*
X00400428D01*
Y01823266D01*
X00403093Y01820600D01*
X00411091Y01836595D02*
Y01820600D01*
Y01828597D01*
X00413757Y01831263D01*
X00419088D01*
X00421754Y01828597D01*
Y01820600D01*
X00435083D02*
X00429751D01*
X00427086Y01823266D01*
Y01828597D01*
X00429751Y01831263D01*
X00435083D01*
X00437749Y01828597D01*
Y01825932D01*
X00427086D01*
X00459075Y01815268D02*
Y01831263D01*
X00467073D01*
X00469738Y01828597D01*
Y01823266D01*
X00467073Y01820600D01*
X00459075D01*
X00477736Y01831263D02*
X00483067D01*
X00485733Y01828597D01*
Y01820600D01*
X00477736D01*
X00475070Y01823266D01*
X00477736Y01825932D01*
X00485733D01*
X00491065Y01820600D02*
Y01831263D01*
X00499062D01*
X00501728Y01828597D01*
Y01820600D01*
X00515057D02*
X00509725D01*
X00507060Y01823266D01*
Y01828597D01*
X00509725Y01831263D01*
X00515057D01*
X00517723Y01828597D01*
Y01825932D01*
X00507060D01*
X00523055Y01820600D02*
X00528386D01*
X00525720D01*
Y01836595D01*
X00523055D01*
X00557710Y01820600D02*
X00552378Y01825932D01*
Y01831263D01*
X00557710Y01836595D01*
X00565707Y01815268D02*
Y01831263D01*
X00573705D01*
X00576371Y01828597D01*
Y01823266D01*
X00573705Y01820600D01*
X00565707D01*
X00584368D02*
X00589700D01*
X00592365Y01823266D01*
Y01828597D01*
X00589700Y01831263D01*
X00584368D01*
X00581702Y01828597D01*
Y01823266D01*
X00584368Y01820600D01*
X00597697D02*
X00605694D01*
X00608360Y01823266D01*
X00605694Y01825932D01*
X00600363D01*
X00597697Y01828597D01*
X00600363Y01831263D01*
X00608360D01*
X00613692Y01820600D02*
X00619023D01*
X00616357D01*
Y01831263D01*
X00613692D01*
X00629687Y01833929D02*
Y01831263D01*
X00627021D01*
X00632352D01*
X00629687D01*
Y01823266D01*
X00632352Y01820600D01*
X00640350D02*
X00645681D01*
X00643016D01*
Y01831263D01*
X00640350D01*
X00656345Y01820600D02*
X00661676D01*
X00664342Y01823266D01*
Y01828597D01*
X00661676Y01831263D01*
X00656345D01*
X00653679Y01828597D01*
Y01823266D01*
X00656345Y01820600D01*
X00669673D02*
Y01831263D01*
X00677671D01*
X00680337Y01828597D01*
Y01820600D01*
X00685668D02*
X00693666D01*
X00696332Y01823266D01*
X00693666Y01825932D01*
X00688334D01*
X00685668Y01828597D01*
X00688334Y01831263D01*
X00696332D01*
X00717658Y01820600D02*
X00725655D01*
X00728321Y01823266D01*
X00725655Y01825932D01*
X00720324D01*
X00717658Y01828597D01*
X00720324Y01831263D01*
X00728321D01*
X00733653Y01836595D02*
Y01820600D01*
Y01828597D01*
X00736319Y01831263D01*
X00741650D01*
X00744316Y01828597D01*
Y01820600D01*
X00752313D02*
X00757645D01*
X00760311Y01823266D01*
Y01828597D01*
X00757645Y01831263D01*
X00752313D01*
X00749648Y01828597D01*
Y01823266D01*
X00752313Y01820600D01*
X00765642Y01831263D02*
Y01823266D01*
X00768308Y01820600D01*
X00770974Y01823266D01*
X00773640Y01820600D01*
X00776306Y01823266D01*
Y01831263D01*
X00781637Y01820600D02*
Y01831263D01*
X00789635D01*
X00792300Y01828597D01*
Y01820600D01*
X00797632D02*
X00802964Y01825932D01*
Y01831263D01*
X00797632Y01836595D01*
X00810961Y01820600D02*
Y01823266D01*
X00813627D01*
Y01820600D01*
X00810961D01*
D31*
X00653980Y00980600D02*
X00674300D01*
X00613980D02*
X00634300D01*
X00513980Y00800600D02*
X00534300D01*
X00573980D02*
X00594300D01*
X00553980D02*
X00574300D01*
X00533980D02*
X00554300D01*
X00593980D02*
X00614300D01*
X00613980D02*
X00634300D01*
X00633980D02*
X00654300D01*
X00653980D02*
X00674300D01*
X00689140Y00820440D02*
Y00840760D01*
Y00840440D02*
Y00860760D01*
Y00860440D02*
Y00880760D01*
Y00880440D02*
Y00900760D01*
Y00900440D02*
Y00920760D01*
Y00920440D02*
Y00940760D01*
Y00940690D02*
Y00961010D01*
X00593980Y00980600D02*
X00614300D01*
X00573980D02*
X00594300D01*
D32*
X00682140D02*
G03*
X00682140Y00995600I00000000J00007500D01*
G01*
X00704140Y00973600D02*
G03*
X00689140Y00973600I-00007500J00000000D01*
G01*
Y00807600D02*
G03*
X00704140Y00807600I00007500J00000000D01*
G01*
X00682140Y00785600D02*
G03*
X00682140Y00800600I00000000J00007500D01*
G01*
X00441140D02*
G03*
X00441140Y00785600I00000000J-00007500D01*
G01*
X00419140Y00807600D02*
G03*
X00434140Y00807600I00007500J00000000D01*
G01*
Y00973600D02*
G03*
X00419140Y00973600I-00007500J00000000D01*
G01*
X00441140Y00995600D02*
G03*
X00441140Y00980600I00000000J-00007500D01*
G01*
X00441640Y00995600D02*
X00681640D01*
X00703890Y00973350D02*
X00704140Y00807600D01*
X00441140Y00785600D02*
X00682140D01*
X00419140Y00807600D02*
Y00973600D01*
D62*
X00334140Y01640600D02*
X01499140D01*
X00334140Y00700600D02*
Y01640600D01*
Y00700600D02*
X01499140D01*
Y01640600D01*
D63*
X00295742Y01132257D02*
X00298282Y01134796D01*
Y01139875D01*
X00295742Y01142414D01*
X00285586D01*
X00283046Y01139875D01*
Y01134796D01*
X00285586Y01132257D01*
X00288125D01*
X00290664Y01134796D01*
Y01142414D01*
X00298282Y01155110D02*
X00283046D01*
X00290664Y01147492D01*
Y01157649D01*
X00298282Y01162727D02*
X00295742D01*
Y01165266D01*
X00298282D01*
Y01162727D01*
X00285586Y01175423D02*
X00283046Y01177962D01*
Y01183041D01*
X00285586Y01185580D01*
X00295742D01*
X00298282Y01183041D01*
Y01177962D01*
X00295742Y01175423D01*
X00285586D01*
Y01190658D02*
X00283046Y01193197D01*
Y01198276D01*
X00285586Y01200815D01*
X00295742D01*
X00298282Y01198276D01*
Y01193197D01*
X00295742Y01190658D01*
X00285586D01*
X00873219Y01688958D02*
X00878297D01*
X00875758D01*
Y01704194D01*
X00873219Y01701654D01*
X00885915Y01688958D02*
X00890993D01*
X00888454D01*
Y01704194D01*
X00885915Y01701654D01*
X00908767Y01704194D02*
X00903689Y01701654D01*
X00898611Y01696576D01*
Y01691498D01*
X00901150Y01688958D01*
X00906228D01*
X00908767Y01691498D01*
Y01694037D01*
X00906228Y01696576D01*
X00898611D01*
X00913846Y01688958D02*
Y01691498D01*
X00916385D01*
Y01688958D01*
X00913846D01*
X00936698Y01704194D02*
X00926542D01*
Y01696576D01*
X00931620Y01699115D01*
X00934159D01*
X00936698Y01696576D01*
Y01691498D01*
X00934159Y01688958D01*
X00929081D01*
X00926542Y01691498D01*
X00941777Y01701654D02*
X00944316Y01704194D01*
X00949394D01*
X00951933Y01701654D01*
Y01691498D01*
X00949394Y01688958D01*
X00944316D01*
X00941777Y01691498D01*
Y01701654D01*
M02*
