%FSAX44Y44*%
%MOMM*%
G71*
G01*
G75*
G04 Layer_Color=8388736*
%ADD10R,0.6000X1.9000*%
%ADD11R,0.3500X0.5000*%
%ADD12R,0.5000X0.3500*%
%ADD13R,3.2000X3.2000*%
%ADD14R,1.4000X1.1000*%
%ADD15R,0.6000X1.2000*%
%ADD16R,1.3000X2.1000*%
%ADD17R,1.0000X1.2000*%
%ADD18R,0.5000X0.5000*%
%ADD19C,1.0000*%
%ADD20R,0.5000X0.5000*%
%ADD21C,0.2600*%
%ADD22C,0.2000*%
%ADD23C,0.1500*%
%ADD24C,0.4500*%
%ADD25C,0.3500*%
%ADD26C,0.1250*%
%ADD27C,0.4000*%
%ADD28C,0.2540*%
%ADD29C,0.3000*%
%ADD30C,0.5000*%
%ADD31C,0.0000*%
%ADD32C,0.1000*%
%ADD33R,1.0000X1.0000*%
%ADD34C,0.3000*%
%ADD35R,1.0000X1.0000*%
%ADD36C,3.0000*%
%ADD37C,0.6000*%
%ADD38C,0.0142*%
%ADD39C,0.0203*%
%ADD40C,0.0081*%
%ADD41R,8.0500X2.8750*%
%ADD42R,7.5500X1.0250*%
%ADD43R,0.7500X2.0500*%
%ADD44R,0.5100X0.6600*%
%ADD45R,0.6600X0.5100*%
%ADD46R,3.3600X3.3600*%
%ADD47R,1.5500X1.2500*%
%ADD48R,0.7600X1.3600*%
%ADD49R,1.4500X2.2500*%
%ADD50R,1.1500X1.3500*%
%ADD51R,0.6500X0.6500*%
%ADD52C,2.0000*%
%ADD53R,0.6500X0.6500*%
%ADD54R,1.1600X1.1600*%
%ADD55C,0.4500*%
%ADD56R,1.1600X1.1600*%
%ADD57C,3.1600*%
%ADD58C,0.7600*%
%ADD59C,1.1600*%
G36*
X00464554Y00906600D02*
X00460075D01*
X00461153Y00907852D01*
X00462663Y00910061D01*
X00463841Y00912196D01*
X00464554Y00913771D01*
X00464554Y00906600D01*
D02*
G37*
G36*
X00529440Y00855400D02*
X00514840D01*
X00514840Y00861900D01*
X00529440D01*
Y00855400D01*
D02*
G37*
G36*
X00569387Y00861846D02*
Y00860950D01*
X00573640Y00860100D01*
Y00856600D01*
X00569387Y00856175D01*
Y00855351D01*
X00532892D01*
Y00861849D01*
X00569387Y00861846D01*
D02*
G37*
G36*
X00450918Y00925635D02*
X00451470Y00923352D01*
X00452243Y00921401D01*
X00453495Y00919376D01*
X00454894Y00917756D01*
X00455888Y00916909D01*
X00456993Y00916062D01*
X00458539Y00915179D01*
X00460122Y00914516D01*
X00461889Y00914037D01*
X00463950Y00913756D01*
X00462037Y00913632D01*
X00459754Y00913669D01*
X00456735Y00914074D01*
X00453826Y00914810D01*
X00451286Y00915805D01*
X00449519Y00916762D01*
X00447531Y00918161D01*
X00445653Y00919928D01*
X00444424Y00921449D01*
X00443407Y00922874D01*
Y00927751D01*
X00450788D01*
X00450918Y00925635D01*
D02*
G37*
G36*
X00445358Y00915841D02*
X00447494Y00914626D01*
X00450255Y00913485D01*
X00452832Y00912822D01*
X00455041Y00912491D01*
X00457435Y00912417D01*
X00459865Y00912601D01*
X00461889Y00912970D01*
X00464136Y00913595D01*
X00462295Y00912601D01*
X00459938Y00911644D01*
X00457655Y00910945D01*
X00455336Y00910466D01*
X00452869Y00910208D01*
X00450660Y00910171D01*
X00448046Y00910576D01*
X00445432Y00911349D01*
X00443407Y00912270D01*
X00443407Y00917277D01*
X00445358Y00915841D01*
D02*
G37*
G36*
X00463583Y00912564D02*
X00461411Y00910208D01*
X00459828Y00908699D01*
X00458355Y00907520D01*
X00457145Y00906593D01*
X00443407Y00906600D01*
Y00908497D01*
X00445211Y00908036D01*
X00447126Y00907741D01*
X00448782Y00907631D01*
X00450329D01*
X00452096Y00907778D01*
X00453900Y00908073D01*
X00455851Y00908588D01*
X00457508Y00909177D01*
X00459165Y00909914D01*
X00461079Y00911018D01*
X00462773Y00912196D01*
X00464062Y00913301D01*
X00463583Y00912564D01*
D02*
G37*
D22*
X00967940Y00282760D02*
Y00432640D01*
X00287837Y00282569D02*
X00967836D01*
X00807837Y00465498D02*
Y00522569D01*
X00487940Y00493569D02*
X00761837D01*
X00487940Y00405173D02*
Y00432640D01*
X00287940Y00416569D02*
Y00432640D01*
X00757836Y00493569D02*
X00967940D01*
X00287837Y00372569D02*
X00487836D01*
X00287940Y00282760D02*
Y00416569D01*
Y00613760D02*
X00967940Y00613640D01*
X00287940Y00552640D02*
X00477940Y00552640D01*
X00287940Y00522640D02*
X00477940D01*
X00287940Y00432640D02*
X00477940D01*
X00287940Y00402640D02*
X00477940D01*
X00487940Y00432640D02*
Y00613760D01*
X00287940Y00432640D02*
Y00613760D01*
X00477940Y00552640D02*
X00967940D01*
X00477940Y00522640D02*
X00967940D01*
X00477940Y00432640D02*
X00967940D01*
X00477940Y00402640D02*
X00967940D01*
Y00432640D02*
Y00613640D01*
X00487940Y00372569D02*
Y00405173D01*
X00287940Y00465569D02*
X00967940D01*
X00287940Y00583569D02*
X00967940D01*
X00287940Y00313569D02*
X00967940D01*
X00456937Y00303256D02*
X00454437Y00305755D01*
X00449439D01*
X00446940Y00303256D01*
Y00293259D01*
X00449439Y00290760D01*
X00454437D01*
X00456937Y00293259D01*
X00469433Y00305755D02*
X00464434D01*
X00461935Y00303256D01*
Y00293259D01*
X00464434Y00290760D01*
X00469433D01*
X00471932Y00293259D01*
Y00303256D01*
X00469433Y00305755D01*
X00476930Y00290760D02*
Y00305755D01*
X00481929Y00300757D01*
X00486927Y00305755D01*
Y00290760D01*
X00491925D02*
Y00305755D01*
X00496924Y00300757D01*
X00501922Y00305755D01*
Y00290760D01*
X00516917Y00305755D02*
X00506921D01*
Y00290760D01*
X00516917D01*
X00506921Y00298258D02*
X00511919D01*
X00521916Y00290760D02*
Y00305755D01*
X00529413D01*
X00531912Y00303256D01*
Y00298258D01*
X00529413Y00295758D01*
X00521916D01*
X00526914D02*
X00531912Y00290760D01*
X00546908Y00303256D02*
X00544408Y00305755D01*
X00539410D01*
X00536911Y00303256D01*
Y00293259D01*
X00539410Y00290760D01*
X00544408D01*
X00546908Y00293259D01*
X00551906Y00305755D02*
X00556904D01*
X00554405D01*
Y00290760D01*
X00551906D01*
X00556904D01*
X00564402D02*
Y00300757D01*
X00569400Y00305755D01*
X00574399Y00300757D01*
Y00290760D01*
Y00298258D01*
X00564402D01*
X00579397Y00305755D02*
Y00290760D01*
X00589394D01*
X00609387Y00305755D02*
X00614386D01*
X00611887D01*
Y00290760D01*
X00609387D01*
X00614386D01*
X00621883D02*
Y00305755D01*
X00631880Y00290760D01*
Y00305755D01*
X00661870Y00303256D02*
X00659371Y00305755D01*
X00654373D01*
X00651874Y00303256D01*
Y00293259D01*
X00654373Y00290760D01*
X00659371D01*
X00661870Y00293259D01*
X00674366Y00305755D02*
X00669368D01*
X00666869Y00303256D01*
Y00293259D01*
X00669368Y00290760D01*
X00674366D01*
X00676865Y00293259D01*
Y00303256D01*
X00674366Y00305755D01*
X00681864Y00290760D02*
Y00305755D01*
X00691861Y00290760D01*
Y00305755D01*
X00706856D02*
X00696859D01*
Y00298258D01*
X00701857D01*
X00696859D01*
Y00290760D01*
X00711854Y00305755D02*
X00716853D01*
X00714353D01*
Y00290760D01*
X00711854D01*
X00716853D01*
X00724350Y00305755D02*
Y00290760D01*
X00731848D01*
X00734347Y00293259D01*
Y00303256D01*
X00731848Y00305755D01*
X00724350D01*
X00749342D02*
X00739345D01*
Y00290760D01*
X00749342D01*
X00739345Y00298258D02*
X00744344D01*
X00754341Y00290760D02*
Y00305755D01*
X00764337Y00290760D01*
Y00305755D01*
X00779332Y00303256D02*
X00776833Y00305755D01*
X00771835D01*
X00769336Y00303256D01*
Y00293259D01*
X00771835Y00290760D01*
X00776833D01*
X00779332Y00293259D01*
X00794327Y00305755D02*
X00784331D01*
Y00290760D01*
X00794327D01*
X00784331Y00298258D02*
X00789329D01*
X00298336Y00380569D02*
Y00395564D01*
X00308333Y00380569D01*
Y00395564D01*
X00315831Y00380569D02*
X00320829D01*
X00323328Y00383068D01*
Y00388067D01*
X00320829Y00390566D01*
X00315831D01*
X00313332Y00388067D01*
Y00383068D01*
X00315831Y00380569D01*
X00330826Y00393065D02*
Y00390566D01*
X00328327D01*
X00333325D01*
X00330826D01*
Y00383068D01*
X00333325Y00380569D01*
X00348320D02*
X00343322D01*
X00340823Y00383068D01*
Y00388067D01*
X00343322Y00390566D01*
X00348320D01*
X00350819Y00388067D01*
Y00385568D01*
X00340823D01*
X00355818Y00380569D02*
X00363315D01*
X00365815Y00383068D01*
X00363315Y00385568D01*
X00358317D01*
X00355818Y00388067D01*
X00358317Y00390566D01*
X00365815D01*
X00370813D02*
X00373312D01*
Y00388067D01*
X00370813D01*
Y00390566D01*
Y00383068D02*
X00373312D01*
Y00380569D01*
X00370813D01*
Y00383068D01*
X00298336Y00530569D02*
Y00545564D01*
X00305834D01*
X00308333Y00543065D01*
Y00538067D01*
X00305834Y00535568D01*
X00298336D01*
X00303335D02*
X00308333Y00530569D01*
X00320829D02*
X00315831D01*
X00313332Y00533068D01*
Y00538067D01*
X00315831Y00540566D01*
X00320829D01*
X00323328Y00538067D01*
Y00535568D01*
X00313332D01*
X00328327Y00540566D02*
X00333325Y00530569D01*
X00338324Y00540566D01*
X00343322Y00530569D02*
X00348320D01*
X00345821D01*
Y00540566D01*
X00343322D01*
X00355818Y00530569D02*
X00363315D01*
X00365815Y00533068D01*
X00363315Y00535568D01*
X00358317D01*
X00355818Y00538067D01*
X00358317Y00540566D01*
X00365815D01*
X00370813Y00530569D02*
X00375811D01*
X00373312D01*
Y00540566D01*
X00370813D01*
X00385808Y00530569D02*
X00390807D01*
X00393306Y00533068D01*
Y00538067D01*
X00390807Y00540566D01*
X00385808D01*
X00383309Y00538067D01*
Y00533068D01*
X00385808Y00530569D01*
X00398304D02*
Y00540566D01*
X00405802D01*
X00408301Y00538067D01*
Y00530569D01*
X00413299Y00540566D02*
X00415798D01*
Y00538067D01*
X00413299D01*
Y00540566D01*
Y00533068D02*
X00415798D01*
Y00530569D01*
X00413299D01*
Y00533068D01*
X00298336Y00516564D02*
Y00501569D01*
X00308333D01*
X00315831Y00511566D02*
X00320829D01*
X00323328Y00509067D01*
Y00501569D01*
X00315831D01*
X00313332Y00504068D01*
X00315831Y00506567D01*
X00323328D01*
X00328327Y00511566D02*
Y00504068D01*
X00330826Y00501569D01*
X00338324D01*
Y00499070D01*
X00335824Y00496571D01*
X00333325D01*
X00338324Y00501569D02*
Y00511566D01*
X00350819Y00501569D02*
X00345821D01*
X00343322Y00504068D01*
Y00509067D01*
X00345821Y00511566D01*
X00350819D01*
X00353319Y00509067D01*
Y00506567D01*
X00343322D01*
X00358317Y00511566D02*
Y00501569D01*
Y00506567D01*
X00360816Y00509067D01*
X00363315Y00511566D01*
X00365815D01*
X00373312D02*
X00375811D01*
Y00509067D01*
X00373312D01*
Y00511566D01*
Y00504068D02*
X00375811D01*
Y00501569D01*
X00373312D01*
Y00504068D01*
X00298836Y00458564D02*
Y00443569D01*
X00306334D01*
X00308833Y00446068D01*
Y00456065D01*
X00306334Y00458564D01*
X00298836D01*
X00321329Y00443569D02*
X00316331D01*
X00313832Y00446068D01*
Y00451067D01*
X00316331Y00453566D01*
X00321329D01*
X00323828Y00451067D01*
Y00448568D01*
X00313832D01*
X00328827Y00443569D02*
X00336324D01*
X00338824Y00446068D01*
X00336324Y00448568D01*
X00331326D01*
X00328827Y00451067D01*
X00331326Y00453566D01*
X00338824D01*
X00343822Y00443569D02*
X00348820D01*
X00346321D01*
Y00453566D01*
X00343822D01*
X00361316Y00438571D02*
X00363815D01*
X00366315Y00441070D01*
Y00453566D01*
X00358817D01*
X00356318Y00451067D01*
Y00446068D01*
X00358817Y00443569D01*
X00366315D01*
X00371313D02*
Y00453566D01*
X00378811D01*
X00381310Y00451067D01*
Y00443569D01*
X00393806D02*
X00388807D01*
X00386308Y00446068D01*
Y00451067D01*
X00388807Y00453566D01*
X00393806D01*
X00396305Y00451067D01*
Y00448568D01*
X00386308D01*
X00411300Y00458564D02*
Y00443569D01*
X00403802D01*
X00401303Y00446068D01*
Y00451067D01*
X00403802Y00453566D01*
X00411300D01*
X00431293Y00458564D02*
Y00443569D01*
X00438791D01*
X00441290Y00446068D01*
Y00448568D01*
X00438791Y00451067D01*
X00431293D01*
X00438791D01*
X00441290Y00453566D01*
Y00456065D01*
X00438791Y00458564D01*
X00431293D01*
X00446289Y00453566D02*
Y00446068D01*
X00448788Y00443569D01*
X00456285D01*
Y00441070D01*
X00453786Y00438571D01*
X00451287D01*
X00456285Y00443569D02*
Y00453566D01*
X00461284D02*
X00463783D01*
Y00451067D01*
X00461284D01*
Y00453566D01*
Y00446068D02*
X00463783D01*
Y00443569D01*
X00461284D01*
Y00446068D01*
X00298336Y00425564D02*
Y00410569D01*
X00305834D01*
X00308333Y00413068D01*
Y00423065D01*
X00305834Y00425564D01*
X00298336D01*
X00315831Y00420566D02*
X00320829D01*
X00323328Y00418067D01*
Y00410569D01*
X00315831D01*
X00313332Y00413068D01*
X00315831Y00415568D01*
X00323328D01*
X00330826Y00423065D02*
Y00420566D01*
X00328327D01*
X00333325D01*
X00330826D01*
Y00413068D01*
X00333325Y00410569D01*
X00348320D02*
X00343322D01*
X00340823Y00413068D01*
Y00418067D01*
X00343322Y00420566D01*
X00348320D01*
X00350819Y00418067D01*
Y00415568D01*
X00340823D01*
X00355818Y00420566D02*
X00358317D01*
Y00418067D01*
X00355818D01*
Y00420566D01*
Y00413068D02*
X00358317D01*
Y00410569D01*
X00355818D01*
Y00413068D01*
X00507937Y00455136D02*
X00505438Y00457635D01*
X00500439D01*
X00497940Y00455136D01*
Y00445139D01*
X00500439Y00442640D01*
X00505438D01*
X00507937Y00445139D01*
X00522932Y00455136D02*
X00520433Y00457635D01*
X00515434D01*
X00512935Y00455136D01*
Y00452637D01*
X00515434Y00450137D01*
X00520433D01*
X00522932Y00447638D01*
Y00445139D01*
X00520433Y00442640D01*
X00515434D01*
X00512935Y00445139D01*
X00527930Y00442640D02*
Y00457635D01*
X00535428D01*
X00537927Y00455136D01*
Y00450137D01*
X00535428Y00447638D01*
X00527930D01*
X00532929D02*
X00537927Y00442640D01*
X00582912Y00455136D02*
X00580413Y00457635D01*
X00575415D01*
X00572916Y00455136D01*
Y00445139D01*
X00575415Y00442640D01*
X00580413D01*
X00582912Y00445139D01*
X00590410Y00452637D02*
X00595409D01*
X00597908Y00450137D01*
Y00442640D01*
X00590410D01*
X00587911Y00445139D01*
X00590410Y00447638D01*
X00597908D01*
X00602906Y00442640D02*
Y00452637D01*
X00605405D01*
X00607904Y00450137D01*
Y00442640D01*
Y00450137D01*
X00610404Y00452637D01*
X00612903Y00450137D01*
Y00442640D01*
X00617901Y00457635D02*
Y00442640D01*
X00625399D01*
X00627898Y00445139D01*
Y00447638D01*
Y00450137D01*
X00625399Y00452637D01*
X00617901D01*
X00632896D02*
Y00442640D01*
Y00447638D01*
X00635396Y00450137D01*
X00637895Y00452637D01*
X00640394D01*
X00647891Y00442640D02*
X00652890D01*
X00650391D01*
Y00452637D01*
X00647891D01*
X00670384Y00457635D02*
Y00442640D01*
X00662887D01*
X00660387Y00445139D01*
Y00450137D01*
X00662887Y00452637D01*
X00670384D01*
X00680381Y00437641D02*
X00682880D01*
X00685379Y00440141D01*
Y00452637D01*
X00677882D01*
X00675383Y00450137D01*
Y00445139D01*
X00677882Y00442640D01*
X00685379D01*
X00697875D02*
X00692877D01*
X00690378Y00445139D01*
Y00450137D01*
X00692877Y00452637D01*
X00697875D01*
X00700375Y00450137D01*
Y00447638D01*
X00690378D01*
X00707872Y00440141D02*
X00710371Y00442640D01*
Y00445139D01*
X00707872D01*
Y00442640D01*
X00710371D01*
X00707872Y00440141D01*
X00705373Y00437641D01*
X00735363Y00457635D02*
Y00445139D01*
X00737862Y00442640D01*
X00742861D01*
X00745360Y00445139D01*
Y00457635D01*
X00750358D02*
Y00442640D01*
Y00447638D01*
X00760355Y00457635D01*
X00752858Y00450137D01*
X00760355Y00442640D01*
X00824837Y00500569D02*
Y00515564D01*
X00829835Y00510566D01*
X00834834Y00515564D01*
Y00500569D01*
X00849829Y00515564D02*
X00839832D01*
Y00500569D01*
X00849829D01*
X00839832Y00508067D02*
X00844830D01*
X00864824Y00513065D02*
X00862325Y00515564D01*
X00857327D01*
X00854827Y00513065D01*
Y00503068D01*
X00857327Y00500569D01*
X00862325D01*
X00864824Y00503068D01*
X00869822Y00515564D02*
Y00500569D01*
Y00508067D01*
X00879819D01*
Y00515564D01*
Y00500569D01*
X00902312D02*
Y00515564D01*
X00907310D02*
Y00500569D01*
X00899813Y00510566D02*
X00907310D01*
X00909809D01*
X00899813Y00505567D02*
X00909809D01*
X00924805Y00515564D02*
X00919806Y00513065D01*
X00914808Y00508067D01*
Y00503068D01*
X00917307Y00500569D01*
X00922305D01*
X00924805Y00503068D01*
Y00505567D01*
X00922305Y00508067D01*
X00914808D01*
X00298336Y00575564D02*
Y00560569D01*
X00305834D01*
X00308333Y00563068D01*
Y00565568D01*
X00305834Y00568067D01*
X00298336D01*
X00305834D01*
X00308333Y00570566D01*
Y00573065D01*
X00305834Y00575564D01*
X00298336D01*
X00315831Y00560569D02*
X00320829D01*
X00323328Y00563068D01*
Y00568067D01*
X00320829Y00570566D01*
X00315831D01*
X00313332Y00568067D01*
Y00563068D01*
X00315831Y00560569D01*
X00330826Y00570566D02*
X00335824D01*
X00338324Y00568067D01*
Y00560569D01*
X00330826D01*
X00328327Y00563068D01*
X00330826Y00565568D01*
X00338324D01*
X00343322Y00570566D02*
Y00560569D01*
Y00565568D01*
X00345821Y00568067D01*
X00348320Y00570566D01*
X00350819D01*
X00368314Y00575564D02*
Y00560569D01*
X00360816D01*
X00358317Y00563068D01*
Y00568067D01*
X00360816Y00570566D01*
X00368314D01*
X00388307Y00560569D02*
Y00575564D01*
X00398304Y00560569D01*
Y00575564D01*
X00405802Y00560569D02*
X00410800D01*
X00413299Y00563068D01*
Y00568067D01*
X00410800Y00570566D01*
X00405802D01*
X00403302Y00568067D01*
Y00563068D01*
X00405802Y00560569D01*
X00418298Y00570566D02*
X00420797D01*
Y00568067D01*
X00418298D01*
Y00570566D01*
Y00563068D02*
X00420797D01*
Y00560569D01*
X00418298D01*
Y00563068D01*
X00307937Y00364256D02*
X00305438Y00366755D01*
X00300439D01*
X00297940Y00364256D01*
Y00354259D01*
X00300439Y00351760D01*
X00305438D01*
X00307937Y00354259D01*
X00322932Y00364256D02*
X00320433Y00366755D01*
X00315434D01*
X00312935Y00364256D01*
Y00361757D01*
X00315434Y00359258D01*
X00320433D01*
X00322932Y00356758D01*
Y00354259D01*
X00320433Y00351760D01*
X00315434D01*
X00312935Y00354259D01*
X00327930Y00351760D02*
Y00366755D01*
X00335428D01*
X00337927Y00364256D01*
Y00359258D01*
X00335428Y00356758D01*
X00327930D01*
X00332929D02*
X00337927Y00351760D01*
X00367917Y00364256D02*
X00365418Y00366755D01*
X00360420D01*
X00357921Y00364256D01*
Y00354259D01*
X00360420Y00351760D01*
X00365418D01*
X00367917Y00354259D01*
X00375415Y00351760D02*
X00380413D01*
X00382912Y00354259D01*
Y00359258D01*
X00380413Y00361757D01*
X00375415D01*
X00372916Y00359258D01*
Y00354259D01*
X00375415Y00351760D01*
X00387911D02*
Y00361757D01*
X00395408D01*
X00397908Y00359258D01*
Y00351760D01*
X00405405Y00364256D02*
Y00361757D01*
X00402906D01*
X00407904D01*
X00405405D01*
Y00354259D01*
X00407904Y00351760D01*
X00417901Y00361757D02*
X00422900D01*
X00425399Y00359258D01*
Y00351760D01*
X00417901D01*
X00415402Y00354259D01*
X00417901Y00356758D01*
X00425399D01*
X00440394Y00361757D02*
X00432896D01*
X00430397Y00359258D01*
Y00354259D01*
X00432896Y00351760D01*
X00440394D01*
X00447891Y00364256D02*
Y00361757D01*
X00445392D01*
X00450391D01*
X00447891D01*
Y00354259D01*
X00450391Y00351760D01*
X00472883Y00356758D02*
X00482880D01*
X00472883Y00361757D02*
X00482880D01*
X00787781Y00364256D02*
X00790281Y00366755D01*
X00795279D01*
X00797778Y00364256D01*
Y00354259D01*
X00795279Y00351760D01*
X00790281D01*
X00787781Y00354259D01*
Y00364256D01*
X00802776Y00351760D02*
X00807775D01*
X00805276D01*
Y00366755D01*
X00802776Y00364256D01*
X00825269Y00351760D02*
X00815273D01*
X00825269Y00361757D01*
Y00364256D01*
X00822770Y00366755D01*
X00817772D01*
X00815273Y00364256D01*
X00840264Y00351760D02*
X00830268D01*
X00840264Y00361757D01*
Y00364256D01*
X00837765Y00366755D01*
X00832767D01*
X00830268Y00364256D01*
X00845263D02*
X00847762Y00366755D01*
X00852760D01*
X00855259Y00364256D01*
Y00361757D01*
X00852760Y00359258D01*
X00850261D01*
X00852760D01*
X00855259Y00356758D01*
Y00354259D01*
X00852760Y00351760D01*
X00847762D01*
X00845263Y00354259D01*
X00885250Y00366755D02*
X00880251Y00364256D01*
X00875253Y00359258D01*
Y00354259D01*
X00877752Y00351760D01*
X00882751D01*
X00885250Y00354259D01*
Y00356758D01*
X00882751Y00359258D01*
X00875253D01*
X00890248Y00354259D02*
X00892747Y00351760D01*
X00897746D01*
X00900245Y00354259D01*
Y00364256D01*
X00897746Y00366755D01*
X00892747D01*
X00890248Y00364256D01*
Y00361757D01*
X00892747Y00359258D01*
X00900245D01*
X00915240Y00351760D02*
X00905243D01*
X00915240Y00361757D01*
Y00364256D01*
X00912741Y00366755D01*
X00907742D01*
X00905243Y00364256D01*
X00920238D02*
X00922738Y00366755D01*
X00927736D01*
X00930235Y00364256D01*
Y00354259D01*
X00927736Y00351760D01*
X00922738D01*
X00920238Y00354259D01*
Y00364256D01*
X00935234D02*
X00937733Y00366755D01*
X00942731D01*
X00945230Y00364256D01*
Y00354259D01*
X00942731Y00351760D01*
X00937733D01*
X00935234Y00354259D01*
Y00364256D01*
X00950229D02*
X00952728Y00366755D01*
X00957726D01*
X00960226Y00364256D01*
Y00354259D01*
X00957726Y00351760D01*
X00952728D01*
X00950229Y00354259D01*
Y00364256D01*
X00297940Y00591760D02*
Y00606755D01*
X00305438D01*
X00307937Y00604256D01*
Y00599258D01*
X00305438Y00596758D01*
X00297940D01*
X00312935Y00601757D02*
Y00591760D01*
Y00596758D01*
X00315434Y00599258D01*
X00317934Y00601757D01*
X00320433D01*
X00330429Y00591760D02*
X00335428D01*
X00337927Y00594259D01*
Y00599258D01*
X00335428Y00601757D01*
X00330429D01*
X00327930Y00599258D01*
Y00594259D01*
X00330429Y00591760D01*
X00342925Y00586762D02*
X00345425D01*
X00347924Y00589261D01*
Y00601757D01*
X00365418Y00591760D02*
X00360420D01*
X00357921Y00594259D01*
Y00599258D01*
X00360420Y00601757D01*
X00365418D01*
X00367917Y00599258D01*
Y00596758D01*
X00357921D01*
X00382912Y00601757D02*
X00375415D01*
X00372916Y00599258D01*
Y00594259D01*
X00375415Y00591760D01*
X00382912D01*
X00390410Y00604256D02*
Y00601757D01*
X00387911D01*
X00392909D01*
X00390410D01*
Y00594259D01*
X00392909Y00591760D01*
X00415402D02*
Y00606755D01*
X00425399Y00591760D01*
Y00606755D01*
X00432896Y00601757D02*
X00437895D01*
X00440394Y00599258D01*
Y00591760D01*
X00432896D01*
X00430397Y00594259D01*
X00432896Y00596758D01*
X00440394D01*
X00445392Y00591760D02*
Y00601757D01*
X00447891D01*
X00450391Y00599258D01*
Y00591760D01*
Y00599258D01*
X00452890Y00601757D01*
X00455389Y00599258D01*
Y00591760D01*
X00467885D02*
X00462887D01*
X00460387Y00594259D01*
Y00599258D01*
X00462887Y00601757D01*
X00467885D01*
X00470384Y00599258D01*
Y00596758D01*
X00460387D01*
X00475382Y00601757D02*
X00477882D01*
Y00599258D01*
X00475382D01*
Y00601757D01*
Y00594259D02*
X00477882D01*
Y00591760D01*
X00475382D01*
Y00594259D01*
D23*
X00434140Y00800600D02*
Y00980600D01*
X00689140D01*
Y00800600D02*
Y00980600D01*
X00434140Y00800600D02*
X00689140D01*
D28*
X00629140Y00485835D02*
X00639297D01*
X00634218D01*
Y00470600D01*
X00646914D02*
X00651993D01*
X00654532Y00473139D01*
Y00478218D01*
X00651993Y00480757D01*
X00646914D01*
X00644375Y00478218D01*
Y00473139D01*
X00646914Y00470600D01*
X00659610Y00465522D02*
Y00480757D01*
X00667228D01*
X00669767Y00478218D01*
Y00473139D01*
X00667228Y00470600D01*
X00659610D01*
X00700237Y00483296D02*
X00697698Y00485835D01*
X00692619D01*
X00690080Y00483296D01*
Y00480757D01*
X00692619Y00478218D01*
X00697698D01*
X00700237Y00475678D01*
Y00473139D01*
X00697698Y00470600D01*
X00692619D01*
X00690080Y00473139D01*
X00707855Y00470600D02*
X00712933D01*
X00715472Y00473139D01*
Y00478218D01*
X00712933Y00480757D01*
X00707855D01*
X00705315Y00478218D01*
Y00473139D01*
X00707855Y00470600D01*
X00720551D02*
X00725629D01*
X00723090D01*
Y00485835D01*
X00720551D01*
X00743403D02*
Y00470600D01*
X00735786D01*
X00733246Y00473139D01*
Y00478218D01*
X00735786Y00480757D01*
X00743403D01*
X00756099Y00470600D02*
X00751021D01*
X00748481Y00473139D01*
Y00478218D01*
X00751021Y00480757D01*
X00756099D01*
X00758638Y00478218D01*
Y00475678D01*
X00748481D01*
X00763717Y00480757D02*
Y00470600D01*
Y00475678D01*
X00766256Y00478218D01*
X00768795Y00480757D01*
X00771334D01*
X00505070Y00516085D02*
Y00500850D01*
X00512687D01*
X00515227Y00503389D01*
Y00505928D01*
X00512687Y00508467D01*
X00505070D01*
X00512687D01*
X00515227Y00511007D01*
Y00513546D01*
X00512687Y00516085D01*
X00505070D01*
X00522844Y00500850D02*
X00527923D01*
X00530462Y00503389D01*
Y00508467D01*
X00527923Y00511007D01*
X00522844D01*
X00520305Y00508467D01*
Y00503389D01*
X00522844Y00500850D01*
X00538079Y00511007D02*
X00543158D01*
X00545697Y00508467D01*
Y00500850D01*
X00538079D01*
X00535540Y00503389D01*
X00538079Y00505928D01*
X00545697D01*
X00550775Y00511007D02*
Y00500850D01*
Y00505928D01*
X00553314Y00508467D01*
X00555854Y00511007D01*
X00558393D01*
X00576167Y00516085D02*
Y00500850D01*
X00568549D01*
X00566010Y00503389D01*
Y00508467D01*
X00568549Y00511007D01*
X00576167D01*
X00596480Y00500850D02*
Y00516085D01*
X00604098D01*
X00606637Y00513546D01*
Y00508467D01*
X00604098Y00505928D01*
X00596480D01*
X00611716Y00511007D02*
Y00500850D01*
Y00505928D01*
X00614255Y00508467D01*
X00616794Y00511007D01*
X00619333D01*
X00629490Y00500850D02*
X00634568D01*
X00637107Y00503389D01*
Y00508467D01*
X00634568Y00511007D01*
X00629490D01*
X00626951Y00508467D01*
Y00503389D01*
X00629490Y00500850D01*
X00644725D02*
Y00513546D01*
Y00508467D01*
X00642186D01*
X00647264D01*
X00644725D01*
Y00513546D01*
X00647264Y00516085D01*
X00654882Y00500850D02*
X00659960D01*
X00657421D01*
Y00511007D01*
X00654882D01*
X00667577Y00500850D02*
X00672656D01*
X00670117D01*
Y00516085D01*
X00667577D01*
X00687891Y00500850D02*
X00682812D01*
X00680273Y00503389D01*
Y00508467D01*
X00682812Y00511007D01*
X00687891D01*
X00690430Y00508467D01*
Y00505928D01*
X00680273D01*
X00506097Y00605456D02*
X00503558Y00607995D01*
X00498479D01*
X00495940Y00605456D01*
Y00595299D01*
X00498479Y00592760D01*
X00503558D01*
X00506097Y00595299D01*
X00521332Y00605456D02*
X00518793Y00607995D01*
X00513714D01*
X00511175Y00605456D01*
Y00602917D01*
X00513714Y00600378D01*
X00518793D01*
X00521332Y00597838D01*
Y00595299D01*
X00518793Y00592760D01*
X00513714D01*
X00511175Y00595299D01*
X00526410Y00592760D02*
Y00607995D01*
X00534028D01*
X00536567Y00605456D01*
Y00600378D01*
X00534028Y00597838D01*
X00526410D01*
X00531488D02*
X00536567Y00592760D01*
X00541645D02*
X00546724D01*
X00544184D01*
Y00607995D01*
X00541645Y00605456D01*
X00554341D02*
X00556880Y00607995D01*
X00561959D01*
X00564498Y00605456D01*
Y00595299D01*
X00561959Y00592760D01*
X00556880D01*
X00554341Y00595299D01*
Y00605456D01*
X00569576D02*
X00572115Y00607995D01*
X00577194D01*
X00579733Y00605456D01*
Y00595299D01*
X00577194Y00592760D01*
X00572115D01*
X00569576Y00595299D01*
Y00605456D01*
X00584811D02*
X00587350Y00607995D01*
X00592429D01*
X00594968Y00605456D01*
Y00595299D01*
X00592429Y00592760D01*
X00587350D01*
X00584811Y00595299D01*
Y00605456D01*
X00615281Y00592760D02*
Y00607995D01*
X00620360Y00602917D01*
X00625438Y00607995D01*
Y00592760D01*
X00633056Y00602917D02*
X00638134D01*
X00640673Y00600378D01*
Y00592760D01*
X00633056D01*
X00630517Y00595299D01*
X00633056Y00597838D01*
X00640673D01*
X00645751Y00592760D02*
X00653369D01*
X00655908Y00595299D01*
X00653369Y00597838D01*
X00648291D01*
X00645751Y00600378D01*
X00648291Y00602917D01*
X00655908D01*
X00660987Y00592760D02*
X00668604D01*
X00671143Y00595299D01*
X00668604Y00597838D01*
X00663526D01*
X00660987Y00600378D01*
X00663526Y00602917D01*
X00671143D01*
X00691457Y00592760D02*
Y00607995D01*
X00699074D01*
X00701613Y00605456D01*
Y00600378D01*
X00699074Y00597838D01*
X00691457D01*
X00706692Y00602917D02*
Y00592760D01*
Y00597838D01*
X00709231Y00600378D01*
X00711770Y00602917D01*
X00714309D01*
X00724466Y00592760D02*
X00729544D01*
X00732084Y00595299D01*
Y00600378D01*
X00729544Y00602917D01*
X00724466D01*
X00721927Y00600378D01*
Y00595299D01*
X00724466Y00592760D01*
X00747319Y00607995D02*
Y00592760D01*
X00739701D01*
X00737162Y00595299D01*
Y00600378D01*
X00739701Y00602917D01*
X00747319D01*
X00752397D02*
Y00595299D01*
X00754936Y00592760D01*
X00762554D01*
Y00602917D01*
X00777789D02*
X00770171D01*
X00767632Y00600378D01*
Y00595299D01*
X00770171Y00592760D01*
X00777789D01*
X00785406Y00605456D02*
Y00602917D01*
X00782867D01*
X00787945D01*
X00785406D01*
Y00595299D01*
X00787945Y00592760D01*
X00795563D02*
X00800641D01*
X00798102D01*
Y00602917D01*
X00795563D01*
X00810798Y00592760D02*
X00815876D01*
X00818416Y00595299D01*
Y00600378D01*
X00815876Y00602917D01*
X00810798D01*
X00808259Y00600378D01*
Y00595299D01*
X00810798Y00592760D01*
X00823494D02*
Y00602917D01*
X00831112D01*
X00833651Y00600378D01*
Y00592760D01*
X00853964D02*
Y00607995D01*
X00859043Y00602917D01*
X00864121Y00607995D01*
Y00592760D01*
X00871738D02*
X00876817D01*
X00879356Y00595299D01*
Y00600378D01*
X00876817Y00602917D01*
X00871738D01*
X00869199Y00600378D01*
Y00595299D01*
X00871738Y00592760D01*
X00894591Y00607995D02*
Y00592760D01*
X00886973D01*
X00884434Y00595299D01*
Y00600378D01*
X00886973Y00602917D01*
X00894591D01*
X00899669D02*
Y00595299D01*
X00902209Y00592760D01*
X00909826D01*
Y00602917D01*
X00914904Y00592760D02*
X00919983D01*
X00917444D01*
Y00607995D01*
X00914904D01*
X00935218Y00592760D02*
X00930139D01*
X00927600Y00595299D01*
Y00600378D01*
X00930139Y00602917D01*
X00935218D01*
X00937757Y00600378D01*
Y00597838D01*
X00927600D01*
X00505097Y00573706D02*
X00502557Y00576245D01*
X00497479D01*
X00494940Y00573706D01*
Y00563549D01*
X00497479Y00561010D01*
X00502557D01*
X00505097Y00563549D01*
X00510175Y00561010D02*
Y00576245D01*
X00520332Y00561010D01*
Y00576245D01*
X00535567Y00573706D02*
X00533028Y00576245D01*
X00527949D01*
X00525410Y00573706D01*
Y00571167D01*
X00527949Y00568628D01*
X00533028D01*
X00535567Y00566088D01*
Y00563549D01*
X00533028Y00561010D01*
X00527949D01*
X00525410Y00563549D01*
X00540645Y00561010D02*
X00545724D01*
X00543184D01*
Y00576245D01*
X00540645Y00573706D01*
X00563498Y00561010D02*
X00553341D01*
X00563498Y00571167D01*
Y00573706D01*
X00560959Y00576245D01*
X00555880D01*
X00553341Y00573706D01*
X00568576D02*
X00571115Y00576245D01*
X00576194D01*
X00578733Y00573706D01*
Y00563549D01*
X00576194Y00561010D01*
X00571115D01*
X00568576Y00563549D01*
Y00573706D01*
X00583811Y00561010D02*
X00588890D01*
X00586350D01*
Y00576245D01*
X00583811Y00573706D01*
X00596507Y00561010D02*
X00601586D01*
X00599046D01*
Y00576245D01*
X00596507Y00573706D01*
X00495690Y00545495D02*
Y00535338D01*
X00500768Y00530260D01*
X00505847Y00535338D01*
Y00545495D01*
X00521082Y00530260D02*
X00510925D01*
X00521082Y00540417D01*
Y00542956D01*
X00518543Y00545495D01*
X00513464D01*
X00510925Y00542956D01*
X00513847Y00368956D02*
X00511307Y00371495D01*
X00506229D01*
X00503690Y00368956D01*
Y00358799D01*
X00506229Y00356260D01*
X00511307D01*
X00513847Y00358799D01*
X00529082Y00368956D02*
X00526543Y00371495D01*
X00521464D01*
X00518925Y00368956D01*
Y00366417D01*
X00521464Y00363877D01*
X00526543D01*
X00529082Y00361338D01*
Y00358799D01*
X00526543Y00356260D01*
X00521464D01*
X00518925Y00358799D01*
X00534160Y00356260D02*
Y00371495D01*
X00541778D01*
X00544317Y00368956D01*
Y00363877D01*
X00541778Y00361338D01*
X00534160D01*
X00539239D02*
X00544317Y00356260D01*
X00506307Y00426245D02*
X00501229D01*
X00498690Y00423706D01*
Y00413549D01*
X00501229Y00411010D01*
X00506307D01*
X00508847Y00413549D01*
Y00423706D01*
X00506307Y00426245D01*
X00524082Y00421167D02*
X00516464D01*
X00513925Y00418628D01*
Y00413549D01*
X00516464Y00411010D01*
X00524082D01*
X00531699Y00423706D02*
Y00421167D01*
X00529160D01*
X00534239D01*
X00531699D01*
Y00413549D01*
X00534239Y00411010D01*
X00567248D02*
X00557091D01*
X00567248Y00421167D01*
Y00423706D01*
X00564709Y00426245D01*
X00559630D01*
X00557091Y00423706D01*
X00572326D02*
X00574865Y00426245D01*
X00579944D01*
X00582483Y00423706D01*
Y00413549D01*
X00579944Y00411010D01*
X00574865D01*
X00572326Y00413549D01*
Y00423706D01*
X00587561Y00411010D02*
X00592640D01*
X00590100D01*
Y00426245D01*
X00587561Y00423706D01*
X00600257Y00411010D02*
X00605336D01*
X00602796D01*
Y00426245D01*
X00600257Y00423706D01*
D31*
X00653980Y00980600D02*
X00674300D01*
X00613980D02*
X00634300D01*
X00513980Y00800600D02*
X00534300D01*
X00573980D02*
X00594300D01*
X00553980D02*
X00574300D01*
X00533980D02*
X00554300D01*
X00593980D02*
X00614300D01*
X00613980D02*
X00634300D01*
X00633980D02*
X00654300D01*
X00653980D02*
X00674300D01*
X00689140Y00820440D02*
Y00840760D01*
Y00840440D02*
Y00860760D01*
Y00860440D02*
Y00880760D01*
Y00880440D02*
Y00900760D01*
Y00900440D02*
Y00920760D01*
Y00920440D02*
Y00940760D01*
Y00940690D02*
Y00961010D01*
X00593980Y00980600D02*
X00614300D01*
X00573980D02*
X00594300D01*
D32*
X00441640Y00995600D02*
X00681640D01*
X00703890Y00973350D02*
X00704140Y00807600D01*
X00441140Y00785600D02*
X00682140D01*
X00419140Y00807600D02*
Y00973600D01*
D38*
X00443407Y00912270D02*
G03*
X00451875Y00910156I00008468J00015905D01*
G01*
D02*
G03*
X00464508Y00913784I-00000589J00025861D01*
G01*
X00460070Y00906595D02*
G03*
X00464526Y00913782I-00018467J00016425D01*
G01*
X00457145Y00906593D02*
G03*
X00464531Y00913788I-00018561J00026442D01*
G01*
X00443419Y00908497D02*
G03*
X00464514Y00913775I00006026J00020709D01*
G01*
X00443407Y00917277D02*
G03*
X00464324Y00913694I00013623J00016679D01*
G01*
X00450962Y00915953D02*
G03*
X00464130Y00913775I00010485J00022494D01*
G01*
X00443407Y00922874D02*
G03*
X00450962Y00915953I00016053J00009941D01*
G01*
X00450788Y00927751D02*
G03*
X00464554Y00913771I00013878J-00000101D01*
G01*
X00443407Y00906600D02*
Y00908497D01*
Y00906600D02*
X00457140D01*
X00443407Y00917277D02*
X00443407Y00912270D01*
X00464554Y00906600D02*
X00464554Y00913771D01*
X00460075Y00906600D02*
X00464554D01*
X00443407Y00922874D02*
Y00927751D01*
D39*
X00462528Y00913679D02*
X00464257D01*
D40*
X00462787Y00925109D02*
Y00925819D01*
X00462936Y00921892D02*
Y00923620D01*
X00461627Y00921892D02*
Y00925819D01*
X00455866Y00925932D02*
X00456241D01*
X00459345D02*
X00459757D01*
X00463871D02*
X00464172D01*
X00455567Y00925894D02*
X00456540D01*
X00459009D02*
X00460131D01*
X00463685D02*
X00464395D01*
X00455380Y00925857D02*
X00456727D01*
X00458822D02*
X00460280D01*
X00463572D02*
X00464433D01*
X00455230Y00925819D02*
X00456876D01*
X00458672D02*
X00460467D01*
X00461627D02*
X00462787D01*
X00463498D02*
X00464433D01*
X00455118Y00925782D02*
X00456989D01*
X00458597D02*
X00460580D01*
X00461627D02*
X00462787D01*
X00463423D02*
X00464433D01*
X00455043Y00925745D02*
X00457101D01*
X00458522D02*
X00460692D01*
X00461627D02*
X00462787D01*
X00463348D02*
X00464433D01*
X00454931Y00925707D02*
X00457176D01*
X00458410D02*
X00460767D01*
X00461627D02*
X00462787D01*
X00463310D02*
X00464433D01*
X00454856Y00925670D02*
X00457169D01*
X00458335D02*
X00460767D01*
X00461627D02*
X00462787D01*
X00463273D02*
X00464415D01*
X00454782Y00925632D02*
X00457169D01*
X00458298D02*
X00460767D01*
X00461627D02*
X00462787D01*
X00463198D02*
X00464415D01*
X00454707Y00925595D02*
X00457169D01*
X00458223D02*
X00460767D01*
X00461627D02*
X00462787D01*
X00463161D02*
X00464415D01*
X00454669Y00925558D02*
X00457169D01*
X00458148D02*
X00460729D01*
X00461627D02*
X00462787D01*
X00463123D02*
X00464415D01*
X00454595Y00925520D02*
X00457169D01*
X00458111D02*
X00460729D01*
X00461627D02*
X00462787D01*
X00463086D02*
X00464415D01*
X00454520Y00925483D02*
X00457169D01*
X00458073D02*
X00460729D01*
X00461627D02*
X00462787D01*
X00463086D02*
X00464395D01*
X00454482Y00925445D02*
X00457169D01*
X00458036D02*
X00460729D01*
X00461627D02*
X00462787D01*
X00463049D02*
X00464395D01*
X00454445Y00925408D02*
X00457169D01*
X00457999D02*
X00460729D01*
X00461627D02*
X00462787D01*
X00463011D02*
X00464395D01*
X00454408Y00925371D02*
X00457169D01*
X00457961D02*
X00460729D01*
X00461627D02*
X00462787D01*
X00462974D02*
X00464395D01*
X00454370Y00925333D02*
X00457138D01*
X00457924D02*
X00460692D01*
X00461627D02*
X00462787D01*
X00462974D02*
X00464395D01*
X00454333Y00925296D02*
X00457138D01*
X00457924D02*
X00460692D01*
X00461627D02*
X00462787D01*
X00462936D02*
X00464395D01*
X00454295Y00925258D02*
X00457138D01*
X00457886D02*
X00460692D01*
X00461627D02*
X00462787D01*
X00462936D02*
X00464395D01*
X00454258Y00925221D02*
X00457138D01*
X00457849D02*
X00460692D01*
X00461627D02*
X00462787D01*
X00462899D02*
X00464395D01*
X00454221Y00925184D02*
X00457138D01*
X00457849D02*
X00460692D01*
X00461627D02*
X00462787D01*
X00462862D02*
X00464378D01*
X00454183Y00925146D02*
X00457138D01*
X00457812D02*
X00460692D01*
X00461627D02*
X00462787D01*
X00462862D02*
X00464378D01*
X00454183Y00925109D02*
X00457138D01*
X00457812D02*
X00460692D01*
X00461627D02*
X00462787D01*
X00462824D02*
X00464378D01*
X00454146Y00925071D02*
X00457138D01*
X00457774D02*
X00459420D01*
X00459719D02*
X00460692D01*
X00461627D02*
X00464378D01*
X00454108Y00925034D02*
X00457138D01*
X00457774D02*
X00459271D01*
X00459944D02*
X00460655D01*
X00461627D02*
X00464378D01*
X00454071Y00924996D02*
X00457138D01*
X00457737D02*
X00459158D01*
X00460206D02*
X00460655D01*
X00461627D02*
X00464378D01*
X00454071Y00924959D02*
X00456128D01*
X00456465D02*
X00457138D01*
X00457737D02*
X00459121D01*
X00460280D02*
X00460655D01*
X00461627D02*
X00464358D01*
X00454071Y00924922D02*
X00455941D01*
X00456652D02*
X00457101D01*
X00457737D02*
X00459121D01*
X00460393D02*
X00460655D01*
X00461627D02*
X00464358D01*
X00454034Y00924884D02*
X00455829D01*
X00456764D02*
X00457101D01*
X00457737D02*
X00459083D01*
X00460467D02*
X00460655D01*
X00461627D02*
X00464358D01*
X00454034Y00924847D02*
X00455754D01*
X00456876D02*
X00457101D01*
X00457699D02*
X00459083D01*
X00460542D02*
X00460655D01*
X00461627D02*
X00464358D01*
X00453996Y00924809D02*
X00455679D01*
X00456951D02*
X00457101D01*
X00457699D02*
X00459046D01*
X00460617D02*
X00460655D01*
X00461627D02*
X00464358D01*
X00453996Y00924772D02*
X00455605D01*
X00457026D02*
X00457101D01*
X00457699D02*
X00459046D01*
X00461627D02*
X00463685D01*
X00464171D02*
X00464358D01*
X00453959Y00924735D02*
X00455605D01*
X00457699D02*
X00459046D01*
X00461627D02*
X00463572D01*
X00464320D02*
X00464358D01*
X00453959Y00924697D02*
X00455567D01*
X00457699D02*
X00459046D01*
X00461627D02*
X00463498D01*
X00453959Y00924660D02*
X00455530D01*
X00457699D02*
X00459083D01*
X00461627D02*
X00463423D01*
X00453921Y00924622D02*
X00455492D01*
X00457699D02*
X00459083D01*
X00461627D02*
X00463348D01*
X00453921Y00924585D02*
X00455455D01*
X00457699D02*
X00459121D01*
X00461627D02*
X00463310D01*
X00453884Y00924548D02*
X00455418D01*
X00457699D02*
X00459158D01*
X00461627D02*
X00463273D01*
X00453884Y00924510D02*
X00455380D01*
X00457699D02*
X00459233D01*
X00461627D02*
X00463198D01*
X00453884Y00924473D02*
X00455343D01*
X00457699D02*
X00459308D01*
X00461627D02*
X00463161D01*
X00453884Y00924435D02*
X00455305D01*
X00457699D02*
X00459420D01*
X00461627D02*
X00463161D01*
X00453847Y00924398D02*
X00455305D01*
X00457737D02*
X00459570D01*
X00461627D02*
X00463161D01*
X00453847Y00924361D02*
X00455268D01*
X00457737D02*
X00459682D01*
X00461627D02*
X00463123D01*
X00453847Y00924323D02*
X00455268D01*
X00457737D02*
X00459794D01*
X00461627D02*
X00463123D01*
X00453847Y00924286D02*
X00455268D01*
X00457737D02*
X00459906D01*
X00461627D02*
X00463086D01*
X00453847Y00924248D02*
X00455230D01*
X00457774D02*
X00460056D01*
X00461627D02*
X00463086D01*
X00453809Y00924211D02*
X00455230D01*
X00457774D02*
X00460131D01*
X00461627D02*
X00463049D01*
X00453809Y00924174D02*
X00455230D01*
X00457812D02*
X00460206D01*
X00461627D02*
X00463049D01*
X00453809Y00924136D02*
X00455193D01*
X00457812D02*
X00460280D01*
X00461627D02*
X00463049D01*
X00453809Y00924099D02*
X00455193D01*
X00457849D02*
X00460393D01*
X00461627D02*
X00463011D01*
X00453809Y00924061D02*
X00455193D01*
X00457849D02*
X00460467D01*
X00461627D02*
X00463011D01*
X00453809Y00924024D02*
X00455193D01*
X00457886D02*
X00460580D01*
X00461627D02*
X00463011D01*
X00453809Y00923987D02*
X00455193D01*
X00457961D02*
X00460617D01*
X00461627D02*
X00462974D01*
X00453809Y00923949D02*
X00455193D01*
X00457999D02*
X00460655D01*
X00461627D02*
X00462974D01*
X00453809Y00923912D02*
X00455193D01*
X00458036D02*
X00460692D01*
X00461627D02*
X00462974D01*
X00453809Y00923874D02*
X00455193D01*
X00458073D02*
X00460729D01*
X00461627D02*
X00462974D01*
X00453809Y00923837D02*
X00455193D01*
X00458111D02*
X00460767D01*
X00461627D02*
X00462974D01*
X00453809Y00923800D02*
X00455193D01*
X00458148D02*
X00460804D01*
X00461627D02*
X00462957D01*
X00453809Y00923762D02*
X00455193D01*
X00458223D02*
X00460804D01*
X00461627D02*
X00462957D01*
X00453809Y00923725D02*
X00455193D01*
X00458298D02*
X00460842D01*
X00461627D02*
X00462957D01*
X00453809Y00923687D02*
X00455193D01*
X00458373D02*
X00460879D01*
X00461627D02*
X00462957D01*
X00453809Y00923650D02*
X00455193D01*
X00458447D02*
X00460879D01*
X00461627D02*
X00462936D01*
X00453809Y00923613D02*
X00455193D01*
X00458522D02*
X00460916D01*
X00461627D02*
X00462936D01*
X00453809Y00923575D02*
X00455193D01*
X00458597D02*
X00460916D01*
X00461627D02*
X00462936D01*
X00453809Y00923538D02*
X00455230D01*
X00458709D02*
X00460954D01*
X00461627D02*
X00462936D01*
X00453809Y00923500D02*
X00455230D01*
X00458934D02*
X00460954D01*
X00461627D02*
X00462936D01*
X00453847Y00923463D02*
X00455230D01*
X00459046D02*
X00460991D01*
X00461627D02*
X00462936D01*
X00453847Y00923426D02*
X00455268D01*
X00459158D02*
X00460991D01*
X00461627D02*
X00462936D01*
X00453847Y00923388D02*
X00455268D01*
X00459271D02*
X00460991D01*
X00461627D02*
X00462936D01*
X00453847Y00923351D02*
X00455305D01*
X00459383D02*
X00460991D01*
X00461627D02*
X00462936D01*
X00453847Y00923313D02*
X00455305D01*
X00459458D02*
X00460991D01*
X00461627D02*
X00462936D01*
X00453884Y00923276D02*
X00455343D01*
X00459532D02*
X00460991D01*
X00461627D02*
X00462936D01*
X00453884Y00923238D02*
X00455343D01*
X00459570D02*
X00461029D01*
X00461627D02*
X00462936D01*
X00453884Y00923201D02*
X00455380D01*
X00459607D02*
X00461029D01*
X00461627D02*
X00462936D01*
X00453884Y00923164D02*
X00455380D01*
X00459607D02*
X00461029D01*
X00461627D02*
X00462936D01*
X00453921Y00923126D02*
X00455418D01*
X00459645D02*
X00461029D01*
X00461627D02*
X00462936D01*
X00453921Y00923089D02*
X00455455D01*
X00459645D02*
X00461029D01*
X00461627D02*
X00462936D01*
X00453921Y00923051D02*
X00455492D01*
X00459645D02*
X00461029D01*
X00461627D02*
X00462936D01*
X00453959Y00923014D02*
X00455567D01*
X00459645D02*
X00461029D01*
X00461627D02*
X00462936D01*
X00453959Y00922977D02*
X00455605D01*
X00457849D02*
X00457886D01*
X00459645D02*
X00461029D01*
X00461627D02*
X00462936D01*
X00453996Y00922939D02*
X00455642D01*
X00457101D02*
X00457176D01*
X00457849D02*
X00457961D01*
X00459645D02*
X00460991D01*
X00461627D02*
X00462936D01*
X00453996Y00922902D02*
X00455717D01*
X00457063D02*
X00457176D01*
X00457849D02*
X00458036D01*
X00459645D02*
X00460991D01*
X00461627D02*
X00462936D01*
X00454034Y00922864D02*
X00455754D01*
X00456989D02*
X00457176D01*
X00457849D02*
X00458148D01*
X00459607D02*
X00460991D01*
X00461627D02*
X00462936D01*
X00454034Y00922827D02*
X00455866D01*
X00456876D02*
X00457176D01*
X00457849D02*
X00458186D01*
X00459607D02*
X00460991D01*
X00461627D02*
X00462936D01*
X00454071Y00922790D02*
X00455979D01*
X00456764D02*
X00457176D01*
X00457812D02*
X00458335D01*
X00459570D02*
X00460991D01*
X00461627D02*
X00462936D01*
X00454071Y00922752D02*
X00456128D01*
X00456577D02*
X00457176D01*
X00457812D02*
X00458447D01*
X00459495D02*
X00460954D01*
X00461627D02*
X00462936D01*
X00454071Y00922715D02*
X00457176D01*
X00457812D02*
X00458634D01*
X00459383D02*
X00460954D01*
X00461627D02*
X00462936D01*
X00454108Y00922677D02*
X00457176D01*
X00457812D02*
X00458907D01*
X00459121D02*
X00460954D01*
X00461627D02*
X00462936D01*
X00454108Y00922640D02*
X00457176D01*
X00457812D02*
X00460954D01*
X00461627D02*
X00462936D01*
X00454146Y00922602D02*
X00457199D01*
X00457812D02*
X00460916D01*
X00461627D02*
X00462936D01*
X00454183Y00922565D02*
X00457199D01*
X00457812D02*
X00460916D01*
X00461627D02*
X00462936D01*
X00454183Y00922528D02*
X00457199D01*
X00457812D02*
X00460879D01*
X00461627D02*
X00462936D01*
X00454258Y00922490D02*
X00457199D01*
X00457812D02*
X00460842D01*
X00461627D02*
X00462936D01*
X00454295Y00922453D02*
X00457199D01*
X00457812D02*
X00460842D01*
X00461627D02*
X00462936D01*
X00454333Y00922415D02*
X00457199D01*
X00457812D02*
X00460804D01*
X00461627D02*
X00462936D01*
X00454370Y00922378D02*
X00457199D01*
X00457774D02*
X00460767D01*
X00461627D02*
X00462936D01*
X00454408Y00922341D02*
X00457199D01*
X00457774D02*
X00460729D01*
X00461627D02*
X00462936D01*
X00454445Y00922303D02*
X00457199D01*
X00457774D02*
X00460729D01*
X00461627D02*
X00462936D01*
X00454482Y00922266D02*
X00457199D01*
X00457774D02*
X00460692D01*
X00461627D02*
X00462936D01*
X00454520Y00922228D02*
X00457199D01*
X00457774D02*
X00460655D01*
X00461627D02*
X00462936D01*
X00454557Y00922191D02*
X00457213D01*
X00457774D02*
X00460655D01*
X00461627D02*
X00462936D01*
X00454595Y00922154D02*
X00457213D01*
X00457774D02*
X00460617D01*
X00461627D02*
X00462936D01*
X00454632Y00922116D02*
X00457213D01*
X00457774D02*
X00460542D01*
X00461627D02*
X00462936D01*
X00454707Y00922079D02*
X00457213D01*
X00457774D02*
X00460505D01*
X00461627D02*
X00462936D01*
X00454744Y00922041D02*
X00457213D01*
X00457774D02*
X00460430D01*
X00461627D02*
X00462936D01*
X00454894Y00922004D02*
X00457213D01*
X00457774D02*
X00460318D01*
X00461627D02*
X00462936D01*
X00454969Y00921967D02*
X00457213D01*
X00457849D02*
X00460243D01*
X00461627D02*
X00462936D01*
X00455081Y00921929D02*
X00457138D01*
X00457961D02*
X00460131D01*
X00461627D02*
X00462936D01*
X00455118Y00921892D02*
X00457063D01*
X00458111D02*
X00460093D01*
X00461627D02*
X00462936D01*
X00455268Y00921854D02*
X00456876D01*
X00458260D02*
X00459944D01*
X00455418Y00921817D02*
X00456689D01*
X00458447D02*
X00459794D01*
X00455605Y00921780D02*
X00456465D01*
X00458709D02*
X00459570D01*
D41*
X00474731Y00839489D02*
D03*
Y00876739D02*
D03*
D42*
X00472231Y00857488D02*
D03*
D43*
X00634090Y00907600D02*
D03*
X00646790Y00907600D02*
D03*
X00659490Y00907600D02*
D03*
X00672190Y00907600D02*
D03*
X00634090Y00963600D02*
D03*
X00646790Y00963600D02*
D03*
X00659490Y00963600D02*
D03*
X00672190Y00963600D02*
D03*
D44*
X00581640Y00893350D02*
D03*
X00586640D02*
D03*
X00591640D02*
D03*
X00596640D02*
D03*
X00606640Y00847850D02*
D03*
X00601640D02*
D03*
X00596640D02*
D03*
X00591640D02*
D03*
X00586640D02*
D03*
X00581640D02*
D03*
X00616640Y00893350D02*
D03*
X00611640D02*
D03*
X00606640D02*
D03*
X00601640D02*
D03*
X00616640Y00847850D02*
D03*
X00611640D02*
D03*
D45*
X00576140Y00888350D02*
D03*
Y00883350D02*
D03*
Y00878350D02*
D03*
Y00873350D02*
D03*
Y00868350D02*
D03*
Y00863350D02*
D03*
Y00858350D02*
D03*
X00621890Y00878350D02*
D03*
Y00883600D02*
D03*
Y00888350D02*
D03*
Y00873350D02*
D03*
Y00868350D02*
D03*
Y00863350D02*
D03*
Y00858350D02*
D03*
Y00853350D02*
D03*
X00576140Y00853350D02*
D03*
D46*
X00599140Y00870600D02*
D03*
D47*
X00586140Y00819600D02*
D03*
X00564140D02*
D03*
Y00835600D02*
D03*
X00586140Y00835600D02*
D03*
D48*
X00530640Y00906100D02*
D03*
Y00969100D02*
D03*
X00539640D02*
D03*
Y00906100D02*
D03*
D49*
X00573015Y00942100D02*
D03*
X00601265D02*
D03*
D50*
X00610140Y00964600D02*
D03*
X00590140D02*
D03*
X00553140D02*
D03*
X00573140D02*
D03*
D51*
X00518140Y00848600D02*
D03*
Y00858600D02*
D03*
X00622140Y00962600D02*
D03*
Y00952600D02*
D03*
X00577140Y00912600D02*
D03*
Y00902600D02*
D03*
X00635140Y00877600D02*
D03*
Y00867600D02*
D03*
X00622140Y00942600D02*
D03*
Y00932600D02*
D03*
X00552140Y00833600D02*
D03*
Y00843600D02*
D03*
X00561140Y00930850D02*
D03*
Y00940850D02*
D03*
X00598140Y00822600D02*
D03*
Y00832600D02*
D03*
X00549140Y00925600D02*
D03*
Y00915600D02*
D03*
X00522140Y00925600D02*
D03*
Y00915600D02*
D03*
X00552140Y00825600D02*
D03*
Y00815600D02*
D03*
X00559140Y00912600D02*
D03*
Y00902600D02*
D03*
X00544140Y00848600D02*
D03*
Y00858600D02*
D03*
X00605140Y00923600D02*
D03*
Y00913600D02*
D03*
X00567890Y00902850D02*
D03*
Y00912850D02*
D03*
X00566140Y00848600D02*
D03*
Y00858600D02*
D03*
D52*
X01399140Y00750600D02*
D03*
Y01590600D02*
D03*
X00434140D02*
D03*
D53*
X00578140Y00923100D02*
D03*
X00588140D02*
D03*
X00545140Y00870600D02*
D03*
X00555140D02*
D03*
X00526140Y00858600D02*
D03*
X00536140D02*
D03*
X00545140Y00879600D02*
D03*
X00555140D02*
D03*
D54*
X00664140Y00980600D02*
D03*
X00644140D02*
D03*
X00554140D02*
D03*
X00624140D02*
D03*
X00524140Y00800600D02*
D03*
X00584140D02*
D03*
X00564140D02*
D03*
X00544140D02*
D03*
X00604140D02*
D03*
X00624140D02*
D03*
X00644140D02*
D03*
X00664140D02*
D03*
X00604140Y00980600D02*
D03*
X00584140D02*
D03*
D55*
X00689890Y00981350D02*
D03*
Y00799850D02*
D03*
X00433390D02*
D03*
Y00981350D02*
D03*
D56*
X00689140Y00830600D02*
D03*
Y00850600D02*
D03*
Y00870600D02*
D03*
Y00890600D02*
D03*
Y00910600D02*
D03*
Y00930600D02*
D03*
Y00950850D02*
D03*
D57*
X00459140Y00955600D02*
D03*
D58*
X00599320Y00870340D02*
D03*
X00610490Y00881350D02*
D03*
X00587890D02*
D03*
X00599390D02*
D03*
Y00859350D02*
D03*
X00587890Y00859550D02*
D03*
X00610490Y00859350D02*
D03*
X00587890Y00870350D02*
D03*
X00610490D02*
D03*
D59*
X00526140Y00899300D02*
D03*
X00544140D02*
D03*
M02*
