%FSAX44Y44*%
%MOMM*%
G71*
G01*
G75*
G04 Layer_Color=2752767*
%ADD10R,0.6000X1.9000*%
%ADD11R,0.3500X0.5000*%
%ADD12R,0.5000X0.3500*%
%ADD13R,3.2000X3.2000*%
%ADD14R,1.4000X1.1000*%
%ADD15R,0.6000X1.2000*%
%ADD16R,1.3000X2.1000*%
%ADD17R,1.0000X1.2000*%
%ADD18R,0.5000X0.5000*%
%ADD19C,1.0000*%
%ADD20R,0.5000X0.5000*%
%ADD21C,0.2600*%
%ADD22C,0.2000*%
%ADD23C,0.1500*%
%ADD24C,0.4500*%
%ADD25C,0.3500*%
%ADD26C,0.1250*%
%ADD27C,0.4000*%
%ADD28C,0.2540*%
%ADD29C,0.3000*%
%ADD30C,0.5000*%
%ADD31C,0.0000*%
%ADD32C,0.1000*%
%ADD33R,1.0000X1.0000*%
%ADD34C,0.3000*%
%ADD35R,1.0000X1.0000*%
%ADD36C,3.0000*%
%ADD37C,0.6000*%
%ADD38C,0.0142*%
%ADD39C,0.0203*%
%ADD40C,0.0081*%
%ADD41R,8.0500X2.8750*%
%ADD42R,7.5500X1.0250*%
%ADD43R,0.7500X2.0500*%
%ADD44R,0.5100X0.6600*%
%ADD45R,0.6600X0.5100*%
%ADD46R,3.3600X3.3600*%
%ADD47R,1.5500X1.2500*%
%ADD48R,0.7600X1.3600*%
%ADD49R,1.4500X2.2500*%
%ADD50R,1.1500X1.3500*%
%ADD51R,0.6500X0.6500*%
%ADD52C,2.0000*%
%ADD53R,0.6500X0.6500*%
%ADD54R,1.1600X1.1600*%
%ADD55C,0.4500*%
%ADD56R,1.1600X1.1600*%
%ADD57C,3.1600*%
%ADD58C,0.7600*%
%ADD59C,1.1600*%
%ADD60R,8.0750X6.6000*%
%ADD61C,1.1500*%
%ADD62C,0.2500*%
%ADD63C,0.1524*%
%ADD64C,0.0800*%
%ADD65C,0.1016*%
D22*
X00967940Y00282760D02*
Y00432640D01*
X00287837Y00282569D02*
X00967836D01*
X00807837Y00465498D02*
Y00522569D01*
X00487940Y00493569D02*
X00761837D01*
X00487940Y00405173D02*
Y00432640D01*
X00287940Y00416569D02*
Y00432640D01*
X00757836Y00493569D02*
X00967940D01*
X00287837Y00372569D02*
X00487836D01*
X00287940Y00282760D02*
Y00416569D01*
Y00613760D02*
X00967940Y00613640D01*
X00287940Y00552640D02*
X00477940Y00552640D01*
X00287940Y00522640D02*
X00477940D01*
X00287940Y00432640D02*
X00477940D01*
X00287940Y00402640D02*
X00477940D01*
X00487940Y00432640D02*
Y00613760D01*
X00287940Y00432640D02*
Y00613760D01*
X00477940Y00552640D02*
X00967940D01*
X00477940Y00522640D02*
X00967940D01*
X00477940Y00432640D02*
X00967940D01*
X00477940Y00402640D02*
X00967940D01*
Y00432640D02*
Y00613640D01*
X00487940Y00372569D02*
Y00405173D01*
X00287940Y00465569D02*
X00967940D01*
X00287940Y00583569D02*
X00967940D01*
X00287940Y00313569D02*
X00967940D01*
X00456937Y00303256D02*
X00454437Y00305755D01*
X00449439D01*
X00446940Y00303256D01*
Y00293259D01*
X00449439Y00290760D01*
X00454437D01*
X00456937Y00293259D01*
X00469433Y00305755D02*
X00464434D01*
X00461935Y00303256D01*
Y00293259D01*
X00464434Y00290760D01*
X00469433D01*
X00471932Y00293259D01*
Y00303256D01*
X00469433Y00305755D01*
X00476930Y00290760D02*
Y00305755D01*
X00481929Y00300757D01*
X00486927Y00305755D01*
Y00290760D01*
X00491925D02*
Y00305755D01*
X00496924Y00300757D01*
X00501922Y00305755D01*
Y00290760D01*
X00516917Y00305755D02*
X00506921D01*
Y00290760D01*
X00516917D01*
X00506921Y00298258D02*
X00511919D01*
X00521916Y00290760D02*
Y00305755D01*
X00529413D01*
X00531912Y00303256D01*
Y00298258D01*
X00529413Y00295758D01*
X00521916D01*
X00526914D02*
X00531912Y00290760D01*
X00546908Y00303256D02*
X00544408Y00305755D01*
X00539410D01*
X00536911Y00303256D01*
Y00293259D01*
X00539410Y00290760D01*
X00544408D01*
X00546908Y00293259D01*
X00551906Y00305755D02*
X00556904D01*
X00554405D01*
Y00290760D01*
X00551906D01*
X00556904D01*
X00564402D02*
Y00300757D01*
X00569400Y00305755D01*
X00574399Y00300757D01*
Y00290760D01*
Y00298258D01*
X00564402D01*
X00579397Y00305755D02*
Y00290760D01*
X00589394D01*
X00609387Y00305755D02*
X00614386D01*
X00611887D01*
Y00290760D01*
X00609387D01*
X00614386D01*
X00621883D02*
Y00305755D01*
X00631880Y00290760D01*
Y00305755D01*
X00661870Y00303256D02*
X00659371Y00305755D01*
X00654373D01*
X00651874Y00303256D01*
Y00293259D01*
X00654373Y00290760D01*
X00659371D01*
X00661870Y00293259D01*
X00674366Y00305755D02*
X00669368D01*
X00666869Y00303256D01*
Y00293259D01*
X00669368Y00290760D01*
X00674366D01*
X00676865Y00293259D01*
Y00303256D01*
X00674366Y00305755D01*
X00681864Y00290760D02*
Y00305755D01*
X00691861Y00290760D01*
Y00305755D01*
X00706856D02*
X00696859D01*
Y00298258D01*
X00701857D01*
X00696859D01*
Y00290760D01*
X00711854Y00305755D02*
X00716853D01*
X00714353D01*
Y00290760D01*
X00711854D01*
X00716853D01*
X00724350Y00305755D02*
Y00290760D01*
X00731848D01*
X00734347Y00293259D01*
Y00303256D01*
X00731848Y00305755D01*
X00724350D01*
X00749342D02*
X00739345D01*
Y00290760D01*
X00749342D01*
X00739345Y00298258D02*
X00744344D01*
X00754341Y00290760D02*
Y00305755D01*
X00764337Y00290760D01*
Y00305755D01*
X00779332Y00303256D02*
X00776833Y00305755D01*
X00771835D01*
X00769336Y00303256D01*
Y00293259D01*
X00771835Y00290760D01*
X00776833D01*
X00779332Y00293259D01*
X00794327Y00305755D02*
X00784331D01*
Y00290760D01*
X00794327D01*
X00784331Y00298258D02*
X00789329D01*
X00298336Y00380569D02*
Y00395564D01*
X00308333Y00380569D01*
Y00395564D01*
X00315831Y00380569D02*
X00320829D01*
X00323328Y00383068D01*
Y00388067D01*
X00320829Y00390566D01*
X00315831D01*
X00313332Y00388067D01*
Y00383068D01*
X00315831Y00380569D01*
X00330826Y00393065D02*
Y00390566D01*
X00328327D01*
X00333325D01*
X00330826D01*
Y00383068D01*
X00333325Y00380569D01*
X00348320D02*
X00343322D01*
X00340823Y00383068D01*
Y00388067D01*
X00343322Y00390566D01*
X00348320D01*
X00350819Y00388067D01*
Y00385568D01*
X00340823D01*
X00355818Y00380569D02*
X00363315D01*
X00365815Y00383068D01*
X00363315Y00385568D01*
X00358317D01*
X00355818Y00388067D01*
X00358317Y00390566D01*
X00365815D01*
X00370813D02*
X00373312D01*
Y00388067D01*
X00370813D01*
Y00390566D01*
Y00383068D02*
X00373312D01*
Y00380569D01*
X00370813D01*
Y00383068D01*
X00298336Y00530569D02*
Y00545564D01*
X00305834D01*
X00308333Y00543065D01*
Y00538067D01*
X00305834Y00535568D01*
X00298336D01*
X00303335D02*
X00308333Y00530569D01*
X00320829D02*
X00315831D01*
X00313332Y00533068D01*
Y00538067D01*
X00315831Y00540566D01*
X00320829D01*
X00323328Y00538067D01*
Y00535568D01*
X00313332D01*
X00328327Y00540566D02*
X00333325Y00530569D01*
X00338324Y00540566D01*
X00343322Y00530569D02*
X00348320D01*
X00345821D01*
Y00540566D01*
X00343322D01*
X00355818Y00530569D02*
X00363315D01*
X00365815Y00533068D01*
X00363315Y00535568D01*
X00358317D01*
X00355818Y00538067D01*
X00358317Y00540566D01*
X00365815D01*
X00370813Y00530569D02*
X00375811D01*
X00373312D01*
Y00540566D01*
X00370813D01*
X00385808Y00530569D02*
X00390807D01*
X00393306Y00533068D01*
Y00538067D01*
X00390807Y00540566D01*
X00385808D01*
X00383309Y00538067D01*
Y00533068D01*
X00385808Y00530569D01*
X00398304D02*
Y00540566D01*
X00405802D01*
X00408301Y00538067D01*
Y00530569D01*
X00413299Y00540566D02*
X00415798D01*
Y00538067D01*
X00413299D01*
Y00540566D01*
Y00533068D02*
X00415798D01*
Y00530569D01*
X00413299D01*
Y00533068D01*
X00298336Y00516564D02*
Y00501569D01*
X00308333D01*
X00315831Y00511566D02*
X00320829D01*
X00323328Y00509067D01*
Y00501569D01*
X00315831D01*
X00313332Y00504068D01*
X00315831Y00506567D01*
X00323328D01*
X00328327Y00511566D02*
Y00504068D01*
X00330826Y00501569D01*
X00338324D01*
Y00499070D01*
X00335824Y00496571D01*
X00333325D01*
X00338324Y00501569D02*
Y00511566D01*
X00350819Y00501569D02*
X00345821D01*
X00343322Y00504068D01*
Y00509067D01*
X00345821Y00511566D01*
X00350819D01*
X00353319Y00509067D01*
Y00506567D01*
X00343322D01*
X00358317Y00511566D02*
Y00501569D01*
Y00506567D01*
X00360816Y00509067D01*
X00363315Y00511566D01*
X00365815D01*
X00373312D02*
X00375811D01*
Y00509067D01*
X00373312D01*
Y00511566D01*
Y00504068D02*
X00375811D01*
Y00501569D01*
X00373312D01*
Y00504068D01*
X00298836Y00458564D02*
Y00443569D01*
X00306334D01*
X00308833Y00446068D01*
Y00456065D01*
X00306334Y00458564D01*
X00298836D01*
X00321329Y00443569D02*
X00316331D01*
X00313832Y00446068D01*
Y00451067D01*
X00316331Y00453566D01*
X00321329D01*
X00323828Y00451067D01*
Y00448568D01*
X00313832D01*
X00328827Y00443569D02*
X00336324D01*
X00338824Y00446068D01*
X00336324Y00448568D01*
X00331326D01*
X00328827Y00451067D01*
X00331326Y00453566D01*
X00338824D01*
X00343822Y00443569D02*
X00348820D01*
X00346321D01*
Y00453566D01*
X00343822D01*
X00361316Y00438571D02*
X00363815D01*
X00366315Y00441070D01*
Y00453566D01*
X00358817D01*
X00356318Y00451067D01*
Y00446068D01*
X00358817Y00443569D01*
X00366315D01*
X00371313D02*
Y00453566D01*
X00378811D01*
X00381310Y00451067D01*
Y00443569D01*
X00393806D02*
X00388807D01*
X00386308Y00446068D01*
Y00451067D01*
X00388807Y00453566D01*
X00393806D01*
X00396305Y00451067D01*
Y00448568D01*
X00386308D01*
X00411300Y00458564D02*
Y00443569D01*
X00403802D01*
X00401303Y00446068D01*
Y00451067D01*
X00403802Y00453566D01*
X00411300D01*
X00431293Y00458564D02*
Y00443569D01*
X00438791D01*
X00441290Y00446068D01*
Y00448568D01*
X00438791Y00451067D01*
X00431293D01*
X00438791D01*
X00441290Y00453566D01*
Y00456065D01*
X00438791Y00458564D01*
X00431293D01*
X00446289Y00453566D02*
Y00446068D01*
X00448788Y00443569D01*
X00456285D01*
Y00441070D01*
X00453786Y00438571D01*
X00451287D01*
X00456285Y00443569D02*
Y00453566D01*
X00461284D02*
X00463783D01*
Y00451067D01*
X00461284D01*
Y00453566D01*
Y00446068D02*
X00463783D01*
Y00443569D01*
X00461284D01*
Y00446068D01*
X00298336Y00425564D02*
Y00410569D01*
X00305834D01*
X00308333Y00413068D01*
Y00423065D01*
X00305834Y00425564D01*
X00298336D01*
X00315831Y00420566D02*
X00320829D01*
X00323328Y00418067D01*
Y00410569D01*
X00315831D01*
X00313332Y00413068D01*
X00315831Y00415568D01*
X00323328D01*
X00330826Y00423065D02*
Y00420566D01*
X00328327D01*
X00333325D01*
X00330826D01*
Y00413068D01*
X00333325Y00410569D01*
X00348320D02*
X00343322D01*
X00340823Y00413068D01*
Y00418067D01*
X00343322Y00420566D01*
X00348320D01*
X00350819Y00418067D01*
Y00415568D01*
X00340823D01*
X00355818Y00420566D02*
X00358317D01*
Y00418067D01*
X00355818D01*
Y00420566D01*
Y00413068D02*
X00358317D01*
Y00410569D01*
X00355818D01*
Y00413068D01*
X00507937Y00455136D02*
X00505438Y00457635D01*
X00500439D01*
X00497940Y00455136D01*
Y00445139D01*
X00500439Y00442640D01*
X00505438D01*
X00507937Y00445139D01*
X00522932Y00455136D02*
X00520433Y00457635D01*
X00515434D01*
X00512935Y00455136D01*
Y00452637D01*
X00515434Y00450137D01*
X00520433D01*
X00522932Y00447638D01*
Y00445139D01*
X00520433Y00442640D01*
X00515434D01*
X00512935Y00445139D01*
X00527930Y00442640D02*
Y00457635D01*
X00535428D01*
X00537927Y00455136D01*
Y00450137D01*
X00535428Y00447638D01*
X00527930D01*
X00532929D02*
X00537927Y00442640D01*
X00582912Y00455136D02*
X00580413Y00457635D01*
X00575415D01*
X00572916Y00455136D01*
Y00445139D01*
X00575415Y00442640D01*
X00580413D01*
X00582912Y00445139D01*
X00590410Y00452637D02*
X00595409D01*
X00597908Y00450137D01*
Y00442640D01*
X00590410D01*
X00587911Y00445139D01*
X00590410Y00447638D01*
X00597908D01*
X00602906Y00442640D02*
Y00452637D01*
X00605405D01*
X00607904Y00450137D01*
Y00442640D01*
Y00450137D01*
X00610404Y00452637D01*
X00612903Y00450137D01*
Y00442640D01*
X00617901Y00457635D02*
Y00442640D01*
X00625399D01*
X00627898Y00445139D01*
Y00447638D01*
Y00450137D01*
X00625399Y00452637D01*
X00617901D01*
X00632896D02*
Y00442640D01*
Y00447638D01*
X00635396Y00450137D01*
X00637895Y00452637D01*
X00640394D01*
X00647891Y00442640D02*
X00652890D01*
X00650391D01*
Y00452637D01*
X00647891D01*
X00670384Y00457635D02*
Y00442640D01*
X00662887D01*
X00660387Y00445139D01*
Y00450137D01*
X00662887Y00452637D01*
X00670384D01*
X00680381Y00437641D02*
X00682880D01*
X00685379Y00440141D01*
Y00452637D01*
X00677882D01*
X00675383Y00450137D01*
Y00445139D01*
X00677882Y00442640D01*
X00685379D01*
X00697875D02*
X00692877D01*
X00690378Y00445139D01*
Y00450137D01*
X00692877Y00452637D01*
X00697875D01*
X00700375Y00450137D01*
Y00447638D01*
X00690378D01*
X00707872Y00440141D02*
X00710371Y00442640D01*
Y00445139D01*
X00707872D01*
Y00442640D01*
X00710371D01*
X00707872Y00440141D01*
X00705373Y00437641D01*
X00735363Y00457635D02*
Y00445139D01*
X00737862Y00442640D01*
X00742861D01*
X00745360Y00445139D01*
Y00457635D01*
X00750358D02*
Y00442640D01*
Y00447638D01*
X00760355Y00457635D01*
X00752858Y00450137D01*
X00760355Y00442640D01*
X00824837Y00500569D02*
Y00515564D01*
X00829835Y00510566D01*
X00834834Y00515564D01*
Y00500569D01*
X00849829Y00515564D02*
X00839832D01*
Y00500569D01*
X00849829D01*
X00839832Y00508067D02*
X00844830D01*
X00864824Y00513065D02*
X00862325Y00515564D01*
X00857327D01*
X00854827Y00513065D01*
Y00503068D01*
X00857327Y00500569D01*
X00862325D01*
X00864824Y00503068D01*
X00869822Y00515564D02*
Y00500569D01*
Y00508067D01*
X00879819D01*
Y00515564D01*
Y00500569D01*
X00902312D02*
Y00515564D01*
X00907310D02*
Y00500569D01*
X00899813Y00510566D02*
X00907310D01*
X00909809D01*
X00899813Y00505567D02*
X00909809D01*
X00924805Y00515564D02*
X00919806Y00513065D01*
X00914808Y00508067D01*
Y00503068D01*
X00917307Y00500569D01*
X00922305D01*
X00924805Y00503068D01*
Y00505567D01*
X00922305Y00508067D01*
X00914808D01*
X00298336Y00575564D02*
Y00560569D01*
X00305834D01*
X00308333Y00563068D01*
Y00565568D01*
X00305834Y00568067D01*
X00298336D01*
X00305834D01*
X00308333Y00570566D01*
Y00573065D01*
X00305834Y00575564D01*
X00298336D01*
X00315831Y00560569D02*
X00320829D01*
X00323328Y00563068D01*
Y00568067D01*
X00320829Y00570566D01*
X00315831D01*
X00313332Y00568067D01*
Y00563068D01*
X00315831Y00560569D01*
X00330826Y00570566D02*
X00335824D01*
X00338324Y00568067D01*
Y00560569D01*
X00330826D01*
X00328327Y00563068D01*
X00330826Y00565568D01*
X00338324D01*
X00343322Y00570566D02*
Y00560569D01*
Y00565568D01*
X00345821Y00568067D01*
X00348320Y00570566D01*
X00350819D01*
X00368314Y00575564D02*
Y00560569D01*
X00360816D01*
X00358317Y00563068D01*
Y00568067D01*
X00360816Y00570566D01*
X00368314D01*
X00388307Y00560569D02*
Y00575564D01*
X00398304Y00560569D01*
Y00575564D01*
X00405802Y00560569D02*
X00410800D01*
X00413299Y00563068D01*
Y00568067D01*
X00410800Y00570566D01*
X00405802D01*
X00403302Y00568067D01*
Y00563068D01*
X00405802Y00560569D01*
X00418298Y00570566D02*
X00420797D01*
Y00568067D01*
X00418298D01*
Y00570566D01*
Y00563068D02*
X00420797D01*
Y00560569D01*
X00418298D01*
Y00563068D01*
X00307937Y00364256D02*
X00305438Y00366755D01*
X00300439D01*
X00297940Y00364256D01*
Y00354259D01*
X00300439Y00351760D01*
X00305438D01*
X00307937Y00354259D01*
X00322932Y00364256D02*
X00320433Y00366755D01*
X00315434D01*
X00312935Y00364256D01*
Y00361757D01*
X00315434Y00359258D01*
X00320433D01*
X00322932Y00356758D01*
Y00354259D01*
X00320433Y00351760D01*
X00315434D01*
X00312935Y00354259D01*
X00327930Y00351760D02*
Y00366755D01*
X00335428D01*
X00337927Y00364256D01*
Y00359258D01*
X00335428Y00356758D01*
X00327930D01*
X00332929D02*
X00337927Y00351760D01*
X00367917Y00364256D02*
X00365418Y00366755D01*
X00360420D01*
X00357921Y00364256D01*
Y00354259D01*
X00360420Y00351760D01*
X00365418D01*
X00367917Y00354259D01*
X00375415Y00351760D02*
X00380413D01*
X00382912Y00354259D01*
Y00359258D01*
X00380413Y00361757D01*
X00375415D01*
X00372916Y00359258D01*
Y00354259D01*
X00375415Y00351760D01*
X00387911D02*
Y00361757D01*
X00395408D01*
X00397908Y00359258D01*
Y00351760D01*
X00405405Y00364256D02*
Y00361757D01*
X00402906D01*
X00407904D01*
X00405405D01*
Y00354259D01*
X00407904Y00351760D01*
X00417901Y00361757D02*
X00422900D01*
X00425399Y00359258D01*
Y00351760D01*
X00417901D01*
X00415402Y00354259D01*
X00417901Y00356758D01*
X00425399D01*
X00440394Y00361757D02*
X00432896D01*
X00430397Y00359258D01*
Y00354259D01*
X00432896Y00351760D01*
X00440394D01*
X00447891Y00364256D02*
Y00361757D01*
X00445392D01*
X00450391D01*
X00447891D01*
Y00354259D01*
X00450391Y00351760D01*
X00472883Y00356758D02*
X00482880D01*
X00472883Y00361757D02*
X00482880D01*
X00787781Y00364256D02*
X00790281Y00366755D01*
X00795279D01*
X00797778Y00364256D01*
Y00354259D01*
X00795279Y00351760D01*
X00790281D01*
X00787781Y00354259D01*
Y00364256D01*
X00802776Y00351760D02*
X00807775D01*
X00805276D01*
Y00366755D01*
X00802776Y00364256D01*
X00825269Y00351760D02*
X00815273D01*
X00825269Y00361757D01*
Y00364256D01*
X00822770Y00366755D01*
X00817772D01*
X00815273Y00364256D01*
X00840264Y00351760D02*
X00830268D01*
X00840264Y00361757D01*
Y00364256D01*
X00837765Y00366755D01*
X00832767D01*
X00830268Y00364256D01*
X00845263D02*
X00847762Y00366755D01*
X00852760D01*
X00855259Y00364256D01*
Y00361757D01*
X00852760Y00359258D01*
X00850261D01*
X00852760D01*
X00855259Y00356758D01*
Y00354259D01*
X00852760Y00351760D01*
X00847762D01*
X00845263Y00354259D01*
X00885250Y00366755D02*
X00880251Y00364256D01*
X00875253Y00359258D01*
Y00354259D01*
X00877752Y00351760D01*
X00882751D01*
X00885250Y00354259D01*
Y00356758D01*
X00882751Y00359258D01*
X00875253D01*
X00890248Y00354259D02*
X00892747Y00351760D01*
X00897746D01*
X00900245Y00354259D01*
Y00364256D01*
X00897746Y00366755D01*
X00892747D01*
X00890248Y00364256D01*
Y00361757D01*
X00892747Y00359258D01*
X00900245D01*
X00915240Y00351760D02*
X00905243D01*
X00915240Y00361757D01*
Y00364256D01*
X00912741Y00366755D01*
X00907742D01*
X00905243Y00364256D01*
X00920238D02*
X00922738Y00366755D01*
X00927736D01*
X00930235Y00364256D01*
Y00354259D01*
X00927736Y00351760D01*
X00922738D01*
X00920238Y00354259D01*
Y00364256D01*
X00935234D02*
X00937733Y00366755D01*
X00942731D01*
X00945230Y00364256D01*
Y00354259D01*
X00942731Y00351760D01*
X00937733D01*
X00935234Y00354259D01*
Y00364256D01*
X00950229D02*
X00952728Y00366755D01*
X00957726D01*
X00960226Y00364256D01*
Y00354259D01*
X00957726Y00351760D01*
X00952728D01*
X00950229Y00354259D01*
Y00364256D01*
X00297940Y00591760D02*
Y00606755D01*
X00305438D01*
X00307937Y00604256D01*
Y00599258D01*
X00305438Y00596758D01*
X00297940D01*
X00312935Y00601757D02*
Y00591760D01*
Y00596758D01*
X00315434Y00599258D01*
X00317934Y00601757D01*
X00320433D01*
X00330429Y00591760D02*
X00335428D01*
X00337927Y00594259D01*
Y00599258D01*
X00335428Y00601757D01*
X00330429D01*
X00327930Y00599258D01*
Y00594259D01*
X00330429Y00591760D01*
X00342925Y00586762D02*
X00345425D01*
X00347924Y00589261D01*
Y00601757D01*
X00365418Y00591760D02*
X00360420D01*
X00357921Y00594259D01*
Y00599258D01*
X00360420Y00601757D01*
X00365418D01*
X00367917Y00599258D01*
Y00596758D01*
X00357921D01*
X00382912Y00601757D02*
X00375415D01*
X00372916Y00599258D01*
Y00594259D01*
X00375415Y00591760D01*
X00382912D01*
X00390410Y00604256D02*
Y00601757D01*
X00387911D01*
X00392909D01*
X00390410D01*
Y00594259D01*
X00392909Y00591760D01*
X00415402D02*
Y00606755D01*
X00425399Y00591760D01*
Y00606755D01*
X00432896Y00601757D02*
X00437895D01*
X00440394Y00599258D01*
Y00591760D01*
X00432896D01*
X00430397Y00594259D01*
X00432896Y00596758D01*
X00440394D01*
X00445392Y00591760D02*
Y00601757D01*
X00447891D01*
X00450391Y00599258D01*
Y00591760D01*
Y00599258D01*
X00452890Y00601757D01*
X00455389Y00599258D01*
Y00591760D01*
X00467885D02*
X00462887D01*
X00460387Y00594259D01*
Y00599258D01*
X00462887Y00601757D01*
X00467885D01*
X00470384Y00599258D01*
Y00596758D01*
X00460387D01*
X00475382Y00601757D02*
X00477882D01*
Y00599258D01*
X00475382D01*
Y00601757D01*
Y00594259D02*
X00477882D01*
Y00591760D01*
X00475382D01*
Y00594259D01*
D23*
X00434140Y00800600D02*
Y00980600D01*
X00689140D01*
Y00800600D02*
Y00980600D01*
X00434140Y00800600D02*
X00689140D01*
D28*
X00505070Y00516085D02*
Y00500850D01*
X00512687D01*
X00515227Y00503389D01*
Y00505928D01*
X00512687Y00508467D01*
X00505070D01*
X00512687D01*
X00515227Y00511007D01*
Y00513546D01*
X00512687Y00516085D01*
X00505070D01*
X00522844Y00500850D02*
X00527923D01*
X00530462Y00503389D01*
Y00508467D01*
X00527923Y00511007D01*
X00522844D01*
X00520305Y00508467D01*
Y00503389D01*
X00522844Y00500850D01*
X00538079Y00511007D02*
X00543158D01*
X00545697Y00508467D01*
Y00500850D01*
X00538079D01*
X00535540Y00503389D01*
X00538079Y00505928D01*
X00545697D01*
X00550775Y00511007D02*
Y00500850D01*
Y00505928D01*
X00553314Y00508467D01*
X00555854Y00511007D01*
X00558393D01*
X00576167Y00516085D02*
Y00500850D01*
X00568549D01*
X00566010Y00503389D01*
Y00508467D01*
X00568549Y00511007D01*
X00576167D01*
X00596480Y00500850D02*
Y00516085D01*
X00604098D01*
X00606637Y00513546D01*
Y00508467D01*
X00604098Y00505928D01*
X00596480D01*
X00611716Y00511007D02*
Y00500850D01*
Y00505928D01*
X00614255Y00508467D01*
X00616794Y00511007D01*
X00619333D01*
X00629490Y00500850D02*
X00634568D01*
X00637107Y00503389D01*
Y00508467D01*
X00634568Y00511007D01*
X00629490D01*
X00626951Y00508467D01*
Y00503389D01*
X00629490Y00500850D01*
X00644725D02*
Y00513546D01*
Y00508467D01*
X00642186D01*
X00647264D01*
X00644725D01*
Y00513546D01*
X00647264Y00516085D01*
X00654882Y00500850D02*
X00659960D01*
X00657421D01*
Y00511007D01*
X00654882D01*
X00667577Y00500850D02*
X00672656D01*
X00670117D01*
Y00516085D01*
X00667577D01*
X00687891Y00500850D02*
X00682812D01*
X00680273Y00503389D01*
Y00508467D01*
X00682812Y00511007D01*
X00687891D01*
X00690430Y00508467D01*
Y00505928D01*
X00680273D01*
X00506097Y00605456D02*
X00503558Y00607995D01*
X00498479D01*
X00495940Y00605456D01*
Y00595299D01*
X00498479Y00592760D01*
X00503558D01*
X00506097Y00595299D01*
X00521332Y00605456D02*
X00518793Y00607995D01*
X00513714D01*
X00511175Y00605456D01*
Y00602917D01*
X00513714Y00600378D01*
X00518793D01*
X00521332Y00597838D01*
Y00595299D01*
X00518793Y00592760D01*
X00513714D01*
X00511175Y00595299D01*
X00526410Y00592760D02*
Y00607995D01*
X00534028D01*
X00536567Y00605456D01*
Y00600378D01*
X00534028Y00597838D01*
X00526410D01*
X00531488D02*
X00536567Y00592760D01*
X00541645D02*
X00546724D01*
X00544184D01*
Y00607995D01*
X00541645Y00605456D01*
X00554341D02*
X00556880Y00607995D01*
X00561959D01*
X00564498Y00605456D01*
Y00595299D01*
X00561959Y00592760D01*
X00556880D01*
X00554341Y00595299D01*
Y00605456D01*
X00569576D02*
X00572115Y00607995D01*
X00577194D01*
X00579733Y00605456D01*
Y00595299D01*
X00577194Y00592760D01*
X00572115D01*
X00569576Y00595299D01*
Y00605456D01*
X00584811D02*
X00587350Y00607995D01*
X00592429D01*
X00594968Y00605456D01*
Y00595299D01*
X00592429Y00592760D01*
X00587350D01*
X00584811Y00595299D01*
Y00605456D01*
X00615281Y00592760D02*
Y00607995D01*
X00620360Y00602917D01*
X00625438Y00607995D01*
Y00592760D01*
X00633056Y00602917D02*
X00638134D01*
X00640673Y00600378D01*
Y00592760D01*
X00633056D01*
X00630517Y00595299D01*
X00633056Y00597838D01*
X00640673D01*
X00645751Y00592760D02*
X00653369D01*
X00655908Y00595299D01*
X00653369Y00597838D01*
X00648291D01*
X00645751Y00600378D01*
X00648291Y00602917D01*
X00655908D01*
X00660987Y00592760D02*
X00668604D01*
X00671143Y00595299D01*
X00668604Y00597838D01*
X00663526D01*
X00660987Y00600378D01*
X00663526Y00602917D01*
X00671143D01*
X00691457Y00592760D02*
Y00607995D01*
X00699074D01*
X00701613Y00605456D01*
Y00600378D01*
X00699074Y00597838D01*
X00691457D01*
X00706692Y00602917D02*
Y00592760D01*
Y00597838D01*
X00709231Y00600378D01*
X00711770Y00602917D01*
X00714309D01*
X00724466Y00592760D02*
X00729544D01*
X00732084Y00595299D01*
Y00600378D01*
X00729544Y00602917D01*
X00724466D01*
X00721927Y00600378D01*
Y00595299D01*
X00724466Y00592760D01*
X00747319Y00607995D02*
Y00592760D01*
X00739701D01*
X00737162Y00595299D01*
Y00600378D01*
X00739701Y00602917D01*
X00747319D01*
X00752397D02*
Y00595299D01*
X00754936Y00592760D01*
X00762554D01*
Y00602917D01*
X00777789D02*
X00770171D01*
X00767632Y00600378D01*
Y00595299D01*
X00770171Y00592760D01*
X00777789D01*
X00785406Y00605456D02*
Y00602917D01*
X00782867D01*
X00787945D01*
X00785406D01*
Y00595299D01*
X00787945Y00592760D01*
X00795563D02*
X00800641D01*
X00798102D01*
Y00602917D01*
X00795563D01*
X00810798Y00592760D02*
X00815876D01*
X00818416Y00595299D01*
Y00600378D01*
X00815876Y00602917D01*
X00810798D01*
X00808259Y00600378D01*
Y00595299D01*
X00810798Y00592760D01*
X00823494D02*
Y00602917D01*
X00831112D01*
X00833651Y00600378D01*
Y00592760D01*
X00853964D02*
Y00607995D01*
X00859043Y00602917D01*
X00864121Y00607995D01*
Y00592760D01*
X00871738D02*
X00876817D01*
X00879356Y00595299D01*
Y00600378D01*
X00876817Y00602917D01*
X00871738D01*
X00869199Y00600378D01*
Y00595299D01*
X00871738Y00592760D01*
X00894591Y00607995D02*
Y00592760D01*
X00886973D01*
X00884434Y00595299D01*
Y00600378D01*
X00886973Y00602917D01*
X00894591D01*
X00899669D02*
Y00595299D01*
X00902209Y00592760D01*
X00909826D01*
Y00602917D01*
X00914904Y00592760D02*
X00919983D01*
X00917444D01*
Y00607995D01*
X00914904D01*
X00935218Y00592760D02*
X00930139D01*
X00927600Y00595299D01*
Y00600378D01*
X00930139Y00602917D01*
X00935218D01*
X00937757Y00600378D01*
Y00597838D01*
X00927600D01*
X00505097Y00573706D02*
X00502557Y00576245D01*
X00497479D01*
X00494940Y00573706D01*
Y00563549D01*
X00497479Y00561010D01*
X00502557D01*
X00505097Y00563549D01*
X00510175Y00561010D02*
Y00576245D01*
X00520332Y00561010D01*
Y00576245D01*
X00535567Y00573706D02*
X00533028Y00576245D01*
X00527949D01*
X00525410Y00573706D01*
Y00571167D01*
X00527949Y00568628D01*
X00533028D01*
X00535567Y00566088D01*
Y00563549D01*
X00533028Y00561010D01*
X00527949D01*
X00525410Y00563549D01*
X00540645Y00561010D02*
X00545724D01*
X00543184D01*
Y00576245D01*
X00540645Y00573706D01*
X00563498Y00561010D02*
X00553341D01*
X00563498Y00571167D01*
Y00573706D01*
X00560959Y00576245D01*
X00555880D01*
X00553341Y00573706D01*
X00568576D02*
X00571115Y00576245D01*
X00576194D01*
X00578733Y00573706D01*
Y00563549D01*
X00576194Y00561010D01*
X00571115D01*
X00568576Y00563549D01*
Y00573706D01*
X00583811Y00561010D02*
X00588890D01*
X00586350D01*
Y00576245D01*
X00583811Y00573706D01*
X00596507Y00561010D02*
X00601586D01*
X00599046D01*
Y00576245D01*
X00596507Y00573706D01*
X00495690Y00545495D02*
Y00535338D01*
X00500768Y00530260D01*
X00505847Y00535338D01*
Y00545495D01*
X00521082Y00530260D02*
X00510925D01*
X00521082Y00540417D01*
Y00542956D01*
X00518543Y00545495D01*
X00513464D01*
X00510925Y00542956D01*
X00513847Y00368956D02*
X00511307Y00371495D01*
X00506229D01*
X00503690Y00368956D01*
Y00358799D01*
X00506229Y00356260D01*
X00511307D01*
X00513847Y00358799D01*
X00529082Y00368956D02*
X00526543Y00371495D01*
X00521464D01*
X00518925Y00368956D01*
Y00366417D01*
X00521464Y00363877D01*
X00526543D01*
X00529082Y00361338D01*
Y00358799D01*
X00526543Y00356260D01*
X00521464D01*
X00518925Y00358799D01*
X00534160Y00356260D02*
Y00371495D01*
X00541778D01*
X00544317Y00368956D01*
Y00363877D01*
X00541778Y00361338D01*
X00534160D01*
X00539239D02*
X00544317Y00356260D01*
X00506307Y00426245D02*
X00501229D01*
X00498690Y00423706D01*
Y00413549D01*
X00501229Y00411010D01*
X00506307D01*
X00508847Y00413549D01*
Y00423706D01*
X00506307Y00426245D01*
X00524082Y00421167D02*
X00516464D01*
X00513925Y00418628D01*
Y00413549D01*
X00516464Y00411010D01*
X00524082D01*
X00531699Y00423706D02*
Y00421167D01*
X00529160D01*
X00534239D01*
X00531699D01*
Y00413549D01*
X00534239Y00411010D01*
X00567248D02*
X00557091D01*
X00567248Y00421167D01*
Y00423706D01*
X00564709Y00426245D01*
X00559630D01*
X00557091Y00423706D01*
X00572326D02*
X00574865Y00426245D01*
X00579944D01*
X00582483Y00423706D01*
Y00413549D01*
X00579944Y00411010D01*
X00574865D01*
X00572326Y00413549D01*
Y00423706D01*
X00587561Y00411010D02*
X00592640D01*
X00590100D01*
Y00426245D01*
X00587561Y00423706D01*
X00600257Y00411010D02*
X00605336D01*
X00602796D01*
Y00426245D01*
X00600257Y00423706D01*
X00600240Y00489525D02*
Y00474290D01*
X00607858D01*
X00610397Y00476829D01*
Y00486986D01*
X00607858Y00489525D01*
X00600240D01*
X00615475Y00484447D02*
Y00474290D01*
Y00479368D01*
X00618014Y00481908D01*
X00620553Y00484447D01*
X00623093D01*
X00630710Y00474290D02*
X00635788D01*
X00633249D01*
Y00484447D01*
X00630710D01*
X00643406Y00474290D02*
X00648484D01*
X00645945D01*
Y00489525D01*
X00643406D01*
X00656102Y00474290D02*
X00661180D01*
X00658641D01*
Y00489525D01*
X00656102D01*
X00684033D02*
Y00474290D01*
X00691650D01*
X00694190Y00476829D01*
Y00486986D01*
X00691650Y00489525D01*
X00684033D01*
X00699268Y00484447D02*
Y00474290D01*
Y00479368D01*
X00701807Y00481908D01*
X00704346Y00484447D01*
X00706886D01*
X00717042D02*
X00722121D01*
X00724660Y00481908D01*
Y00474290D01*
X00717042D01*
X00714503Y00476829D01*
X00717042Y00479368D01*
X00724660D01*
X00729738Y00484447D02*
Y00476829D01*
X00732277Y00474290D01*
X00734816Y00476829D01*
X00737356Y00474290D01*
X00739895Y00476829D01*
Y00484447D01*
X00744973Y00474290D02*
X00750051D01*
X00747512D01*
Y00484447D01*
X00744973D01*
X00757669Y00474290D02*
Y00484447D01*
X00765287D01*
X00767826Y00481908D01*
Y00474290D01*
X00777982Y00469212D02*
X00780522D01*
X00783061Y00471751D01*
Y00484447D01*
X00775443D01*
X00772904Y00481908D01*
Y00476829D01*
X00775443Y00474290D01*
X00783061D01*
D31*
X00653980Y00980600D02*
X00674300D01*
X00613980D02*
X00634300D01*
X00513980Y00800600D02*
X00534300D01*
X00573980D02*
X00594300D01*
X00553980D02*
X00574300D01*
X00533980D02*
X00554300D01*
X00593980D02*
X00614300D01*
X00613980D02*
X00634300D01*
X00633980D02*
X00654300D01*
X00653980D02*
X00674300D01*
X00689140Y00820440D02*
Y00840760D01*
Y00840440D02*
Y00860760D01*
Y00860440D02*
Y00880760D01*
Y00880440D02*
Y00900760D01*
Y00900440D02*
Y00920760D01*
Y00920440D02*
Y00940760D01*
Y00940690D02*
Y00961010D01*
X00593980Y00980600D02*
X00614300D01*
X00573980D02*
X00594300D01*
D32*
X00441640Y00995600D02*
X00681640D01*
X00703890Y00973350D02*
X00704140Y00807600D01*
X00441140Y00785600D02*
X00682140D01*
X00419140Y00807600D02*
Y00973600D01*
D64*
X00661092Y00977552D02*
Y00983648D01*
X00667188D01*
Y00977552D01*
X00661092D01*
X00641092D02*
Y00983648D01*
X00647188D01*
Y00977552D01*
X00641092D01*
X00551092D02*
Y00983648D01*
X00557188D01*
Y00977552D01*
X00551092D01*
X00621092D02*
Y00983648D01*
X00627188D01*
Y00977552D01*
X00621092D01*
X00521092Y00797552D02*
Y00803648D01*
X00527188D01*
Y00797552D01*
X00521092D01*
X00581092D02*
Y00803648D01*
X00587188D01*
Y00797552D01*
X00581092D01*
X00561092D02*
Y00803648D01*
X00567188D01*
Y00797552D01*
X00561092D01*
X00541092D02*
Y00803648D01*
X00547188D01*
Y00797552D01*
X00541092D01*
X00601092D02*
Y00803648D01*
X00607188D01*
Y00797552D01*
X00601092D01*
X00621092D02*
Y00803648D01*
X00627188D01*
Y00797552D01*
X00621092D01*
X00641092D02*
Y00803648D01*
X00647188D01*
Y00797552D01*
X00641092D01*
X00661092D02*
Y00803648D01*
X00667188D01*
Y00797552D01*
X00661092D01*
X00686092Y00827552D02*
Y00833648D01*
X00692188D01*
Y00827552D01*
X00686092D01*
Y00847552D02*
Y00853648D01*
X00692188D01*
Y00847552D01*
X00686092D01*
Y00867552D02*
Y00873648D01*
X00692188D01*
Y00867552D01*
X00686092D01*
Y00887552D02*
Y00893648D01*
X00692188D01*
Y00887552D01*
X00686092D01*
Y00907552D02*
Y00913648D01*
X00692188D01*
Y00907552D01*
X00686092D01*
Y00927552D02*
Y00933648D01*
X00692188D01*
Y00927552D01*
X00686092D01*
Y00947802D02*
Y00953898D01*
X00692188D01*
Y00947802D01*
X00686092D01*
X00601092Y00977552D02*
Y00983648D01*
X00607188D01*
Y00977552D01*
X00601092D01*
X00581092D02*
Y00983648D01*
X00587188D01*
Y00977552D01*
X00581092D01*
X00459140Y00952552D02*
X00456092Y00958648D01*
X00462188D01*
X00459140Y00952552D01*
X00659440Y00920552D02*
X00660964Y00922076D01*
X00662488D01*
X00660964Y00923600D01*
X00662488Y00925124D01*
X00660964D01*
X00659440Y00926648D01*
X00657916Y00925124D01*
X00656392D01*
X00657916Y00923600D01*
X00656392Y00922076D01*
X00657916D01*
X00659440Y00920552D01*
X00535440Y00847152D02*
X00536964Y00848676D01*
X00538488D01*
X00536964Y00850200D01*
X00538488Y00851724D01*
X00536964D01*
X00535440Y00853248D01*
X00533916Y00851724D01*
X00532392D01*
X00533916Y00850200D01*
X00532392Y00848676D01*
X00533916D01*
X00535440Y00847152D01*
X00602840Y00954052D02*
X00604364Y00955576D01*
X00605888D01*
X00604364Y00957100D01*
X00605888Y00958624D01*
X00604364D01*
X00602840Y00960148D01*
X00601316Y00958624D01*
X00599792D01*
X00601316Y00957100D01*
X00599792Y00955576D01*
X00601316D01*
X00602840Y00954052D01*
X00562540Y00965552D02*
X00564064Y00967076D01*
X00565588D01*
X00564064Y00968600D01*
X00565588Y00970124D01*
X00564064D01*
X00562540Y00971648D01*
X00561016Y00970124D01*
X00559492D01*
X00561016Y00968600D01*
X00559492Y00967076D01*
X00561016D01*
X00562540Y00965552D01*
X00525840Y00846952D02*
X00527364Y00848476D01*
X00528888D01*
X00527364Y00850000D01*
X00528888Y00851524D01*
X00527364D01*
X00525840Y00853048D01*
X00524316Y00851524D01*
X00522792D01*
X00524316Y00850000D01*
X00522792Y00848476D01*
X00524316D01*
X00525840Y00846952D01*
X00559440Y00847852D02*
X00560964Y00849376D01*
X00562488D01*
X00560964Y00850900D01*
X00562488Y00852424D01*
X00560964D01*
X00559440Y00853948D01*
X00557916Y00852424D01*
X00556392D01*
X00557916Y00850900D01*
X00556392Y00849376D01*
X00557916D01*
X00559440Y00847852D01*
X00603890Y00920552D02*
X00605414Y00922076D01*
X00606938D01*
X00605414Y00923600D01*
X00606938Y00925124D01*
X00605414D01*
X00603890Y00926648D01*
X00602366Y00925124D01*
X00600842D01*
X00602366Y00923600D01*
X00600842Y00922076D01*
X00602366D01*
X00603890Y00920552D01*
X00629890Y00966552D02*
X00631414Y00968076D01*
X00632938D01*
X00631414Y00969600D01*
X00632938Y00971124D01*
X00631414D01*
X00629890Y00972648D01*
X00628366Y00971124D01*
X00626842D01*
X00628366Y00969600D01*
X00626842Y00968076D01*
X00628366D01*
X00629890Y00966552D01*
X00652890Y00960552D02*
X00654414Y00962076D01*
X00655938D01*
X00654414Y00963600D01*
X00655938Y00965124D01*
X00654414D01*
X00652890Y00966648D01*
X00651366Y00965124D01*
X00649842D01*
X00651366Y00963600D01*
X00649842Y00962076D01*
X00651366D01*
X00652890Y00960552D01*
X00635040Y00832952D02*
X00636564Y00834476D01*
X00638088D01*
X00636564Y00836000D01*
X00638088Y00837524D01*
X00636564D01*
X00635040Y00839048D01*
X00633516Y00837524D01*
X00631992D01*
X00633516Y00836000D01*
X00631992Y00834476D01*
X00633516D01*
X00635040Y00832952D01*
X00637940Y00814952D02*
X00639464Y00816476D01*
X00640988D01*
X00639464Y00818000D01*
X00640988Y00819524D01*
X00639464D01*
X00637940Y00821048D01*
X00636416Y00819524D01*
X00634892D01*
X00636416Y00818000D01*
X00634892Y00816476D01*
X00636416D01*
X00637940Y00814952D01*
X00629890Y00821552D02*
X00631414Y00823076D01*
X00632938D01*
X00631414Y00824600D01*
X00632938Y00826124D01*
X00631414D01*
X00629890Y00827648D01*
X00628366Y00826124D01*
X00626842D01*
X00628366Y00824600D01*
X00626842Y00823076D01*
X00628366D01*
X00629890Y00821552D01*
X00576840Y00815452D02*
X00578364Y00816976D01*
X00579888D01*
X00578364Y00818500D01*
X00579888Y00820024D01*
X00578364D01*
X00576840Y00821548D01*
X00575316Y00820024D01*
X00573792D01*
X00575316Y00818500D01*
X00573792Y00816976D01*
X00575316D01*
X00576840Y00815452D01*
X00548140Y00863552D02*
X00549664Y00865076D01*
X00551188D01*
X00549664Y00866600D01*
X00551188Y00868124D01*
X00549664D01*
X00548140Y00869648D01*
X00546616Y00868124D01*
X00545092D01*
X00546616Y00866600D01*
X00545092Y00865076D01*
X00546616D01*
X00548140Y00863552D01*
X00553040Y00905852D02*
X00554564Y00907376D01*
X00556088D01*
X00554564Y00908900D01*
X00556088Y00910424D01*
X00554564D01*
X00553040Y00911948D01*
X00551516Y00910424D01*
X00549992D01*
X00551516Y00908900D01*
X00549992Y00907376D01*
X00551516D01*
X00553040Y00905852D01*
X00518890Y00904552D02*
X00520414Y00906076D01*
X00521938D01*
X00520414Y00907600D01*
X00521938Y00909124D01*
X00520414D01*
X00518890Y00910648D01*
X00517366Y00909124D01*
X00515842D01*
X00517366Y00907600D01*
X00515842Y00906076D01*
X00517366D01*
X00518890Y00904552D01*
X00512140Y00855252D02*
X00513664Y00856776D01*
X00515188D01*
X00513664Y00858300D01*
X00515188Y00859824D01*
X00513664D01*
X00512140Y00861348D01*
X00510616Y00859824D01*
X00509092D01*
X00510616Y00858300D01*
X00509092Y00856776D01*
X00510616D01*
X00512140Y00855252D01*
X00557140Y00949552D02*
X00558664Y00951076D01*
X00560188D01*
X00558664Y00952600D01*
X00560188Y00954124D01*
X00558664D01*
X00557140Y00955648D01*
X00555616Y00954124D01*
X00554092D01*
X00555616Y00952600D01*
X00554092Y00951076D01*
X00555616D01*
X00557140Y00949552D01*
X00613140Y00927552D02*
X00614664Y00929076D01*
X00616188D01*
X00614664Y00930600D01*
X00616188Y00932124D01*
X00614664D01*
X00613140Y00933648D01*
X00611616Y00932124D01*
X00610092D01*
X00611616Y00930600D01*
X00610092Y00929076D01*
X00611616D01*
X00613140Y00927552D01*
Y00937552D02*
X00614664Y00939076D01*
X00616188D01*
X00614664Y00940600D01*
X00616188Y00942124D01*
X00614664D01*
X00613140Y00943648D01*
X00611616Y00942124D01*
X00610092D01*
X00611616Y00940600D01*
X00610092Y00939076D01*
X00611616D01*
X00613140Y00937552D01*
Y00947552D02*
X00614664Y00949076D01*
X00616188D01*
X00614664Y00950600D01*
X00616188Y00952124D01*
X00614664D01*
X00613140Y00953648D01*
X00611616Y00952124D01*
X00610092D01*
X00611616Y00950600D01*
X00610092Y00949076D01*
X00611616D01*
X00613140Y00947552D01*
X00640640Y00874552D02*
X00642164Y00876076D01*
X00643688D01*
X00642164Y00877600D01*
X00643688Y00879124D01*
X00642164D01*
X00640640Y00880648D01*
X00639116Y00879124D01*
X00637592D01*
X00639116Y00877600D01*
X00637592Y00876076D01*
X00639116D01*
X00640640Y00874552D01*
X00640390Y00864302D02*
X00641914Y00865826D01*
X00643438D01*
X00641914Y00867350D01*
X00643438Y00868874D01*
X00641914D01*
X00640390Y00870398D01*
X00638866Y00868874D01*
X00637342D01*
X00638866Y00867350D01*
X00637342Y00865826D01*
X00638866D01*
X00640390Y00864302D01*
X00581140Y00909552D02*
X00582664Y00911076D01*
X00584188D01*
X00582664Y00912600D01*
X00584188Y00914124D01*
X00582664D01*
X00581140Y00915648D01*
X00579616Y00914124D01*
X00578092D01*
X00579616Y00912600D01*
X00578092Y00911076D01*
X00579616D01*
X00581140Y00909552D01*
X00550340Y00928652D02*
X00551864Y00930176D01*
X00553388D01*
X00551864Y00931700D01*
X00553388Y00933224D01*
X00551864D01*
X00550340Y00934748D01*
X00548816Y00933224D01*
X00547292D01*
X00548816Y00931700D01*
X00547292Y00930176D01*
X00548816D01*
X00550340Y00928652D01*
X00522140Y00927552D02*
X00523664Y00929076D01*
X00525188D01*
X00523664Y00930600D01*
X00525188Y00932124D01*
X00523664D01*
X00522140Y00933648D01*
X00520616Y00932124D01*
X00519092D01*
X00520616Y00930600D01*
X00519092Y00929076D01*
X00520616D01*
X00522140Y00927552D01*
X00560140Y00867552D02*
X00561664Y00869076D01*
X00563188D01*
X00561664Y00870600D01*
X00563188Y00872124D01*
X00561664D01*
X00560140Y00873648D01*
X00558616Y00872124D01*
X00557092D01*
X00558616Y00870600D01*
X00557092Y00869076D01*
X00558616D01*
X00560140Y00867552D01*
X00599320Y00867292D02*
X00600844Y00868816D01*
X00602368D01*
X00600844Y00870340D01*
X00602368Y00871864D01*
X00600844D01*
X00599320Y00873388D01*
X00597796Y00871864D01*
X00596272D01*
X00597796Y00870340D01*
X00596272Y00868816D01*
X00597796D01*
X00599320Y00867292D01*
X00538140Y00863552D02*
X00539664Y00865076D01*
X00541188D01*
X00539664Y00866600D01*
X00541188Y00868124D01*
X00539664D01*
X00538140Y00869648D01*
X00536616Y00868124D01*
X00535092D01*
X00536616Y00866600D01*
X00535092Y00865076D01*
X00536616D01*
X00538140Y00863552D01*
X00529140Y00954552D02*
X00530664Y00956076D01*
X00532188D01*
X00530664Y00957600D01*
X00532188Y00959124D01*
X00530664D01*
X00529140Y00960648D01*
X00527616Y00959124D01*
X00526092D01*
X00527616Y00957600D01*
X00526092Y00956076D01*
X00527616D01*
X00529140Y00954552D01*
X00546340Y00949452D02*
X00547864Y00950976D01*
X00549388D01*
X00547864Y00952500D01*
X00549388Y00954024D01*
X00547864D01*
X00546340Y00955548D01*
X00544816Y00954024D01*
X00543292D01*
X00544816Y00952500D01*
X00543292Y00950976D01*
X00544816D01*
X00546340Y00949452D01*
X00539336Y00954624D02*
X00540860Y00956148D01*
X00542384D01*
X00540860Y00957672D01*
X00542384Y00959196D01*
X00540860D01*
X00539336Y00960720D01*
X00537812Y00959196D01*
X00536288D01*
X00537812Y00957672D01*
X00536288Y00956148D01*
X00537812D01*
X00539336Y00954624D01*
X00538140Y00873552D02*
X00539664Y00875076D01*
X00541188D01*
X00539664Y00876600D01*
X00541188Y00878124D01*
X00539664D01*
X00538140Y00879648D01*
X00536616Y00878124D01*
X00535092D01*
X00536616Y00876600D01*
X00535092Y00875076D01*
X00536616D01*
X00538140Y00873552D01*
Y00882552D02*
X00539664Y00884076D01*
X00541188D01*
X00539664Y00885600D01*
X00541188Y00887124D01*
X00539664D01*
X00538140Y00888648D01*
X00536616Y00887124D01*
X00535092D01*
X00536616Y00885600D01*
X00535092Y00884076D01*
X00536616D01*
X00538140Y00882552D01*
X00569640Y00922552D02*
X00571164Y00924076D01*
X00572688D01*
X00571164Y00925600D01*
X00572688Y00927124D01*
X00571164D01*
X00569640Y00928648D01*
X00568116Y00927124D01*
X00566592D01*
X00568116Y00925600D01*
X00566592Y00924076D01*
X00568116D01*
X00569640Y00922552D01*
X00615140Y00917552D02*
X00616664Y00919076D01*
X00618188D01*
X00616664Y00920600D01*
X00618188Y00922124D01*
X00616664D01*
X00615140Y00923648D01*
X00613616Y00922124D01*
X00612092D01*
X00613616Y00920600D01*
X00612092Y00919076D01*
X00613616D01*
X00615140Y00917552D01*
X00554948Y00941447D02*
X00556472Y00942971D01*
X00557996D01*
X00556472Y00944495D01*
X00557996Y00946019D01*
X00556472D01*
X00554948Y00947543D01*
X00553424Y00946019D01*
X00551900D01*
X00553424Y00944495D01*
X00551900Y00942971D01*
X00553424D01*
X00554948Y00941447D01*
X00536303Y00918231D02*
X00537827Y00919755D01*
X00539351D01*
X00537827Y00921279D01*
X00539351Y00922803D01*
X00537827D01*
X00536303Y00924327D01*
X00534779Y00922803D01*
X00533255D01*
X00534779Y00921279D01*
X00533255Y00919755D01*
X00534779D01*
X00536303Y00918231D01*
X00610490Y00878302D02*
X00612014Y00879826D01*
X00613538D01*
X00612014Y00881350D01*
X00613538Y00882874D01*
X00612014D01*
X00610490Y00884398D01*
X00608966Y00882874D01*
X00607442D01*
X00608966Y00881350D01*
X00607442Y00879826D01*
X00608966D01*
X00610490Y00878302D01*
X00587890D02*
X00589414Y00879826D01*
X00590938D01*
X00589414Y00881350D01*
X00590938Y00882874D01*
X00589414D01*
X00587890Y00884398D01*
X00586366Y00882874D01*
X00584842D01*
X00586366Y00881350D01*
X00584842Y00879826D01*
X00586366D01*
X00587890Y00878302D01*
X00599390D02*
X00600914Y00879826D01*
X00602438D01*
X00600914Y00881350D01*
X00602438Y00882874D01*
X00600914D01*
X00599390Y00884398D01*
X00597866Y00882874D01*
X00596342D01*
X00597866Y00881350D01*
X00596342Y00879826D01*
X00597866D01*
X00599390Y00878302D01*
Y00856302D02*
X00600914Y00857826D01*
X00602438D01*
X00600914Y00859350D01*
X00602438Y00860874D01*
X00600914D01*
X00599390Y00862398D01*
X00597866Y00860874D01*
X00596342D01*
X00597866Y00859350D01*
X00596342Y00857826D01*
X00597866D01*
X00599390Y00856302D01*
X00587890Y00856502D02*
X00589414Y00858026D01*
X00590938D01*
X00589414Y00859550D01*
X00590938Y00861074D01*
X00589414D01*
X00587890Y00862598D01*
X00586366Y00861074D01*
X00584842D01*
X00586366Y00859550D01*
X00584842Y00858026D01*
X00586366D01*
X00587890Y00856502D01*
X00610490Y00856302D02*
X00612014Y00857826D01*
X00613538D01*
X00612014Y00859350D01*
X00613538Y00860874D01*
X00612014D01*
X00610490Y00862398D01*
X00608966Y00860874D01*
X00607442D01*
X00608966Y00859350D01*
X00607442Y00857826D01*
X00608966D01*
X00610490Y00856302D01*
X00587890Y00867302D02*
X00589414Y00868826D01*
X00590938D01*
X00589414Y00870350D01*
X00590938Y00871874D01*
X00589414D01*
X00587890Y00873398D01*
X00586366Y00871874D01*
X00584842D01*
X00586366Y00870350D01*
X00584842Y00868826D01*
X00586366D01*
X00587890Y00867302D01*
X00610490D02*
X00612014Y00868826D01*
X00613538D01*
X00612014Y00870350D01*
X00613538Y00871874D01*
X00612014D01*
X00610490Y00873398D01*
X00608966Y00871874D01*
X00607442D01*
X00608966Y00870350D01*
X00607442Y00868826D01*
X00608966D01*
X00610490Y00867302D01*
X00523092Y00896252D02*
X00524616Y00899300D01*
X00523092Y00902348D01*
X00526140Y00900824D01*
X00529188Y00902348D01*
X00527664Y00899300D01*
X00529188Y00896252D01*
X00526140Y00897776D01*
X00523092Y00896252D01*
X00662890Y00940052D02*
X00664414Y00941576D01*
X00665938D01*
X00664414Y00943100D01*
X00665938Y00944624D01*
X00664414D01*
X00662890Y00946148D01*
X00661366Y00944624D01*
X00659842D01*
X00661366Y00943100D01*
X00659842Y00941576D01*
X00661366D01*
X00662890Y00940052D01*
X00654140Y00863552D02*
X00655664Y00865076D01*
X00657188D01*
X00655664Y00866600D01*
X00657188Y00868124D01*
X00655664D01*
X00654140Y00869648D01*
X00652616Y00868124D01*
X00651092D01*
X00652616Y00866600D01*
X00651092Y00865076D01*
X00652616D01*
X00654140Y00863552D01*
X00633390Y00921302D02*
X00634914Y00922826D01*
X00636438D01*
X00634914Y00924350D01*
X00636438Y00925874D01*
X00634914D01*
X00633390Y00927398D01*
X00631866Y00925874D01*
X00630342D01*
X00631866Y00924350D01*
X00630342Y00922826D01*
X00631866D01*
X00633390Y00921302D01*
X00664640Y00887552D02*
X00666164Y00889076D01*
X00667688D01*
X00666164Y00890600D01*
X00667688Y00892124D01*
X00666164D01*
X00664640Y00893648D01*
X00663116Y00892124D01*
X00661592D01*
X00663116Y00890600D01*
X00661592Y00889076D01*
X00663116D01*
X00664640Y00887552D01*
X00655640Y00934552D02*
X00657164Y00936076D01*
X00658688D01*
X00657164Y00937600D01*
X00658688Y00939124D01*
X00657164D01*
X00655640Y00940648D01*
X00654116Y00939124D01*
X00652592D01*
X00654116Y00937600D01*
X00652592Y00936076D01*
X00654116D01*
X00655640Y00934552D01*
X00659390Y00947302D02*
X00660914Y00948826D01*
X00662438D01*
X00660914Y00950350D01*
X00662438Y00951874D01*
X00660914D01*
X00659390Y00953398D01*
X00657866Y00951874D01*
X00656342D01*
X00657866Y00950350D01*
X00656342Y00948826D01*
X00657866D01*
X00659390Y00947302D01*
X00633890Y00950052D02*
X00635414Y00951576D01*
X00636938D01*
X00635414Y00953100D01*
X00636938Y00954624D01*
X00635414D01*
X00633890Y00956148D01*
X00632366Y00954624D01*
X00630842D01*
X00632366Y00953100D01*
X00630842Y00951576D01*
X00632366D01*
X00633890Y00950052D01*
X00628640Y00938302D02*
X00630164Y00939826D01*
X00631688D01*
X00630164Y00941350D01*
X00631688Y00942874D01*
X00630164D01*
X00628640Y00944398D01*
X00627116Y00942874D01*
X00625592D01*
X00627116Y00941350D01*
X00625592Y00939826D01*
X00627116D01*
X00628640Y00938302D01*
X00602890Y00819552D02*
X00604414Y00821076D01*
X00605938D01*
X00604414Y00822600D01*
X00605938Y00824124D01*
X00604414D01*
X00602890Y00825648D01*
X00601366Y00824124D01*
X00599842D01*
X00601366Y00822600D01*
X00599842Y00821076D01*
X00601366D01*
X00602890Y00819552D01*
X00521140Y00807552D02*
X00522664Y00809076D01*
X00524188D01*
X00522664Y00810600D01*
X00524188Y00812124D01*
X00522664D01*
X00521140Y00813648D01*
X00519616Y00812124D01*
X00518092D01*
X00519616Y00810600D01*
X00518092Y00809076D01*
X00519616D01*
X00521140Y00807552D01*
Y00817552D02*
X00522664Y00819076D01*
X00524188D01*
X00522664Y00820600D01*
X00524188Y00822124D01*
X00522664D01*
X00521140Y00823648D01*
X00519616Y00822124D01*
X00518092D01*
X00519616Y00820600D01*
X00518092Y00819076D01*
X00519616D01*
X00521140Y00817552D01*
Y00827552D02*
X00522664Y00829076D01*
X00524188D01*
X00522664Y00830600D01*
X00524188Y00832124D01*
X00522664D01*
X00521140Y00833648D01*
X00519616Y00832124D01*
X00518092D01*
X00519616Y00830600D01*
X00518092Y00829076D01*
X00519616D01*
X00521140Y00827552D01*
Y00836552D02*
X00522664Y00838076D01*
X00524188D01*
X00522664Y00839600D01*
X00524188Y00841124D01*
X00522664D01*
X00521140Y00842648D01*
X00519616Y00841124D01*
X00518092D01*
X00519616Y00839600D01*
X00518092Y00838076D01*
X00519616D01*
X00521140Y00836552D01*
X00531140D02*
X00532664Y00838076D01*
X00534188D01*
X00532664Y00839600D01*
X00534188Y00841124D01*
X00532664D01*
X00531140Y00842648D01*
X00529616Y00841124D01*
X00528092D01*
X00529616Y00839600D01*
X00528092Y00838076D01*
X00529616D01*
X00531140Y00836552D01*
X00552740Y00848052D02*
X00554264Y00849576D01*
X00555788D01*
X00554264Y00851100D01*
X00555788Y00852624D01*
X00554264D01*
X00552740Y00854148D01*
X00551216Y00852624D01*
X00549692D01*
X00551216Y00851100D01*
X00549692Y00849576D01*
X00551216D01*
X00552740Y00848052D01*
X00531140Y00827552D02*
X00532664Y00829076D01*
X00534188D01*
X00532664Y00830600D01*
X00534188Y00832124D01*
X00532664D01*
X00531140Y00833648D01*
X00529616Y00832124D01*
X00528092D01*
X00529616Y00830600D01*
X00528092Y00829076D01*
X00529616D01*
X00531140Y00827552D01*
Y00817552D02*
X00532664Y00819076D01*
X00534188D01*
X00532664Y00820600D01*
X00534188Y00822124D01*
X00532664D01*
X00531140Y00823648D01*
X00529616Y00822124D01*
X00528092D01*
X00529616Y00820600D01*
X00528092Y00819076D01*
X00529616D01*
X00531140Y00817552D01*
Y00807552D02*
X00532664Y00809076D01*
X00534188D01*
X00532664Y00810600D01*
X00534188Y00812124D01*
X00532664D01*
X00531140Y00813648D01*
X00529616Y00812124D01*
X00528092D01*
X00529616Y00810600D01*
X00528092Y00809076D01*
X00529616D01*
X00531140Y00807552D01*
X00541140Y00817552D02*
X00542664Y00819076D01*
X00544188D01*
X00542664Y00820600D01*
X00544188Y00822124D01*
X00542664D01*
X00541140Y00823648D01*
X00539616Y00822124D01*
X00538092D01*
X00539616Y00820600D01*
X00538092Y00819076D01*
X00539616D01*
X00541140Y00817552D01*
Y00827552D02*
X00542664Y00829076D01*
X00544188D01*
X00542664Y00830600D01*
X00544188Y00832124D01*
X00542664D01*
X00541140Y00833648D01*
X00539616Y00832124D01*
X00538092D01*
X00539616Y00830600D01*
X00538092Y00829076D01*
X00539616D01*
X00541140Y00827552D01*
Y00836552D02*
X00542664Y00838076D01*
X00544188D01*
X00542664Y00839600D01*
X00544188Y00841124D01*
X00542664D01*
X00541140Y00842648D01*
X00539616Y00841124D01*
X00538092D01*
X00539616Y00839600D01*
X00538092Y00838076D01*
X00539616D01*
X00541140Y00836552D01*
X00630840Y00814752D02*
X00632364Y00816276D01*
X00633888D01*
X00632364Y00817800D01*
X00633888Y00819324D01*
X00632364D01*
X00630840Y00820848D01*
X00629316Y00819324D01*
X00627792D01*
X00629316Y00817800D01*
X00627792Y00816276D01*
X00629316D01*
X00630840Y00814752D01*
X00651140Y00813552D02*
X00652664Y00815076D01*
X00654188D01*
X00652664Y00816600D01*
X00654188Y00818124D01*
X00652664D01*
X00651140Y00819648D01*
X00649616Y00818124D01*
X00648092D01*
X00649616Y00816600D01*
X00648092Y00815076D01*
X00649616D01*
X00651140Y00813552D01*
X00629140Y00838552D02*
X00630664Y00840076D01*
X00632188D01*
X00630664Y00841600D01*
X00632188Y00843124D01*
X00630664D01*
X00629140Y00844648D01*
X00627616Y00843124D01*
X00626092D01*
X00627616Y00841600D01*
X00626092Y00840076D01*
X00627616D01*
X00629140Y00838552D01*
X00656140D02*
X00657664Y00840076D01*
X00659188D01*
X00657664Y00841600D01*
X00659188Y00843124D01*
X00657664D01*
X00656140Y00844648D01*
X00654616Y00843124D01*
X00653092D01*
X00654616Y00841600D01*
X00653092Y00840076D01*
X00654616D01*
X00656140Y00838552D01*
X00674140Y00834552D02*
X00675664Y00836076D01*
X00677188D01*
X00675664Y00837600D01*
X00677188Y00839124D01*
X00675664D01*
X00674140Y00840648D01*
X00672616Y00839124D01*
X00671092D01*
X00672616Y00837600D01*
X00671092Y00836076D01*
X00672616D01*
X00674140Y00834552D01*
X00654140Y00852552D02*
X00655664Y00854076D01*
X00657188D01*
X00655664Y00855600D01*
X00657188Y00857124D01*
X00655664D01*
X00654140Y00858648D01*
X00652616Y00857124D01*
X00651092D01*
X00652616Y00855600D01*
X00651092Y00854076D01*
X00652616D01*
X00654140Y00852552D01*
Y00874552D02*
X00655664Y00876076D01*
X00657188D01*
X00655664Y00877600D01*
X00657188Y00879124D01*
X00655664D01*
X00654140Y00880648D01*
X00652616Y00879124D01*
X00651092D01*
X00652616Y00877600D01*
X00651092Y00876076D01*
X00652616D01*
X00654140Y00874552D01*
X00530140Y00863552D02*
X00531664Y00865076D01*
X00533188D01*
X00531664Y00866600D01*
X00533188Y00868124D01*
X00531664D01*
X00530140Y00869648D01*
X00528616Y00868124D01*
X00527092D01*
X00528616Y00866600D01*
X00527092Y00865076D01*
X00528616D01*
X00530140Y00863552D01*
Y00873552D02*
X00531664Y00875076D01*
X00533188D01*
X00531664Y00876600D01*
X00533188Y00878124D01*
X00531664D01*
X00530140Y00879648D01*
X00528616Y00878124D01*
X00527092D01*
X00528616Y00876600D01*
X00527092Y00875076D01*
X00528616D01*
X00530140Y00873552D01*
Y00882552D02*
X00531664Y00884076D01*
X00533188D01*
X00531664Y00885600D01*
X00533188Y00887124D01*
X00531664D01*
X00530140Y00888648D01*
X00528616Y00887124D01*
X00527092D01*
X00528616Y00885600D01*
X00527092Y00884076D01*
X00528616D01*
X00530140Y00882552D01*
X00520140D02*
X00521664Y00884076D01*
X00523188D01*
X00521664Y00885600D01*
X00523188Y00887124D01*
X00521664D01*
X00520140Y00888648D01*
X00518616Y00887124D01*
X00517092D01*
X00518616Y00885600D01*
X00517092Y00884076D01*
X00518616D01*
X00520140Y00882552D01*
Y00873552D02*
X00521664Y00875076D01*
X00523188D01*
X00521664Y00876600D01*
X00523188Y00878124D01*
X00521664D01*
X00520140Y00879648D01*
X00518616Y00878124D01*
X00517092D01*
X00518616Y00876600D01*
X00517092Y00875076D01*
X00518616D01*
X00520140Y00873552D01*
Y00863552D02*
X00521664Y00865076D01*
X00523188D01*
X00521664Y00866600D01*
X00523188Y00868124D01*
X00521664D01*
X00520140Y00869648D01*
X00518616Y00868124D01*
X00517092D01*
X00518616Y00866600D01*
X00517092Y00865076D01*
X00518616D01*
X00520140Y00863552D01*
X00539140Y00926552D02*
X00540664Y00928076D01*
X00542188D01*
X00540664Y00929600D01*
X00542188Y00931124D01*
X00540664D01*
X00539140Y00932648D01*
X00537616Y00931124D01*
X00536092D01*
X00537616Y00929600D01*
X00536092Y00928076D01*
X00537616D01*
X00539140Y00926552D01*
Y00936552D02*
X00540664Y00938076D01*
X00542188D01*
X00540664Y00939600D01*
X00542188Y00941124D01*
X00540664D01*
X00539140Y00942648D01*
X00537616Y00941124D01*
X00536092D01*
X00537616Y00939600D01*
X00536092Y00938076D01*
X00537616D01*
X00539140Y00936552D01*
Y00945552D02*
X00540664Y00947076D01*
X00542188D01*
X00540664Y00948600D01*
X00542188Y00950124D01*
X00540664D01*
X00539140Y00951648D01*
X00537616Y00950124D01*
X00536092D01*
X00537616Y00948600D01*
X00536092Y00947076D01*
X00537616D01*
X00539140Y00945552D01*
X00529140D02*
X00530664Y00947076D01*
X00532188D01*
X00530664Y00948600D01*
X00532188Y00950124D01*
X00530664D01*
X00529140Y00951648D01*
X00527616Y00950124D01*
X00526092D01*
X00527616Y00948600D01*
X00526092Y00947076D01*
X00527616D01*
X00529140Y00945552D01*
Y00936552D02*
X00530664Y00938076D01*
X00532188D01*
X00530664Y00939600D01*
X00532188Y00941124D01*
X00530664D01*
X00529140Y00942648D01*
X00527616Y00941124D01*
X00526092D01*
X00527616Y00939600D01*
X00526092Y00938076D01*
X00527616D01*
X00529140Y00936552D01*
Y00926552D02*
X00530664Y00928076D01*
X00532188D01*
X00530664Y00929600D01*
X00532188Y00931124D01*
X00530664D01*
X00529140Y00932648D01*
X00527616Y00931124D01*
X00526092D01*
X00527616Y00929600D01*
X00526092Y00928076D01*
X00527616D01*
X00529140Y00926552D01*
X00519140Y00964552D02*
X00520664Y00966076D01*
X00522188D01*
X00520664Y00967600D01*
X00522188Y00969124D01*
X00520664D01*
X00519140Y00970648D01*
X00517616Y00969124D01*
X00516092D01*
X00517616Y00967600D01*
X00516092Y00966076D01*
X00517616D01*
X00519140Y00964552D01*
Y00954552D02*
X00520664Y00956076D01*
X00522188D01*
X00520664Y00957600D01*
X00522188Y00959124D01*
X00520664D01*
X00519140Y00960648D01*
X00517616Y00959124D01*
X00516092D01*
X00517616Y00957600D01*
X00516092Y00956076D01*
X00517616D01*
X00519140Y00954552D01*
Y00945552D02*
X00520664Y00947076D01*
X00522188D01*
X00520664Y00948600D01*
X00522188Y00950124D01*
X00520664D01*
X00519140Y00951648D01*
X00517616Y00950124D01*
X00516092D01*
X00517616Y00948600D01*
X00516092Y00947076D01*
X00517616D01*
X00519140Y00945552D01*
Y00936552D02*
X00520664Y00938076D01*
X00522188D01*
X00520664Y00939600D01*
X00522188Y00941124D01*
X00520664D01*
X00519140Y00942648D01*
X00517616Y00941124D01*
X00516092D01*
X00517616Y00939600D01*
X00516092Y00938076D01*
X00517616D01*
X00519140Y00936552D01*
X00587840Y00953052D02*
X00589364Y00954576D01*
X00590888D01*
X00589364Y00956100D01*
X00590888Y00957624D01*
X00589364D01*
X00587840Y00959148D01*
X00586316Y00957624D01*
X00584792D01*
X00586316Y00956100D01*
X00584792Y00954576D01*
X00586316D01*
X00587840Y00953052D01*
X00549140Y00883752D02*
X00550664Y00885276D01*
X00552188D01*
X00550664Y00886800D01*
X00552188Y00888324D01*
X00550664D01*
X00549140Y00889848D01*
X00547616Y00888324D01*
X00546092D01*
X00547616Y00886800D01*
X00546092Y00885276D01*
X00547616D01*
X00549140Y00883752D01*
X00562640Y00916802D02*
X00564164Y00918326D01*
X00565688D01*
X00564164Y00919850D01*
X00565688Y00921374D01*
X00564164D01*
X00562640Y00922898D01*
X00561116Y00921374D01*
X00559592D01*
X00561116Y00919850D01*
X00559592Y00918326D01*
X00561116D01*
X00562640Y00916802D01*
X00541092Y00896252D02*
X00542616Y00899300D01*
X00541092Y00902348D01*
X00544140Y00900824D01*
X00547188Y00902348D01*
X00545664Y00899300D01*
X00547188Y00896252D01*
X00544140Y00897776D01*
X00541092Y00896252D01*
X00549140Y00936452D02*
X00550664Y00937976D01*
X00552188D01*
X00550664Y00939500D01*
X00552188Y00941024D01*
X00550664D01*
X00549140Y00942548D01*
X00547616Y00941024D01*
X00546092D01*
X00547616Y00939500D01*
X00546092Y00937976D01*
X00547616D01*
X00549140Y00936452D01*
X00640540Y00958952D02*
X00642064Y00960476D01*
X00643588D01*
X00642064Y00962000D01*
X00643588Y00963524D01*
X00642064D01*
X00640540Y00965048D01*
X00639016Y00963524D01*
X00637492D01*
X00639016Y00962000D01*
X00637492Y00960476D01*
X00639016D01*
X00640540Y00958952D01*
Y00945652D02*
X00642064Y00947176D01*
X00643588D01*
X00642064Y00948700D01*
X00643588Y00950224D01*
X00642064D01*
X00640540Y00951748D01*
X00639016Y00950224D01*
X00637492D01*
X00639016Y00948700D01*
X00637492Y00947176D01*
X00639016D01*
X00640540Y00945652D01*
X00562640Y00956752D02*
X00564164Y00958276D01*
X00565688D01*
X00564164Y00959800D01*
X00565688Y00961324D01*
X00564164D01*
X00562640Y00962848D01*
X00561116Y00961324D01*
X00559592D01*
X00561116Y00959800D01*
X00559592Y00958276D01*
X00561116D01*
X00562640Y00956752D01*
X00624240Y00910652D02*
X00625764Y00912176D01*
X00627288D01*
X00625764Y00913700D01*
X00627288Y00915224D01*
X00625764D01*
X00624240Y00916748D01*
X00622716Y00915224D01*
X00621192D01*
X00622716Y00913700D01*
X00621192Y00912176D01*
X00622716D01*
X00624240Y00910652D01*
X00663440Y00834752D02*
X00664964Y00836276D01*
X00666488D01*
X00664964Y00837800D01*
X00666488Y00839324D01*
X00664964D01*
X00663440Y00840848D01*
X00661916Y00839324D01*
X00660392D01*
X00661916Y00837800D01*
X00660392Y00836276D01*
X00661916D01*
X00663440Y00834752D01*
X00623840Y00921152D02*
X00625364Y00922676D01*
X00626888D01*
X00625364Y00924200D01*
X00626888Y00925724D01*
X00625364D01*
X00623840Y00927248D01*
X00622316Y00925724D01*
X00620792D01*
X00622316Y00924200D01*
X00620792Y00922676D01*
X00622316D01*
X00623840Y00921152D01*
X00675140Y00861552D02*
X00676664Y00863076D01*
X00678188D01*
X00676664Y00864600D01*
X00678188Y00866124D01*
X00676664D01*
X00675140Y00867648D01*
X00673616Y00866124D01*
X00672092D01*
X00673616Y00864600D01*
X00672092Y00863076D01*
X00673616D01*
X00675140Y00861552D01*
D65*
X00692938Y00981350D02*
G03*
X00692938Y00981350I-00003048J00000000D01*
G01*
Y00799850D02*
G03*
X00692938Y00799850I-00003048J00000000D01*
G01*
X00436438D02*
G03*
X00436438Y00799850I-00003048J00000000D01*
G01*
Y00981350D02*
G03*
X00436438Y00981350I-00003048J00000000D01*
G01*
M02*
